%TF.GenerationSoftware,KiCad,Pcbnew,(5.1.10)-1*%
%TF.CreationDate,2021-06-02T05:44:33-04:00*%
%TF.ProjectId,pi75-plate,70693735-2d70-46c6-9174-652e6b696361,rev?*%
%TF.SameCoordinates,Original*%
%TF.FileFunction,Soldermask,Top*%
%TF.FilePolarity,Negative*%
%FSLAX46Y46*%
G04 Gerber Fmt 4.6, Leading zero omitted, Abs format (unit mm)*
G04 Created by KiCad (PCBNEW (5.1.10)-1) date 2021-06-02 05:44:33*
%MOMM*%
%LPD*%
G01*
G04 APERTURE LIST*
%TA.AperFunction,Profile*%
%ADD10C,0.050000*%
%TD*%
%TA.AperFunction,Profile*%
%ADD11C,0.200000*%
%TD*%
%ADD12C,4.400000*%
G04 APERTURE END LIST*
D10*
X301625000Y-43218100D02*
X301625000Y-156629100D01*
X297815000Y-39408100D02*
X-12052300Y-39408100D01*
X-12052300Y-160439100D02*
G75*
G02*
X-15862300Y-156629100I0J3810000D01*
G01*
X297815000Y-39408100D02*
G75*
G02*
X301625000Y-43218100I0J-3810000D01*
G01*
X301625000Y-156629100D02*
G75*
G02*
X297815000Y-160439100I-3810000J0D01*
G01*
X-15862300Y-43218100D02*
G75*
G02*
X-12052300Y-39408100I3810000J0D01*
G01*
X-15862300Y-43218100D02*
X-15862300Y-156629100D01*
X297815000Y-160439100D02*
X-12052300Y-160439100D01*
D11*
X5405400Y-155227301D02*
G75*
G02*
X4405400Y-156227301I-1000000J0D01*
G01*
X-8594600Y-143227300D02*
G75*
G02*
X-7594600Y-142227300I1000000J0D01*
G01*
X-7594600Y-156227301D02*
G75*
G02*
X-8594600Y-155227301I0J1000000D01*
G01*
X-7594600Y-142227301D02*
X4405400Y-142227301D01*
X-8594600Y-143227300D02*
X-8594600Y-155227301D01*
X-7594600Y-156227300D02*
X4405400Y-156227300D01*
X4405400Y-142227300D02*
G75*
G02*
X5405400Y-143227300I0J-1000000D01*
G01*
X5405400Y-143227300D02*
X5405400Y-155227301D01*
X29230600Y-155227301D02*
G75*
G02*
X28230600Y-156227301I-1000000J0D01*
G01*
X15230600Y-143227300D02*
G75*
G02*
X16230600Y-142227300I1000000J0D01*
G01*
X16230600Y-156227301D02*
G75*
G02*
X15230600Y-155227301I0J1000000D01*
G01*
X16230600Y-142227301D02*
X28230600Y-142227301D01*
X15230600Y-143227300D02*
X15230600Y-155227301D01*
X16230600Y-156227300D02*
X28230600Y-156227300D01*
X28230600Y-142227300D02*
G75*
G02*
X29230600Y-143227300I0J-1000000D01*
G01*
X29230600Y-143227300D02*
X29230600Y-155227301D01*
X53030400Y-155227301D02*
G75*
G02*
X52030400Y-156227301I-1000000J0D01*
G01*
X39030400Y-143227300D02*
G75*
G02*
X40030400Y-142227300I1000000J0D01*
G01*
X40030400Y-156227301D02*
G75*
G02*
X39030400Y-155227301I0J1000000D01*
G01*
X40030400Y-142227301D02*
X52030400Y-142227301D01*
X39030400Y-143227300D02*
X39030400Y-155227301D01*
X40030400Y-156227300D02*
X52030400Y-156227300D01*
X52030400Y-142227300D02*
G75*
G02*
X53030400Y-143227300I0J-1000000D01*
G01*
X53030400Y-143227300D02*
X53030400Y-155227301D01*
X124480600Y-155227301D02*
G75*
G02*
X123480600Y-156227301I-1000000J0D01*
G01*
X110480600Y-143227300D02*
G75*
G02*
X111480600Y-142227300I1000000J0D01*
G01*
X111480600Y-156227301D02*
G75*
G02*
X110480600Y-155227301I0J1000000D01*
G01*
X111480600Y-142227301D02*
X123480600Y-142227301D01*
X110480600Y-143227300D02*
X110480600Y-155227301D01*
X111480600Y-156227300D02*
X123480600Y-156227300D01*
X123480600Y-142227300D02*
G75*
G02*
X124480600Y-143227300I0J-1000000D01*
G01*
X124480600Y-143227300D02*
X124480600Y-155227301D01*
X198267600Y-155227301D02*
G75*
G02*
X197267600Y-156227301I-1000000J0D01*
G01*
X184267600Y-143227300D02*
G75*
G02*
X185267600Y-142227300I1000000J0D01*
G01*
X185267600Y-156227301D02*
G75*
G02*
X184267600Y-155227301I0J1000000D01*
G01*
X185267600Y-142227301D02*
X197267600Y-142227301D01*
X184267600Y-143227300D02*
X184267600Y-155227301D01*
X185267600Y-156227300D02*
X197267600Y-156227300D01*
X197267600Y-142227300D02*
G75*
G02*
X198267600Y-143227300I0J-1000000D01*
G01*
X198267600Y-143227300D02*
X198267600Y-155227301D01*
X226842600Y-155227301D02*
G75*
G02*
X225842600Y-156227301I-1000000J0D01*
G01*
X212842600Y-143227300D02*
G75*
G02*
X213842600Y-142227300I1000000J0D01*
G01*
X213842600Y-156227301D02*
G75*
G02*
X212842600Y-155227301I0J1000000D01*
G01*
X213842600Y-142227301D02*
X225842600Y-142227301D01*
X212842600Y-143227300D02*
X212842600Y-155227301D01*
X213842600Y-156227300D02*
X225842600Y-156227300D01*
X225842600Y-142227300D02*
G75*
G02*
X226842600Y-143227300I0J-1000000D01*
G01*
X226842600Y-143227300D02*
X226842600Y-155227301D01*
X258592600Y-155227301D02*
G75*
G02*
X257592600Y-156227301I-1000000J0D01*
G01*
X244592600Y-143227300D02*
G75*
G02*
X245592600Y-142227300I1000000J0D01*
G01*
X245592600Y-156227301D02*
G75*
G02*
X244592600Y-155227301I0J1000000D01*
G01*
X245592600Y-142227301D02*
X257592600Y-142227301D01*
X244592600Y-143227300D02*
X244592600Y-155227301D01*
X245592600Y-156227300D02*
X257592600Y-156227300D01*
X257592600Y-142227300D02*
G75*
G02*
X258592600Y-143227300I0J-1000000D01*
G01*
X258592600Y-143227300D02*
X258592600Y-155227301D01*
X277642600Y-155227301D02*
G75*
G02*
X276642600Y-156227301I-1000000J0D01*
G01*
X263642600Y-143227300D02*
G75*
G02*
X264642600Y-142227300I1000000J0D01*
G01*
X264642600Y-156227301D02*
G75*
G02*
X263642600Y-155227301I0J1000000D01*
G01*
X264642600Y-142227301D02*
X276642600Y-142227301D01*
X263642600Y-143227300D02*
X263642600Y-155227301D01*
X264642600Y-156227300D02*
X276642600Y-156227300D01*
X276642600Y-142227300D02*
G75*
G02*
X277642600Y-143227300I0J-1000000D01*
G01*
X277642600Y-143227300D02*
X277642600Y-155227301D01*
X296718000Y-155227301D02*
G75*
G02*
X295718000Y-156227301I-1000000J0D01*
G01*
X282718000Y-143227300D02*
G75*
G02*
X283718000Y-142227300I1000000J0D01*
G01*
X283718000Y-156227301D02*
G75*
G02*
X282718000Y-155227301I0J1000000D01*
G01*
X283718000Y-142227301D02*
X295718000Y-142227301D01*
X282718000Y-143227300D02*
X282718000Y-155227301D01*
X283718000Y-156227300D02*
X295718000Y-156227300D01*
X295718000Y-142227300D02*
G75*
G02*
X296718000Y-143227300I0J-1000000D01*
G01*
X296718000Y-143227300D02*
X296718000Y-155227301D01*
X296718000Y-136177301D02*
G75*
G02*
X295718000Y-137177301I-1000000J0D01*
G01*
X282718000Y-124177300D02*
G75*
G02*
X283718000Y-123177300I1000000J0D01*
G01*
X283718000Y-137177301D02*
G75*
G02*
X282718000Y-136177301I0J1000000D01*
G01*
X283718000Y-123177301D02*
X295718000Y-123177301D01*
X282718000Y-124177300D02*
X282718000Y-136177301D01*
X283718000Y-137177300D02*
X295718000Y-137177300D01*
X295718000Y-123177300D02*
G75*
G02*
X296718000Y-124177300I0J-1000000D01*
G01*
X296718000Y-124177300D02*
X296718000Y-136177301D01*
X277668000Y-136177301D02*
G75*
G02*
X276668000Y-137177301I-1000000J0D01*
G01*
X263668000Y-124177300D02*
G75*
G02*
X264668000Y-123177300I1000000J0D01*
G01*
X264668000Y-137177301D02*
G75*
G02*
X263668000Y-136177301I0J1000000D01*
G01*
X264668000Y-123177301D02*
X276668000Y-123177301D01*
X263668000Y-124177300D02*
X263668000Y-136177301D01*
X264668000Y-137177300D02*
X276668000Y-137177300D01*
X276668000Y-123177300D02*
G75*
G02*
X277668000Y-124177300I0J-1000000D01*
G01*
X277668000Y-124177300D02*
X277668000Y-136177301D01*
X247518200Y-136177301D02*
G75*
G02*
X246518200Y-137177301I-1000000J0D01*
G01*
X233518200Y-124177300D02*
G75*
G02*
X234518200Y-123177300I1000000J0D01*
G01*
X234518200Y-137177301D02*
G75*
G02*
X233518200Y-136177301I0J1000000D01*
G01*
X234518200Y-123177301D02*
X246518200Y-123177301D01*
X233518200Y-124177300D02*
X233518200Y-136177301D01*
X234518200Y-137177300D02*
X246518200Y-137177300D01*
X246518200Y-123177300D02*
G75*
G02*
X247518200Y-124177300I0J-1000000D01*
G01*
X247518200Y-124177300D02*
X247518200Y-136177301D01*
X217343000Y-136177301D02*
G75*
G02*
X216343000Y-137177301I-1000000J0D01*
G01*
X203343000Y-124177300D02*
G75*
G02*
X204343000Y-123177300I1000000J0D01*
G01*
X204343000Y-137177301D02*
G75*
G02*
X203343000Y-136177301I0J1000000D01*
G01*
X204343000Y-123177301D02*
X216343000Y-123177301D01*
X203343000Y-124177300D02*
X203343000Y-136177301D01*
X204343000Y-137177300D02*
X216343000Y-137177300D01*
X216343000Y-123177300D02*
G75*
G02*
X217343000Y-124177300I0J-1000000D01*
G01*
X217343000Y-124177300D02*
X217343000Y-136177301D01*
X198293000Y-136177301D02*
G75*
G02*
X197293000Y-137177301I-1000000J0D01*
G01*
X184293000Y-124177300D02*
G75*
G02*
X185293000Y-123177300I1000000J0D01*
G01*
X185293000Y-137177301D02*
G75*
G02*
X184293000Y-136177301I0J1000000D01*
G01*
X185293000Y-123177301D02*
X197293000Y-123177301D01*
X184293000Y-124177300D02*
X184293000Y-136177301D01*
X185293000Y-137177300D02*
X197293000Y-137177300D01*
X197293000Y-123177300D02*
G75*
G02*
X198293000Y-124177300I0J-1000000D01*
G01*
X198293000Y-124177300D02*
X198293000Y-136177301D01*
X179243000Y-136177301D02*
G75*
G02*
X178243000Y-137177301I-1000000J0D01*
G01*
X165243000Y-124177300D02*
G75*
G02*
X166243000Y-123177300I1000000J0D01*
G01*
X166243000Y-137177301D02*
G75*
G02*
X165243000Y-136177301I0J1000000D01*
G01*
X166243000Y-123177301D02*
X178243000Y-123177301D01*
X165243000Y-124177300D02*
X165243000Y-136177301D01*
X166243000Y-137177300D02*
X178243000Y-137177300D01*
X178243000Y-123177300D02*
G75*
G02*
X179243000Y-124177300I0J-1000000D01*
G01*
X179243000Y-124177300D02*
X179243000Y-136177301D01*
X160193000Y-136177301D02*
G75*
G02*
X159193000Y-137177301I-1000000J0D01*
G01*
X146193000Y-124177300D02*
G75*
G02*
X147193000Y-123177300I1000000J0D01*
G01*
X147193000Y-137177301D02*
G75*
G02*
X146193000Y-136177301I0J1000000D01*
G01*
X147193000Y-123177301D02*
X159193000Y-123177301D01*
X146193000Y-124177300D02*
X146193000Y-136177301D01*
X147193000Y-137177300D02*
X159193000Y-137177300D01*
X159193000Y-123177300D02*
G75*
G02*
X160193000Y-124177300I0J-1000000D01*
G01*
X160193000Y-124177300D02*
X160193000Y-136177301D01*
X141117600Y-136177301D02*
G75*
G02*
X140117600Y-137177301I-1000000J0D01*
G01*
X127117600Y-124177300D02*
G75*
G02*
X128117600Y-123177300I1000000J0D01*
G01*
X128117600Y-137177301D02*
G75*
G02*
X127117600Y-136177301I0J1000000D01*
G01*
X128117600Y-123177301D02*
X140117600Y-123177301D01*
X127117600Y-124177300D02*
X127117600Y-136177301D01*
X128117600Y-137177300D02*
X140117600Y-137177300D01*
X140117600Y-123177300D02*
G75*
G02*
X141117600Y-124177300I0J-1000000D01*
G01*
X141117600Y-124177300D02*
X141117600Y-136177301D01*
X103017600Y-136177301D02*
G75*
G02*
X102017600Y-137177301I-1000000J0D01*
G01*
X89017600Y-124177300D02*
G75*
G02*
X90017600Y-123177300I1000000J0D01*
G01*
X90017600Y-137177301D02*
G75*
G02*
X89017600Y-136177301I0J1000000D01*
G01*
X90017600Y-123177301D02*
X102017600Y-123177301D01*
X89017600Y-124177300D02*
X89017600Y-136177301D01*
X90017600Y-137177300D02*
X102017600Y-137177300D01*
X102017600Y-123177300D02*
G75*
G02*
X103017600Y-124177300I0J-1000000D01*
G01*
X103017600Y-124177300D02*
X103017600Y-136177301D01*
X83967600Y-136202701D02*
G75*
G02*
X82967600Y-137202701I-1000000J0D01*
G01*
X69967600Y-124202700D02*
G75*
G02*
X70967600Y-123202700I1000000J0D01*
G01*
X70967600Y-137202701D02*
G75*
G02*
X69967600Y-136202701I0J1000000D01*
G01*
X70967600Y-123202701D02*
X82967600Y-123202701D01*
X69967600Y-124202700D02*
X69967600Y-136202701D01*
X70967600Y-137202700D02*
X82967600Y-137202700D01*
X82967600Y-123202700D02*
G75*
G02*
X83967600Y-124202700I0J-1000000D01*
G01*
X83967600Y-124202700D02*
X83967600Y-136202701D01*
X64917600Y-136177301D02*
G75*
G02*
X63917600Y-137177301I-1000000J0D01*
G01*
X50917600Y-124177300D02*
G75*
G02*
X51917600Y-123177300I1000000J0D01*
G01*
X51917600Y-137177301D02*
G75*
G02*
X50917600Y-136177301I0J1000000D01*
G01*
X51917600Y-123177301D02*
X63917600Y-123177301D01*
X50917600Y-124177300D02*
X50917600Y-136177301D01*
X51917600Y-137177300D02*
X63917600Y-137177300D01*
X63917600Y-123177300D02*
G75*
G02*
X64917600Y-124177300I0J-1000000D01*
G01*
X64917600Y-124177300D02*
X64917600Y-136177301D01*
X45893000Y-136177301D02*
G75*
G02*
X44893000Y-137177301I-1000000J0D01*
G01*
X31893000Y-124177300D02*
G75*
G02*
X32893000Y-123177300I1000000J0D01*
G01*
X32893000Y-137177301D02*
G75*
G02*
X31893000Y-136177301I0J1000000D01*
G01*
X32893000Y-123177301D02*
X44893000Y-123177301D01*
X31893000Y-124177300D02*
X31893000Y-136177301D01*
X32893000Y-137177300D02*
X44893000Y-137177300D01*
X44893000Y-123177300D02*
G75*
G02*
X45893000Y-124177300I0J-1000000D01*
G01*
X45893000Y-124177300D02*
X45893000Y-136177301D01*
X10155200Y-117127301D02*
G75*
G02*
X9155200Y-118127301I-1000000J0D01*
G01*
X-3844800Y-105127300D02*
G75*
G02*
X-2844800Y-104127300I1000000J0D01*
G01*
X-2844800Y-118127301D02*
G75*
G02*
X-3844800Y-117127301I0J1000000D01*
G01*
X-2844800Y-104127301D02*
X9155200Y-104127301D01*
X-3844800Y-105127300D02*
X-3844800Y-117127301D01*
X-2844800Y-118127300D02*
X9155200Y-118127300D01*
X9155200Y-104127300D02*
G75*
G02*
X10155200Y-105127300I0J-1000000D01*
G01*
X10155200Y-105127300D02*
X10155200Y-117127301D01*
X36342600Y-117101901D02*
G75*
G02*
X35342600Y-118101901I-1000000J0D01*
G01*
X22342600Y-105101900D02*
G75*
G02*
X23342600Y-104101900I1000000J0D01*
G01*
X23342600Y-118101901D02*
G75*
G02*
X22342600Y-117101901I0J1000000D01*
G01*
X23342600Y-104101901D02*
X35342600Y-104101901D01*
X22342600Y-105101900D02*
X22342600Y-117101901D01*
X23342600Y-118101900D02*
X35342600Y-118101900D01*
X35342600Y-104101900D02*
G75*
G02*
X36342600Y-105101900I0J-1000000D01*
G01*
X36342600Y-105101900D02*
X36342600Y-117101901D01*
X55367200Y-117127301D02*
G75*
G02*
X54367200Y-118127301I-1000000J0D01*
G01*
X41367200Y-105127300D02*
G75*
G02*
X42367200Y-104127300I1000000J0D01*
G01*
X42367200Y-118127301D02*
G75*
G02*
X41367200Y-117127301I0J1000000D01*
G01*
X42367200Y-104127301D02*
X54367200Y-104127301D01*
X41367200Y-105127300D02*
X41367200Y-117127301D01*
X42367200Y-118127300D02*
X54367200Y-118127300D01*
X54367200Y-104127300D02*
G75*
G02*
X55367200Y-105127300I0J-1000000D01*
G01*
X55367200Y-105127300D02*
X55367200Y-117127301D01*
X74442600Y-117127301D02*
G75*
G02*
X73442600Y-118127301I-1000000J0D01*
G01*
X60442600Y-105127300D02*
G75*
G02*
X61442600Y-104127300I1000000J0D01*
G01*
X61442600Y-118127301D02*
G75*
G02*
X60442600Y-117127301I0J1000000D01*
G01*
X61442600Y-104127301D02*
X73442600Y-104127301D01*
X60442600Y-105127300D02*
X60442600Y-117127301D01*
X61442600Y-118127300D02*
X73442600Y-118127300D01*
X73442600Y-104127300D02*
G75*
G02*
X74442600Y-105127300I0J-1000000D01*
G01*
X74442600Y-105127300D02*
X74442600Y-117127301D01*
X93492600Y-117127301D02*
G75*
G02*
X92492600Y-118127301I-1000000J0D01*
G01*
X79492600Y-105127300D02*
G75*
G02*
X80492600Y-104127300I1000000J0D01*
G01*
X80492600Y-118127301D02*
G75*
G02*
X79492600Y-117127301I0J1000000D01*
G01*
X80492600Y-104127301D02*
X92492600Y-104127301D01*
X79492600Y-105127300D02*
X79492600Y-117127301D01*
X80492600Y-118127300D02*
X92492600Y-118127300D01*
X92492600Y-104127300D02*
G75*
G02*
X93492600Y-105127300I0J-1000000D01*
G01*
X93492600Y-105127300D02*
X93492600Y-117127301D01*
X112568000Y-117127301D02*
G75*
G02*
X111568000Y-118127301I-1000000J0D01*
G01*
X98568000Y-105127300D02*
G75*
G02*
X99568000Y-104127300I1000000J0D01*
G01*
X99568000Y-118127301D02*
G75*
G02*
X98568000Y-117127301I0J1000000D01*
G01*
X99568000Y-104127301D02*
X111568000Y-104127301D01*
X98568000Y-105127300D02*
X98568000Y-117127301D01*
X99568000Y-118127300D02*
X111568000Y-118127300D01*
X111568000Y-104127300D02*
G75*
G02*
X112568000Y-105127300I0J-1000000D01*
G01*
X112568000Y-105127300D02*
X112568000Y-117127301D01*
X131592600Y-117101901D02*
G75*
G02*
X130592600Y-118101901I-1000000J0D01*
G01*
X117592600Y-105101900D02*
G75*
G02*
X118592600Y-104101900I1000000J0D01*
G01*
X118592600Y-118101901D02*
G75*
G02*
X117592600Y-117101901I0J1000000D01*
G01*
X118592600Y-104101901D02*
X130592600Y-104101901D01*
X117592600Y-105101900D02*
X117592600Y-117101901D01*
X118592600Y-118101900D02*
X130592600Y-118101900D01*
X130592600Y-104101900D02*
G75*
G02*
X131592600Y-105101900I0J-1000000D01*
G01*
X131592600Y-105101900D02*
X131592600Y-117101901D01*
X150668000Y-117127301D02*
G75*
G02*
X149668000Y-118127301I-1000000J0D01*
G01*
X136668000Y-105127300D02*
G75*
G02*
X137668000Y-104127300I1000000J0D01*
G01*
X137668000Y-118127301D02*
G75*
G02*
X136668000Y-117127301I0J1000000D01*
G01*
X137668000Y-104127301D02*
X149668000Y-104127301D01*
X136668000Y-105127300D02*
X136668000Y-117127301D01*
X137668000Y-118127300D02*
X149668000Y-118127300D01*
X149668000Y-104127300D02*
G75*
G02*
X150668000Y-105127300I0J-1000000D01*
G01*
X150668000Y-105127300D02*
X150668000Y-117127301D01*
X169692600Y-117127301D02*
G75*
G02*
X168692600Y-118127301I-1000000J0D01*
G01*
X155692600Y-105127300D02*
G75*
G02*
X156692600Y-104127300I1000000J0D01*
G01*
X156692600Y-118127301D02*
G75*
G02*
X155692600Y-117127301I0J1000000D01*
G01*
X156692600Y-104127301D02*
X168692600Y-104127301D01*
X155692600Y-105127300D02*
X155692600Y-117127301D01*
X156692600Y-118127300D02*
X168692600Y-118127300D01*
X168692600Y-104127300D02*
G75*
G02*
X169692600Y-105127300I0J-1000000D01*
G01*
X169692600Y-105127300D02*
X169692600Y-117127301D01*
X188768000Y-117127301D02*
G75*
G02*
X187768000Y-118127301I-1000000J0D01*
G01*
X174768000Y-105127300D02*
G75*
G02*
X175768000Y-104127300I1000000J0D01*
G01*
X175768000Y-118127301D02*
G75*
G02*
X174768000Y-117127301I0J1000000D01*
G01*
X175768000Y-104127301D02*
X187768000Y-104127301D01*
X174768000Y-105127300D02*
X174768000Y-117127301D01*
X175768000Y-118127300D02*
X187768000Y-118127300D01*
X187768000Y-104127300D02*
G75*
G02*
X188768000Y-105127300I0J-1000000D01*
G01*
X188768000Y-105127300D02*
X188768000Y-117127301D01*
X207792600Y-117127301D02*
G75*
G02*
X206792600Y-118127301I-1000000J0D01*
G01*
X193792600Y-105127300D02*
G75*
G02*
X194792600Y-104127300I1000000J0D01*
G01*
X194792600Y-118127301D02*
G75*
G02*
X193792600Y-117127301I0J1000000D01*
G01*
X194792600Y-104127301D02*
X206792600Y-104127301D01*
X193792600Y-105127300D02*
X193792600Y-117127301D01*
X194792600Y-118127300D02*
X206792600Y-118127300D01*
X206792600Y-104127300D02*
G75*
G02*
X207792600Y-105127300I0J-1000000D01*
G01*
X207792600Y-105127300D02*
X207792600Y-117127301D01*
X226842600Y-117127301D02*
G75*
G02*
X225842600Y-118127301I-1000000J0D01*
G01*
X212842600Y-105127300D02*
G75*
G02*
X213842600Y-104127300I1000000J0D01*
G01*
X213842600Y-118127301D02*
G75*
G02*
X212842600Y-117127301I0J1000000D01*
G01*
X213842600Y-104127301D02*
X225842600Y-104127301D01*
X212842600Y-105127300D02*
X212842600Y-117127301D01*
X213842600Y-118127300D02*
X225842600Y-118127300D01*
X225842600Y-104127300D02*
G75*
G02*
X226842600Y-105127300I0J-1000000D01*
G01*
X226842600Y-105127300D02*
X226842600Y-117127301D01*
X296743400Y-117127301D02*
G75*
G02*
X295743400Y-118127301I-1000000J0D01*
G01*
X282743400Y-105127300D02*
G75*
G02*
X283743400Y-104127300I1000000J0D01*
G01*
X283743400Y-118127301D02*
G75*
G02*
X282743400Y-117127301I0J1000000D01*
G01*
X283743400Y-104127301D02*
X295743400Y-104127301D01*
X282743400Y-105127300D02*
X282743400Y-117127301D01*
X283743400Y-118127300D02*
X295743400Y-118127300D01*
X295743400Y-104127300D02*
G75*
G02*
X296743400Y-105127300I0J-1000000D01*
G01*
X296743400Y-105127300D02*
X296743400Y-117127301D01*
X296718000Y-98077301D02*
G75*
G02*
X295718000Y-99077301I-1000000J0D01*
G01*
X282718000Y-86077300D02*
G75*
G02*
X283718000Y-85077300I1000000J0D01*
G01*
X283718000Y-99077301D02*
G75*
G02*
X282718000Y-98077301I0J1000000D01*
G01*
X283718000Y-85077301D02*
X295718000Y-85077301D01*
X282718000Y-86077300D02*
X282718000Y-98077301D01*
X283718000Y-99077300D02*
X295718000Y-99077300D01*
X295718000Y-85077300D02*
G75*
G02*
X296718000Y-86077300I0J-1000000D01*
G01*
X296718000Y-86077300D02*
X296718000Y-98077301D01*
X264968000Y-98077301D02*
G75*
G02*
X263968000Y-99077301I-1000000J0D01*
G01*
X250968000Y-86077300D02*
G75*
G02*
X251968000Y-85077300I1000000J0D01*
G01*
X251968000Y-99077301D02*
G75*
G02*
X250968000Y-98077301I0J1000000D01*
G01*
X251968000Y-85077301D02*
X263968000Y-85077301D01*
X250968000Y-86077300D02*
X250968000Y-98077301D01*
X251968000Y-99077300D02*
X263968000Y-99077300D01*
X263968000Y-85077300D02*
G75*
G02*
X264968000Y-86077300I0J-1000000D01*
G01*
X264968000Y-86077300D02*
X264968000Y-98077301D01*
X241168200Y-98077301D02*
G75*
G02*
X240168200Y-99077301I-1000000J0D01*
G01*
X227168200Y-86077300D02*
G75*
G02*
X228168200Y-85077300I1000000J0D01*
G01*
X228168200Y-99077301D02*
G75*
G02*
X227168200Y-98077301I0J1000000D01*
G01*
X228168200Y-85077301D02*
X240168200Y-85077301D01*
X227168200Y-86077300D02*
X227168200Y-98077301D01*
X228168200Y-99077300D02*
X240168200Y-99077300D01*
X240168200Y-85077300D02*
G75*
G02*
X241168200Y-86077300I0J-1000000D01*
G01*
X241168200Y-86077300D02*
X241168200Y-98077301D01*
X222092800Y-98077301D02*
G75*
G02*
X221092800Y-99077301I-1000000J0D01*
G01*
X208092800Y-86077300D02*
G75*
G02*
X209092800Y-85077300I1000000J0D01*
G01*
X209092800Y-99077301D02*
G75*
G02*
X208092800Y-98077301I0J1000000D01*
G01*
X209092800Y-85077301D02*
X221092800Y-85077301D01*
X208092800Y-86077300D02*
X208092800Y-98077301D01*
X209092800Y-99077300D02*
X221092800Y-99077300D01*
X221092800Y-85077300D02*
G75*
G02*
X222092800Y-86077300I0J-1000000D01*
G01*
X222092800Y-86077300D02*
X222092800Y-98077301D01*
X203042800Y-98077301D02*
G75*
G02*
X202042800Y-99077301I-1000000J0D01*
G01*
X189042800Y-86077300D02*
G75*
G02*
X190042800Y-85077300I1000000J0D01*
G01*
X190042800Y-99077301D02*
G75*
G02*
X189042800Y-98077301I0J1000000D01*
G01*
X190042800Y-85077301D02*
X202042800Y-85077301D01*
X189042800Y-86077300D02*
X189042800Y-98077301D01*
X190042800Y-99077300D02*
X202042800Y-99077300D01*
X202042800Y-85077300D02*
G75*
G02*
X203042800Y-86077300I0J-1000000D01*
G01*
X203042800Y-86077300D02*
X203042800Y-98077301D01*
X183992800Y-98077301D02*
G75*
G02*
X182992800Y-99077301I-1000000J0D01*
G01*
X169992800Y-86077300D02*
G75*
G02*
X170992800Y-85077300I1000000J0D01*
G01*
X170992800Y-99077301D02*
G75*
G02*
X169992800Y-98077301I0J1000000D01*
G01*
X170992800Y-85077301D02*
X182992800Y-85077301D01*
X169992800Y-86077300D02*
X169992800Y-98077301D01*
X170992800Y-99077300D02*
X182992800Y-99077300D01*
X182992800Y-85077300D02*
G75*
G02*
X183992800Y-86077300I0J-1000000D01*
G01*
X183992800Y-86077300D02*
X183992800Y-98077301D01*
X164942800Y-98077301D02*
G75*
G02*
X163942800Y-99077301I-1000000J0D01*
G01*
X150942800Y-86077300D02*
G75*
G02*
X151942800Y-85077300I1000000J0D01*
G01*
X151942800Y-99077301D02*
G75*
G02*
X150942800Y-98077301I0J1000000D01*
G01*
X151942800Y-85077301D02*
X163942800Y-85077301D01*
X150942800Y-86077300D02*
X150942800Y-98077301D01*
X151942800Y-99077300D02*
X163942800Y-99077300D01*
X163942800Y-85077300D02*
G75*
G02*
X164942800Y-86077300I0J-1000000D01*
G01*
X164942800Y-86077300D02*
X164942800Y-98077301D01*
X145892800Y-98077301D02*
G75*
G02*
X144892800Y-99077301I-1000000J0D01*
G01*
X131892800Y-86077300D02*
G75*
G02*
X132892800Y-85077300I1000000J0D01*
G01*
X132892800Y-99077301D02*
G75*
G02*
X131892800Y-98077301I0J1000000D01*
G01*
X132892800Y-85077301D02*
X144892800Y-85077301D01*
X131892800Y-86077300D02*
X131892800Y-98077301D01*
X132892800Y-99077300D02*
X144892800Y-99077300D01*
X144892800Y-85077300D02*
G75*
G02*
X145892800Y-86077300I0J-1000000D01*
G01*
X145892800Y-86077300D02*
X145892800Y-98077301D01*
X126868200Y-98077301D02*
G75*
G02*
X125868200Y-99077301I-1000000J0D01*
G01*
X112868200Y-86077300D02*
G75*
G02*
X113868200Y-85077300I1000000J0D01*
G01*
X113868200Y-99077301D02*
G75*
G02*
X112868200Y-98077301I0J1000000D01*
G01*
X113868200Y-85077301D02*
X125868200Y-85077301D01*
X112868200Y-86077300D02*
X112868200Y-98077301D01*
X113868200Y-99077300D02*
X125868200Y-99077300D01*
X125868200Y-85077300D02*
G75*
G02*
X126868200Y-86077300I0J-1000000D01*
G01*
X126868200Y-86077300D02*
X126868200Y-98077301D01*
X107792800Y-98077301D02*
G75*
G02*
X106792800Y-99077301I-1000000J0D01*
G01*
X93792800Y-86077300D02*
G75*
G02*
X94792800Y-85077300I1000000J0D01*
G01*
X94792800Y-99077301D02*
G75*
G02*
X93792800Y-98077301I0J1000000D01*
G01*
X94792800Y-85077301D02*
X106792800Y-85077301D01*
X93792800Y-86077300D02*
X93792800Y-98077301D01*
X94792800Y-99077300D02*
X106792800Y-99077300D01*
X106792800Y-85077300D02*
G75*
G02*
X107792800Y-86077300I0J-1000000D01*
G01*
X107792800Y-86077300D02*
X107792800Y-98077301D01*
X88742800Y-98077301D02*
G75*
G02*
X87742800Y-99077301I-1000000J0D01*
G01*
X74742800Y-86077300D02*
G75*
G02*
X75742800Y-85077300I1000000J0D01*
G01*
X75742800Y-99077301D02*
G75*
G02*
X74742800Y-98077301I0J1000000D01*
G01*
X75742800Y-85077301D02*
X87742800Y-85077301D01*
X74742800Y-86077300D02*
X74742800Y-98077301D01*
X75742800Y-99077300D02*
X87742800Y-99077300D01*
X87742800Y-85077300D02*
G75*
G02*
X88742800Y-86077300I0J-1000000D01*
G01*
X88742800Y-86077300D02*
X88742800Y-98077301D01*
X69692800Y-98077301D02*
G75*
G02*
X68692800Y-99077301I-1000000J0D01*
G01*
X55692800Y-86077300D02*
G75*
G02*
X56692800Y-85077300I1000000J0D01*
G01*
X56692800Y-99077301D02*
G75*
G02*
X55692800Y-98077301I0J1000000D01*
G01*
X56692800Y-85077301D02*
X68692800Y-85077301D01*
X55692800Y-86077300D02*
X55692800Y-98077301D01*
X56692800Y-99077300D02*
X68692800Y-99077300D01*
X68692800Y-85077300D02*
G75*
G02*
X69692800Y-86077300I0J-1000000D01*
G01*
X69692800Y-86077300D02*
X69692800Y-98077301D01*
X50642800Y-98077301D02*
G75*
G02*
X49642800Y-99077301I-1000000J0D01*
G01*
X36642800Y-86077300D02*
G75*
G02*
X37642800Y-85077300I1000000J0D01*
G01*
X37642800Y-99077301D02*
G75*
G02*
X36642800Y-98077301I0J1000000D01*
G01*
X37642800Y-85077301D02*
X49642800Y-85077301D01*
X36642800Y-86077300D02*
X36642800Y-98077301D01*
X37642800Y-99077300D02*
X49642800Y-99077300D01*
X49642800Y-85077300D02*
G75*
G02*
X50642800Y-86077300I0J-1000000D01*
G01*
X50642800Y-86077300D02*
X50642800Y-98077301D01*
X31592800Y-98077301D02*
G75*
G02*
X30592800Y-99077301I-1000000J0D01*
G01*
X17592800Y-86077300D02*
G75*
G02*
X18592800Y-85077300I1000000J0D01*
G01*
X18592800Y-99077301D02*
G75*
G02*
X17592800Y-98077301I0J1000000D01*
G01*
X18592800Y-85077301D02*
X30592800Y-85077301D01*
X17592800Y-86077300D02*
X17592800Y-98077301D01*
X18592800Y-99077300D02*
X30592800Y-99077300D01*
X30592800Y-85077300D02*
G75*
G02*
X31592800Y-86077300I0J-1000000D01*
G01*
X31592800Y-86077300D02*
X31592800Y-98077301D01*
X7818400Y-98077301D02*
G75*
G02*
X6818400Y-99077301I-1000000J0D01*
G01*
X-6181600Y-86077300D02*
G75*
G02*
X-5181600Y-85077300I1000000J0D01*
G01*
X-5181600Y-99077301D02*
G75*
G02*
X-6181600Y-98077301I0J1000000D01*
G01*
X-5181600Y-85077301D02*
X6818400Y-85077301D01*
X-6181600Y-86077300D02*
X-6181600Y-98077301D01*
X-5181600Y-99077300D02*
X6818400Y-99077300D01*
X6818400Y-85077300D02*
G75*
G02*
X7818400Y-86077300I0J-1000000D01*
G01*
X7818400Y-86077300D02*
X7818400Y-98077301D01*
X3017800Y-79027301D02*
G75*
G02*
X2017800Y-80027301I-1000000J0D01*
G01*
X-10982200Y-67027300D02*
G75*
G02*
X-9982200Y-66027300I1000000J0D01*
G01*
X-9982200Y-80027301D02*
G75*
G02*
X-10982200Y-79027301I0J1000000D01*
G01*
X-9982200Y-66027301D02*
X2017800Y-66027301D01*
X-10982200Y-67027300D02*
X-10982200Y-79027301D01*
X-9982200Y-80027300D02*
X2017800Y-80027300D01*
X2017800Y-66027300D02*
G75*
G02*
X3017800Y-67027300I0J-1000000D01*
G01*
X3017800Y-67027300D02*
X3017800Y-79027301D01*
X22093200Y-79027301D02*
G75*
G02*
X21093200Y-80027301I-1000000J0D01*
G01*
X8093200Y-67027300D02*
G75*
G02*
X9093200Y-66027300I1000000J0D01*
G01*
X9093200Y-80027301D02*
G75*
G02*
X8093200Y-79027301I0J1000000D01*
G01*
X9093200Y-66027301D02*
X21093200Y-66027301D01*
X8093200Y-67027300D02*
X8093200Y-79027301D01*
X9093200Y-80027300D02*
X21093200Y-80027300D01*
X21093200Y-66027300D02*
G75*
G02*
X22093200Y-67027300I0J-1000000D01*
G01*
X22093200Y-67027300D02*
X22093200Y-79027301D01*
X41143200Y-79027301D02*
G75*
G02*
X40143200Y-80027301I-1000000J0D01*
G01*
X27143200Y-67027300D02*
G75*
G02*
X28143200Y-66027300I1000000J0D01*
G01*
X28143200Y-80027301D02*
G75*
G02*
X27143200Y-79027301I0J1000000D01*
G01*
X28143200Y-66027301D02*
X40143200Y-66027301D01*
X27143200Y-67027300D02*
X27143200Y-79027301D01*
X28143200Y-80027300D02*
X40143200Y-80027300D01*
X40143200Y-66027300D02*
G75*
G02*
X41143200Y-67027300I0J-1000000D01*
G01*
X41143200Y-67027300D02*
X41143200Y-79027301D01*
X60167800Y-79027301D02*
G75*
G02*
X59167800Y-80027301I-1000000J0D01*
G01*
X46167800Y-67027300D02*
G75*
G02*
X47167800Y-66027300I1000000J0D01*
G01*
X47167800Y-80027301D02*
G75*
G02*
X46167800Y-79027301I0J1000000D01*
G01*
X47167800Y-66027301D02*
X59167800Y-66027301D01*
X46167800Y-67027300D02*
X46167800Y-79027301D01*
X47167800Y-80027300D02*
X59167800Y-80027300D01*
X59167800Y-66027300D02*
G75*
G02*
X60167800Y-67027300I0J-1000000D01*
G01*
X60167800Y-67027300D02*
X60167800Y-79027301D01*
X79217800Y-79027301D02*
G75*
G02*
X78217800Y-80027301I-1000000J0D01*
G01*
X65217800Y-67027300D02*
G75*
G02*
X66217800Y-66027300I1000000J0D01*
G01*
X66217800Y-80027301D02*
G75*
G02*
X65217800Y-79027301I0J1000000D01*
G01*
X66217800Y-66027301D02*
X78217800Y-66027301D01*
X65217800Y-67027300D02*
X65217800Y-79027301D01*
X66217800Y-80027300D02*
X78217800Y-80027300D01*
X78217800Y-66027300D02*
G75*
G02*
X79217800Y-67027300I0J-1000000D01*
G01*
X79217800Y-67027300D02*
X79217800Y-79027301D01*
X98267800Y-79027301D02*
G75*
G02*
X97267800Y-80027301I-1000000J0D01*
G01*
X84267800Y-67027300D02*
G75*
G02*
X85267800Y-66027300I1000000J0D01*
G01*
X85267800Y-80027301D02*
G75*
G02*
X84267800Y-79027301I0J1000000D01*
G01*
X85267800Y-66027301D02*
X97267800Y-66027301D01*
X84267800Y-67027300D02*
X84267800Y-79027301D01*
X85267800Y-80027300D02*
X97267800Y-80027300D01*
X97267800Y-66027300D02*
G75*
G02*
X98267800Y-67027300I0J-1000000D01*
G01*
X98267800Y-67027300D02*
X98267800Y-79027301D01*
X117317800Y-79027301D02*
G75*
G02*
X116317800Y-80027301I-1000000J0D01*
G01*
X103317800Y-67027300D02*
G75*
G02*
X104317800Y-66027300I1000000J0D01*
G01*
X104317800Y-80027301D02*
G75*
G02*
X103317800Y-79027301I0J1000000D01*
G01*
X104317800Y-66027301D02*
X116317800Y-66027301D01*
X103317800Y-67027300D02*
X103317800Y-79027301D01*
X104317800Y-80027300D02*
X116317800Y-80027300D01*
X116317800Y-66027300D02*
G75*
G02*
X117317800Y-67027300I0J-1000000D01*
G01*
X117317800Y-67027300D02*
X117317800Y-79027301D01*
X136367800Y-79027301D02*
G75*
G02*
X135367800Y-80027301I-1000000J0D01*
G01*
X122367800Y-67027300D02*
G75*
G02*
X123367800Y-66027300I1000000J0D01*
G01*
X123367800Y-80027301D02*
G75*
G02*
X122367800Y-79027301I0J1000000D01*
G01*
X123367800Y-66027301D02*
X135367800Y-66027301D01*
X122367800Y-67027300D02*
X122367800Y-79027301D01*
X123367800Y-80027300D02*
X135367800Y-80027300D01*
X135367800Y-66027300D02*
G75*
G02*
X136367800Y-67027300I0J-1000000D01*
G01*
X136367800Y-67027300D02*
X136367800Y-79027301D01*
X155417800Y-79027301D02*
G75*
G02*
X154417800Y-80027301I-1000000J0D01*
G01*
X141417800Y-67027300D02*
G75*
G02*
X142417800Y-66027300I1000000J0D01*
G01*
X142417800Y-80027301D02*
G75*
G02*
X141417800Y-79027301I0J1000000D01*
G01*
X142417800Y-66027301D02*
X154417800Y-66027301D01*
X141417800Y-67027300D02*
X141417800Y-79027301D01*
X142417800Y-80027300D02*
X154417800Y-80027300D01*
X154417800Y-66027300D02*
G75*
G02*
X155417800Y-67027300I0J-1000000D01*
G01*
X155417800Y-67027300D02*
X155417800Y-79027301D01*
X174467800Y-79027301D02*
G75*
G02*
X173467800Y-80027301I-1000000J0D01*
G01*
X160467800Y-67027300D02*
G75*
G02*
X161467800Y-66027300I1000000J0D01*
G01*
X161467800Y-80027301D02*
G75*
G02*
X160467800Y-79027301I0J1000000D01*
G01*
X161467800Y-66027301D02*
X173467800Y-66027301D01*
X160467800Y-67027300D02*
X160467800Y-79027301D01*
X161467800Y-80027300D02*
X173467800Y-80027300D01*
X173467800Y-66027300D02*
G75*
G02*
X174467800Y-67027300I0J-1000000D01*
G01*
X174467800Y-67027300D02*
X174467800Y-79027301D01*
X193517800Y-79027301D02*
G75*
G02*
X192517800Y-80027301I-1000000J0D01*
G01*
X179517800Y-67027300D02*
G75*
G02*
X180517800Y-66027300I1000000J0D01*
G01*
X180517800Y-80027301D02*
G75*
G02*
X179517800Y-79027301I0J1000000D01*
G01*
X180517800Y-66027301D02*
X192517800Y-66027301D01*
X179517800Y-67027300D02*
X179517800Y-79027301D01*
X180517800Y-80027300D02*
X192517800Y-80027300D01*
X192517800Y-66027300D02*
G75*
G02*
X193517800Y-67027300I0J-1000000D01*
G01*
X193517800Y-67027300D02*
X193517800Y-79027301D01*
X212567800Y-79027301D02*
G75*
G02*
X211567800Y-80027301I-1000000J0D01*
G01*
X198567800Y-67027300D02*
G75*
G02*
X199567800Y-66027300I1000000J0D01*
G01*
X199567800Y-80027301D02*
G75*
G02*
X198567800Y-79027301I0J1000000D01*
G01*
X199567800Y-66027301D02*
X211567800Y-66027301D01*
X198567800Y-67027300D02*
X198567800Y-79027301D01*
X199567800Y-80027300D02*
X211567800Y-80027300D01*
X211567800Y-66027300D02*
G75*
G02*
X212567800Y-67027300I0J-1000000D01*
G01*
X212567800Y-67027300D02*
X212567800Y-79027301D01*
X231617800Y-79027301D02*
G75*
G02*
X230617800Y-80027301I-1000000J0D01*
G01*
X217617800Y-67027300D02*
G75*
G02*
X218617800Y-66027300I1000000J0D01*
G01*
X218617800Y-80027301D02*
G75*
G02*
X217617800Y-79027301I0J1000000D01*
G01*
X218617800Y-66027301D02*
X230617800Y-66027301D01*
X217617800Y-67027300D02*
X217617800Y-79027301D01*
X218617800Y-80027300D02*
X230617800Y-80027300D01*
X230617800Y-66027300D02*
G75*
G02*
X231617800Y-67027300I0J-1000000D01*
G01*
X231617800Y-67027300D02*
X231617800Y-79027301D01*
X296718000Y-79027301D02*
G75*
G02*
X295718000Y-80027301I-1000000J0D01*
G01*
X282718000Y-67027300D02*
G75*
G02*
X283718000Y-66027300I1000000J0D01*
G01*
X283718000Y-80027301D02*
G75*
G02*
X282718000Y-79027301I0J1000000D01*
G01*
X283718000Y-66027301D02*
X295718000Y-66027301D01*
X282718000Y-67027300D02*
X282718000Y-79027301D01*
X283718000Y-80027300D02*
X295718000Y-80027300D01*
X295718000Y-66027300D02*
G75*
G02*
X296718000Y-67027300I0J-1000000D01*
G01*
X296718000Y-67027300D02*
X296718000Y-79027301D01*
X296768800Y-55202101D02*
G75*
G02*
X295768800Y-56202101I-1000000J0D01*
G01*
X282768800Y-43202100D02*
G75*
G02*
X283768800Y-42202100I1000000J0D01*
G01*
X283768800Y-56202101D02*
G75*
G02*
X282768800Y-55202101I0J1000000D01*
G01*
X283768800Y-42202101D02*
X295768800Y-42202101D01*
X282768800Y-43202100D02*
X282768800Y-55202101D01*
X283768800Y-56202100D02*
X295768800Y-56202100D01*
X295768800Y-42202100D02*
G75*
G02*
X296768800Y-43202100I0J-1000000D01*
G01*
X296768800Y-43202100D02*
X296768800Y-55202101D01*
X272130800Y-55202101D02*
G75*
G02*
X271130800Y-56202101I-1000000J0D01*
G01*
X258130800Y-43202100D02*
G75*
G02*
X259130800Y-42202100I1000000J0D01*
G01*
X259130800Y-56202101D02*
G75*
G02*
X258130800Y-55202101I0J1000000D01*
G01*
X259130800Y-42202101D02*
X271130800Y-42202101D01*
X258130800Y-43202100D02*
X258130800Y-55202101D01*
X259130800Y-56202100D02*
X271130800Y-56202100D01*
X271130800Y-42202100D02*
G75*
G02*
X272130800Y-43202100I0J-1000000D01*
G01*
X272130800Y-43202100D02*
X272130800Y-55202101D01*
X247492800Y-55202101D02*
G75*
G02*
X246492800Y-56202101I-1000000J0D01*
G01*
X233492800Y-43202100D02*
G75*
G02*
X234492800Y-42202100I1000000J0D01*
G01*
X234492800Y-56202101D02*
G75*
G02*
X233492800Y-55202101I0J1000000D01*
G01*
X234492800Y-42202101D02*
X246492800Y-42202101D01*
X233492800Y-43202100D02*
X233492800Y-55202101D01*
X234492800Y-56202100D02*
X246492800Y-56202100D01*
X246492800Y-42202100D02*
G75*
G02*
X247492800Y-43202100I0J-1000000D01*
G01*
X247492800Y-43202100D02*
X247492800Y-55202101D01*
X228442800Y-55202101D02*
G75*
G02*
X227442800Y-56202101I-1000000J0D01*
G01*
X214442800Y-43202100D02*
G75*
G02*
X215442800Y-42202100I1000000J0D01*
G01*
X215442800Y-56202101D02*
G75*
G02*
X214442800Y-55202101I0J1000000D01*
G01*
X215442800Y-42202101D02*
X227442800Y-42202101D01*
X214442800Y-43202100D02*
X214442800Y-55202101D01*
X215442800Y-56202100D02*
X227442800Y-56202100D01*
X227442800Y-42202100D02*
G75*
G02*
X228442800Y-43202100I0J-1000000D01*
G01*
X228442800Y-43202100D02*
X228442800Y-55202101D01*
X209392800Y-55202101D02*
G75*
G02*
X208392800Y-56202101I-1000000J0D01*
G01*
X195392800Y-43202100D02*
G75*
G02*
X196392800Y-42202100I1000000J0D01*
G01*
X196392800Y-56202101D02*
G75*
G02*
X195392800Y-55202101I0J1000000D01*
G01*
X196392800Y-42202101D02*
X208392800Y-42202101D01*
X195392800Y-43202100D02*
X195392800Y-55202101D01*
X196392800Y-56202100D02*
X208392800Y-56202100D01*
X208392800Y-42202100D02*
G75*
G02*
X209392800Y-43202100I0J-1000000D01*
G01*
X209392800Y-43202100D02*
X209392800Y-55202101D01*
X190342800Y-55202101D02*
G75*
G02*
X189342800Y-56202101I-1000000J0D01*
G01*
X176342800Y-43202100D02*
G75*
G02*
X177342800Y-42202100I1000000J0D01*
G01*
X177342800Y-56202101D02*
G75*
G02*
X176342800Y-55202101I0J1000000D01*
G01*
X177342800Y-42202101D02*
X189342800Y-42202101D01*
X176342800Y-43202100D02*
X176342800Y-55202101D01*
X177342800Y-56202100D02*
X189342800Y-56202100D01*
X189342800Y-42202100D02*
G75*
G02*
X190342800Y-43202100I0J-1000000D01*
G01*
X190342800Y-43202100D02*
X190342800Y-55202101D01*
X166543000Y-55202101D02*
G75*
G02*
X165543000Y-56202101I-1000000J0D01*
G01*
X152543000Y-43202100D02*
G75*
G02*
X153543000Y-42202100I1000000J0D01*
G01*
X153543000Y-56202101D02*
G75*
G02*
X152543000Y-55202101I0J1000000D01*
G01*
X153543000Y-42202101D02*
X165543000Y-42202101D01*
X152543000Y-43202100D02*
X152543000Y-55202101D01*
X153543000Y-56202100D02*
X165543000Y-56202100D01*
X165543000Y-42202100D02*
G75*
G02*
X166543000Y-43202100I0J-1000000D01*
G01*
X166543000Y-43202100D02*
X166543000Y-55202101D01*
X147493000Y-55202101D02*
G75*
G02*
X146493000Y-56202101I-1000000J0D01*
G01*
X133493000Y-43202100D02*
G75*
G02*
X134493000Y-42202100I1000000J0D01*
G01*
X134493000Y-56202101D02*
G75*
G02*
X133493000Y-55202101I0J1000000D01*
G01*
X134493000Y-42202101D02*
X146493000Y-42202101D01*
X133493000Y-43202100D02*
X133493000Y-55202101D01*
X134493000Y-56202100D02*
X146493000Y-56202100D01*
X146493000Y-42202100D02*
G75*
G02*
X147493000Y-43202100I0J-1000000D01*
G01*
X147493000Y-43202100D02*
X147493000Y-55202101D01*
X128417600Y-55202101D02*
G75*
G02*
X127417600Y-56202101I-1000000J0D01*
G01*
X114417600Y-43202100D02*
G75*
G02*
X115417600Y-42202100I1000000J0D01*
G01*
X115417600Y-56202101D02*
G75*
G02*
X114417600Y-55202101I0J1000000D01*
G01*
X115417600Y-42202101D02*
X127417600Y-42202101D01*
X114417600Y-43202100D02*
X114417600Y-55202101D01*
X115417600Y-56202100D02*
X127417600Y-56202100D01*
X127417600Y-42202100D02*
G75*
G02*
X128417600Y-43202100I0J-1000000D01*
G01*
X128417600Y-43202100D02*
X128417600Y-55202101D01*
X109393000Y-55202101D02*
G75*
G02*
X108393000Y-56202101I-1000000J0D01*
G01*
X95393000Y-43202100D02*
G75*
G02*
X96393000Y-42202100I1000000J0D01*
G01*
X96393000Y-56202101D02*
G75*
G02*
X95393000Y-55202101I0J1000000D01*
G01*
X96393000Y-42202101D02*
X108393000Y-42202101D01*
X95393000Y-43202100D02*
X95393000Y-55202101D01*
X96393000Y-56202100D02*
X108393000Y-56202100D01*
X108393000Y-42202100D02*
G75*
G02*
X109393000Y-43202100I0J-1000000D01*
G01*
X109393000Y-43202100D02*
X109393000Y-55202101D01*
X85567800Y-55202101D02*
G75*
G02*
X84567800Y-56202101I-1000000J0D01*
G01*
X71567800Y-43202100D02*
G75*
G02*
X72567800Y-42202100I1000000J0D01*
G01*
X72567800Y-56202101D02*
G75*
G02*
X71567800Y-55202101I0J1000000D01*
G01*
X72567800Y-42202101D02*
X84567800Y-42202101D01*
X71567800Y-43202100D02*
X71567800Y-55202101D01*
X72567800Y-56202100D02*
X84567800Y-56202100D01*
X84567800Y-42202100D02*
G75*
G02*
X85567800Y-43202100I0J-1000000D01*
G01*
X85567800Y-43202100D02*
X85567800Y-55202101D01*
X66543200Y-55202101D02*
G75*
G02*
X65543200Y-56202101I-1000000J0D01*
G01*
X52543200Y-43202100D02*
G75*
G02*
X53543200Y-42202100I1000000J0D01*
G01*
X53543200Y-56202101D02*
G75*
G02*
X52543200Y-55202101I0J1000000D01*
G01*
X53543200Y-42202101D02*
X65543200Y-42202101D01*
X52543200Y-43202100D02*
X52543200Y-55202101D01*
X53543200Y-56202100D02*
X65543200Y-56202100D01*
X65543200Y-42202100D02*
G75*
G02*
X66543200Y-43202100I0J-1000000D01*
G01*
X66543200Y-43202100D02*
X66543200Y-55202101D01*
X47467800Y-55202101D02*
G75*
G02*
X46467800Y-56202101I-1000000J0D01*
G01*
X33467800Y-43202100D02*
G75*
G02*
X34467800Y-42202100I1000000J0D01*
G01*
X34467800Y-56202101D02*
G75*
G02*
X33467800Y-55202101I0J1000000D01*
G01*
X34467800Y-42202101D02*
X46467800Y-42202101D01*
X33467800Y-43202100D02*
X33467800Y-55202101D01*
X34467800Y-56202100D02*
X46467800Y-56202100D01*
X46467800Y-42202100D02*
G75*
G02*
X47467800Y-43202100I0J-1000000D01*
G01*
X47467800Y-43202100D02*
X47467800Y-55202101D01*
X28417800Y-55202101D02*
G75*
G02*
X27417800Y-56202101I-1000000J0D01*
G01*
X15417800Y-56202101D02*
G75*
G02*
X14417800Y-55202101I0J1000000D01*
G01*
X15417800Y-42202101D02*
X27417800Y-42202101D01*
X14417800Y-43202100D02*
G75*
G02*
X15417800Y-42202100I1000000J0D01*
G01*
X28417800Y-43202100D02*
X28417800Y-55202101D01*
X14417800Y-43202100D02*
X14417800Y-55202101D01*
X27417800Y-42202100D02*
G75*
G02*
X28417800Y-43202100I0J-1000000D01*
G01*
X15417800Y-56202100D02*
X27417800Y-56202100D01*
X3017800Y-55202101D02*
G75*
G02*
X2017800Y-56202101I-1000000J0D01*
G01*
X-9982200Y-56202101D02*
G75*
G02*
X-10982200Y-55202101I0J1000000D01*
G01*
X-9982200Y-42202101D02*
X2017800Y-42202101D01*
X-10982200Y-43202100D02*
G75*
G02*
X-9982200Y-42202100I1000000J0D01*
G01*
X3017800Y-43202100D02*
X3017800Y-55202101D01*
X-10982200Y-43202100D02*
X-10982200Y-55202101D01*
X2017800Y-42202100D02*
G75*
G02*
X3017800Y-43202100I0J-1000000D01*
G01*
X-9982200Y-56202100D02*
X2017800Y-56202100D01*
X122042200Y-136202701D02*
G75*
G02*
X121042200Y-137202701I-1000000J0D01*
G01*
X109042200Y-137202701D02*
G75*
G02*
X108042200Y-136202701I0J1000000D01*
G01*
X109042200Y-123202701D02*
X121042200Y-123202701D01*
X108042200Y-124202700D02*
G75*
G02*
X109042200Y-123202700I1000000J0D01*
G01*
X122042200Y-124202700D02*
X122042200Y-136202701D01*
X108042200Y-124202700D02*
X108042200Y-136202701D01*
X121042200Y-123202700D02*
G75*
G02*
X122042200Y-124202700I0J-1000000D01*
G01*
X109042200Y-137202700D02*
X121042200Y-137202700D01*
X72186800Y-150037800D02*
G75*
G02*
X75692000Y-146532600I3505200J0D01*
G01*
X75692000Y-153543000D02*
G75*
G02*
X72186800Y-150037800I0J3505200D01*
G01*
X109524800Y-150050500D02*
G75*
G02*
X106019600Y-153555700I-3505200J0D01*
G01*
X106019600Y-146545300D02*
G75*
G02*
X109524800Y-150050500I0J-3505200D01*
G01*
X75692000Y-146532600D02*
X106019600Y-146545300D01*
X106019600Y-153555700D02*
X75692000Y-153543000D01*
X159270700Y-153593800D02*
X128943100Y-153581100D01*
X128943100Y-146570700D02*
X159270700Y-146583400D01*
X128943100Y-153581100D02*
G75*
G02*
X125437900Y-150075900I0J3505200D01*
G01*
X162775900Y-150088600D02*
G75*
G02*
X159270700Y-153593800I-3505200J0D01*
G01*
X159270700Y-146583400D02*
G75*
G02*
X162775900Y-150088600I0J-3505200D01*
G01*
X125437900Y-150075900D02*
G75*
G02*
X128943100Y-146570700I3505200J0D01*
G01*
X260007100Y-66014600D02*
X261340600Y-66014600D01*
X260007100Y-80010000D02*
X261340600Y-80010000D01*
X244792500Y-80137000D02*
X244792500Y-80010000D01*
X246011700Y-66014600D02*
X244792500Y-66014600D01*
X246011700Y-80010000D02*
X244792500Y-80010000D01*
X261340600Y-66014600D02*
X261340600Y-65138300D01*
X244792500Y-66014600D02*
X244792500Y-65151000D01*
X261340600Y-80124300D02*
X261340600Y-80010000D01*
X268452600Y-64757300D02*
G75*
G02*
X268833600Y-65138300I0J-381000D01*
G01*
X261721600Y-80505300D02*
X268452600Y-80505300D01*
X261721600Y-80505300D02*
G75*
G02*
X261340600Y-80124300I0J381000D01*
G01*
X237299500Y-65151000D02*
X237299500Y-80137000D01*
X268833600Y-80124300D02*
G75*
G02*
X268452600Y-80505300I-381000J0D01*
G01*
X237299500Y-65151000D02*
G75*
G02*
X237680500Y-64770000I381000J0D01*
G01*
X244411500Y-64770000D02*
G75*
G02*
X244792500Y-65151000I0J-381000D01*
G01*
X268833600Y-80124300D02*
X268833600Y-65138300D01*
X244411500Y-64770000D02*
X237680500Y-64770000D01*
X237680500Y-80518000D02*
G75*
G02*
X237299500Y-80137000I0J381000D01*
G01*
X244792500Y-80137000D02*
G75*
G02*
X244411500Y-80518000I-381000J0D01*
G01*
X268452600Y-64757300D02*
X261721600Y-64757300D01*
X237680500Y-80518000D02*
X244411500Y-80518000D01*
X261340600Y-65138300D02*
G75*
G02*
X261721600Y-64757300I381000J0D01*
G01*
X246011700Y-80010000D02*
X260007100Y-80010000D01*
X246011700Y-66014600D02*
X260007100Y-66014600D01*
X257759200Y-104127300D02*
X259092700Y-104127300D01*
X257759200Y-118122700D02*
X259092700Y-118122700D01*
X242544600Y-118249700D02*
X242544600Y-118122700D01*
X243763800Y-104127300D02*
X242544600Y-104127300D01*
X243763800Y-118122700D02*
X242544600Y-118122700D01*
X259092700Y-104127300D02*
X259092700Y-103251000D01*
X242544600Y-104127300D02*
X242544600Y-103263700D01*
X259092700Y-118237000D02*
X259092700Y-118122700D01*
X266204700Y-102870000D02*
G75*
G02*
X266585700Y-103251000I0J-381000D01*
G01*
X259473700Y-118618000D02*
X266204700Y-118618000D01*
X259473700Y-118618000D02*
G75*
G02*
X259092700Y-118237000I0J381000D01*
G01*
X235051600Y-103263700D02*
X235051600Y-118249700D01*
X266585700Y-118237000D02*
G75*
G02*
X266204700Y-118618000I-381000J0D01*
G01*
X235051600Y-103263700D02*
G75*
G02*
X235432600Y-102882700I381000J0D01*
G01*
X242163600Y-102882700D02*
G75*
G02*
X242544600Y-103263700I0J-381000D01*
G01*
X266585700Y-118237000D02*
X266585700Y-103251000D01*
X242163600Y-102882700D02*
X235432600Y-102882700D01*
X235432600Y-118630700D02*
G75*
G02*
X235051600Y-118249700I0J381000D01*
G01*
X242544600Y-118249700D02*
G75*
G02*
X242163600Y-118630700I-381000J0D01*
G01*
X266204700Y-102870000D02*
X259473700Y-102870000D01*
X235432600Y-118630700D02*
X242163600Y-118630700D01*
X259092700Y-103251000D02*
G75*
G02*
X259473700Y-102870000I381000J0D01*
G01*
X243763800Y-118122700D02*
X257759200Y-118122700D01*
X243763800Y-104127300D02*
X257759200Y-104127300D01*
X-279400Y-123177300D02*
X-279400Y-122313700D01*
X16268700Y-123177300D02*
X16268700Y-122301000D01*
X-279400Y-137299700D02*
X-279400Y-137172700D01*
X16268700Y-137287000D02*
X16268700Y-137172700D01*
X939800Y-137172700D02*
X-279400Y-137172700D01*
X14935200Y-137172700D02*
X16268700Y-137172700D01*
X14935200Y-123177300D02*
X16268700Y-123177300D01*
X939800Y-123177300D02*
X-279400Y-123177300D01*
X-660400Y-121932700D02*
G75*
G02*
X-279400Y-122313700I0J-381000D01*
G01*
X16268700Y-122301000D02*
G75*
G02*
X16649700Y-121920000I381000J0D01*
G01*
X939800Y-123177300D02*
X14935200Y-123177300D01*
X23380700Y-121920000D02*
G75*
G02*
X23761700Y-122301000I0J-381000D01*
G01*
X16649700Y-137668000D02*
X23380700Y-137668000D01*
X23761700Y-137287000D02*
X23761700Y-122301000D01*
X23761700Y-137287000D02*
G75*
G02*
X23380700Y-137668000I-381000J0D01*
G01*
X16649700Y-137668000D02*
G75*
G02*
X16268700Y-137287000I0J381000D01*
G01*
X23380700Y-121920000D02*
X16649700Y-121920000D01*
X-7772400Y-122313700D02*
X-7772400Y-137299700D01*
X-7772400Y-122313700D02*
G75*
G02*
X-7391400Y-121932700I381000J0D01*
G01*
X-7391400Y-137680700D02*
X-660400Y-137680700D01*
X-279400Y-137299700D02*
G75*
G02*
X-660400Y-137680700I-381000J0D01*
G01*
X-7391400Y-137680700D02*
G75*
G02*
X-7772400Y-137299700I0J381000D01*
G01*
X-660400Y-121932700D02*
X-7391400Y-121932700D01*
X163779200Y-141325600D02*
X163779200Y-156311600D01*
X163779200Y-141325600D02*
G75*
G02*
X164160200Y-140944600I381000J0D01*
G01*
X170891200Y-140944600D02*
G75*
G02*
X171272200Y-141325600I0J-381000D01*
G01*
X164160200Y-156692600D02*
X170891200Y-156692600D01*
X171272200Y-156311600D02*
X171272200Y-141325600D01*
X171272200Y-156311600D02*
G75*
G02*
X170891200Y-156692600I-381000J0D01*
G01*
X164160200Y-156692600D02*
G75*
G02*
X163779200Y-156311600I0J381000D01*
G01*
X170891200Y-140944600D02*
X164160200Y-140944600D01*
X63588900Y-141351000D02*
X63588900Y-156337000D01*
X63588900Y-141351000D02*
G75*
G02*
X63969900Y-140970000I381000J0D01*
G01*
X70700900Y-140970000D02*
G75*
G02*
X71081900Y-141351000I0J-381000D01*
G01*
X63969900Y-156718000D02*
X70700900Y-156718000D01*
X71081900Y-156337000D02*
X71081900Y-141351000D01*
X71081900Y-156337000D02*
G75*
G02*
X70700900Y-156718000I-381000J0D01*
G01*
X63969900Y-156718000D02*
G75*
G02*
X63588900Y-156337000I0J381000D01*
G01*
X70700900Y-140970000D02*
X63969900Y-140970000D01*
X939800Y-137172700D02*
X14935200Y-137172700D01*
D12*
%TO.C,H1*%
X143522700Y-61087000D03*
%TD*%
%TO.C,REF\u002A\u002A*%
X273939000Y-61087000D03*
%TD*%
%TO.C,REF\u002A\u002A*%
X11811000Y-61087000D03*
%TD*%
%TO.C,REF\u002A\u002A*%
X143497300Y-142189200D03*
%TD*%
%TO.C,REF\u002A\u002A*%
X258826000Y-129413000D03*
%TD*%
%TO.C,REF\u002A\u002A*%
X26924000Y-129413000D03*
%TD*%
M02*
