%TF.GenerationSoftware,KiCad,Pcbnew,(5.1.10)-1*%
%TF.CreationDate,2021-06-02T05:43:55-04:00*%
%TF.ProjectId,pi75-plate-back,70693735-2d70-46c6-9174-652d6261636b,rev?*%
%TF.SameCoordinates,Original*%
%TF.FileFunction,Legend,Top*%
%TF.FilePolarity,Positive*%
%FSLAX46Y46*%
G04 Gerber Fmt 4.6, Leading zero omitted, Abs format (unit mm)*
G04 Created by KiCad (PCBNEW (5.1.10)-1) date 2021-06-02 05:43:55*
%MOMM*%
%LPD*%
G01*
G04 APERTURE LIST*
%TA.AperFunction,Profile*%
%ADD10C,0.050000*%
%TD*%
%ADD11C,0.150000*%
G04 APERTURE END LIST*
D10*
X297815000Y-5600700D02*
X-12065000Y-5600700D01*
X297815000Y-5600700D02*
G75*
G02*
X301625000Y-9410700I0J-3810000D01*
G01*
X301625000Y-156730700D02*
G75*
G02*
X297815000Y-160540700I-3810000J0D01*
G01*
X-12065000Y-160540700D02*
G75*
G02*
X-15875000Y-156730700I0J3810000D01*
G01*
X297815000Y-160540700D02*
X-12065000Y-160540700D01*
X-15875000Y-9410700D02*
X-15875000Y-156730700D01*
X-15875000Y-9410700D02*
G75*
G02*
X-12065000Y-5600700I3810000J0D01*
G01*
X301625000Y-9410700D02*
X301625000Y-156730700D01*
D11*
X278743352Y-155484580D02*
X278743352Y-156198866D01*
X278695733Y-156341723D01*
X278600495Y-156436961D01*
X278457638Y-156484580D01*
X278362400Y-156484580D01*
X279695733Y-156484580D02*
X279219542Y-156484580D01*
X279219542Y-155484580D01*
X280600495Y-156389342D02*
X280552876Y-156436961D01*
X280410019Y-156484580D01*
X280314780Y-156484580D01*
X280171923Y-156436961D01*
X280076685Y-156341723D01*
X280029066Y-156246485D01*
X279981447Y-156056009D01*
X279981447Y-155913152D01*
X280029066Y-155722676D01*
X280076685Y-155627438D01*
X280171923Y-155532200D01*
X280314780Y-155484580D01*
X280410019Y-155484580D01*
X280552876Y-155532200D01*
X280600495Y-155579819D01*
X281314780Y-155484580D02*
X281314780Y-156198866D01*
X281267161Y-156341723D01*
X281171923Y-156436961D01*
X281029066Y-156484580D01*
X280933828Y-156484580D01*
X282267161Y-156484580D02*
X281790971Y-156484580D01*
X281790971Y-155484580D01*
X283171923Y-156389342D02*
X283124304Y-156436961D01*
X282981447Y-156484580D01*
X282886209Y-156484580D01*
X282743352Y-156436961D01*
X282648114Y-156341723D01*
X282600495Y-156246485D01*
X282552876Y-156056009D01*
X282552876Y-155913152D01*
X282600495Y-155722676D01*
X282648114Y-155627438D01*
X282743352Y-155532200D01*
X282886209Y-155484580D01*
X282981447Y-155484580D01*
X283124304Y-155532200D01*
X283171923Y-155579819D01*
X283886209Y-155484580D02*
X283886209Y-156198866D01*
X283838590Y-156341723D01*
X283743352Y-156436961D01*
X283600495Y-156484580D01*
X283505257Y-156484580D01*
X284838590Y-156484580D02*
X284362400Y-156484580D01*
X284362400Y-155484580D01*
X285743352Y-156389342D02*
X285695733Y-156436961D01*
X285552876Y-156484580D01*
X285457638Y-156484580D01*
X285314780Y-156436961D01*
X285219542Y-156341723D01*
X285171923Y-156246485D01*
X285124304Y-156056009D01*
X285124304Y-155913152D01*
X285171923Y-155722676D01*
X285219542Y-155627438D01*
X285314780Y-155532200D01*
X285457638Y-155484580D01*
X285552876Y-155484580D01*
X285695733Y-155532200D01*
X285743352Y-155579819D01*
X286457638Y-155484580D02*
X286457638Y-156198866D01*
X286410019Y-156341723D01*
X286314780Y-156436961D01*
X286171923Y-156484580D01*
X286076685Y-156484580D01*
X287410019Y-156484580D02*
X286933828Y-156484580D01*
X286933828Y-155484580D01*
X288314780Y-156389342D02*
X288267161Y-156436961D01*
X288124304Y-156484580D01*
X288029066Y-156484580D01*
X287886209Y-156436961D01*
X287790971Y-156341723D01*
X287743352Y-156246485D01*
X287695733Y-156056009D01*
X287695733Y-155913152D01*
X287743352Y-155722676D01*
X287790971Y-155627438D01*
X287886209Y-155532200D01*
X288029066Y-155484580D01*
X288124304Y-155484580D01*
X288267161Y-155532200D01*
X288314780Y-155579819D01*
M02*
