  0
SECTION
  2
HEADER
  9
$ACADVER
  1
AC1014
  9
$HANDSEED
  5
FFFF
  9
$MEASUREMENT
 70
     1
  0
ENDSEC
  0
SECTION
  2
TABLES
  0
TABLE
  2
VPORT
  5
8
330
0
100
AcDbSymbolTable
 70
     4
  0
VPORT
  5
2E
330
8
100
AcDbSymbolTableRecord
100
AcDbViewportTableRecord
  2
*ACTIVE
 70
     0
 10
0.0
 20
0.0
 11
1.0
 21
1.0
 12
210.0
 22
148.5
 13
0.0
 23
0.0
 14
10.0
 24
10.0
 15
10.0
 25
10.0
 16
0.0
 26
0.0
 36
1.0
 17
0.0
 27
0.0
 37
0.0
 40
341.0
 41
1.24
 42
50.0
 43
0.0
 44
0.0
 50
0.0
 51
0.0
 71
     0
 72
   100
 73
     1
 74
     3
 75
     0
 76
     0
 77
     0
 78
     0
  0
ENDTAB
  0
TABLE
  2
LTYPE
  5
5
330
0
100
AcDbSymbolTable
 70
     1
  0
LTYPE
  5
14
330
5
100
AcDbSymbolTableRecord
100
AcDbLinetypeTableRecord
  2
BYBLOCK
 70
     0
  3

 72
    65
 73
     0
 40
0.0
  0
LTYPE
  5
15
330
5
100
AcDbSymbolTableRecord
100
AcDbLinetypeTableRecord
  2
BYLAYER
 70
     0
  3

 72
    65
 73
     0
 40
0.0
  0
LTYPE
  5
16
330
5
100
AcDbSymbolTableRecord
100
AcDbLinetypeTableRecord
  2
CONTINUOUS
 70
     0
  3
Solid line
 72
    65
 73
     0
 40
0.0
  0
ENDTAB
  0
TABLE
  2
LAYER
  5
2
100
AcDbSymbolTable
 70
1
  0
LAYER
  5
50
100
AcDbSymbolTableRecord
100
AcDbLayerTableRecord
  2
0
 70
0
  6
CONTINUOUS
  0
ENDTAB
  0
TABLE
  2
STYLE
  5
3
330
0
100
AcDbSymbolTable
 70
     1
  0
STYLE
  5
11
330
3
100
AcDbSymbolTableRecord
100
AcDbTextStyleTableRecord
  2
STANDARD
 70
     0
 40
0.0
 41
1.0
 50
0.0
 71
     0
 42
2.5
  3
txt
  4

  0
ENDTAB
  0
TABLE
  2
VIEW
  5
6
330
0
100
AcDbSymbolTable
 70
     0
  0
ENDTAB
  0
TABLE
  2
UCS
  5
7
330
0
100
AcDbSymbolTable
 70
     0
  0
ENDTAB
  0
TABLE
  2
APPID
  5
9
330
0
100
AcDbSymbolTable
 70
     2
  0
APPID
  5
12
330
9
100
AcDbSymbolTableRecord
100
AcDbRegAppTableRecord
  2
ACAD
 70
     0
  0
ENDTAB
  0
TABLE
  2
DIMSTYLE
  5
A
330
0
100
AcDbSymbolTable
 70
     1
  0
DIMSTYLE
105
27
330
A
100
AcDbSymbolTableRecord
100
AcDbDimStyleTableRecord
  2
ISO-25
 70
     0
  3

  4

  5

  6

  7

 40
1.0
 41
2.5
 42
0.625
 43
3.75
 44
1.25
 45
0.0
 46
0.0
 47
0.0
 48
0.0
140
2.5
141
2.5
142
0.0
143
0.03937007874016
144
1.0
145
0.0
146
1.0
147
0.625
 71
     0
 72
     0
 73
     0
 74
     0
 75
     0
 76
     0
 77
     1
 78
     8
170
     0
171
     3
172
     1
173
     0
174
     0
175
     0
176
     0
177
     0
178
     0
270
     2
271
     2
272
     2
273
     2
274
     3
340
11
275
     0
280
     0
281
     0
282
     0
283
     0
284
     8
285
     0
286
     0
287
     3
288
     0
  0
ENDTAB
  0
TABLE
  2
BLOCK_RECORD
  5
1
330
0
100
AcDbSymbolTable
 70
     1
  0
BLOCK_RECORD
  5
1F
330
1
100
AcDbSymbolTableRecord
100
AcDbBlockTableRecord
  2
*MODEL_SPACE
  0
BLOCK_RECORD
  5
1B
330
1
100
AcDbSymbolTableRecord
100
AcDbBlockTableRecord
  2
*PAPER_SPACE
  0
ENDTAB
  0
ENDSEC
  0
SECTION
  2
BLOCKS
  0
BLOCK
  5
20
330
1F
100
AcDbEntity
  8
0
100
AcDbBlockBegin
  2
*MODEL_SPACE
 70
     0
 10
0.0
 20
0.0
 30
0.0
  3
*MODEL_SPACE
  1

  0
ENDBLK
  5
21
330
1F
100
AcDbEntity
  8
0
100
AcDbBlockEnd
  0
BLOCK
  5
1C
330
1B
100
AcDbEntity
 67
     1
  8
0
100
AcDbBlockBegin
  2
*PAPER_SPACE
  1

  0
ENDBLK
  5
1D
330
1B
100
AcDbEntity
 67
     1
  8
0
100
AcDbBlockEnd
  0
ENDSEC
  0
SECTION
  2
ENTITIES
  0
SPLINE
  5
100
100
AcDbEntity
  8
0
 62
7
100
AcDbSpline
 70
8
 71
3
 72
8
 73
4
 74
0
 40
0
 40
0
 40
0
 40
0
 40
1
 40
1
 40
1
 40
1
 10
317.524916
 20
-2.347089
 30
0.0
 10
317.524916
 20
-1.336614
 30
0.0
 10
317.123506
 20
-0.367526
 30
0.0
 10
316.408993
 20
0.346987
 30
0.0
  0
SPLINE
  5
101
100
AcDbEntity
  8
0
 62
7
100
AcDbSpline
 70
8
 71
3
 72
8
 73
4
 74
0
 40
0
 40
0
 40
0
 40
0
 40
1
 40
1
 40
1
 40
1
 10
316.408993
 20
0.346987
 30
0.0
 10
315.694479
 20
1.061501
 30
0.0
 10
314.725391
 20
1.462910
 30
0.0
 10
313.714917
 20
1.462910
 30
0.0
  0
SPLINE
  5
102
100
AcDbEntity
  8
0
 62
7
100
AcDbSpline
 70
8
 71
3
 72
8
 73
4
 74
0
 40
0
 40
0
 40
0
 40
0
 40
1
 40
1
 40
1
 40
1
 10
313.714917
 20
-153.477052
 30
0.0
 10
314.725391
 20
-153.477052
 30
0.0
 10
315.694479
 20
-153.075643
 30
0.0
 10
316.408993
 20
-152.361129
 30
0.0
  0
SPLINE
  5
103
100
AcDbEntity
  8
0
 62
7
100
AcDbSpline
 70
8
 71
3
 72
8
 73
4
 74
0
 40
0
 40
0
 40
0
 40
0
 40
1
 40
1
 40
1
 40
1
 10
316.408993
 20
-152.361129
 30
0.0
 10
317.123506
 20
-151.646616
 30
0.0
 10
317.524916
 20
-150.677527
 30
0.0
 10
317.524916
 20
-149.667053
 30
0.0
  0
SPLINE
  5
104
100
AcDbEntity
  8
0
 62
7
100
AcDbSpline
 70
8
 71
3
 72
8
 73
4
 74
0
 40
0
 40
0
 40
0
 40
0
 40
1
 40
1
 40
1
 40
1
 10
0.024994
 20
-149.667053
 30
0.0
 10
0.024994
 20
-150.677527
 30
0.0
 10
0.426403
 20
-151.646616
 30
0.0
 10
1.140916
 20
-152.361129
 30
0.0
  0
SPLINE
  5
105
100
AcDbEntity
  8
0
 62
7
100
AcDbSpline
 70
8
 71
3
 72
8
 73
4
 74
0
 40
0
 40
0
 40
0
 40
0
 40
1
 40
1
 40
1
 40
1
 10
1.140916
 20
-152.361129
 30
0.0
 10
1.855430
 20
-153.075643
 30
0.0
 10
2.824518
 20
-153.477052
 30
0.0
 10
3.834993
 20
-153.477052
 30
0.0
  0
LWPOLYLINE
  5
106
100
AcDbEntity
  8
0
 62
7
100
AcDbPolyline
 90
2
 70
0
 10
313.714917
 20
1.462910
 30
0.0
 10
3.834993
 20
1.462910
 30
0.0
  0
LWPOLYLINE
  5
107
100
AcDbEntity
  8
0
 62
7
100
AcDbPolyline
 90
2
 70
0
 10
313.714917
 20
-153.477052
 30
0.0
 10
3.834993
 20
-153.477052
 30
0.0
  0
SPLINE
  5
108
100
AcDbEntity
  8
0
 62
7
100
AcDbSpline
 70
8
 71
3
 72
8
 73
4
 74
0
 40
0
 40
0
 40
0
 40
0
 40
1
 40
1
 40
1
 40
1
 10
3.834993
 20
1.462910
 30
0.0
 10
2.824518
 20
1.462910
 30
0.0
 10
1.855430
 20
1.061501
 30
0.0
 10
1.140916
 20
0.346987
 30
0.0
  0
SPLINE
  5
109
100
AcDbEntity
  8
0
 62
7
100
AcDbSpline
 70
8
 71
3
 72
8
 73
4
 74
0
 40
0
 40
0
 40
0
 40
0
 40
1
 40
1
 40
1
 40
1
 10
1.140916
 20
0.346987
 30
0.0
 10
0.426403
 20
-0.367526
 30
0.0
 10
0.024994
 20
-1.336614
 30
0.0
 10
0.024994
 20
-2.347089
 30
0.0
  0
LWPOLYLINE
  5
10a
100
AcDbEntity
  8
0
 62
7
100
AcDbPolyline
 90
2
 70
0
 10
0.024994
 20
-2.347089
 30
0.0
 10
0.024994
 20
-149.667053
 30
0.0
  0
SPLINE
  5
10b
100
AcDbEntity
  8
0
 62
7
100
AcDbSpline
 70
8
 71
3
 72
8
 73
4
 74
0
 40
0
 40
0
 40
0
 40
0
 40
1
 40
1
 40
1
 40
1
 10
159.422655
 20
-51.823376
 30
0.0
 10
158.207628
 20
-51.823376
 30
0.0
 10
157.222654
 20
-52.808350
 30
0.0
 10
157.222654
 20
-54.023376
 30
0.0
  0
SPLINE
  5
10c
100
AcDbEntity
  8
0
 62
7
100
AcDbSpline
 70
8
 71
3
 72
8
 73
4
 74
0
 40
0
 40
0
 40
0
 40
0
 40
1
 40
1
 40
1
 40
1
 10
157.222654
 20
-54.023376
 30
0.0
 10
157.222654
 20
-55.238403
 30
0.0
 10
158.207628
 20
-56.223377
 30
0.0
 10
159.422655
 20
-56.223377
 30
0.0
  0
SPLINE
  5
10d
100
AcDbEntity
  8
0
 62
7
100
AcDbSpline
 70
8
 71
3
 72
8
 73
4
 74
0
 40
0
 40
0
 40
0
 40
0
 40
1
 40
1
 40
1
 40
1
 10
159.422655
 20
-56.223377
 30
0.0
 10
160.637681
 20
-56.223377
 30
0.0
 10
161.622655
 20
-55.238403
 30
0.0
 10
161.622655
 20
-54.023376
 30
0.0
  0
SPLINE
  5
10e
100
AcDbEntity
  8
0
 62
7
100
AcDbSpline
 70
8
 71
3
 72
8
 73
4
 74
0
 40
0
 40
0
 40
0
 40
0
 40
1
 40
1
 40
1
 40
1
 10
161.622655
 20
-54.023376
 30
0.0
 10
161.622655
 20
-53.439900
 30
0.0
 10
161.390870
 20
-52.880321
 30
0.0
 10
160.978290
 20
-52.467741
 30
0.0
  0
SPLINE
  5
10f
100
AcDbEntity
  8
0
 62
7
100
AcDbSpline
 70
8
 71
3
 72
8
 73
4
 74
0
 40
0
 40
0
 40
0
 40
0
 40
1
 40
1
 40
1
 40
1
 10
160.978290
 20
-52.467741
 30
0.0
 10
160.565710
 20
-52.055161
 30
0.0
 10
160.006131
 20
-51.823376
 30
0.0
 10
159.422655
 20
-51.823376
 30
0.0
  0
LWPOLYLINE
  5
110
100
AcDbEntity
  8
0
 62
7
100
AcDbPolyline
 90
2
 70
0
 10
317.524916
 20
-2.347089
 30
0.0
 10
317.524916
 20
-149.667053
 30
0.0
  0
SPLINE
  5
111
100
AcDbEntity
  8
0
 62
7
100
AcDbSpline
 70
8
 71
3
 72
8
 73
4
 74
0
 40
0
 40
0
 40
0
 40
0
 40
1
 40
1
 40
1
 40
1
 10
313.079917
 20
-25.039083
 30
0.0
 10
312.190100
 20
-25.039083
 30
0.0
 10
311.387900
 20
-25.575096
 30
0.0
 10
311.047382
 20
-26.397179
 30
0.0
  0
SPLINE
  5
112
100
AcDbEntity
  8
0
 62
7
100
AcDbSpline
 70
8
 71
3
 72
8
 73
4
 74
0
 40
0
 40
0
 40
0
 40
0
 40
1
 40
1
 40
1
 40
1
 10
311.047382
 20
-26.397179
 30
0.0
 10
310.706863
 20
-27.219263
 30
0.0
 10
310.895086
 20
-28.165522
 30
0.0
 10
311.524282
 20
-28.794718
 30
0.0
  0
SPLINE
  5
113
100
AcDbEntity
  8
0
 62
7
100
AcDbSpline
 70
8
 71
3
 72
8
 73
4
 74
0
 40
0
 40
0
 40
0
 40
0
 40
1
 40
1
 40
1
 40
1
 10
311.524282
 20
-28.794718
 30
0.0
 10
312.153477
 20
-29.423914
 30
0.0
 10
313.099737
 20
-29.612136
 30
0.0
 10
313.921820
 20
-29.271618
 30
0.0
  0
SPLINE
  5
114
100
AcDbEntity
  8
0
 62
7
100
AcDbSpline
 70
8
 71
3
 72
8
 73
4
 74
0
 40
0
 40
0
 40
0
 40
0
 40
1
 40
1
 40
1
 40
1
 10
313.921820
 20
-29.271618
 30
0.0
 10
314.743904
 20
-28.931100
 30
0.0
 10
315.279917
 20
-28.128900
 30
0.0
 10
315.279917
 20
-27.239083
 30
0.0
  0
SPLINE
  5
115
100
AcDbEntity
  8
0
 62
7
100
AcDbSpline
 70
8
 71
3
 72
8
 73
4
 74
0
 40
0
 40
0
 40
0
 40
0
 40
1
 40
1
 40
1
 40
1
 10
315.279917
 20
-27.239083
 30
0.0
 10
315.279917
 20
-26.655607
 30
0.0
 10
315.048132
 20
-26.096028
 30
0.0
 10
314.635552
 20
-25.683448
 30
0.0
  0
SPLINE
  5
116
100
AcDbEntity
  8
0
 62
7
100
AcDbSpline
 70
8
 71
3
 72
8
 73
4
 74
0
 40
0
 40
0
 40
0
 40
0
 40
1
 40
1
 40
1
 40
1
 10
314.635552
 20
-25.683448
 30
0.0
 10
314.222972
 20
-25.270868
 30
0.0
 10
313.663393
 20
-25.039083
 30
0.0
 10
313.079917
 20
-25.039083
 30
0.0
  0
LWPOLYLINE
  5
117
100
AcDbEntity
  8
0
 62
7
100
AcDbPolyline
 90
1
 70
1
 10
159.422655
 20
-51.823376
 30
0.0
  0
SPLINE
  5
118
100
AcDbEntity
  8
0
 62
7
100
AcDbSpline
 70
8
 71
3
 72
8
 73
4
 74
0
 40
0
 40
0
 40
0
 40
0
 40
1
 40
1
 40
1
 40
1
 10
313.079917
 20
0.360911
 30
0.0
 10
312.190100
 20
0.360911
 30
0.0
 10
311.387900
 20
-0.175102
 30
0.0
 10
311.047382
 20
-0.997186
 30
0.0
  0
SPLINE
  5
119
100
AcDbEntity
  8
0
 62
7
100
AcDbSpline
 70
8
 71
3
 72
8
 73
4
 74
0
 40
0
 40
0
 40
0
 40
0
 40
1
 40
1
 40
1
 40
1
 10
311.047382
 20
-0.997186
 30
0.0
 10
310.706863
 20
-1.819269
 30
0.0
 10
310.895086
 20
-2.765529
 30
0.0
 10
311.524282
 20
-3.394724
 30
0.0
  0
SPLINE
  5
11a
100
AcDbEntity
  8
0
 62
7
100
AcDbSpline
 70
8
 71
3
 72
8
 73
4
 74
0
 40
0
 40
0
 40
0
 40
0
 40
1
 40
1
 40
1
 40
1
 10
311.524282
 20
-3.394724
 30
0.0
 10
312.153477
 20
-4.023920
 30
0.0
 10
313.099737
 20
-4.212143
 30
0.0
 10
313.921820
 20
-3.871624
 30
0.0
  0
SPLINE
  5
11b
100
AcDbEntity
  8
0
 62
7
100
AcDbSpline
 70
8
 71
3
 72
8
 73
4
 74
0
 40
0
 40
0
 40
0
 40
0
 40
1
 40
1
 40
1
 40
1
 10
313.921820
 20
-3.871624
 30
0.0
 10
314.743904
 20
-3.531106
 30
0.0
 10
315.279917
 20
-2.728906
 30
0.0
 10
315.279917
 20
-1.839089
 30
0.0
  0
SPLINE
  5
11c
100
AcDbEntity
  8
0
 62
7
100
AcDbSpline
 70
8
 71
3
 72
8
 73
4
 74
0
 40
0
 40
0
 40
0
 40
0
 40
1
 40
1
 40
1
 40
1
 10
315.279917
 20
-1.839089
 30
0.0
 10
315.279917
 20
-1.255613
 30
0.0
 10
315.048132
 20
-0.696034
 30
0.0
 10
314.635552
 20
-0.283454
 30
0.0
  0
SPLINE
  5
11d
100
AcDbEntity
  8
0
 62
7
100
AcDbSpline
 70
8
 71
3
 72
8
 73
4
 74
0
 40
0
 40
0
 40
0
 40
0
 40
1
 40
1
 40
1
 40
1
 10
314.635552
 20
-0.283454
 30
0.0
 10
314.222972
 20
0.129126
 30
0.0
 10
313.663393
 20
0.360911
 30
0.0
 10
313.079917
 20
0.360911
 30
0.0
  0
LWPOLYLINE
  5
11e
100
AcDbEntity
  8
0
 62
7
100
AcDbPolyline
 90
1
 70
1
 10
313.079917
 20
-25.039083
 30
0.0
  0
SPLINE
  5
11f
100
AcDbEntity
  8
0
 62
7
100
AcDbSpline
 70
8
 71
3
 72
8
 73
4
 74
0
 40
0
 40
0
 40
0
 40
0
 40
1
 40
1
 40
1
 40
1
 10
274.738626
 20
-120.276359
 30
0.0
 10
273.848809
 20
-120.276359
 30
0.0
 10
273.046609
 20
-120.812372
 30
0.0
 10
272.706091
 20
-121.634456
 30
0.0
  0
SPLINE
  5
120
100
AcDbEntity
  8
0
 62
7
100
AcDbSpline
 70
8
 71
3
 72
8
 73
4
 74
0
 40
0
 40
0
 40
0
 40
0
 40
1
 40
1
 40
1
 40
1
 10
272.706091
 20
-121.634456
 30
0.0
 10
272.365573
 20
-122.456540
 30
0.0
 10
272.553796
 20
-123.402799
 30
0.0
 10
273.182991
 20
-124.031995
 30
0.0
  0
SPLINE
  5
121
100
AcDbEntity
  8
0
 62
7
100
AcDbSpline
 70
8
 71
3
 72
8
 73
4
 74
0
 40
0
 40
0
 40
0
 40
0
 40
1
 40
1
 40
1
 40
1
 10
273.182991
 20
-124.031995
 30
0.0
 10
273.812187
 20
-124.661190
 30
0.0
 10
274.758446
 20
-124.849413
 30
0.0
 10
275.580530
 20
-124.508895
 30
0.0
  0
SPLINE
  5
122
100
AcDbEntity
  8
0
 62
7
100
AcDbSpline
 70
8
 71
3
 72
8
 73
4
 74
0
 40
0
 40
0
 40
0
 40
0
 40
1
 40
1
 40
1
 40
1
 10
275.580530
 20
-124.508895
 30
0.0
 10
276.402614
 20
-124.168377
 30
0.0
 10
276.938626
 20
-123.366177
 30
0.0
 10
276.938626
 20
-122.476360
 30
0.0
  0
SPLINE
  5
123
100
AcDbEntity
  8
0
 62
7
100
AcDbSpline
 70
8
 71
3
 72
8
 73
4
 74
0
 40
0
 40
0
 40
0
 40
0
 40
1
 40
1
 40
1
 40
1
 10
276.938626
 20
-122.476360
 30
0.0
 10
276.938626
 20
-121.892883
 30
0.0
 10
276.706841
 20
-121.333305
 30
0.0
 10
276.294261
 20
-120.920724
 30
0.0
  0
SPLINE
  5
124
100
AcDbEntity
  8
0
 62
7
100
AcDbSpline
 70
8
 71
3
 72
8
 73
4
 74
0
 40
0
 40
0
 40
0
 40
0
 40
1
 40
1
 40
1
 40
1
 10
276.294261
 20
-120.920724
 30
0.0
 10
275.881681
 20
-120.508144
 30
0.0
 10
275.322103
 20
-120.276359
 30
0.0
 10
274.738626
 20
-120.276359
 30
0.0
  0
LWPOLYLINE
  5
125
100
AcDbEntity
  8
0
 62
7
100
AcDbPolyline
 90
1
 70
1
 10
313.079917
 20
0.360911
 30
0.0
  0
SPLINE
  5
126
100
AcDbEntity
  8
0
 62
7
100
AcDbSpline
 70
8
 71
3
 72
8
 73
4
 74
0
 40
0
 40
0
 40
0
 40
0
 40
1
 40
1
 40
1
 40
1
 10
27.723687
 20
-51.950376
 30
0.0
 10
26.833870
 20
-51.950376
 30
0.0
 10
26.031670
 20
-52.486389
 30
0.0
 10
25.691152
 20
-53.308473
 30
0.0
  0
SPLINE
  5
127
100
AcDbEntity
  8
0
 62
7
100
AcDbSpline
 70
8
 71
3
 72
8
 73
4
 74
0
 40
0
 40
0
 40
0
 40
0
 40
1
 40
1
 40
1
 40
1
 10
25.691152
 20
-53.308473
 30
0.0
 10
25.350633
 20
-54.130556
 30
0.0
 10
25.538856
 20
-55.076816
 30
0.0
 10
26.168052
 20
-55.706011
 30
0.0
  0
SPLINE
  5
128
100
AcDbEntity
  8
0
 62
7
100
AcDbSpline
 70
8
 71
3
 72
8
 73
4
 74
0
 40
0
 40
0
 40
0
 40
0
 40
1
 40
1
 40
1
 40
1
 10
26.168052
 20
-55.706011
 30
0.0
 10
26.797247
 20
-56.335207
 30
0.0
 10
27.743507
 20
-56.523430
 30
0.0
 10
28.565590
 20
-56.182911
 30
0.0
  0
SPLINE
  5
129
100
AcDbEntity
  8
0
 62
7
100
AcDbSpline
 70
8
 71
3
 72
8
 73
4
 74
0
 40
0
 40
0
 40
0
 40
0
 40
1
 40
1
 40
1
 40
1
 10
28.565590
 20
-56.182911
 30
0.0
 10
29.387674
 20
-55.842393
 30
0.0
 10
29.923687
 20
-55.040193
 30
0.0
 10
29.923687
 20
-54.150376
 30
0.0
  0
SPLINE
  5
12a
100
AcDbEntity
  8
0
 62
7
100
AcDbSpline
 70
8
 71
3
 72
8
 73
4
 74
0
 40
0
 40
0
 40
0
 40
0
 40
1
 40
1
 40
1
 40
1
 10
29.923687
 20
-54.150376
 30
0.0
 10
29.923687
 20
-53.566900
 30
0.0
 10
29.691902
 20
-53.007321
 30
0.0
 10
29.279322
 20
-52.594741
 30
0.0
  0
SPLINE
  5
12b
100
AcDbEntity
  8
0
 62
7
100
AcDbSpline
 70
8
 71
3
 72
8
 73
4
 74
0
 40
0
 40
0
 40
0
 40
0
 40
1
 40
1
 40
1
 40
1
 10
29.279322
 20
-52.594741
 30
0.0
 10
28.866742
 20
-52.182161
 30
0.0
 10
28.307163
 20
-51.950376
 30
0.0
 10
27.723687
 20
-51.950376
 30
0.0
  0
LWPOLYLINE
  5
12c
100
AcDbEntity
  8
0
 62
7
100
AcDbPolyline
 90
1
 70
1
 10
274.738626
 20
-120.276359
 30
0.0
  0
SPLINE
  5
12d
100
AcDbEntity
  8
0
 62
7
100
AcDbSpline
 70
8
 71
3
 72
8
 73
4
 74
0
 40
0
 40
0
 40
0
 40
0
 40
1
 40
1
 40
1
 40
1
 10
42.836683
 20
-120.276359
 30
0.0
 10
41.946866
 20
-120.276359
 30
0.0
 10
41.144666
 20
-120.812372
 30
0.0
 10
40.804148
 20
-121.634456
 30
0.0
  0
SPLINE
  5
12e
100
AcDbEntity
  8
0
 62
7
100
AcDbSpline
 70
8
 71
3
 72
8
 73
4
 74
0
 40
0
 40
0
 40
0
 40
0
 40
1
 40
1
 40
1
 40
1
 10
40.804148
 20
-121.634456
 30
0.0
 10
40.463630
 20
-122.456540
 30
0.0
 10
40.651852
 20
-123.402799
 30
0.0
 10
41.281048
 20
-124.031995
 30
0.0
  0
SPLINE
  5
12f
100
AcDbEntity
  8
0
 62
7
100
AcDbSpline
 70
8
 71
3
 72
8
 73
4
 74
0
 40
0
 40
0
 40
0
 40
0
 40
1
 40
1
 40
1
 40
1
 10
41.281048
 20
-124.031995
 30
0.0
 10
41.910244
 20
-124.661190
 30
0.0
 10
42.856503
 20
-124.849413
 30
0.0
 10
43.678587
 20
-124.508895
 30
0.0
  0
SPLINE
  5
130
100
AcDbEntity
  8
0
 62
7
100
AcDbSpline
 70
8
 71
3
 72
8
 73
4
 74
0
 40
0
 40
0
 40
0
 40
0
 40
1
 40
1
 40
1
 40
1
 10
43.678587
 20
-124.508895
 30
0.0
 10
44.500670
 20
-124.168377
 30
0.0
 10
45.036683
 20
-123.366177
 30
0.0
 10
45.036683
 20
-122.476360
 30
0.0
  0
SPLINE
  5
131
100
AcDbEntity
  8
0
 62
7
100
AcDbSpline
 70
8
 71
3
 72
8
 73
4
 74
0
 40
0
 40
0
 40
0
 40
0
 40
1
 40
1
 40
1
 40
1
 10
45.036683
 20
-122.476360
 30
0.0
 10
45.036683
 20
-121.892883
 30
0.0
 10
44.804898
 20
-121.333305
 30
0.0
 10
44.392318
 20
-120.920724
 30
0.0
  0
SPLINE
  5
132
100
AcDbEntity
  8
0
 62
7
100
AcDbSpline
 70
8
 71
3
 72
8
 73
4
 74
0
 40
0
 40
0
 40
0
 40
0
 40
1
 40
1
 40
1
 40
1
 10
44.392318
 20
-120.920724
 30
0.0
 10
43.979738
 20
-120.508144
 30
0.0
 10
43.420159
 20
-120.276359
 30
0.0
 10
42.836683
 20
-120.276359
 30
0.0
  0
LWPOLYLINE
  5
133
100
AcDbEntity
  8
0
 62
7
100
AcDbPolyline
 90
1
 70
1
 10
27.723687
 20
-51.950376
 30
0.0
  0
SPLINE
  5
134
100
AcDbEntity
  8
0
 62
7
100
AcDbSpline
 70
8
 71
3
 72
8
 73
4
 74
0
 40
0
 40
0
 40
0
 40
0
 40
1
 40
1
 40
1
 40
1
 10
289.851623
 20
-51.950376
 30
0.0
 10
288.961806
 20
-51.950376
 30
0.0
 10
288.159606
 20
-52.486389
 30
0.0
 10
287.819087
 20
-53.308473
 30
0.0
  0
SPLINE
  5
135
100
AcDbEntity
  8
0
 62
7
100
AcDbSpline
 70
8
 71
3
 72
8
 73
4
 74
0
 40
0
 40
0
 40
0
 40
0
 40
1
 40
1
 40
1
 40
1
 10
287.819087
 20
-53.308473
 30
0.0
 10
287.478569
 20
-54.130556
 30
0.0
 10
287.666792
 20
-55.076816
 30
0.0
 10
288.295987
 20
-55.706011
 30
0.0
  0
SPLINE
  5
136
100
AcDbEntity
  8
0
 62
7
100
AcDbSpline
 70
8
 71
3
 72
8
 73
4
 74
0
 40
0
 40
0
 40
0
 40
0
 40
1
 40
1
 40
1
 40
1
 10
288.295987
 20
-55.706011
 30
0.0
 10
288.925183
 20
-56.335207
 30
0.0
 10
289.871442
 20
-56.523430
 30
0.0
 10
290.693526
 20
-56.182911
 30
0.0
  0
SPLINE
  5
137
100
AcDbEntity
  8
0
 62
7
100
AcDbSpline
 70
8
 71
3
 72
8
 73
4
 74
0
 40
0
 40
0
 40
0
 40
0
 40
1
 40
1
 40
1
 40
1
 10
290.693526
 20
-56.182911
 30
0.0
 10
291.515610
 20
-55.842393
 30
0.0
 10
292.051623
 20
-55.040193
 30
0.0
 10
292.051623
 20
-54.150376
 30
0.0
  0
SPLINE
  5
138
100
AcDbEntity
  8
0
 62
7
100
AcDbSpline
 70
8
 71
3
 72
8
 73
4
 74
0
 40
0
 40
0
 40
0
 40
0
 40
1
 40
1
 40
1
 40
1
 10
292.051623
 20
-54.150376
 30
0.0
 10
292.051623
 20
-53.566900
 30
0.0
 10
291.819838
 20
-53.007321
 30
0.0
 10
291.407258
 20
-52.594741
 30
0.0
  0
SPLINE
  5
139
100
AcDbEntity
  8
0
 62
7
100
AcDbSpline
 70
8
 71
3
 72
8
 73
4
 74
0
 40
0
 40
0
 40
0
 40
0
 40
1
 40
1
 40
1
 40
1
 10
291.407258
 20
-52.594741
 30
0.0
 10
290.994678
 20
-52.182161
 30
0.0
 10
290.435099
 20
-51.950376
 30
0.0
 10
289.851623
 20
-51.950376
 30
0.0
  0
LWPOLYLINE
  5
13a
100
AcDbEntity
  8
0
 62
7
100
AcDbPolyline
 90
1
 70
1
 10
42.836683
 20
-120.276359
 30
0.0
  0
SPLINE
  5
13b
100
AcDbEntity
  8
0
 62
7
100
AcDbSpline
 70
8
 71
3
 72
8
 73
4
 74
0
 40
0
 40
0
 40
0
 40
0
 40
1
 40
1
 40
1
 40
1
 10
159.409955
 20
-133.052556
 30
0.0
 10
158.520137
 20
-133.052556
 30
0.0
 10
157.717938
 20
-133.588569
 30
0.0
 10
157.377419
 20
-134.410653
 30
0.0
  0
SPLINE
  5
13c
100
AcDbEntity
  8
0
 62
7
100
AcDbSpline
 70
8
 71
3
 72
8
 73
4
 74
0
 40
0
 40
0
 40
0
 40
0
 40
1
 40
1
 40
1
 40
1
 10
157.377419
 20
-134.410653
 30
0.0
 10
157.036901
 20
-135.232737
 30
0.0
 10
157.225124
 20
-136.178996
 30
0.0
 10
157.854319
 20
-136.808192
 30
0.0
  0
SPLINE
  5
13d
100
AcDbEntity
  8
0
 62
7
100
AcDbSpline
 70
8
 71
3
 72
8
 73
4
 74
0
 40
0
 40
0
 40
0
 40
0
 40
1
 40
1
 40
1
 40
1
 10
157.854319
 20
-136.808192
 30
0.0
 10
158.483515
 20
-137.437387
 30
0.0
 10
159.429774
 20
-137.625610
 30
0.0
 10
160.251858
 20
-137.285092
 30
0.0
  0
SPLINE
  5
13e
100
AcDbEntity
  8
0
 62
7
100
AcDbSpline
 70
8
 71
3
 72
8
 73
4
 74
0
 40
0
 40
0
 40
0
 40
0
 40
1
 40
1
 40
1
 40
1
 10
160.251858
 20
-137.285092
 30
0.0
 10
161.073942
 20
-136.944573
 30
0.0
 10
161.609955
 20
-136.142373
 30
0.0
 10
161.609955
 20
-135.252556
 30
0.0
  0
SPLINE
  5
13f
100
AcDbEntity
  8
0
 62
7
100
AcDbSpline
 70
8
 71
3
 72
8
 73
4
 74
0
 40
0
 40
0
 40
0
 40
0
 40
1
 40
1
 40
1
 40
1
 10
161.609955
 20
-135.252556
 30
0.0
 10
161.609955
 20
-134.669080
 30
0.0
 10
161.378170
 20
-134.109501
 30
0.0
 10
160.965590
 20
-133.696921
 30
0.0
  0
SPLINE
  5
140
100
AcDbEntity
  8
0
 62
7
100
AcDbSpline
 70
8
 71
3
 72
8
 73
4
 74
0
 40
0
 40
0
 40
0
 40
0
 40
1
 40
1
 40
1
 40
1
 10
160.965590
 20
-133.696921
 30
0.0
 10
160.553010
 20
-133.284341
 30
0.0
 10
159.993431
 20
-133.052556
 30
0.0
 10
159.409955
 20
-133.052556
 30
0.0
  0
LWPOLYLINE
  5
141
100
AcDbEntity
  8
0
 62
7
100
AcDbPolyline
 90
1
 70
1
 10
289.851623
 20
-51.950376
 30
0.0
  0
SPLINE
  5
142
100
AcDbEntity
  8
0
 62
7
100
AcDbSpline
 70
8
 71
3
 72
8
 73
4
 74
0
 40
0
 40
0
 40
0
 40
0
 40
1
 40
1
 40
1
 40
1
 10
4.469993
 20
0.360911
 30
0.0
 10
3.580175
 20
0.360911
 30
0.0
 10
2.777976
 20
-0.175102
 30
0.0
 10
2.437457
 20
-0.997186
 30
0.0
  0
SPLINE
  5
143
100
AcDbEntity
  8
0
 62
7
100
AcDbSpline
 70
8
 71
3
 72
8
 73
4
 74
0
 40
0
 40
0
 40
0
 40
0
 40
1
 40
1
 40
1
 40
1
 10
2.437457
 20
-0.997186
 30
0.0
 10
2.096939
 20
-1.819269
 30
0.0
 10
2.285162
 20
-2.765529
 30
0.0
 10
2.914357
 20
-3.394724
 30
0.0
  0
SPLINE
  5
144
100
AcDbEntity
  8
0
 62
7
100
AcDbSpline
 70
8
 71
3
 72
8
 73
4
 74
0
 40
0
 40
0
 40
0
 40
0
 40
1
 40
1
 40
1
 40
1
 10
2.914357
 20
-3.394724
 30
0.0
 10
3.543553
 20
-4.023920
 30
0.0
 10
4.489812
 20
-4.212143
 30
0.0
 10
5.311896
 20
-3.871624
 30
0.0
  0
SPLINE
  5
145
100
AcDbEntity
  8
0
 62
7
100
AcDbSpline
 70
8
 71
3
 72
8
 73
4
 74
0
 40
0
 40
0
 40
0
 40
0
 40
1
 40
1
 40
1
 40
1
 10
5.311896
 20
-3.871624
 30
0.0
 10
6.133980
 20
-3.531106
 30
0.0
 10
6.669993
 20
-2.728906
 30
0.0
 10
6.669993
 20
-1.839089
 30
0.0
  0
SPLINE
  5
146
100
AcDbEntity
  8
0
 62
7
100
AcDbSpline
 70
8
 71
3
 72
8
 73
4
 74
0
 40
0
 40
0
 40
0
 40
0
 40
1
 40
1
 40
1
 40
1
 10
6.669993
 20
-1.839089
 30
0.0
 10
6.669993
 20
-1.255613
 30
0.0
 10
6.438208
 20
-0.696034
 30
0.0
 10
6.025628
 20
-0.283454
 30
0.0
  0
SPLINE
  5
147
100
AcDbEntity
  8
0
 62
7
100
AcDbSpline
 70
8
 71
3
 72
8
 73
4
 74
0
 40
0
 40
0
 40
0
 40
0
 40
1
 40
1
 40
1
 40
1
 10
6.025628
 20
-0.283454
 30
0.0
 10
5.613048
 20
0.129126
 30
0.0
 10
5.053469
 20
0.360911
 30
0.0
 10
4.469993
 20
0.360911
 30
0.0
  0
LWPOLYLINE
  5
148
100
AcDbEntity
  8
0
 62
7
100
AcDbPolyline
 90
1
 70
1
 10
159.409955
 20
-133.052556
 30
0.0
  0
SPLINE
  5
149
100
AcDbEntity
  8
0
 62
7
100
AcDbSpline
 70
8
 71
3
 72
8
 73
4
 74
0
 40
0
 40
0
 40
0
 40
0
 40
1
 40
1
 40
1
 40
1
 10
4.469993
 20
-25.166083
 30
0.0
 10
3.580175
 20
-25.166083
 30
0.0
 10
2.777976
 20
-25.702096
 30
0.0
 10
2.437457
 20
-26.524179
 30
0.0
  0
SPLINE
  5
14a
100
AcDbEntity
  8
0
 62
7
100
AcDbSpline
 70
8
 71
3
 72
8
 73
4
 74
0
 40
0
 40
0
 40
0
 40
0
 40
1
 40
1
 40
1
 40
1
 10
2.437457
 20
-26.524179
 30
0.0
 10
2.096939
 20
-27.346263
 30
0.0
 10
2.285162
 20
-28.292522
 30
0.0
 10
2.914357
 20
-28.921718
 30
0.0
  0
SPLINE
  5
14b
100
AcDbEntity
  8
0
 62
7
100
AcDbSpline
 70
8
 71
3
 72
8
 73
4
 74
0
 40
0
 40
0
 40
0
 40
0
 40
1
 40
1
 40
1
 40
1
 10
2.914357
 20
-28.921718
 30
0.0
 10
3.543553
 20
-29.550914
 30
0.0
 10
4.489812
 20
-29.739136
 30
0.0
 10
5.311896
 20
-29.398618
 30
0.0
  0
SPLINE
  5
14c
100
AcDbEntity
  8
0
 62
7
100
AcDbSpline
 70
8
 71
3
 72
8
 73
4
 74
0
 40
0
 40
0
 40
0
 40
0
 40
1
 40
1
 40
1
 40
1
 10
5.311896
 20
-29.398618
 30
0.0
 10
6.133980
 20
-29.058100
 30
0.0
 10
6.669993
 20
-28.255900
 30
0.0
 10
6.669993
 20
-27.366083
 30
0.0
  0
SPLINE
  5
14d
100
AcDbEntity
  8
0
 62
7
100
AcDbSpline
 70
8
 71
3
 72
8
 73
4
 74
0
 40
0
 40
0
 40
0
 40
0
 40
1
 40
1
 40
1
 40
1
 10
6.669993
 20
-27.366083
 30
0.0
 10
6.669993
 20
-26.782607
 30
0.0
 10
6.438208
 20
-26.223028
 30
0.0
 10
6.025628
 20
-25.810448
 30
0.0
  0
SPLINE
  5
14e
100
AcDbEntity
  8
0
 62
7
100
AcDbSpline
 70
8
 71
3
 72
8
 73
4
 74
0
 40
0
 40
0
 40
0
 40
0
 40
1
 40
1
 40
1
 40
1
 10
6.025628
 20
-25.810448
 30
0.0
 10
5.613048
 20
-25.397868
 30
0.0
 10
5.053469
 20
-25.166083
 30
0.0
 10
4.469993
 20
-25.166083
 30
0.0
  0
LWPOLYLINE
  5
14f
100
AcDbEntity
  8
0
 62
7
100
AcDbPolyline
 90
1
 70
1
 10
4.469993
 20
0.360911
 30
0.0
  0
SPLINE
  5
150
100
AcDbEntity
  8
0
 62
7
100
AcDbSpline
 70
8
 71
3
 72
8
 73
4
 74
0
 40
0
 40
0
 40
0
 40
0
 40
1
 40
1
 40
1
 40
1
 10
159.409955
 20
0.360911
 30
0.0
 10
158.520137
 20
0.360911
 30
0.0
 10
157.717938
 20
-0.175102
 30
0.0
 10
157.377419
 20
-0.997186
 30
0.0
  0
SPLINE
  5
151
100
AcDbEntity
  8
0
 62
7
100
AcDbSpline
 70
8
 71
3
 72
8
 73
4
 74
0
 40
0
 40
0
 40
0
 40
0
 40
1
 40
1
 40
1
 40
1
 10
157.377419
 20
-0.997186
 30
0.0
 10
157.036901
 20
-1.819269
 30
0.0
 10
157.225124
 20
-2.765529
 30
0.0
 10
157.854319
 20
-3.394724
 30
0.0
  0
SPLINE
  5
152
100
AcDbEntity
  8
0
 62
7
100
AcDbSpline
 70
8
 71
3
 72
8
 73
4
 74
0
 40
0
 40
0
 40
0
 40
0
 40
1
 40
1
 40
1
 40
1
 10
157.854319
 20
-3.394724
 30
0.0
 10
158.483515
 20
-4.023920
 30
0.0
 10
159.429774
 20
-4.212143
 30
0.0
 10
160.251858
 20
-3.871624
 30
0.0
  0
SPLINE
  5
153
100
AcDbEntity
  8
0
 62
7
100
AcDbSpline
 70
8
 71
3
 72
8
 73
4
 74
0
 40
0
 40
0
 40
0
 40
0
 40
1
 40
1
 40
1
 40
1
 10
160.251858
 20
-3.871624
 30
0.0
 10
161.073942
 20
-3.531106
 30
0.0
 10
161.609955
 20
-2.728906
 30
0.0
 10
161.609955
 20
-1.839089
 30
0.0
  0
SPLINE
  5
154
100
AcDbEntity
  8
0
 62
7
100
AcDbSpline
 70
8
 71
3
 72
8
 73
4
 74
0
 40
0
 40
0
 40
0
 40
0
 40
1
 40
1
 40
1
 40
1
 10
161.609955
 20
-1.839089
 30
0.0
 10
161.609955
 20
-1.255613
 30
0.0
 10
161.378170
 20
-0.696034
 30
0.0
 10
160.965590
 20
-0.283454
 30
0.0
  0
SPLINE
  5
155
100
AcDbEntity
  8
0
 62
7
100
AcDbSpline
 70
8
 71
3
 72
8
 73
4
 74
0
 40
0
 40
0
 40
0
 40
0
 40
1
 40
1
 40
1
 40
1
 10
160.965590
 20
-0.283454
 30
0.0
 10
160.553010
 20
0.129126
 30
0.0
 10
159.993431
 20
0.360911
 30
0.0
 10
159.409955
 20
0.360911
 30
0.0
  0
LWPOLYLINE
  5
156
100
AcDbEntity
  8
0
 62
7
100
AcDbPolyline
 90
1
 70
1
 10
4.469993
 20
-25.166083
 30
0.0
  0
SPLINE
  5
157
100
AcDbEntity
  8
0
 62
7
100
AcDbSpline
 70
8
 71
3
 72
8
 73
4
 74
0
 40
0
 40
0
 40
0
 40
0
 40
1
 40
1
 40
1
 40
1
 10
289.864323
 20
-33.619790
 30
0.0
 10
287.489503
 20
-33.619790
 30
0.0
 10
285.564332
 20
-35.544961
 30
0.0
 10
285.564332
 20
-37.919780
 30
0.0
  0
SPLINE
  5
158
100
AcDbEntity
  8
0
 62
7
100
AcDbSpline
 70
8
 71
3
 72
8
 73
4
 74
0
 40
0
 40
0
 40
0
 40
0
 40
1
 40
1
 40
1
 40
1
 10
285.564332
 20
-37.919780
 30
0.0
 10
285.564332
 20
-40.294599
 30
0.0
 10
287.489503
 20
-42.219771
 30
0.0
 10
289.864323
 20
-42.219771
 30
0.0
  0
SPLINE
  5
159
100
AcDbEntity
  8
0
 62
7
100
AcDbSpline
 70
8
 71
3
 72
8
 73
4
 74
0
 40
0
 40
0
 40
0
 40
0
 40
1
 40
1
 40
1
 40
1
 10
289.864323
 20
-42.219771
 30
0.0
 10
292.239142
 20
-42.219771
 30
0.0
 10
294.164313
 20
-40.294599
 30
0.0
 10
294.164313
 20
-37.919780
 30
0.0
  0
SPLINE
  5
15a
100
AcDbEntity
  8
0
 62
7
100
AcDbSpline
 70
8
 71
3
 72
8
 73
4
 74
0
 40
0
 40
0
 40
0
 40
0
 40
1
 40
1
 40
1
 40
1
 10
294.164313
 20
-37.919780
 30
0.0
 10
294.164313
 20
-36.779352
 30
0.0
 10
293.711279
 20
-35.685633
 30
0.0
 10
292.904875
 20
-34.879228
 30
0.0
  0
SPLINE
  5
15b
100
AcDbEntity
  8
0
 62
7
100
AcDbSpline
 70
8
 71
3
 72
8
 73
4
 74
0
 40
0
 40
0
 40
0
 40
0
 40
1
 40
1
 40
1
 40
1
 10
292.904875
 20
-34.879228
 30
0.0
 10
292.098470
 20
-34.072823
 30
0.0
 10
291.004751
 20
-33.619790
 30
0.0
 10
289.864323
 20
-33.619790
 30
0.0
  0
LWPOLYLINE
  5
15c
100
AcDbEntity
  8
0
 62
7
100
AcDbPolyline
 90
1
 70
1
 10
159.409955
 20
0.360911
 30
0.0
  0
SPLINE
  5
15d
100
AcDbEntity
  8
0
 62
7
100
AcDbSpline
 70
8
 71
3
 72
8
 73
4
 74
0
 40
0
 40
0
 40
0
 40
0
 40
1
 40
1
 40
1
 40
1
 10
27.736387
 20
-33.619790
 30
0.0
 10
25.997203
 20
-33.619790
 30
0.0
 10
24.429271
 20
-34.667449
 30
0.0
 10
23.763714
 20
-36.274245
 30
0.0
  0
SPLINE
  5
15e
100
AcDbEntity
  8
0
 62
7
100
AcDbSpline
 70
8
 71
3
 72
8
 73
4
 74
0
 40
0
 40
0
 40
0
 40
0
 40
1
 40
1
 40
1
 40
1
 10
23.763714
 20
-36.274245
 30
0.0
 10
23.098157
 20
-37.881042
 30
0.0
 10
23.466046
 20
-39.730544
 30
0.0
 10
24.695834
 20
-40.960333
 30
0.0
  0
SPLINE
  5
15f
100
AcDbEntity
  8
0
 62
7
100
AcDbSpline
 70
8
 71
3
 72
8
 73
4
 74
0
 40
0
 40
0
 40
0
 40
0
 40
1
 40
1
 40
1
 40
1
 10
24.695834
 20
-40.960333
 30
0.0
 10
25.925623
 20
-42.190121
 30
0.0
 10
27.775126
 20
-42.558010
 30
0.0
 10
29.381922
 20
-41.892453
 30
0.0
  0
SPLINE
  5
160
100
AcDbEntity
  8
0
 62
7
100
AcDbSpline
 70
8
 71
3
 72
8
 73
4
 74
0
 40
0
 40
0
 40
0
 40
0
 40
1
 40
1
 40
1
 40
1
 10
29.381922
 20
-41.892453
 30
0.0
 10
30.988718
 20
-41.226897
 30
0.0
 10
32.036377
 20
-39.658964
 30
0.0
 10
32.036377
 20
-37.919780
 30
0.0
  0
SPLINE
  5
161
100
AcDbEntity
  8
0
 62
7
100
AcDbSpline
 70
8
 71
3
 72
8
 73
4
 74
0
 40
0
 40
0
 40
0
 40
0
 40
1
 40
1
 40
1
 40
1
 10
32.036377
 20
-37.919780
 30
0.0
 10
32.036377
 20
-36.779352
 30
0.0
 10
31.583344
 20
-35.685633
 30
0.0
 10
30.776939
 20
-34.879228
 30
0.0
  0
SPLINE
  5
162
100
AcDbEntity
  8
0
 62
7
100
AcDbSpline
 70
8
 71
3
 72
8
 73
4
 74
0
 40
0
 40
0
 40
0
 40
0
 40
1
 40
1
 40
1
 40
1
 10
30.776939
 20
-34.879228
 30
0.0
 10
29.970535
 20
-34.072823
 30
0.0
 10
28.876815
 20
-33.619790
 30
0.0
 10
27.736387
 20
-33.619790
 30
0.0
  0
LWPOLYLINE
  5
163
100
AcDbEntity
  8
0
 62
7
100
AcDbPolyline
 90
1
 70
1
 10
289.864323
 20
-33.619790
 30
0.0
  0
LWPOLYLINE
  5
164
100
AcDbEntity
  8
0
 62
7
100
AcDbPolyline
 90
1
 70
1
 10
27.736387
 20
-33.619790
 30
0.0
  0
ENDSEC
  0
SECTION
  2
OBJECTS
  0
DICTIONARY
  5
C
330
0
100
AcDbDictionary
  3
ACAD_GROUP
350
D
  3
ACAD_MLINESTYLE
350
17
  0
DICTIONARY
  5
D
330
C
100
AcDbDictionary
  0
DICTIONARY
  5
1A
330
C
100
AcDbDictionary
  0
DICTIONARY
  5
17
330
C
100
AcDbDictionary
  3
STANDARD
350
18
  0
DICTIONARY
  5
19
330
C
100
AcDbDictionary
  0
ENDSEC
  0
EOF
