  0
SECTION
  2
HEADER
  9
$ACADVER
  1
AC1014
  9
$HANDSEED
  5
FFFF
  9
$MEASUREMENT
 70
     1
  0
ENDSEC
  0
SECTION
  2
TABLES
  0
TABLE
  2
VPORT
  5
8
330
0
100
AcDbSymbolTable
 70
     4
  0
VPORT
  5
2E
330
8
100
AcDbSymbolTableRecord
100
AcDbViewportTableRecord
  2
*ACTIVE
 70
     0
 10
0.0
 20
0.0
 11
1.0
 21
1.0
 12
210.0
 22
148.5
 13
0.0
 23
0.0
 14
10.0
 24
10.0
 15
10.0
 25
10.0
 16
0.0
 26
0.0
 36
1.0
 17
0.0
 27
0.0
 37
0.0
 40
341.0
 41
1.24
 42
50.0
 43
0.0
 44
0.0
 50
0.0
 51
0.0
 71
     0
 72
   100
 73
     1
 74
     3
 75
     0
 76
     0
 77
     0
 78
     0
  0
ENDTAB
  0
TABLE
  2
LTYPE
  5
5
330
0
100
AcDbSymbolTable
 70
     1
  0
LTYPE
  5
14
330
5
100
AcDbSymbolTableRecord
100
AcDbLinetypeTableRecord
  2
BYBLOCK
 70
     0
  3

 72
    65
 73
     0
 40
0.0
  0
LTYPE
  5
15
330
5
100
AcDbSymbolTableRecord
100
AcDbLinetypeTableRecord
  2
BYLAYER
 70
     0
  3

 72
    65
 73
     0
 40
0.0
  0
LTYPE
  5
16
330
5
100
AcDbSymbolTableRecord
100
AcDbLinetypeTableRecord
  2
CONTINUOUS
 70
     0
  3
Solid line
 72
    65
 73
     0
 40
0.0
  0
ENDTAB
  0
TABLE
  2
LAYER
  5
2
100
AcDbSymbolTable
 70
1
  0
LAYER
  5
50
100
AcDbSymbolTableRecord
100
AcDbLayerTableRecord
  2
0
 70
0
  6
CONTINUOUS
  0
ENDTAB
  0
TABLE
  2
STYLE
  5
3
330
0
100
AcDbSymbolTable
 70
     1
  0
STYLE
  5
11
330
3
100
AcDbSymbolTableRecord
100
AcDbTextStyleTableRecord
  2
STANDARD
 70
     0
 40
0.0
 41
1.0
 50
0.0
 71
     0
 42
2.5
  3
txt
  4

  0
ENDTAB
  0
TABLE
  2
VIEW
  5
6
330
0
100
AcDbSymbolTable
 70
     0
  0
ENDTAB
  0
TABLE
  2
UCS
  5
7
330
0
100
AcDbSymbolTable
 70
     0
  0
ENDTAB
  0
TABLE
  2
APPID
  5
9
330
0
100
AcDbSymbolTable
 70
     2
  0
APPID
  5
12
330
9
100
AcDbSymbolTableRecord
100
AcDbRegAppTableRecord
  2
ACAD
 70
     0
  0
ENDTAB
  0
TABLE
  2
DIMSTYLE
  5
A
330
0
100
AcDbSymbolTable
 70
     1
  0
DIMSTYLE
105
27
330
A
100
AcDbSymbolTableRecord
100
AcDbDimStyleTableRecord
  2
ISO-25
 70
     0
  3

  4

  5

  6

  7

 40
1.0
 41
2.5
 42
0.625
 43
3.75
 44
1.25
 45
0.0
 46
0.0
 47
0.0
 48
0.0
140
2.5
141
2.5
142
0.0
143
0.03937007874016
144
1.0
145
0.0
146
1.0
147
0.625
 71
     0
 72
     0
 73
     0
 74
     0
 75
     0
 76
     0
 77
     1
 78
     8
170
     0
171
     3
172
     1
173
     0
174
     0
175
     0
176
     0
177
     0
178
     0
270
     2
271
     2
272
     2
273
     2
274
     3
340
11
275
     0
280
     0
281
     0
282
     0
283
     0
284
     8
285
     0
286
     0
287
     3
288
     0
  0
ENDTAB
  0
TABLE
  2
BLOCK_RECORD
  5
1
330
0
100
AcDbSymbolTable
 70
     1
  0
BLOCK_RECORD
  5
1F
330
1
100
AcDbSymbolTableRecord
100
AcDbBlockTableRecord
  2
*MODEL_SPACE
  0
BLOCK_RECORD
  5
1B
330
1
100
AcDbSymbolTableRecord
100
AcDbBlockTableRecord
  2
*PAPER_SPACE
  0
ENDTAB
  0
ENDSEC
  0
SECTION
  2
BLOCKS
  0
BLOCK
  5
20
330
1F
100
AcDbEntity
  8
0
100
AcDbBlockBegin
  2
*MODEL_SPACE
 70
     0
 10
0.0
 20
0.0
 30
0.0
  3
*MODEL_SPACE
  1

  0
ENDBLK
  5
21
330
1F
100
AcDbEntity
  8
0
100
AcDbBlockEnd
  0
BLOCK
  5
1C
330
1B
100
AcDbEntity
 67
     1
  8
0
100
AcDbBlockBegin
  2
*PAPER_SPACE
  1

  0
ENDBLK
  5
1D
330
1B
100
AcDbEntity
 67
     1
  8
0
100
AcDbBlockEnd
  0
ENDSEC
  0
SECTION
  2
ENTITIES
  0
LWPOLYLINE
  5
100
100
AcDbEntity
  8
0
 62
7
100
AcDbPolyline
 90
2
 70
0
 10
317.512194
 20
-2.672514
 30
0.0
 10
317.512194
 20
-116.083478
 30
0.0
  0
SPLINE
  5
101
100
AcDbEntity
  8
0
 62
7
100
AcDbSpline
 70
8
 71
3
 72
8
 73
4
 74
0
 40
0
 40
0
 40
0
 40
0
 40
1
 40
1
 40
1
 40
1
 10
0.024994
 20
-116.083478
 30
0.0
 10
0.024994
 20
-117.093952
 30
0.0
 10
0.426403
 20
-118.063041
 30
0.0
 10
1.140916
 20
-118.777554
 30
0.0
  0
SPLINE
  5
102
100
AcDbEntity
  8
0
 62
7
100
AcDbSpline
 70
8
 71
3
 72
8
 73
4
 74
0
 40
0
 40
0
 40
0
 40
0
 40
1
 40
1
 40
1
 40
1
 10
1.140916
 20
-118.777554
 30
0.0
 10
1.855430
 20
-119.492067
 30
0.0
 10
2.824518
 20
-119.893477
 30
0.0
 10
3.834992
 20
-119.893477
 30
0.0
  0
SPLINE
  5
103
100
AcDbEntity
  8
0
 62
7
100
AcDbSpline
 70
8
 71
3
 72
8
 73
4
 74
0
 40
0
 40
0
 40
0
 40
0
 40
1
 40
1
 40
1
 40
1
 10
317.512194
 20
-2.672514
 30
0.0
 10
317.512194
 20
-1.662039
 30
0.0
 10
317.110785
 20
-0.692951
 30
0.0
 10
316.396271
 20
0.021562
 30
0.0
  0
SPLINE
  5
104
100
AcDbEntity
  8
0
 62
7
100
AcDbSpline
 70
8
 71
3
 72
8
 73
4
 74
0
 40
0
 40
0
 40
0
 40
0
 40
1
 40
1
 40
1
 40
1
 10
316.396271
 20
0.021562
 30
0.0
 10
315.681758
 20
0.736076
 30
0.0
 10
314.712670
 20
1.137485
 30
0.0
 10
313.702195
 20
1.137485
 30
0.0
  0
SPLINE
  5
105
100
AcDbEntity
  8
0
 62
7
100
AcDbSpline
 70
8
 71
3
 72
8
 73
4
 74
0
 40
0
 40
0
 40
0
 40
0
 40
1
 40
1
 40
1
 40
1
 10
313.702195
 20
-119.893477
 30
0.0
 10
314.712670
 20
-119.893477
 30
0.0
 10
315.681758
 20
-119.492067
 30
0.0
 10
316.396271
 20
-118.777554
 30
0.0
  0
SPLINE
  5
106
100
AcDbEntity
  8
0
 62
7
100
AcDbSpline
 70
8
 71
3
 72
8
 73
4
 74
0
 40
0
 40
0
 40
0
 40
0
 40
1
 40
1
 40
1
 40
1
 10
316.396271
 20
-118.777554
 30
0.0
 10
317.110785
 20
-118.063041
 30
0.0
 10
317.512194
 20
-117.093952
 30
0.0
 10
317.512194
 20
-116.083478
 30
0.0
  0
SPLINE
  5
107
100
AcDbEntity
  8
0
 62
7
100
AcDbSpline
 70
8
 71
3
 72
8
 73
4
 74
0
 40
0
 40
0
 40
0
 40
0
 40
1
 40
1
 40
1
 40
1
 10
3.834992
 20
1.137485
 30
0.0
 10
2.824518
 20
1.137485
 30
0.0
 10
1.855430
 20
0.736076
 30
0.0
 10
1.140916
 20
0.021562
 30
0.0
  0
SPLINE
  5
108
100
AcDbEntity
  8
0
 62
7
100
AcDbSpline
 70
8
 71
3
 72
8
 73
4
 74
0
 40
0
 40
0
 40
0
 40
0
 40
1
 40
1
 40
1
 40
1
 10
1.140916
 20
0.021562
 30
0.0
 10
0.426403
 20
-0.692951
 30
0.0
 10
0.024994
 20
-1.662039
 30
0.0
 10
0.024994
 20
-2.672514
 30
0.0
  0
LWPOLYLINE
  5
109
100
AcDbEntity
  8
0
 62
7
100
AcDbPolyline
 90
2
 70
0
 10
313.702195
 20
1.137485
 30
0.0
 10
3.834992
 20
1.137485
 30
0.0
  0
LWPOLYLINE
  5
10a
100
AcDbEntity
  8
0
 62
7
100
AcDbPolyline
 90
2
 70
0
 10
0.024994
 20
-2.672514
 30
0.0
 10
0.024994
 20
-116.083478
 30
0.0
  0
SPLINE
  5
10b
100
AcDbEntity
  8
0
 62
7
100
AcDbSpline
 70
8
 71
3
 72
8
 73
4
 74
0
 40
0
 40
0
 40
0
 40
0
 40
1
 40
1
 40
1
 40
1
 10
20.292695
 20
-115.681757
 30
0.0
 10
20.844978
 20
-115.681755
 30
0.0
 10
21.292691
 20
-115.234042
 30
0.0
 10
21.292693
 20
-114.681759
 30
0.0
  0
SPLINE
  5
10c
100
AcDbEntity
  8
0
 62
7
100
AcDbSpline
 70
8
 71
3
 72
8
 73
4
 74
0
 40
0
 40
0
 40
0
 40
0
 40
1
 40
1
 40
1
 40
1
 10
8.292697
 20
-101.681789
 30
0.0
 10
7.740414
 20
-101.681791
 30
0.0
 10
7.292701
 20
-102.129504
 30
0.0
 10
7.292700
 20
-102.681787
 30
0.0
  0
SPLINE
  5
10d
100
AcDbEntity
  8
0
 62
7
100
AcDbSpline
 70
8
 71
3
 72
8
 73
4
 74
0
 40
0
 40
0
 40
0
 40
0
 40
1
 40
1
 40
1
 40
1
 10
7.292700
 20
-114.681759
 30
0.0
 10
7.292701
 20
-115.234042
 30
0.0
 10
7.740414
 20
-115.681755
 30
0.0
 10
8.292697
 20
-115.681757
 30
0.0
  0
LWPOLYLINE
  5
10e
100
AcDbEntity
  8
0
 62
7
100
AcDbPolyline
 90
2
 70
0
 10
313.702195
 20
-119.893477
 30
0.0
 10
3.834992
 20
-119.893477
 30
0.0
  0
LWPOLYLINE
  5
10f
100
AcDbEntity
  8
0
 62
7
100
AcDbPolyline
 90
2
 70
0
 10
8.292697
 20
-101.681789
 30
0.0
 10
20.291654
 20
-101.681789
 30
0.0
  0
LWPOLYLINE
  5
110
100
AcDbEntity
  8
0
 62
7
100
AcDbPolyline
 90
2
 70
0
 10
7.294478
 20
-102.680009
 30
0.0
 10
7.294478
 20
-114.681505
 30
0.0
  0
SPLINE
  5
111
100
AcDbEntity
  8
0
 62
7
100
AcDbSpline
 70
8
 71
3
 72
8
 73
4
 74
0
 40
0
 40
0
 40
0
 40
0
 40
1
 40
1
 40
1
 40
1
 10
21.292693
 20
-102.681787
 30
0.0
 10
21.292691
 20
-102.129504
 30
0.0
 10
20.844978
 20
-101.681791
 30
0.0
 10
20.292695
 20
-101.681789
 30
0.0
  0
LWPOLYLINE
  5
112
100
AcDbEntity
  8
0
 62
7
100
AcDbPolyline
 90
2
 70
0
 10
8.292697
 20
-115.679725
 30
0.0
 10
20.291654
 20
-115.679725
 30
0.0
  0
SPLINE
  5
113
100
AcDbEntity
  8
0
 62
7
100
AcDbSpline
 70
8
 71
3
 72
8
 73
4
 74
0
 40
0
 40
0
 40
0
 40
0
 40
1
 40
1
 40
1
 40
1
 10
44.117861
 20
-115.681757
 30
0.0
 10
44.670144
 20
-115.681755
 30
0.0
 10
45.117857
 20
-115.234042
 30
0.0
 10
45.117859
 20
-114.681759
 30
0.0
  0
SPLINE
  5
114
100
AcDbEntity
  8
0
 62
7
100
AcDbSpline
 70
8
 71
3
 72
8
 73
4
 74
0
 40
0
 40
0
 40
0
 40
0
 40
1
 40
1
 40
1
 40
1
 10
32.117889
 20
-101.681789
 30
0.0
 10
31.565607
 20
-101.681792
 30
0.0
 10
31.117895
 20
-102.129505
 30
0.0
 10
31.117893
 20
-102.681787
 30
0.0
  0
SPLINE
  5
115
100
AcDbEntity
  8
0
 62
7
100
AcDbSpline
 70
8
 71
3
 72
8
 73
4
 74
0
 40
0
 40
0
 40
0
 40
0
 40
1
 40
1
 40
1
 40
1
 10
31.117893
 20
-114.681759
 30
0.0
 10
31.117895
 20
-115.234041
 30
0.0
 10
31.565607
 20
-115.681754
 30
0.0
 10
32.117889
 20
-115.681757
 30
0.0
  0
LWPOLYLINE
  5
116
100
AcDbEntity
  8
0
 62
7
100
AcDbPolyline
 90
2
 70
0
 10
21.292413
 20
-102.680009
 30
0.0
 10
21.292413
 20
-114.681505
 30
0.0
  0
LWPOLYLINE
  5
117
100
AcDbEntity
  8
0
 62
7
100
AcDbPolyline
 90
2
 70
0
 10
32.117889
 20
-101.681789
 30
0.0
 10
44.116845
 20
-101.681789
 30
0.0
  0
LWPOLYLINE
  5
118
100
AcDbEntity
  8
0
 62
7
100
AcDbPolyline
 90
2
 70
0
 10
31.117129
 20
-102.680009
 30
0.0
 10
31.117129
 20
-114.681505
 30
0.0
  0
SPLINE
  5
119
100
AcDbEntity
  8
0
 62
7
100
AcDbSpline
 70
8
 71
3
 72
8
 73
4
 74
0
 40
0
 40
0
 40
0
 40
0
 40
1
 40
1
 40
1
 40
1
 10
45.117859
 20
-102.681787
 30
0.0
 10
45.117857
 20
-102.129504
 30
0.0
 10
44.670144
 20
-101.681791
 30
0.0
 10
44.117861
 20
-101.681789
 30
0.0
  0
LWPOLYLINE
  5
11a
100
AcDbEntity
  8
0
 62
7
100
AcDbPolyline
 90
2
 70
0
 10
32.117889
 20
-115.679725
 30
0.0
 10
44.116845
 20
-115.679725
 30
0.0
  0
SPLINE
  5
11b
100
AcDbEntity
  8
0
 62
7
100
AcDbSpline
 70
8
 71
3
 72
8
 73
4
 74
0
 40
0
 40
0
 40
0
 40
0
 40
1
 40
1
 40
1
 40
1
 10
67.917653
 20
-115.681757
 30
0.0
 10
68.469936
 20
-115.681755
 30
0.0
 10
68.917650
 20
-115.234042
 30
0.0
 10
68.917651
 20
-114.681759
 30
0.0
  0
SPLINE
  5
11c
100
AcDbEntity
  8
0
 62
7
100
AcDbSpline
 70
8
 71
3
 72
8
 73
4
 74
0
 40
0
 40
0
 40
0
 40
0
 40
1
 40
1
 40
1
 40
1
 10
55.917681
 20
-101.681789
 30
0.0
 10
55.365398
 20
-101.681791
 30
0.0
 10
54.917685
 20
-102.129504
 30
0.0
 10
54.917683
 20
-102.681787
 30
0.0
  0
SPLINE
  5
11d
100
AcDbEntity
  8
0
 62
7
100
AcDbSpline
 70
8
 71
3
 72
8
 73
4
 74
0
 40
0
 40
0
 40
0
 40
0
 40
1
 40
1
 40
1
 40
1
 10
54.917683
 20
-114.681759
 30
0.0
 10
54.917685
 20
-115.234042
 30
0.0
 10
55.365398
 20
-115.681755
 30
0.0
 10
55.917681
 20
-115.681757
 30
0.0
  0
LWPOLYLINE
  5
11e
100
AcDbEntity
  8
0
 62
7
100
AcDbPolyline
 90
2
 70
0
 10
45.117605
 20
-102.680009
 30
0.0
 10
45.117605
 20
-114.681505
 30
0.0
  0
LWPOLYLINE
  5
11f
100
AcDbEntity
  8
0
 62
7
100
AcDbPolyline
 90
2
 70
0
 10
55.917681
 20
-101.681789
 30
0.0
 10
67.916637
 20
-101.681789
 30
0.0
  0
LWPOLYLINE
  5
120
100
AcDbEntity
  8
0
 62
7
100
AcDbPolyline
 90
2
 70
0
 10
54.916921
 20
-102.680009
 30
0.0
 10
54.916921
 20
-114.681505
 30
0.0
  0
SPLINE
  5
121
100
AcDbEntity
  8
0
 62
7
100
AcDbSpline
 70
8
 71
3
 72
8
 73
4
 74
0
 40
0
 40
0
 40
0
 40
0
 40
1
 40
1
 40
1
 40
1
 10
68.917651
 20
-102.681787
 30
0.0
 10
68.917650
 20
-102.129504
 30
0.0
 10
68.469936
 20
-101.681791
 30
0.0
 10
67.917653
 20
-101.681789
 30
0.0
  0
LWPOLYLINE
  5
122
100
AcDbEntity
  8
0
 62
7
100
AcDbPolyline
 90
2
 70
0
 10
55.917681
 20
-115.679725
 30
0.0
 10
67.916637
 20
-115.679725
 30
0.0
  0
SPLINE
  5
123
100
AcDbEntity
  8
0
 62
7
100
AcDbSpline
 70
8
 71
3
 72
8
 73
4
 74
0
 40
0
 40
0
 40
0
 40
0
 40
1
 40
1
 40
1
 40
1
 10
139.367833
 20
-115.681757
 30
0.0
 10
139.920115
 20
-115.681754
 30
0.0
 10
140.367827
 20
-115.234041
 30
0.0
 10
140.367829
 20
-114.681759
 30
0.0
  0
SPLINE
  5
124
100
AcDbEntity
  8
0
 62
7
100
AcDbSpline
 70
8
 71
3
 72
8
 73
4
 74
0
 40
0
 40
0
 40
0
 40
0
 40
1
 40
1
 40
1
 40
1
 10
126.367864
 20
-114.681759
 30
0.0
 10
126.367865
 20
-115.234042
 30
0.0
 10
126.815578
 20
-115.681755
 30
0.0
 10
127.367861
 20
-115.681757
 30
0.0
  0
LWPOLYLINE
  5
125
100
AcDbEntity
  8
0
 62
7
100
AcDbPolyline
 90
2
 70
0
 10
68.917397
 20
-102.680009
 30
0.0
 10
68.917397
 20
-114.681505
 30
0.0
  0
LWPOLYLINE
  5
126
100
AcDbEntity
  8
0
 62
7
100
AcDbPolyline
 90
2
 70
0
 10
126.367102
 20
-101.712356
 30
0.0
 10
126.367102
 20
-114.681505
 30
0.0
  0
LWPOLYLINE
  5
127
100
AcDbEntity
  8
0
 62
7
100
AcDbPolyline
 90
2
 70
0
 10
127.367861
 20
-115.679725
 30
0.0
 10
139.366817
 20
-115.679725
 30
0.0
  0
SPLINE
  5
128
100
AcDbEntity
  8
0
 62
7
100
AcDbSpline
 70
8
 71
3
 72
8
 73
4
 74
0
 40
0
 40
0
 40
0
 40
0
 40
1
 40
1
 40
1
 40
1
 10
213.154808
 20
-115.681757
 30
0.0
 10
213.707091
 20
-115.681755
 30
0.0
 10
214.154804
 20
-115.234042
 30
0.0
 10
214.154805
 20
-114.681759
 30
0.0
  0
SPLINE
  5
129
100
AcDbEntity
  8
0
 62
7
100
AcDbSpline
 70
8
 71
3
 72
8
 73
4
 74
0
 40
0
 40
0
 40
0
 40
0
 40
1
 40
1
 40
1
 40
1
 10
201.154836
 20
-101.681789
 30
0.0
 10
200.602553
 20
-101.681791
 30
0.0
 10
200.154839
 20
-102.129504
 30
0.0
 10
200.154838
 20
-102.681787
 30
0.0
  0
SPLINE
  5
12a
100
AcDbEntity
  8
0
 62
7
100
AcDbSpline
 70
8
 71
3
 72
8
 73
4
 74
0
 40
0
 40
0
 40
0
 40
0
 40
1
 40
1
 40
1
 40
1
 10
200.154838
 20
-114.681759
 30
0.0
 10
200.154839
 20
-115.234042
 30
0.0
 10
200.602553
 20
-115.681755
 30
0.0
 10
201.154836
 20
-115.681757
 30
0.0
  0
LWPOLYLINE
  5
12b
100
AcDbEntity
  8
0
 62
7
100
AcDbPolyline
 90
2
 70
0
 10
140.367577
 20
-101.720555
 30
0.0
 10
140.367577
 20
-114.681505
 30
0.0
  0
LWPOLYLINE
  5
12c
100
AcDbEntity
  8
0
 62
7
100
AcDbPolyline
 90
2
 70
0
 10
201.154836
 20
-101.681789
 30
0.0
 10
213.153792
 20
-101.681789
 30
0.0
  0
LWPOLYLINE
  5
12d
100
AcDbEntity
  8
0
 62
7
100
AcDbPolyline
 90
2
 70
0
 10
200.154076
 20
-102.680009
 30
0.0
 10
200.154076
 20
-114.681505
 30
0.0
  0
SPLINE
  5
12e
100
AcDbEntity
  8
0
 62
7
100
AcDbSpline
 70
8
 71
3
 72
8
 73
4
 74
0
 40
0
 40
0
 40
0
 40
0
 40
1
 40
1
 40
1
 40
1
 10
214.154805
 20
-102.681787
 30
0.0
 10
214.154804
 20
-102.129504
 30
0.0
 10
213.707091
 20
-101.681791
 30
0.0
 10
213.154808
 20
-101.681789
 30
0.0
  0
LWPOLYLINE
  5
12f
100
AcDbEntity
  8
0
 62
7
100
AcDbPolyline
 90
2
 70
0
 10
201.154836
 20
-115.679725
 30
0.0
 10
213.153792
 20
-115.679725
 30
0.0
  0
SPLINE
  5
130
100
AcDbEntity
  8
0
 62
7
100
AcDbSpline
 70
8
 71
3
 72
8
 73
4
 74
0
 40
0
 40
0
 40
0
 40
0
 40
1
 40
1
 40
1
 40
1
 10
241.729799
 20
-115.681757
 30
0.0
 10
242.282082
 20
-115.681755
 30
0.0
 10
242.729795
 20
-115.234042
 30
0.0
 10
242.729797
 20
-114.681759
 30
0.0
  0
SPLINE
  5
131
100
AcDbEntity
  8
0
 62
7
100
AcDbSpline
 70
8
 71
3
 72
8
 73
4
 74
0
 40
0
 40
0
 40
0
 40
0
 40
1
 40
1
 40
1
 40
1
 10
229.729827
 20
-101.681789
 30
0.0
 10
229.177544
 20
-101.681791
 30
0.0
 10
228.729830
 20
-102.129504
 30
0.0
 10
228.729829
 20
-102.681787
 30
0.0
  0
SPLINE
  5
132
100
AcDbEntity
  8
0
 62
7
100
AcDbSpline
 70
8
 71
3
 72
8
 73
4
 74
0
 40
0
 40
0
 40
0
 40
0
 40
1
 40
1
 40
1
 40
1
 10
228.729829
 20
-114.681759
 30
0.0
 10
228.729830
 20
-115.234042
 30
0.0
 10
229.177544
 20
-115.681755
 30
0.0
 10
229.729827
 20
-115.681757
 30
0.0
  0
LWPOLYLINE
  5
133
100
AcDbEntity
  8
0
 62
7
100
AcDbPolyline
 90
2
 70
0
 10
214.154551
 20
-102.680009
 30
0.0
 10
214.154551
 20
-114.681505
 30
0.0
  0
LWPOLYLINE
  5
134
100
AcDbEntity
  8
0
 62
7
100
AcDbPolyline
 90
2
 70
0
 10
229.729827
 20
-101.681789
 30
0.0
 10
241.728783
 20
-101.681789
 30
0.0
  0
LWPOLYLINE
  5
135
100
AcDbEntity
  8
0
 62
7
100
AcDbPolyline
 90
2
 70
0
 10
228.729067
 20
-102.680009
 30
0.0
 10
228.729067
 20
-114.681505
 30
0.0
  0
SPLINE
  5
136
100
AcDbEntity
  8
0
 62
7
100
AcDbSpline
 70
8
 71
3
 72
8
 73
4
 74
0
 40
0
 40
0
 40
0
 40
0
 40
1
 40
1
 40
1
 40
1
 10
242.729797
 20
-102.681787
 30
0.0
 10
242.729795
 20
-102.129504
 30
0.0
 10
242.282082
 20
-101.681791
 30
0.0
 10
241.729799
 20
-101.681789
 30
0.0
  0
LWPOLYLINE
  5
137
100
AcDbEntity
  8
0
 62
7
100
AcDbPolyline
 90
2
 70
0
 10
229.729827
 20
-115.679725
 30
0.0
 10
241.728783
 20
-115.679725
 30
0.0
  0
SPLINE
  5
138
100
AcDbEntity
  8
0
 62
7
100
AcDbSpline
 70
8
 71
3
 72
8
 73
4
 74
0
 40
0
 40
0
 40
0
 40
0
 40
1
 40
1
 40
1
 40
1
 10
273.478768
 20
-115.681757
 30
0.0
 10
273.744115
 20
-115.681958
 30
0.0
 10
273.998664
 20
-115.576691
 30
0.0
 10
274.186365
 20
-115.389133
 30
0.0
  0
SPLINE
  5
139
100
AcDbEntity
  8
0
 62
7
100
AcDbSpline
 70
8
 71
3
 72
8
 73
4
 74
0
 40
0
 40
0
 40
0
 40
0
 40
1
 40
1
 40
1
 40
1
 10
274.186365
 20
-115.389133
 30
0.0
 10
274.374065
 20
-115.201575
 30
0.0
 10
274.479527
 20
-114.947107
 30
0.0
 10
274.479527
 20
-114.681759
 30
0.0
  0
SPLINE
  5
13a
100
AcDbEntity
  8
0
 62
7
100
AcDbSpline
 70
8
 71
3
 72
8
 73
4
 74
0
 40
0
 40
0
 40
0
 40
0
 40
1
 40
1
 40
1
 40
1
 10
261.479812
 20
-101.681789
 30
0.0
 10
260.927529
 20
-101.681791
 30
0.0
 10
260.479815
 20
-102.129504
 30
0.0
 10
260.479814
 20
-102.681787
 30
0.0
  0
SPLINE
  5
13b
100
AcDbEntity
  8
0
 62
7
100
AcDbSpline
 70
8
 71
3
 72
8
 73
4
 74
0
 40
0
 40
0
 40
0
 40
0
 40
1
 40
1
 40
1
 40
1
 10
260.479814
 20
-114.681759
 30
0.0
 10
260.479815
 20
-115.234042
 30
0.0
 10
260.927529
 20
-115.681755
 30
0.0
 10
261.479812
 20
-115.681757
 30
0.0
  0
LWPOLYLINE
  5
13c
100
AcDbEntity
  8
0
 62
7
100
AcDbPolyline
 90
2
 70
0
 10
242.729543
 20
-102.680009
 30
0.0
 10
242.729543
 20
-114.681505
 30
0.0
  0
LWPOLYLINE
  5
13d
100
AcDbEntity
  8
0
 62
7
100
AcDbPolyline
 90
2
 70
0
 10
261.479812
 20
-101.681789
 30
0.0
 10
273.478768
 20
-101.681789
 30
0.0
  0
LWPOLYLINE
  5
13e
100
AcDbEntity
  8
0
 62
7
100
AcDbPolyline
 90
2
 70
0
 10
260.479052
 20
-102.680009
 30
0.0
 10
260.479052
 20
-114.681505
 30
0.0
  0
SPLINE
  5
13f
100
AcDbEntity
  8
0
 62
7
100
AcDbSpline
 70
8
 71
3
 72
8
 73
4
 74
0
 40
0
 40
0
 40
0
 40
0
 40
1
 40
1
 40
1
 40
1
 10
274.479527
 20
-102.681787
 30
0.0
 10
274.479527
 20
-102.416439
 30
0.0
 10
274.374065
 20
-102.161971
 30
0.0
 10
274.186365
 20
-101.974413
 30
0.0
  0
SPLINE
  5
140
100
AcDbEntity
  8
0
 62
7
100
AcDbSpline
 70
8
 71
3
 72
8
 73
4
 74
0
 40
0
 40
0
 40
0
 40
0
 40
1
 40
1
 40
1
 40
1
 10
274.186365
 20
-101.974413
 30
0.0
 10
273.998664
 20
-101.786855
 30
0.0
 10
273.744115
 20
-101.681588
 30
0.0
 10
273.478768
 20
-101.681789
 30
0.0
  0
LWPOLYLINE
  5
141
100
AcDbEntity
  8
0
 62
7
100
AcDbPolyline
 90
2
 70
0
 10
261.479812
 20
-115.679725
 30
0.0
 10
273.478768
 20
-115.679725
 30
0.0
  0
SPLINE
  5
142
100
AcDbEntity
  8
0
 62
7
100
AcDbSpline
 70
8
 71
3
 72
8
 73
4
 74
0
 40
0
 40
0
 40
0
 40
0
 40
1
 40
1
 40
1
 40
1
 10
292.528762
 20
-115.681757
 30
0.0
 10
292.794109
 20
-115.681958
 30
0.0
 10
293.048658
 20
-115.576691
 30
0.0
 10
293.236359
 20
-115.389133
 30
0.0
  0
SPLINE
  5
143
100
AcDbEntity
  8
0
 62
7
100
AcDbSpline
 70
8
 71
3
 72
8
 73
4
 74
0
 40
0
 40
0
 40
0
 40
0
 40
1
 40
1
 40
1
 40
1
 10
293.236359
 20
-115.389133
 30
0.0
 10
293.424059
 20
-115.201575
 30
0.0
 10
293.529521
 20
-114.947107
 30
0.0
 10
293.529521
 20
-114.681759
 30
0.0
  0
SPLINE
  5
144
100
AcDbEntity
  8
0
 62
7
100
AcDbSpline
 70
8
 71
3
 72
8
 73
4
 74
0
 40
0
 40
0
 40
0
 40
0
 40
1
 40
1
 40
1
 40
1
 10
280.529806
 20
-101.681789
 30
0.0
 10
280.264458
 20
-101.681588
 30
0.0
 10
280.009909
 20
-101.786855
 30
0.0
 10
279.822209
 20
-101.974413
 30
0.0
  0
SPLINE
  5
145
100
AcDbEntity
  8
0
 62
7
100
AcDbSpline
 70
8
 71
3
 72
8
 73
4
 74
0
 40
0
 40
0
 40
0
 40
0
 40
1
 40
1
 40
1
 40
1
 10
279.822209
 20
-101.974413
 30
0.0
 10
279.634508
 20
-102.161971
 30
0.0
 10
279.529046
 20
-102.416439
 30
0.0
 10
279.529046
 20
-102.681787
 30
0.0
  0
SPLINE
  5
146
100
AcDbEntity
  8
0
 62
7
100
AcDbSpline
 70
8
 71
3
 72
8
 73
4
 74
0
 40
0
 40
0
 40
0
 40
0
 40
1
 40
1
 40
1
 40
1
 10
279.529046
 20
-114.681759
 30
0.0
 10
279.529046
 20
-114.947107
 30
0.0
 10
279.634508
 20
-115.201575
 30
0.0
 10
279.822209
 20
-115.389133
 30
0.0
  0
SPLINE
  5
147
100
AcDbEntity
  8
0
 62
7
100
AcDbSpline
 70
8
 71
3
 72
8
 73
4
 74
0
 40
0
 40
0
 40
0
 40
0
 40
1
 40
1
 40
1
 40
1
 10
279.822209
 20
-115.389133
 30
0.0
 10
280.009909
 20
-115.576691
 30
0.0
 10
280.264458
 20
-115.681958
 30
0.0
 10
280.529806
 20
-115.681757
 30
0.0
  0
LWPOLYLINE
  5
148
100
AcDbEntity
  8
0
 62
7
100
AcDbPolyline
 90
2
 70
0
 10
274.479527
 20
-102.680009
 30
0.0
 10
274.479527
 20
-114.681505
 30
0.0
  0
LWPOLYLINE
  5
149
100
AcDbEntity
  8
0
 62
7
100
AcDbPolyline
 90
2
 70
0
 10
280.529806
 20
-101.681789
 30
0.0
 10
292.528762
 20
-101.681789
 30
0.0
  0
LWPOLYLINE
  5
14a
100
AcDbEntity
  8
0
 62
7
100
AcDbPolyline
 90
2
 70
0
 10
279.529046
 20
-102.680009
 30
0.0
 10
279.529046
 20
-114.681505
 30
0.0
  0
SPLINE
  5
14b
100
AcDbEntity
  8
0
 62
7
100
AcDbSpline
 70
8
 71
3
 72
8
 73
4
 74
0
 40
0
 40
0
 40
0
 40
0
 40
1
 40
1
 40
1
 40
1
 10
293.529521
 20
-102.681787
 30
0.0
 10
293.529521
 20
-102.416439
 30
0.0
 10
293.424059
 20
-102.161971
 30
0.0
 10
293.236359
 20
-101.974413
 30
0.0
  0
SPLINE
  5
14c
100
AcDbEntity
  8
0
 62
7
100
AcDbSpline
 70
8
 71
3
 72
8
 73
4
 74
0
 40
0
 40
0
 40
0
 40
0
 40
1
 40
1
 40
1
 40
1
 10
293.236359
 20
-101.974413
 30
0.0
 10
293.048658
 20
-101.786855
 30
0.0
 10
292.794109
 20
-101.681588
 30
0.0
 10
292.528762
 20
-101.681789
 30
0.0
  0
LWPOLYLINE
  5
14d
100
AcDbEntity
  8
0
 62
7
100
AcDbPolyline
 90
2
 70
0
 10
280.529806
 20
-115.679725
 30
0.0
 10
292.528762
 20
-115.679725
 30
0.0
  0
SPLINE
  5
14e
100
AcDbEntity
  8
0
 62
7
100
AcDbSpline
 70
8
 71
3
 72
8
 73
4
 74
0
 40
0
 40
0
 40
0
 40
0
 40
1
 40
1
 40
1
 40
1
 10
311.604156
 20
-115.681757
 30
0.0
 10
311.869503
 20
-115.681958
 30
0.0
 10
312.124052
 20
-115.576691
 30
0.0
 10
312.311753
 20
-115.389133
 30
0.0
  0
SPLINE
  5
14f
100
AcDbEntity
  8
0
 62
7
100
AcDbSpline
 70
8
 71
3
 72
8
 73
4
 74
0
 40
0
 40
0
 40
0
 40
0
 40
1
 40
1
 40
1
 40
1
 10
312.311753
 20
-115.389133
 30
0.0
 10
312.499453
 20
-115.201575
 30
0.0
 10
312.604915
 20
-114.947107
 30
0.0
 10
312.604915
 20
-114.681759
 30
0.0
  0
SPLINE
  5
150
100
AcDbEntity
  8
0
 62
7
100
AcDbSpline
 70
8
 71
3
 72
8
 73
4
 74
0
 40
0
 40
0
 40
0
 40
0
 40
1
 40
1
 40
1
 40
1
 10
299.605200
 20
-101.681789
 30
0.0
 10
299.339852
 20
-101.681588
 30
0.0
 10
299.085303
 20
-101.786855
 30
0.0
 10
298.897603
 20
-101.974413
 30
0.0
  0
SPLINE
  5
151
100
AcDbEntity
  8
0
 62
7
100
AcDbSpline
 70
8
 71
3
 72
8
 73
4
 74
0
 40
0
 40
0
 40
0
 40
0
 40
1
 40
1
 40
1
 40
1
 10
298.897603
 20
-101.974413
 30
0.0
 10
298.709902
 20
-102.161971
 30
0.0
 10
298.604440
 20
-102.416439
 30
0.0
 10
298.604440
 20
-102.681787
 30
0.0
  0
SPLINE
  5
152
100
AcDbEntity
  8
0
 62
7
100
AcDbSpline
 70
8
 71
3
 72
8
 73
4
 74
0
 40
0
 40
0
 40
0
 40
0
 40
1
 40
1
 40
1
 40
1
 10
298.604440
 20
-114.681759
 30
0.0
 10
298.604440
 20
-114.947107
 30
0.0
 10
298.709902
 20
-115.201575
 30
0.0
 10
298.897603
 20
-115.389133
 30
0.0
  0
SPLINE
  5
153
100
AcDbEntity
  8
0
 62
7
100
AcDbSpline
 70
8
 71
3
 72
8
 73
4
 74
0
 40
0
 40
0
 40
0
 40
0
 40
1
 40
1
 40
1
 40
1
 10
298.897603
 20
-115.389133
 30
0.0
 10
299.085303
 20
-115.576691
 30
0.0
 10
299.339852
 20
-115.681958
 30
0.0
 10
299.605200
 20
-115.681757
 30
0.0
  0
LWPOLYLINE
  5
154
100
AcDbEntity
  8
0
 62
7
100
AcDbPolyline
 90
2
 70
0
 10
293.529521
 20
-102.680009
 30
0.0
 10
293.529521
 20
-114.681505
 30
0.0
  0
LWPOLYLINE
  5
155
100
AcDbEntity
  8
0
 62
7
100
AcDbPolyline
 90
2
 70
0
 10
299.605200
 20
-101.681789
 30
0.0
 10
311.604156
 20
-101.681789
 30
0.0
  0
LWPOLYLINE
  5
156
100
AcDbEntity
  8
0
 62
7
100
AcDbPolyline
 90
2
 70
0
 10
298.604440
 20
-102.680009
 30
0.0
 10
298.604440
 20
-114.681505
 30
0.0
  0
SPLINE
  5
157
100
AcDbEntity
  8
0
 62
7
100
AcDbSpline
 70
8
 71
3
 72
8
 73
4
 74
0
 40
0
 40
0
 40
0
 40
0
 40
1
 40
1
 40
1
 40
1
 10
312.604915
 20
-102.681787
 30
0.0
 10
312.604915
 20
-102.416439
 30
0.0
 10
312.499453
 20
-102.161971
 30
0.0
 10
312.311753
 20
-101.974413
 30
0.0
  0
SPLINE
  5
158
100
AcDbEntity
  8
0
 62
7
100
AcDbSpline
 70
8
 71
3
 72
8
 73
4
 74
0
 40
0
 40
0
 40
0
 40
0
 40
1
 40
1
 40
1
 40
1
 10
312.311753
 20
-101.974413
 30
0.0
 10
312.124052
 20
-101.786855
 30
0.0
 10
311.869503
 20
-101.681588
 30
0.0
 10
311.604156
 20
-101.681789
 30
0.0
  0
LWPOLYLINE
  5
159
100
AcDbEntity
  8
0
 62
7
100
AcDbPolyline
 90
2
 70
0
 10
299.605200
 20
-115.679725
 30
0.0
 10
311.604156
 20
-115.679725
 30
0.0
  0
SPLINE
  5
15a
100
AcDbEntity
  8
0
 62
7
100
AcDbSpline
 70
8
 71
3
 72
8
 73
4
 74
0
 40
0
 40
0
 40
0
 40
0
 40
1
 40
1
 40
1
 40
1
 10
311.604156
 20
-96.631763
 30
0.0
 10
311.869503
 20
-96.631964
 30
0.0
 10
312.124052
 20
-96.526697
 30
0.0
 10
312.311753
 20
-96.339139
 30
0.0
  0
SPLINE
  5
15b
100
AcDbEntity
  8
0
 62
7
100
AcDbSpline
 70
8
 71
3
 72
8
 73
4
 74
0
 40
0
 40
0
 40
0
 40
0
 40
1
 40
1
 40
1
 40
1
 10
312.311753
 20
-96.339139
 30
0.0
 10
312.499453
 20
-96.151581
 30
0.0
 10
312.604915
 20
-95.897113
 30
0.0
 10
312.604915
 20
-95.631765
 30
0.0
  0
SPLINE
  5
15c
100
AcDbEntity
  8
0
 62
7
100
AcDbSpline
 70
8
 71
3
 72
8
 73
4
 74
0
 40
0
 40
0
 40
0
 40
0
 40
1
 40
1
 40
1
 40
1
 10
299.605200
 20
-82.631795
 30
0.0
 10
299.339852
 20
-82.631594
 30
0.0
 10
299.085303
 20
-82.736861
 30
0.0
 10
298.897603
 20
-82.924419
 30
0.0
  0
SPLINE
  5
15d
100
AcDbEntity
  8
0
 62
7
100
AcDbSpline
 70
8
 71
3
 72
8
 73
4
 74
0
 40
0
 40
0
 40
0
 40
0
 40
1
 40
1
 40
1
 40
1
 10
298.897603
 20
-82.924419
 30
0.0
 10
298.709902
 20
-83.111977
 30
0.0
 10
298.604440
 20
-83.366445
 30
0.0
 10
298.604440
 20
-83.631793
 30
0.0
  0
SPLINE
  5
15e
100
AcDbEntity
  8
0
 62
7
100
AcDbSpline
 70
8
 71
3
 72
8
 73
4
 74
0
 40
0
 40
0
 40
0
 40
0
 40
1
 40
1
 40
1
 40
1
 10
298.604440
 20
-95.631765
 30
0.0
 10
298.604440
 20
-95.897113
 30
0.0
 10
298.709902
 20
-96.151581
 30
0.0
 10
298.897603
 20
-96.339139
 30
0.0
  0
SPLINE
  5
15f
100
AcDbEntity
  8
0
 62
7
100
AcDbSpline
 70
8
 71
3
 72
8
 73
4
 74
0
 40
0
 40
0
 40
0
 40
0
 40
1
 40
1
 40
1
 40
1
 10
298.897603
 20
-96.339139
 30
0.0
 10
299.085303
 20
-96.526697
 30
0.0
 10
299.339852
 20
-96.631964
 30
0.0
 10
299.605200
 20
-96.631763
 30
0.0
  0
LWPOLYLINE
  5
160
100
AcDbEntity
  8
0
 62
7
100
AcDbPolyline
 90
2
 70
0
 10
312.604915
 20
-102.680009
 30
0.0
 10
312.604915
 20
-114.681505
 30
0.0
  0
LWPOLYLINE
  5
161
100
AcDbEntity
  8
0
 62
7
100
AcDbPolyline
 90
2
 70
0
 10
299.605200
 20
-82.631795
 30
0.0
 10
311.604156
 20
-82.631795
 30
0.0
  0
LWPOLYLINE
  5
162
100
AcDbEntity
  8
0
 62
7
100
AcDbPolyline
 90
2
 70
0
 10
298.604440
 20
-83.630015
 30
0.0
 10
298.604440
 20
-95.631511
 30
0.0
  0
SPLINE
  5
163
100
AcDbEntity
  8
0
 62
7
100
AcDbSpline
 70
8
 71
3
 72
8
 73
4
 74
0
 40
0
 40
0
 40
0
 40
0
 40
1
 40
1
 40
1
 40
1
 10
312.604915
 20
-83.631793
 30
0.0
 10
312.604915
 20
-83.366445
 30
0.0
 10
312.499453
 20
-83.111977
 30
0.0
 10
312.311753
 20
-82.924419
 30
0.0
  0
SPLINE
  5
164
100
AcDbEntity
  8
0
 62
7
100
AcDbSpline
 70
8
 71
3
 72
8
 73
4
 74
0
 40
0
 40
0
 40
0
 40
0
 40
1
 40
1
 40
1
 40
1
 10
312.311753
 20
-82.924419
 30
0.0
 10
312.124052
 20
-82.736861
 30
0.0
 10
311.869503
 20
-82.631594
 30
0.0
 10
311.604156
 20
-82.631795
 30
0.0
  0
LWPOLYLINE
  5
165
100
AcDbEntity
  8
0
 62
7
100
AcDbPolyline
 90
2
 70
0
 10
299.605200
 20
-96.629731
 30
0.0
 10
311.604156
 20
-96.629731
 30
0.0
  0
SPLINE
  5
166
100
AcDbEntity
  8
0
 62
7
100
AcDbSpline
 70
8
 71
3
 72
8
 73
4
 74
0
 40
0
 40
0
 40
0
 40
0
 40
1
 40
1
 40
1
 40
1
 10
292.554162
 20
-96.631763
 30
0.0
 10
292.819509
 20
-96.631964
 30
0.0
 10
293.074058
 20
-96.526697
 30
0.0
 10
293.261759
 20
-96.339139
 30
0.0
  0
SPLINE
  5
167
100
AcDbEntity
  8
0
 62
7
100
AcDbSpline
 70
8
 71
3
 72
8
 73
4
 74
0
 40
0
 40
0
 40
0
 40
0
 40
1
 40
1
 40
1
 40
1
 10
293.261759
 20
-96.339139
 30
0.0
 10
293.449459
 20
-96.151581
 30
0.0
 10
293.554921
 20
-95.897113
 30
0.0
 10
293.554921
 20
-95.631765
 30
0.0
  0
SPLINE
  5
168
100
AcDbEntity
  8
0
 62
7
100
AcDbSpline
 70
8
 71
3
 72
8
 73
4
 74
0
 40
0
 40
0
 40
0
 40
0
 40
1
 40
1
 40
1
 40
1
 10
280.555206
 20
-82.631795
 30
0.0
 10
280.289858
 20
-82.631594
 30
0.0
 10
280.035309
 20
-82.736861
 30
0.0
 10
279.847609
 20
-82.924419
 30
0.0
  0
SPLINE
  5
169
100
AcDbEntity
  8
0
 62
7
100
AcDbSpline
 70
8
 71
3
 72
8
 73
4
 74
0
 40
0
 40
0
 40
0
 40
0
 40
1
 40
1
 40
1
 40
1
 10
279.847609
 20
-82.924419
 30
0.0
 10
279.659908
 20
-83.111977
 30
0.0
 10
279.554446
 20
-83.366445
 30
0.0
 10
279.554446
 20
-83.631793
 30
0.0
  0
SPLINE
  5
16a
100
AcDbEntity
  8
0
 62
7
100
AcDbSpline
 70
8
 71
3
 72
8
 73
4
 74
0
 40
0
 40
0
 40
0
 40
0
 40
1
 40
1
 40
1
 40
1
 10
279.554446
 20
-95.631765
 30
0.0
 10
279.554446
 20
-95.897113
 30
0.0
 10
279.659908
 20
-96.151581
 30
0.0
 10
279.847609
 20
-96.339139
 30
0.0
  0
SPLINE
  5
16b
100
AcDbEntity
  8
0
 62
7
100
AcDbSpline
 70
8
 71
3
 72
8
 73
4
 74
0
 40
0
 40
0
 40
0
 40
0
 40
1
 40
1
 40
1
 40
1
 10
279.847609
 20
-96.339139
 30
0.0
 10
280.035309
 20
-96.526697
 30
0.0
 10
280.289858
 20
-96.631964
 30
0.0
 10
280.555206
 20
-96.631763
 30
0.0
  0
LWPOLYLINE
  5
16c
100
AcDbEntity
  8
0
 62
7
100
AcDbPolyline
 90
2
 70
0
 10
312.604915
 20
-83.630015
 30
0.0
 10
312.604915
 20
-95.631511
 30
0.0
  0
LWPOLYLINE
  5
16d
100
AcDbEntity
  8
0
 62
7
100
AcDbPolyline
 90
2
 70
0
 10
280.555206
 20
-82.631795
 30
0.0
 10
292.554162
 20
-82.631795
 30
0.0
  0
LWPOLYLINE
  5
16e
100
AcDbEntity
  8
0
 62
7
100
AcDbPolyline
 90
2
 70
0
 10
279.554446
 20
-83.630015
 30
0.0
 10
279.554446
 20
-95.631511
 30
0.0
  0
SPLINE
  5
16f
100
AcDbEntity
  8
0
 62
7
100
AcDbSpline
 70
8
 71
3
 72
8
 73
4
 74
0
 40
0
 40
0
 40
0
 40
0
 40
1
 40
1
 40
1
 40
1
 10
293.554921
 20
-83.631793
 30
0.0
 10
293.554921
 20
-83.366445
 30
0.0
 10
293.449459
 20
-83.111977
 30
0.0
 10
293.261759
 20
-82.924419
 30
0.0
  0
SPLINE
  5
170
100
AcDbEntity
  8
0
 62
7
100
AcDbSpline
 70
8
 71
3
 72
8
 73
4
 74
0
 40
0
 40
0
 40
0
 40
0
 40
1
 40
1
 40
1
 40
1
 10
293.261759
 20
-82.924419
 30
0.0
 10
293.074058
 20
-82.736861
 30
0.0
 10
292.819509
 20
-82.631594
 30
0.0
 10
292.554162
 20
-82.631795
 30
0.0
  0
LWPOLYLINE
  5
171
100
AcDbEntity
  8
0
 62
7
100
AcDbPolyline
 90
2
 70
0
 10
280.555206
 20
-96.629731
 30
0.0
 10
292.554162
 20
-96.629731
 30
0.0
  0
SPLINE
  5
172
100
AcDbEntity
  8
0
 62
7
100
AcDbSpline
 70
8
 71
3
 72
8
 73
4
 74
0
 40
0
 40
0
 40
0
 40
0
 40
1
 40
1
 40
1
 40
1
 10
262.405387
 20
-96.631763
 30
0.0
 10
262.957670
 20
-96.631761
 30
0.0
 10
263.405384
 20
-96.184048
 30
0.0
 10
263.405385
 20
-95.631765
 30
0.0
  0
SPLINE
  5
173
100
AcDbEntity
  8
0
 62
7
100
AcDbSpline
 70
8
 71
3
 72
8
 73
4
 74
0
 40
0
 40
0
 40
0
 40
0
 40
1
 40
1
 40
1
 40
1
 10
250.405420
 20
-82.631795
 30
0.0
 10
249.853137
 20
-82.631797
 30
0.0
 10
249.405424
 20
-83.079510
 30
0.0
 10
249.405422
 20
-83.631793
 30
0.0
  0
SPLINE
  5
174
100
AcDbEntity
  8
0
 62
7
100
AcDbSpline
 70
8
 71
3
 72
8
 73
4
 74
0
 40
0
 40
0
 40
0
 40
0
 40
1
 40
1
 40
1
 40
1
 10
249.405422
 20
-95.631765
 30
0.0
 10
249.405424
 20
-96.184048
 30
0.0
 10
249.853137
 20
-96.631761
 30
0.0
 10
250.405420
 20
-96.631763
 30
0.0
  0
LWPOLYLINE
  5
175
100
AcDbEntity
  8
0
 62
7
100
AcDbPolyline
 90
2
 70
0
 10
293.554921
 20
-83.630015
 30
0.0
 10
293.554921
 20
-95.631511
 30
0.0
  0
LWPOLYLINE
  5
176
100
AcDbEntity
  8
0
 62
7
100
AcDbPolyline
 90
2
 70
0
 10
250.405420
 20
-82.631795
 30
0.0
 10
262.404371
 20
-82.631795
 30
0.0
  0
LWPOLYLINE
  5
177
100
AcDbEntity
  8
0
 62
7
100
AcDbPolyline
 90
2
 70
0
 10
249.404660
 20
-83.630015
 30
0.0
 10
249.404660
 20
-95.631511
 30
0.0
  0
SPLINE
  5
178
100
AcDbEntity
  8
0
 62
7
100
AcDbSpline
 70
8
 71
3
 72
8
 73
4
 74
0
 40
0
 40
0
 40
0
 40
0
 40
1
 40
1
 40
1
 40
1
 10
263.405385
 20
-83.631793
 30
0.0
 10
263.405384
 20
-83.079510
 30
0.0
 10
262.957670
 20
-82.631797
 30
0.0
 10
262.405387
 20
-82.631795
 30
0.0
  0
LWPOLYLINE
  5
179
100
AcDbEntity
  8
0
 62
7
100
AcDbPolyline
 90
2
 70
0
 10
250.405420
 20
-96.629731
 30
0.0
 10
262.404371
 20
-96.629731
 30
0.0
  0
SPLINE
  5
17a
100
AcDbEntity
  8
0
 62
7
100
AcDbSpline
 70
8
 71
3
 72
8
 73
4
 74
0
 40
0
 40
0
 40
0
 40
0
 40
1
 40
1
 40
1
 40
1
 10
232.230202
 20
-96.631763
 30
0.0
 10
232.782485
 20
-96.631761
 30
0.0
 10
233.230198
 20
-96.184048
 30
0.0
 10
233.230199
 20
-95.631765
 30
0.0
  0
SPLINE
  5
17b
100
AcDbEntity
  8
0
 62
7
100
AcDbSpline
 70
8
 71
3
 72
8
 73
4
 74
0
 40
0
 40
0
 40
0
 40
0
 40
1
 40
1
 40
1
 40
1
 10
220.230230
 20
-82.631795
 30
0.0
 10
219.677947
 20
-82.631797
 30
0.0
 10
219.230233
 20
-83.079510
 30
0.0
 10
219.230232
 20
-83.631793
 30
0.0
  0
SPLINE
  5
17c
100
AcDbEntity
  8
0
 62
7
100
AcDbSpline
 70
8
 71
3
 72
8
 73
4
 74
0
 40
0
 40
0
 40
0
 40
0
 40
1
 40
1
 40
1
 40
1
 10
219.230232
 20
-95.631765
 30
0.0
 10
219.230233
 20
-96.184048
 30
0.0
 10
219.677947
 20
-96.631761
 30
0.0
 10
220.230230
 20
-96.631763
 30
0.0
  0
LWPOLYLINE
  5
17d
100
AcDbEntity
  8
0
 62
7
100
AcDbPolyline
 90
2
 70
0
 10
263.405131
 20
-83.630015
 30
0.0
 10
263.405131
 20
-95.631511
 30
0.0
  0
LWPOLYLINE
  5
17e
100
AcDbEntity
  8
0
 62
7
100
AcDbPolyline
 90
2
 70
0
 10
220.230230
 20
-82.631795
 30
0.0
 10
232.229186
 20
-82.631795
 30
0.0
  0
LWPOLYLINE
  5
17f
100
AcDbEntity
  8
0
 62
7
100
AcDbPolyline
 90
2
 70
0
 10
219.229470
 20
-83.630015
 30
0.0
 10
219.229470
 20
-95.631511
 30
0.0
  0
SPLINE
  5
180
100
AcDbEntity
  8
0
 62
7
100
AcDbSpline
 70
8
 71
3
 72
8
 73
4
 74
0
 40
0
 40
0
 40
0
 40
0
 40
1
 40
1
 40
1
 40
1
 10
233.230199
 20
-83.631793
 30
0.0
 10
233.230198
 20
-83.079510
 30
0.0
 10
232.782485
 20
-82.631797
 30
0.0
 10
232.230202
 20
-82.631795
 30
0.0
  0
LWPOLYLINE
  5
181
100
AcDbEntity
  8
0
 62
7
100
AcDbPolyline
 90
2
 70
0
 10
220.230230
 20
-96.629731
 30
0.0
 10
232.229186
 20
-96.629731
 30
0.0
  0
SPLINE
  5
182
100
AcDbEntity
  8
0
 62
7
100
AcDbSpline
 70
8
 71
3
 72
8
 73
4
 74
0
 40
0
 40
0
 40
0
 40
0
 40
1
 40
1
 40
1
 40
1
 10
213.180208
 20
-96.631763
 30
0.0
 10
213.732491
 20
-96.631761
 30
0.0
 10
214.180204
 20
-96.184048
 30
0.0
 10
214.180205
 20
-95.631765
 30
0.0
  0
SPLINE
  5
183
100
AcDbEntity
  8
0
 62
7
100
AcDbSpline
 70
8
 71
3
 72
8
 73
4
 74
0
 40
0
 40
0
 40
0
 40
0
 40
1
 40
1
 40
1
 40
1
 10
201.180236
 20
-82.631795
 30
0.0
 10
200.627953
 20
-82.631797
 30
0.0
 10
200.180239
 20
-83.079510
 30
0.0
 10
200.180238
 20
-83.631793
 30
0.0
  0
SPLINE
  5
184
100
AcDbEntity
  8
0
 62
7
100
AcDbSpline
 70
8
 71
3
 72
8
 73
4
 74
0
 40
0
 40
0
 40
0
 40
0
 40
1
 40
1
 40
1
 40
1
 10
200.180238
 20
-95.631765
 30
0.0
 10
200.180239
 20
-96.184048
 30
0.0
 10
200.627953
 20
-96.631761
 30
0.0
 10
201.180236
 20
-96.631763
 30
0.0
  0
LWPOLYLINE
  5
185
100
AcDbEntity
  8
0
 62
7
100
AcDbPolyline
 90
2
 70
0
 10
233.229945
 20
-83.630015
 30
0.0
 10
233.229945
 20
-95.631511
 30
0.0
  0
LWPOLYLINE
  5
186
100
AcDbEntity
  8
0
 62
7
100
AcDbPolyline
 90
2
 70
0
 10
201.180236
 20
-82.631795
 30
0.0
 10
213.179192
 20
-82.631795
 30
0.0
  0
LWPOLYLINE
  5
187
100
AcDbEntity
  8
0
 62
7
100
AcDbPolyline
 90
2
 70
0
 10
200.179476
 20
-83.630015
 30
0.0
 10
200.179476
 20
-95.631511
 30
0.0
  0
SPLINE
  5
188
100
AcDbEntity
  8
0
 62
7
100
AcDbSpline
 70
8
 71
3
 72
8
 73
4
 74
0
 40
0
 40
0
 40
0
 40
0
 40
1
 40
1
 40
1
 40
1
 10
214.180205
 20
-83.631793
 30
0.0
 10
214.180204
 20
-83.079510
 30
0.0
 10
213.732491
 20
-82.631797
 30
0.0
 10
213.180208
 20
-82.631795
 30
0.0
  0
LWPOLYLINE
  5
189
100
AcDbEntity
  8
0
 62
7
100
AcDbPolyline
 90
2
 70
0
 10
201.180236
 20
-96.629731
 30
0.0
 10
213.179192
 20
-96.629731
 30
0.0
  0
SPLINE
  5
18a
100
AcDbEntity
  8
0
 62
7
100
AcDbSpline
 70
8
 71
3
 72
8
 73
4
 74
0
 40
0
 40
0
 40
0
 40
0
 40
1
 40
1
 40
1
 40
1
 10
194.130214
 20
-96.631763
 30
0.0
 10
194.682497
 20
-96.631761
 30
0.0
 10
195.130210
 20
-96.184048
 30
0.0
 10
195.130211
 20
-95.631765
 30
0.0
  0
SPLINE
  5
18b
100
AcDbEntity
  8
0
 62
7
100
AcDbSpline
 70
8
 71
3
 72
8
 73
4
 74
0
 40
0
 40
0
 40
0
 40
0
 40
1
 40
1
 40
1
 40
1
 10
182.130242
 20
-82.631795
 30
0.0
 10
181.577959
 20
-82.631797
 30
0.0
 10
181.130245
 20
-83.079510
 30
0.0
 10
181.130244
 20
-83.631793
 30
0.0
  0
SPLINE
  5
18c
100
AcDbEntity
  8
0
 62
7
100
AcDbSpline
 70
8
 71
3
 72
8
 73
4
 74
0
 40
0
 40
0
 40
0
 40
0
 40
1
 40
1
 40
1
 40
1
 10
181.130244
 20
-95.631765
 30
0.0
 10
181.130245
 20
-96.184048
 30
0.0
 10
181.577959
 20
-96.631761
 30
0.0
 10
182.130242
 20
-96.631763
 30
0.0
  0
LWPOLYLINE
  5
18d
100
AcDbEntity
  8
0
 62
7
100
AcDbPolyline
 90
2
 70
0
 10
214.179951
 20
-83.630015
 30
0.0
 10
214.179951
 20
-95.631511
 30
0.0
  0
LWPOLYLINE
  5
18e
100
AcDbEntity
  8
0
 62
7
100
AcDbPolyline
 90
2
 70
0
 10
182.130242
 20
-82.631795
 30
0.0
 10
194.129198
 20
-82.631795
 30
0.0
  0
LWPOLYLINE
  5
18f
100
AcDbEntity
  8
0
 62
7
100
AcDbPolyline
 90
2
 70
0
 10
181.129482
 20
-83.630015
 30
0.0
 10
181.129482
 20
-95.631511
 30
0.0
  0
SPLINE
  5
190
100
AcDbEntity
  8
0
 62
7
100
AcDbSpline
 70
8
 71
3
 72
8
 73
4
 74
0
 40
0
 40
0
 40
0
 40
0
 40
1
 40
1
 40
1
 40
1
 10
195.130211
 20
-83.631793
 30
0.0
 10
195.130210
 20
-83.079510
 30
0.0
 10
194.682497
 20
-82.631797
 30
0.0
 10
194.130214
 20
-82.631795
 30
0.0
  0
LWPOLYLINE
  5
191
100
AcDbEntity
  8
0
 62
7
100
AcDbPolyline
 90
2
 70
0
 10
182.130242
 20
-96.629731
 30
0.0
 10
194.129198
 20
-96.629731
 30
0.0
  0
SPLINE
  5
192
100
AcDbEntity
  8
0
 62
7
100
AcDbSpline
 70
8
 71
3
 72
8
 73
4
 74
0
 40
0
 40
0
 40
0
 40
0
 40
1
 40
1
 40
1
 40
1
 10
175.080222
 20
-96.631763
 30
0.0
 10
175.632504
 20
-96.631760
 30
0.0
 10
176.080216
 20
-96.184047
 30
0.0
 10
176.080217
 20
-95.631765
 30
0.0
  0
SPLINE
  5
193
100
AcDbEntity
  8
0
 62
7
100
AcDbSpline
 70
8
 71
3
 72
8
 73
4
 74
0
 40
0
 40
0
 40
0
 40
0
 40
1
 40
1
 40
1
 40
1
 10
163.080250
 20
-82.631795
 30
0.0
 10
162.527967
 20
-82.631797
 30
0.0
 10
162.080254
 20
-83.079510
 30
0.0
 10
162.080252
 20
-83.631793
 30
0.0
  0
SPLINE
  5
194
100
AcDbEntity
  8
0
 62
7
100
AcDbSpline
 70
8
 71
3
 72
8
 73
4
 74
0
 40
0
 40
0
 40
0
 40
0
 40
1
 40
1
 40
1
 40
1
 10
162.080252
 20
-95.631765
 30
0.0
 10
162.080254
 20
-96.184048
 30
0.0
 10
162.527967
 20
-96.631761
 30
0.0
 10
163.080250
 20
-96.631763
 30
0.0
  0
LWPOLYLINE
  5
195
100
AcDbEntity
  8
0
 62
7
100
AcDbPolyline
 90
2
 70
0
 10
195.129957
 20
-83.630015
 30
0.0
 10
195.129957
 20
-95.631511
 30
0.0
  0
LWPOLYLINE
  5
196
100
AcDbEntity
  8
0
 62
7
100
AcDbPolyline
 90
2
 70
0
 10
163.080250
 20
-82.631795
 30
0.0
 10
175.079204
 20
-82.631795
 30
0.0
  0
LWPOLYLINE
  5
197
100
AcDbEntity
  8
0
 62
7
100
AcDbPolyline
 90
2
 70
0
 10
162.079490
 20
-83.630015
 30
0.0
 10
162.079490
 20
-95.631511
 30
0.0
  0
SPLINE
  5
198
100
AcDbEntity
  8
0
 62
7
100
AcDbSpline
 70
8
 71
3
 72
8
 73
4
 74
0
 40
0
 40
0
 40
0
 40
0
 40
1
 40
1
 40
1
 40
1
 10
176.080217
 20
-83.631793
 30
0.0
 10
176.080216
 20
-83.079511
 30
0.0
 10
175.632504
 20
-82.631798
 30
0.0
 10
175.080222
 20
-82.631795
 30
0.0
  0
LWPOLYLINE
  5
199
100
AcDbEntity
  8
0
 62
7
100
AcDbPolyline
 90
2
 70
0
 10
163.080250
 20
-96.629731
 30
0.0
 10
175.079204
 20
-96.629731
 30
0.0
  0
SPLINE
  5
19a
100
AcDbEntity
  8
0
 62
7
100
AcDbSpline
 70
8
 71
3
 72
8
 73
4
 74
0
 40
0
 40
0
 40
0
 40
0
 40
1
 40
1
 40
1
 40
1
 10
156.004828
 20
-96.631763
 30
0.0
 10
156.557110
 20
-96.631760
 30
0.0
 10
157.004822
 20
-96.184047
 30
0.0
 10
157.004823
 20
-95.631765
 30
0.0
  0
SPLINE
  5
19b
100
AcDbEntity
  8
0
 62
7
100
AcDbSpline
 70
8
 71
3
 72
8
 73
4
 74
0
 40
0
 40
0
 40
0
 40
0
 40
1
 40
1
 40
1
 40
1
 10
144.004856
 20
-82.631795
 30
0.0
 10
143.452573
 20
-82.631797
 30
0.0
 10
143.004860
 20
-83.079510
 30
0.0
 10
143.004858
 20
-83.631793
 30
0.0
  0
SPLINE
  5
19c
100
AcDbEntity
  8
0
 62
7
100
AcDbSpline
 70
8
 71
3
 72
8
 73
4
 74
0
 40
0
 40
0
 40
0
 40
0
 40
1
 40
1
 40
1
 40
1
 10
143.004858
 20
-95.631765
 30
0.0
 10
143.004860
 20
-96.184048
 30
0.0
 10
143.452573
 20
-96.631761
 30
0.0
 10
144.004856
 20
-96.631763
 30
0.0
  0
LWPOLYLINE
  5
19d
100
AcDbEntity
  8
0
 62
7
100
AcDbPolyline
 90
2
 70
0
 10
176.079963
 20
-83.630015
 30
0.0
 10
176.079963
 20
-95.631511
 30
0.0
  0
LWPOLYLINE
  5
19e
100
AcDbEntity
  8
0
 62
7
100
AcDbPolyline
 90
2
 70
0
 10
144.004856
 20
-82.631795
 30
0.0
 10
156.003812
 20
-82.631795
 30
0.0
  0
LWPOLYLINE
  5
19f
100
AcDbEntity
  8
0
 62
7
100
AcDbPolyline
 90
2
 70
0
 10
143.004096
 20
-83.630015
 30
0.0
 10
143.004096
 20
-95.631511
 30
0.0
  0
SPLINE
  5
1a0
100
AcDbEntity
  8
0
 62
7
100
AcDbSpline
 70
8
 71
3
 72
8
 73
4
 74
0
 40
0
 40
0
 40
0
 40
0
 40
1
 40
1
 40
1
 40
1
 10
157.004823
 20
-83.631793
 30
0.0
 10
157.004822
 20
-83.079511
 30
0.0
 10
156.557110
 20
-82.631798
 30
0.0
 10
156.004828
 20
-82.631795
 30
0.0
  0
LWPOLYLINE
  5
1a1
100
AcDbEntity
  8
0
 62
7
100
AcDbPolyline
 90
2
 70
0
 10
144.004856
 20
-96.629731
 30
0.0
 10
156.003812
 20
-96.629731
 30
0.0
  0
SPLINE
  5
1a2
100
AcDbEntity
  8
0
 62
7
100
AcDbSpline
 70
8
 71
3
 72
8
 73
4
 74
0
 40
0
 40
0
 40
0
 40
0
 40
1
 40
1
 40
1
 40
1
 10
117.904840
 20
-96.631763
 30
0.0
 10
118.457122
 20
-96.631760
 30
0.0
 10
118.904834
 20
-96.184047
 30
0.0
 10
118.904835
 20
-95.631765
 30
0.0
  0
SPLINE
  5
1a3
100
AcDbEntity
  8
0
 62
7
100
AcDbSpline
 70
8
 71
3
 72
8
 73
4
 74
0
 40
0
 40
0
 40
0
 40
0
 40
1
 40
1
 40
1
 40
1
 10
105.904868
 20
-82.631795
 30
0.0
 10
105.352585
 20
-82.631797
 30
0.0
 10
104.904872
 20
-83.079510
 30
0.0
 10
104.904870
 20
-83.631793
 30
0.0
  0
SPLINE
  5
1a4
100
AcDbEntity
  8
0
 62
7
100
AcDbSpline
 70
8
 71
3
 72
8
 73
4
 74
0
 40
0
 40
0
 40
0
 40
0
 40
1
 40
1
 40
1
 40
1
 10
104.904870
 20
-95.631765
 30
0.0
 10
104.904872
 20
-96.184048
 30
0.0
 10
105.352585
 20
-96.631761
 30
0.0
 10
105.904868
 20
-96.631763
 30
0.0
  0
LWPOLYLINE
  5
1a5
100
AcDbEntity
  8
0
 62
7
100
AcDbPolyline
 90
2
 70
0
 10
157.004572
 20
-83.630015
 30
0.0
 10
157.004572
 20
-95.631511
 30
0.0
  0
LWPOLYLINE
  5
1a6
100
AcDbEntity
  8
0
 62
7
100
AcDbPolyline
 90
2
 70
0
 10
105.904868
 20
-82.631795
 30
0.0
 10
117.903824
 20
-82.631795
 30
0.0
  0
LWPOLYLINE
  5
1a7
100
AcDbEntity
  8
0
 62
7
100
AcDbPolyline
 90
2
 70
0
 10
104.904108
 20
-83.630015
 30
0.0
 10
104.904108
 20
-95.631511
 30
0.0
  0
SPLINE
  5
1a8
100
AcDbEntity
  8
0
 62
7
100
AcDbSpline
 70
8
 71
3
 72
8
 73
4
 74
0
 40
0
 40
0
 40
0
 40
0
 40
1
 40
1
 40
1
 40
1
 10
118.904835
 20
-83.631793
 30
0.0
 10
118.904834
 20
-83.079511
 30
0.0
 10
118.457122
 20
-82.631798
 30
0.0
 10
117.904840
 20
-82.631795
 30
0.0
  0
LWPOLYLINE
  5
1a9
100
AcDbEntity
  8
0
 62
7
100
AcDbPolyline
 90
2
 70
0
 10
105.904868
 20
-96.629731
 30
0.0
 10
117.903824
 20
-96.629731
 30
0.0
  0
SPLINE
  5
1aa
100
AcDbEntity
  8
0
 62
7
100
AcDbSpline
 70
8
 71
3
 72
8
 73
4
 74
0
 40
0
 40
0
 40
0
 40
0
 40
1
 40
1
 40
1
 40
1
 10
98.854846
 20
-96.657163
 30
0.0
 10
99.407128
 20
-96.657160
 30
0.0
 10
99.854840
 20
-96.209447
 30
0.0
 10
99.854841
 20
-95.657165
 30
0.0
  0
SPLINE
  5
1ab
100
AcDbEntity
  8
0
 62
7
100
AcDbSpline
 70
8
 71
3
 72
8
 73
4
 74
0
 40
0
 40
0
 40
0
 40
0
 40
1
 40
1
 40
1
 40
1
 10
86.854874
 20
-82.657195
 30
0.0
 10
86.302591
 20
-82.657197
 30
0.0
 10
85.854878
 20
-83.104910
 30
0.0
 10
85.854876
 20
-83.657193
 30
0.0
  0
SPLINE
  5
1ac
100
AcDbEntity
  8
0
 62
7
100
AcDbSpline
 70
8
 71
3
 72
8
 73
4
 74
0
 40
0
 40
0
 40
0
 40
0
 40
1
 40
1
 40
1
 40
1
 10
85.854876
 20
-95.657165
 30
0.0
 10
85.854878
 20
-96.209448
 30
0.0
 10
86.302591
 20
-96.657161
 30
0.0
 10
86.854874
 20
-96.657163
 30
0.0
  0
LWPOLYLINE
  5
1ad
100
AcDbEntity
  8
0
 62
7
100
AcDbPolyline
 90
2
 70
0
 10
118.904584
 20
-83.630015
 30
0.0
 10
118.904584
 20
-95.631511
 30
0.0
  0
LWPOLYLINE
  5
1ae
100
AcDbEntity
  8
0
 62
7
100
AcDbPolyline
 90
2
 70
0
 10
86.854874
 20
-82.657195
 30
0.0
 10
98.853830
 20
-82.657195
 30
0.0
  0
LWPOLYLINE
  5
1af
100
AcDbEntity
  8
0
 62
7
100
AcDbPolyline
 90
2
 70
0
 10
85.854114
 20
-83.655415
 30
0.0
 10
85.854114
 20
-95.656911
 30
0.0
  0
SPLINE
  5
1b0
100
AcDbEntity
  8
0
 62
7
100
AcDbSpline
 70
8
 71
3
 72
8
 73
4
 74
0
 40
0
 40
0
 40
0
 40
0
 40
1
 40
1
 40
1
 40
1
 10
99.854841
 20
-83.657193
 30
0.0
 10
99.854840
 20
-83.104911
 30
0.0
 10
99.407128
 20
-82.657198
 30
0.0
 10
98.854846
 20
-82.657195
 30
0.0
  0
LWPOLYLINE
  5
1b1
100
AcDbEntity
  8
0
 62
7
100
AcDbPolyline
 90
2
 70
0
 10
86.854874
 20
-96.655131
 30
0.0
 10
98.853830
 20
-96.655131
 30
0.0
  0
SPLINE
  5
1b2
100
AcDbEntity
  8
0
 62
7
100
AcDbSpline
 70
8
 71
3
 72
8
 73
4
 74
0
 40
0
 40
0
 40
0
 40
0
 40
1
 40
1
 40
1
 40
1
 10
79.804850
 20
-96.631763
 30
0.0
 10
80.357133
 20
-96.631761
 30
0.0
 10
80.804846
 20
-96.184048
 30
0.0
 10
80.804847
 20
-95.631765
 30
0.0
  0
SPLINE
  5
1b3
100
AcDbEntity
  8
0
 62
7
100
AcDbSpline
 70
8
 71
3
 72
8
 73
4
 74
0
 40
0
 40
0
 40
0
 40
0
 40
1
 40
1
 40
1
 40
1
 10
67.804877
 20
-82.631795
 30
0.0
 10
67.252595
 20
-82.631797
 30
0.0
 10
66.804881
 20
-83.079510
 30
0.0
 10
66.804880
 20
-83.631793
 30
0.0
  0
SPLINE
  5
1b4
100
AcDbEntity
  8
0
 62
7
100
AcDbSpline
 70
8
 71
3
 72
8
 73
4
 74
0
 40
0
 40
0
 40
0
 40
0
 40
1
 40
1
 40
1
 40
1
 10
66.804880
 20
-95.631765
 30
0.0
 10
66.804881
 20
-96.184048
 30
0.0
 10
67.252595
 20
-96.631761
 30
0.0
 10
67.804877
 20
-96.631763
 30
0.0
  0
LWPOLYLINE
  5
1b5
100
AcDbEntity
  8
0
 62
7
100
AcDbPolyline
 90
2
 70
0
 10
99.854590
 20
-83.655415
 30
0.0
 10
99.854590
 20
-95.656911
 30
0.0
  0
LWPOLYLINE
  5
1b6
100
AcDbEntity
  8
0
 62
7
100
AcDbPolyline
 90
2
 70
0
 10
67.804877
 20
-82.631795
 30
0.0
 10
79.803834
 20
-82.631795
 30
0.0
  0
LWPOLYLINE
  5
1b7
100
AcDbEntity
  8
0
 62
7
100
AcDbPolyline
 90
2
 70
0
 10
66.804118
 20
-83.630015
 30
0.0
 10
66.804118
 20
-95.631511
 30
0.0
  0
SPLINE
  5
1b8
100
AcDbEntity
  8
0
 62
7
100
AcDbSpline
 70
8
 71
3
 72
8
 73
4
 74
0
 40
0
 40
0
 40
0
 40
0
 40
1
 40
1
 40
1
 40
1
 10
80.804847
 20
-83.631793
 30
0.0
 10
80.804846
 20
-83.079510
 30
0.0
 10
80.357133
 20
-82.631797
 30
0.0
 10
79.804850
 20
-82.631795
 30
0.0
  0
LWPOLYLINE
  5
1b9
100
AcDbEntity
  8
0
 62
7
100
AcDbPolyline
 90
2
 70
0
 10
67.804877
 20
-96.629731
 30
0.0
 10
79.803834
 20
-96.629731
 30
0.0
  0
SPLINE
  5
1ba
100
AcDbEntity
  8
0
 62
7
100
AcDbSpline
 70
8
 71
3
 72
8
 73
4
 74
0
 40
0
 40
0
 40
0
 40
0
 40
1
 40
1
 40
1
 40
1
 10
60.780256
 20
-96.631763
 30
0.0
 10
61.332538
 20
-96.631761
 30
0.0
 10
61.780252
 20
-96.184048
 30
0.0
 10
61.780253
 20
-95.631765
 30
0.0
  0
SPLINE
  5
1bb
100
AcDbEntity
  8
0
 62
7
100
AcDbSpline
 70
8
 71
3
 72
8
 73
4
 74
0
 40
0
 40
0
 40
0
 40
0
 40
1
 40
1
 40
1
 40
1
 10
48.780283
 20
-82.631795
 30
0.0
 10
48.228000
 20
-82.631797
 30
0.0
 10
47.780287
 20
-83.079510
 30
0.0
 10
47.780286
 20
-83.631793
 30
0.0
  0
SPLINE
  5
1bc
100
AcDbEntity
  8
0
 62
7
100
AcDbSpline
 70
8
 71
3
 72
8
 73
4
 74
0
 40
0
 40
0
 40
0
 40
0
 40
1
 40
1
 40
1
 40
1
 10
47.780286
 20
-95.631765
 30
0.0
 10
47.780287
 20
-96.184048
 30
0.0
 10
48.228000
 20
-96.631761
 30
0.0
 10
48.780283
 20
-96.631763
 30
0.0
  0
LWPOLYLINE
  5
1bd
100
AcDbEntity
  8
0
 62
7
100
AcDbPolyline
 90
2
 70
0
 10
80.804593
 20
-83.630015
 30
0.0
 10
80.804593
 20
-95.631511
 30
0.0
  0
LWPOLYLINE
  5
1be
100
AcDbEntity
  8
0
 62
7
100
AcDbPolyline
 90
2
 70
0
 10
48.780283
 20
-82.631795
 30
0.0
 10
60.779240
 20
-82.631795
 30
0.0
  0
LWPOLYLINE
  5
1bf
100
AcDbEntity
  8
0
 62
7
100
AcDbPolyline
 90
2
 70
0
 10
47.779524
 20
-83.630015
 30
0.0
 10
47.779524
 20
-95.631511
 30
0.0
  0
SPLINE
  5
1c0
100
AcDbEntity
  8
0
 62
7
100
AcDbSpline
 70
8
 71
3
 72
8
 73
4
 74
0
 40
0
 40
0
 40
0
 40
0
 40
1
 40
1
 40
1
 40
1
 10
61.780253
 20
-83.631793
 30
0.0
 10
61.780252
 20
-83.079510
 30
0.0
 10
61.332538
 20
-82.631797
 30
0.0
 10
60.780256
 20
-82.631795
 30
0.0
  0
LWPOLYLINE
  5
1c1
100
AcDbEntity
  8
0
 62
7
100
AcDbPolyline
 90
2
 70
0
 10
48.780283
 20
-96.629731
 30
0.0
 10
60.779240
 20
-96.629731
 30
0.0
  0
SPLINE
  5
1c2
100
AcDbEntity
  8
0
 62
7
100
AcDbSpline
 70
8
 71
3
 72
8
 73
4
 74
0
 40
0
 40
0
 40
0
 40
0
 40
1
 40
1
 40
1
 40
1
 10
25.042493
 20
-77.581769
 30
0.0
 10
25.594776
 20
-77.581767
 30
0.0
 10
26.042489
 20
-77.134053
 30
0.0
 10
26.042490
 20
-76.581771
 30
0.0
  0
SPLINE
  5
1c3
100
AcDbEntity
  8
0
 62
7
100
AcDbSpline
 70
8
 71
3
 72
8
 73
4
 74
0
 40
0
 40
0
 40
0
 40
0
 40
1
 40
1
 40
1
 40
1
 10
13.042496
 20
-63.581801
 30
0.0
 10
12.490213
 20
-63.581803
 30
0.0
 10
12.042500
 20
-64.029516
 30
0.0
 10
12.042498
 20
-64.581799
 30
0.0
  0
SPLINE
  5
1c4
100
AcDbEntity
  8
0
 62
7
100
AcDbSpline
 70
8
 71
3
 72
8
 73
4
 74
0
 40
0
 40
0
 40
0
 40
0
 40
1
 40
1
 40
1
 40
1
 10
12.042498
 20
-76.581771
 30
0.0
 10
12.042500
 20
-77.134054
 30
0.0
 10
12.490213
 20
-77.581767
 30
0.0
 10
13.042496
 20
-77.581769
 30
0.0
  0
LWPOLYLINE
  5
1c5
100
AcDbEntity
  8
0
 62
7
100
AcDbPolyline
 90
2
 70
0
 10
61.779999
 20
-83.630015
 30
0.0
 10
61.779999
 20
-95.631511
 30
0.0
  0
LWPOLYLINE
  5
1c6
100
AcDbEntity
  8
0
 62
7
100
AcDbPolyline
 90
2
 70
0
 10
13.042496
 20
-63.581801
 30
0.0
 10
25.041452
 20
-63.581801
 30
0.0
  0
LWPOLYLINE
  5
1c7
100
AcDbEntity
  8
0
 62
7
100
AcDbPolyline
 90
2
 70
0
 10
12.044276
 20
-64.580021
 30
0.0
 10
12.044276
 20
-76.581517
 30
0.0
  0
SPLINE
  5
1c8
100
AcDbEntity
  8
0
 62
7
100
AcDbSpline
 70
8
 71
3
 72
8
 73
4
 74
0
 40
0
 40
0
 40
0
 40
0
 40
1
 40
1
 40
1
 40
1
 10
26.042490
 20
-64.581799
 30
0.0
 10
26.042489
 20
-64.029516
 30
0.0
 10
25.594776
 20
-63.581803
 30
0.0
 10
25.042493
 20
-63.581801
 30
0.0
  0
LWPOLYLINE
  5
1c9
100
AcDbEntity
  8
0
 62
7
100
AcDbPolyline
 90
2
 70
0
 10
13.042496
 20
-77.579737
 30
0.0
 10
25.041452
 20
-77.579737
 30
0.0
  0
SPLINE
  5
1ca
100
AcDbEntity
  8
0
 62
7
100
AcDbSpline
 70
8
 71
3
 72
8
 73
4
 74
0
 40
0
 40
0
 40
0
 40
0
 40
1
 40
1
 40
1
 40
1
 10
51.229859
 20
-77.556369
 30
0.0
 10
51.782141
 20
-77.556367
 30
0.0
 10
52.229855
 20
-77.108654
 30
0.0
 10
52.229856
 20
-76.556371
 30
0.0
  0
SPLINE
  5
1cb
100
AcDbEntity
  8
0
 62
7
100
AcDbSpline
 70
8
 71
3
 72
8
 73
4
 74
0
 40
0
 40
0
 40
0
 40
0
 40
1
 40
1
 40
1
 40
1
 10
39.229886
 20
-63.556401
 30
0.0
 10
38.677603
 20
-63.556403
 30
0.0
 10
38.229890
 20
-64.004116
 30
0.0
 10
38.229889
 20
-64.556399
 30
0.0
  0
SPLINE
  5
1cc
100
AcDbEntity
  8
0
 62
7
100
AcDbSpline
 70
8
 71
3
 72
8
 73
4
 74
0
 40
0
 40
0
 40
0
 40
0
 40
1
 40
1
 40
1
 40
1
 10
38.229889
 20
-76.556371
 30
0.0
 10
38.229890
 20
-77.108654
 30
0.0
 10
38.677603
 20
-77.556367
 30
0.0
 10
39.229886
 20
-77.556369
 30
0.0
  0
LWPOLYLINE
  5
1cd
100
AcDbEntity
  8
0
 62
7
100
AcDbPolyline
 90
2
 70
0
 10
26.042211
 20
-64.580021
 30
0.0
 10
26.042211
 20
-76.581517
 30
0.0
  0
LWPOLYLINE
  5
1ce
100
AcDbEntity
  8
0
 62
7
100
AcDbPolyline
 90
2
 70
0
 10
39.229886
 20
-63.556401
 30
0.0
 10
51.228843
 20
-63.556401
 30
0.0
  0
LWPOLYLINE
  5
1cf
100
AcDbEntity
  8
0
 62
7
100
AcDbPolyline
 90
2
 70
0
 10
38.229127
 20
-64.554621
 30
0.0
 10
38.229127
 20
-76.556117
 30
0.0
  0
SPLINE
  5
1d0
100
AcDbEntity
  8
0
 62
7
100
AcDbSpline
 70
8
 71
3
 72
8
 73
4
 74
0
 40
0
 40
0
 40
0
 40
0
 40
1
 40
1
 40
1
 40
1
 10
52.229856
 20
-64.556399
 30
0.0
 10
52.229855
 20
-64.004116
 30
0.0
 10
51.782141
 20
-63.556403
 30
0.0
 10
51.229859
 20
-63.556401
 30
0.0
  0
LWPOLYLINE
  5
1d1
100
AcDbEntity
  8
0
 62
7
100
AcDbPolyline
 90
2
 70
0
 10
39.229886
 20
-77.554337
 30
0.0
 10
51.228843
 20
-77.554337
 30
0.0
  0
SPLINE
  5
1d2
100
AcDbEntity
  8
0
 62
7
100
AcDbSpline
 70
8
 71
3
 72
8
 73
4
 74
0
 40
0
 40
0
 40
0
 40
0
 40
1
 40
1
 40
1
 40
1
 10
70.254453
 20
-77.581769
 30
0.0
 10
70.806736
 20
-77.581767
 30
0.0
 10
71.254449
 20
-77.134054
 30
0.0
 10
71.254450
 20
-76.581771
 30
0.0
  0
SPLINE
  5
1d3
100
AcDbEntity
  8
0
 62
7
100
AcDbSpline
 70
8
 71
3
 72
8
 73
4
 74
0
 40
0
 40
0
 40
0
 40
0
 40
1
 40
1
 40
1
 40
1
 10
58.254480
 20
-63.581801
 30
0.0
 10
57.702198
 20
-63.581803
 30
0.0
 10
57.254484
 20
-64.029516
 30
0.0
 10
57.254483
 20
-64.581799
 30
0.0
  0
SPLINE
  5
1d4
100
AcDbEntity
  8
0
 62
7
100
AcDbSpline
 70
8
 71
3
 72
8
 73
4
 74
0
 40
0
 40
0
 40
0
 40
0
 40
1
 40
1
 40
1
 40
1
 10
57.254483
 20
-76.581771
 30
0.0
 10
57.254484
 20
-77.134054
 30
0.0
 10
57.702198
 20
-77.581767
 30
0.0
 10
58.254480
 20
-77.581769
 30
0.0
  0
LWPOLYLINE
  5
1d5
100
AcDbEntity
  8
0
 62
7
100
AcDbPolyline
 90
2
 70
0
 10
52.229602
 20
-64.554621
 30
0.0
 10
52.229602
 20
-76.556117
 30
0.0
  0
LWPOLYLINE
  5
1d6
100
AcDbEntity
  8
0
 62
7
100
AcDbPolyline
 90
2
 70
0
 10
58.254480
 20
-63.581801
 30
0.0
 10
70.253437
 20
-63.581801
 30
0.0
  0
LWPOLYLINE
  5
1d7
100
AcDbEntity
  8
0
 62
7
100
AcDbPolyline
 90
2
 70
0
 10
57.253721
 20
-64.580021
 30
0.0
 10
57.253721
 20
-76.581517
 30
0.0
  0
SPLINE
  5
1d8
100
AcDbEntity
  8
0
 62
7
100
AcDbSpline
 70
8
 71
3
 72
8
 73
4
 74
0
 40
0
 40
0
 40
0
 40
0
 40
1
 40
1
 40
1
 40
1
 10
71.254450
 20
-64.581799
 30
0.0
 10
71.254449
 20
-64.029516
 30
0.0
 10
70.806736
 20
-63.581803
 30
0.0
 10
70.254453
 20
-63.581801
 30
0.0
  0
LWPOLYLINE
  5
1d9
100
AcDbEntity
  8
0
 62
7
100
AcDbPolyline
 90
2
 70
0
 10
58.254480
 20
-77.579737
 30
0.0
 10
70.253437
 20
-77.579737
 30
0.0
  0
SPLINE
  5
1da
100
AcDbEntity
  8
0
 62
7
100
AcDbSpline
 70
8
 71
3
 72
8
 73
4
 74
0
 40
0
 40
0
 40
0
 40
0
 40
1
 40
1
 40
1
 40
1
 10
89.329849
 20
-77.581769
 30
0.0
 10
89.882132
 20
-77.581767
 30
0.0
 10
90.329845
 20
-77.134054
 30
0.0
 10
90.329847
 20
-76.581771
 30
0.0
  0
SPLINE
  5
1db
100
AcDbEntity
  8
0
 62
7
100
AcDbSpline
 70
8
 71
3
 72
8
 73
4
 74
0
 40
0
 40
0
 40
0
 40
0
 40
1
 40
1
 40
1
 40
1
 10
77.329874
 20
-63.581801
 30
0.0
 10
76.777592
 20
-63.581803
 30
0.0
 10
76.329878
 20
-64.029516
 30
0.0
 10
76.329877
 20
-64.581799
 30
0.0
  0
SPLINE
  5
1dc
100
AcDbEntity
  8
0
 62
7
100
AcDbSpline
 70
8
 71
3
 72
8
 73
4
 74
0
 40
0
 40
0
 40
0
 40
0
 40
1
 40
1
 40
1
 40
1
 10
76.329877
 20
-76.581771
 30
0.0
 10
76.329878
 20
-77.134054
 30
0.0
 10
76.777592
 20
-77.581767
 30
0.0
 10
77.329874
 20
-77.581769
 30
0.0
  0
LWPOLYLINE
  5
1dd
100
AcDbEntity
  8
0
 62
7
100
AcDbPolyline
 90
2
 70
0
 10
71.254196
 20
-64.580021
 30
0.0
 10
71.254196
 20
-76.581517
 30
0.0
  0
LWPOLYLINE
  5
1de
100
AcDbEntity
  8
0
 62
7
100
AcDbPolyline
 90
2
 70
0
 10
77.329874
 20
-63.581801
 30
0.0
 10
89.328833
 20
-63.581801
 30
0.0
  0
LWPOLYLINE
  5
1df
100
AcDbEntity
  8
0
 62
7
100
AcDbPolyline
 90
2
 70
0
 10
76.329115
 20
-64.580021
 30
0.0
 10
76.329115
 20
-76.581517
 30
0.0
  0
SPLINE
  5
1e0
100
AcDbEntity
  8
0
 62
7
100
AcDbSpline
 70
8
 71
3
 72
8
 73
4
 74
0
 40
0
 40
0
 40
0
 40
0
 40
1
 40
1
 40
1
 40
1
 10
90.329844
 20
-64.581799
 30
0.0
 10
90.329843
 20
-64.029517
 30
0.0
 10
89.882131
 20
-63.581804
 30
0.0
 10
89.329849
 20
-63.581801
 30
0.0
  0
LWPOLYLINE
  5
1e1
100
AcDbEntity
  8
0
 62
7
100
AcDbPolyline
 90
2
 70
0
 10
77.329874
 20
-77.579737
 30
0.0
 10
89.328833
 20
-77.579737
 30
0.0
  0
SPLINE
  5
1e2
100
AcDbEntity
  8
0
 62
7
100
AcDbSpline
 70
8
 71
3
 72
8
 73
4
 74
0
 40
0
 40
0
 40
0
 40
0
 40
1
 40
1
 40
1
 40
1
 10
108.379843
 20
-77.581769
 30
0.0
 10
108.932125
 20
-77.581766
 30
0.0
 10
109.379837
 20
-77.134053
 30
0.0
 10
109.379838
 20
-76.581771
 30
0.0
  0
SPLINE
  5
1e3
100
AcDbEntity
  8
0
 62
7
100
AcDbSpline
 70
8
 71
3
 72
8
 73
4
 74
0
 40
0
 40
0
 40
0
 40
0
 40
1
 40
1
 40
1
 40
1
 10
96.379871
 20
-63.581801
 30
0.0
 10
95.827588
 20
-63.581803
 30
0.0
 10
95.379875
 20
-64.029516
 30
0.0
 10
95.379873
 20
-64.581799
 30
0.0
  0
SPLINE
  5
1e4
100
AcDbEntity
  8
0
 62
7
100
AcDbSpline
 70
8
 71
3
 72
8
 73
4
 74
0
 40
0
 40
0
 40
0
 40
0
 40
1
 40
1
 40
1
 40
1
 10
95.379873
 20
-76.581771
 30
0.0
 10
95.379875
 20
-77.134054
 30
0.0
 10
95.827588
 20
-77.581767
 30
0.0
 10
96.379871
 20
-77.581769
 30
0.0
  0
LWPOLYLINE
  5
1e5
100
AcDbEntity
  8
0
 62
7
100
AcDbPolyline
 90
2
 70
0
 10
90.329593
 20
-64.580021
 30
0.0
 10
90.329593
 20
-76.581517
 30
0.0
  0
LWPOLYLINE
  5
1e6
100
AcDbEntity
  8
0
 62
7
100
AcDbPolyline
 90
2
 70
0
 10
96.379871
 20
-63.581801
 30
0.0
 10
108.378827
 20
-63.581801
 30
0.0
  0
LWPOLYLINE
  5
1e7
100
AcDbEntity
  8
0
 62
7
100
AcDbPolyline
 90
2
 70
0
 10
95.379111
 20
-64.580021
 30
0.0
 10
95.379111
 20
-76.581517
 30
0.0
  0
SPLINE
  5
1e8
100
AcDbEntity
  8
0
 62
7
100
AcDbSpline
 70
8
 71
3
 72
8
 73
4
 74
0
 40
0
 40
0
 40
0
 40
0
 40
1
 40
1
 40
1
 40
1
 10
109.379838
 20
-64.581799
 30
0.0
 10
109.379837
 20
-64.029517
 30
0.0
 10
108.932125
 20
-63.581804
 30
0.0
 10
108.379843
 20
-63.581801
 30
0.0
  0
LWPOLYLINE
  5
1e9
100
AcDbEntity
  8
0
 62
7
100
AcDbPolyline
 90
2
 70
0
 10
96.379871
 20
-77.579737
 30
0.0
 10
108.378827
 20
-77.579737
 30
0.0
  0
SPLINE
  5
1ea
100
AcDbEntity
  8
0
 62
7
100
AcDbSpline
 70
8
 71
3
 72
8
 73
4
 74
0
 40
0
 40
0
 40
0
 40
0
 40
1
 40
1
 40
1
 40
1
 10
127.455237
 20
-77.581769
 30
0.0
 10
128.007519
 20
-77.581766
 30
0.0
 10
128.455231
 20
-77.134053
 30
0.0
 10
128.455232
 20
-76.581771
 30
0.0
  0
SPLINE
  5
1eb
100
AcDbEntity
  8
0
 62
7
100
AcDbSpline
 70
8
 71
3
 72
8
 73
4
 74
0
 40
0
 40
0
 40
0
 40
0
 40
1
 40
1
 40
1
 40
1
 10
115.455265
 20
-63.581801
 30
0.0
 10
114.902982
 20
-63.581803
 30
0.0
 10
114.455269
 20
-64.029516
 30
0.0
 10
114.455267
 20
-64.581799
 30
0.0
  0
SPLINE
  5
1ec
100
AcDbEntity
  8
0
 62
7
100
AcDbSpline
 70
8
 71
3
 72
8
 73
4
 74
0
 40
0
 40
0
 40
0
 40
0
 40
1
 40
1
 40
1
 40
1
 10
114.455267
 20
-76.581771
 30
0.0
 10
114.455269
 20
-77.134054
 30
0.0
 10
114.902982
 20
-77.581767
 30
0.0
 10
115.455265
 20
-77.581769
 30
0.0
  0
LWPOLYLINE
  5
1ed
100
AcDbEntity
  8
0
 62
7
100
AcDbPolyline
 90
2
 70
0
 10
109.379587
 20
-64.580021
 30
0.0
 10
109.379587
 20
-76.581517
 30
0.0
  0
LWPOLYLINE
  5
1ee
100
AcDbEntity
  8
0
 62
7
100
AcDbPolyline
 90
2
 70
0
 10
115.455265
 20
-63.581801
 30
0.0
 10
127.454221
 20
-63.581801
 30
0.0
  0
LWPOLYLINE
  5
1ef
100
AcDbEntity
  8
0
 62
7
100
AcDbPolyline
 90
2
 70
0
 10
114.454505
 20
-64.580021
 30
0.0
 10
114.454505
 20
-76.581517
 30
0.0
  0
SPLINE
  5
1f0
100
AcDbEntity
  8
0
 62
7
100
AcDbSpline
 70
8
 71
3
 72
8
 73
4
 74
0
 40
0
 40
0
 40
0
 40
0
 40
1
 40
1
 40
1
 40
1
 10
128.455232
 20
-64.581799
 30
0.0
 10
128.455231
 20
-64.029517
 30
0.0
 10
128.007519
 20
-63.581804
 30
0.0
 10
127.455237
 20
-63.581801
 30
0.0
  0
LWPOLYLINE
  5
1f1
100
AcDbEntity
  8
0
 62
7
100
AcDbPolyline
 90
2
 70
0
 10
115.455265
 20
-77.579737
 30
0.0
 10
127.454221
 20
-77.579737
 30
0.0
  0
SPLINE
  5
1f2
100
AcDbEntity
  8
0
 62
7
100
AcDbSpline
 70
8
 71
3
 72
8
 73
4
 74
0
 40
0
 40
0
 40
0
 40
0
 40
1
 40
1
 40
1
 40
1
 10
146.479831
 20
-77.556369
 30
0.0
 10
147.032113
 20
-77.556366
 30
0.0
 10
147.479825
 20
-77.108653
 30
0.0
 10
147.479826
 20
-76.556371
 30
0.0
  0
SPLINE
  5
1f3
100
AcDbEntity
  8
0
 62
7
100
AcDbSpline
 70
8
 71
3
 72
8
 73
4
 74
0
 40
0
 40
0
 40
0
 40
0
 40
1
 40
1
 40
1
 40
1
 10
134.479859
 20
-63.556401
 30
0.0
 10
133.927576
 20
-63.556403
 30
0.0
 10
133.479863
 20
-64.004116
 30
0.0
 10
133.479861
 20
-64.556399
 30
0.0
  0
SPLINE
  5
1f4
100
AcDbEntity
  8
0
 62
7
100
AcDbSpline
 70
8
 71
3
 72
8
 73
4
 74
0
 40
0
 40
0
 40
0
 40
0
 40
1
 40
1
 40
1
 40
1
 10
133.479861
 20
-76.556371
 30
0.0
 10
133.479863
 20
-77.108654
 30
0.0
 10
133.927576
 20
-77.556367
 30
0.0
 10
134.479859
 20
-77.556369
 30
0.0
  0
LWPOLYLINE
  5
1f5
100
AcDbEntity
  8
0
 62
7
100
AcDbPolyline
 90
2
 70
0
 10
128.454981
 20
-64.580021
 30
0.0
 10
128.454981
 20
-76.581517
 30
0.0
  0
LWPOLYLINE
  5
1f6
100
AcDbEntity
  8
0
 62
7
100
AcDbPolyline
 90
2
 70
0
 10
134.479859
 20
-63.556401
 30
0.0
 10
146.478815
 20
-63.556401
 30
0.0
  0
LWPOLYLINE
  5
1f7
100
AcDbEntity
  8
0
 62
7
100
AcDbPolyline
 90
2
 70
0
 10
133.479099
 20
-64.554621
 30
0.0
 10
133.479099
 20
-76.556117
 30
0.0
  0
SPLINE
  5
1f8
100
AcDbEntity
  8
0
 62
7
100
AcDbSpline
 70
8
 71
3
 72
8
 73
4
 74
0
 40
0
 40
0
 40
0
 40
0
 40
1
 40
1
 40
1
 40
1
 10
147.479826
 20
-64.556399
 30
0.0
 10
147.479825
 20
-64.004117
 30
0.0
 10
147.032113
 20
-63.556404
 30
0.0
 10
146.479831
 20
-63.556401
 30
0.0
  0
LWPOLYLINE
  5
1f9
100
AcDbEntity
  8
0
 62
7
100
AcDbPolyline
 90
2
 70
0
 10
134.479859
 20
-77.554337
 30
0.0
 10
146.478815
 20
-77.554337
 30
0.0
  0
SPLINE
  5
1fa
100
AcDbEntity
  8
0
 62
7
100
AcDbSpline
 70
8
 71
3
 72
8
 73
4
 74
0
 40
0
 40
0
 40
0
 40
0
 40
1
 40
1
 40
1
 40
1
 10
165.555225
 20
-77.581769
 30
0.0
 10
166.107507
 20
-77.581766
 30
0.0
 10
166.555219
 20
-77.134053
 30
0.0
 10
166.555220
 20
-76.581771
 30
0.0
  0
SPLINE
  5
1fb
100
AcDbEntity
  8
0
 62
7
100
AcDbSpline
 70
8
 71
3
 72
8
 73
4
 74
0
 40
0
 40
0
 40
0
 40
0
 40
1
 40
1
 40
1
 40
1
 10
153.555253
 20
-63.581801
 30
0.0
 10
153.002970
 20
-63.581803
 30
0.0
 10
152.555257
 20
-64.029516
 30
0.0
 10
152.555255
 20
-64.581799
 30
0.0
  0
SPLINE
  5
1fc
100
AcDbEntity
  8
0
 62
7
100
AcDbSpline
 70
8
 71
3
 72
8
 73
4
 74
0
 40
0
 40
0
 40
0
 40
0
 40
1
 40
1
 40
1
 40
1
 10
152.555255
 20
-76.581771
 30
0.0
 10
152.555257
 20
-77.134054
 30
0.0
 10
153.002970
 20
-77.581767
 30
0.0
 10
153.555253
 20
-77.581769
 30
0.0
  0
LWPOLYLINE
  5
1fd
100
AcDbEntity
  8
0
 62
7
100
AcDbPolyline
 90
2
 70
0
 10
147.479575
 20
-64.554621
 30
0.0
 10
147.479575
 20
-76.556117
 30
0.0
  0
LWPOLYLINE
  5
1fe
100
AcDbEntity
  8
0
 62
7
100
AcDbPolyline
 90
2
 70
0
 10
153.555253
 20
-63.581801
 30
0.0
 10
165.554209
 20
-63.581801
 30
0.0
  0
LWPOLYLINE
  5
1ff
100
AcDbEntity
  8
0
 62
7
100
AcDbPolyline
 90
2
 70
0
 10
152.554493
 20
-64.580021
 30
0.0
 10
152.554493
 20
-76.581517
 30
0.0
  0
SPLINE
  5
200
100
AcDbEntity
  8
0
 62
7
100
AcDbSpline
 70
8
 71
3
 72
8
 73
4
 74
0
 40
0
 40
0
 40
0
 40
0
 40
1
 40
1
 40
1
 40
1
 10
166.555220
 20
-64.581799
 30
0.0
 10
166.555219
 20
-64.029517
 30
0.0
 10
166.107507
 20
-63.581804
 30
0.0
 10
165.555225
 20
-63.581801
 30
0.0
  0
LWPOLYLINE
  5
201
100
AcDbEntity
  8
0
 62
7
100
AcDbPolyline
 90
2
 70
0
 10
153.555253
 20
-77.579737
 30
0.0
 10
165.554209
 20
-77.579737
 30
0.0
  0
SPLINE
  5
202
100
AcDbEntity
  8
0
 62
7
100
AcDbSpline
 70
8
 71
3
 72
8
 73
4
 74
0
 40
0
 40
0
 40
0
 40
0
 40
1
 40
1
 40
1
 40
1
 10
184.579817
 20
-77.581769
 30
0.0
 10
185.132100
 20
-77.581767
 30
0.0
 10
185.579813
 20
-77.134054
 30
0.0
 10
185.579814
 20
-76.581771
 30
0.0
  0
SPLINE
  5
203
100
AcDbEntity
  8
0
 62
7
100
AcDbSpline
 70
8
 71
3
 72
8
 73
4
 74
0
 40
0
 40
0
 40
0
 40
0
 40
1
 40
1
 40
1
 40
1
 10
172.579845
 20
-63.581801
 30
0.0
 10
172.027562
 20
-63.581803
 30
0.0
 10
171.579848
 20
-64.029516
 30
0.0
 10
171.579847
 20
-64.581799
 30
0.0
  0
SPLINE
  5
204
100
AcDbEntity
  8
0
 62
7
100
AcDbSpline
 70
8
 71
3
 72
8
 73
4
 74
0
 40
0
 40
0
 40
0
 40
0
 40
1
 40
1
 40
1
 40
1
 10
171.579847
 20
-76.581771
 30
0.0
 10
171.579848
 20
-77.134054
 30
0.0
 10
172.027562
 20
-77.581767
 30
0.0
 10
172.579845
 20
-77.581769
 30
0.0
  0
LWPOLYLINE
  5
205
100
AcDbEntity
  8
0
 62
7
100
AcDbPolyline
 90
2
 70
0
 10
166.554966
 20
-64.580021
 30
0.0
 10
166.554966
 20
-76.581517
 30
0.0
  0
LWPOLYLINE
  5
206
100
AcDbEntity
  8
0
 62
7
100
AcDbPolyline
 90
2
 70
0
 10
172.579845
 20
-63.581801
 30
0.0
 10
184.578801
 20
-63.581801
 30
0.0
  0
LWPOLYLINE
  5
207
100
AcDbEntity
  8
0
 62
7
100
AcDbPolyline
 90
2
 70
0
 10
171.579085
 20
-64.580021
 30
0.0
 10
171.579085
 20
-76.581517
 30
0.0
  0
SPLINE
  5
208
100
AcDbEntity
  8
0
 62
7
100
AcDbSpline
 70
8
 71
3
 72
8
 73
4
 74
0
 40
0
 40
0
 40
0
 40
0
 40
1
 40
1
 40
1
 40
1
 10
185.579814
 20
-64.581799
 30
0.0
 10
185.579813
 20
-64.029516
 30
0.0
 10
185.132100
 20
-63.581803
 30
0.0
 10
184.579817
 20
-63.581801
 30
0.0
  0
LWPOLYLINE
  5
209
100
AcDbEntity
  8
0
 62
7
100
AcDbPolyline
 90
2
 70
0
 10
172.579845
 20
-77.579737
 30
0.0
 10
184.578801
 20
-77.579737
 30
0.0
  0
SPLINE
  5
20a
100
AcDbEntity
  8
0
 62
7
100
AcDbSpline
 70
8
 71
3
 72
8
 73
4
 74
0
 40
0
 40
0
 40
0
 40
0
 40
1
 40
1
 40
1
 40
1
 10
203.655211
 20
-77.581769
 30
0.0
 10
204.207494
 20
-77.581767
 30
0.0
 10
204.655207
 20
-77.134054
 30
0.0
 10
204.655208
 20
-76.581771
 30
0.0
  0
SPLINE
  5
20b
100
AcDbEntity
  8
0
 62
7
100
AcDbSpline
 70
8
 71
3
 72
8
 73
4
 74
0
 40
0
 40
0
 40
0
 40
0
 40
1
 40
1
 40
1
 40
1
 10
191.655239
 20
-63.581801
 30
0.0
 10
191.102956
 20
-63.581803
 30
0.0
 10
190.655242
 20
-64.029516
 30
0.0
 10
190.655241
 20
-64.581799
 30
0.0
  0
SPLINE
  5
20c
100
AcDbEntity
  8
0
 62
7
100
AcDbSpline
 70
8
 71
3
 72
8
 73
4
 74
0
 40
0
 40
0
 40
0
 40
0
 40
1
 40
1
 40
1
 40
1
 10
190.655241
 20
-76.581771
 30
0.0
 10
190.655242
 20
-77.134054
 30
0.0
 10
191.102956
 20
-77.581767
 30
0.0
 10
191.655239
 20
-77.581769
 30
0.0
  0
LWPOLYLINE
  5
20d
100
AcDbEntity
  8
0
 62
7
100
AcDbPolyline
 90
2
 70
0
 10
185.579560
 20
-64.580021
 30
0.0
 10
185.579560
 20
-76.581517
 30
0.0
  0
LWPOLYLINE
  5
20e
100
AcDbEntity
  8
0
 62
7
100
AcDbPolyline
 90
2
 70
0
 10
191.655239
 20
-63.581801
 30
0.0
 10
203.654195
 20
-63.581801
 30
0.0
  0
LWPOLYLINE
  5
20f
100
AcDbEntity
  8
0
 62
7
100
AcDbPolyline
 90
2
 70
0
 10
190.654479
 20
-64.580021
 30
0.0
 10
190.654479
 20
-76.581517
 30
0.0
  0
SPLINE
  5
210
100
AcDbEntity
  8
0
 62
7
100
AcDbSpline
 70
8
 71
3
 72
8
 73
4
 74
0
 40
0
 40
0
 40
0
 40
0
 40
1
 40
1
 40
1
 40
1
 10
204.655208
 20
-64.581799
 30
0.0
 10
204.655207
 20
-64.029516
 30
0.0
 10
204.207494
 20
-63.581803
 30
0.0
 10
203.655211
 20
-63.581801
 30
0.0
  0
LWPOLYLINE
  5
211
100
AcDbEntity
  8
0
 62
7
100
AcDbPolyline
 90
2
 70
0
 10
191.655239
 20
-77.579737
 30
0.0
 10
203.654195
 20
-77.579737
 30
0.0
  0
SPLINE
  5
212
100
AcDbEntity
  8
0
 62
7
100
AcDbSpline
 70
8
 71
3
 72
8
 73
4
 74
0
 40
0
 40
0
 40
0
 40
0
 40
1
 40
1
 40
1
 40
1
 10
222.679805
 20
-77.581769
 30
0.0
 10
223.232088
 20
-77.581767
 30
0.0
 10
223.679801
 20
-77.134054
 30
0.0
 10
223.679802
 20
-76.581771
 30
0.0
  0
SPLINE
  5
213
100
AcDbEntity
  8
0
 62
7
100
AcDbSpline
 70
8
 71
3
 72
8
 73
4
 74
0
 40
0
 40
0
 40
0
 40
0
 40
1
 40
1
 40
1
 40
1
 10
210.679833
 20
-63.581801
 30
0.0
 10
210.127550
 20
-63.581803
 30
0.0
 10
209.679836
 20
-64.029516
 30
0.0
 10
209.679835
 20
-64.581799
 30
0.0
  0
SPLINE
  5
214
100
AcDbEntity
  8
0
 62
7
100
AcDbSpline
 70
8
 71
3
 72
8
 73
4
 74
0
 40
0
 40
0
 40
0
 40
0
 40
1
 40
1
 40
1
 40
1
 10
209.679835
 20
-76.581771
 30
0.0
 10
209.679836
 20
-77.134054
 30
0.0
 10
210.127550
 20
-77.581767
 30
0.0
 10
210.679833
 20
-77.581769
 30
0.0
  0
LWPOLYLINE
  5
215
100
AcDbEntity
  8
0
 62
7
100
AcDbPolyline
 90
2
 70
0
 10
204.654954
 20
-64.580021
 30
0.0
 10
204.654954
 20
-76.581517
 30
0.0
  0
LWPOLYLINE
  5
216
100
AcDbEntity
  8
0
 62
7
100
AcDbPolyline
 90
2
 70
0
 10
210.679833
 20
-63.581801
 30
0.0
 10
222.678789
 20
-63.581801
 30
0.0
  0
LWPOLYLINE
  5
217
100
AcDbEntity
  8
0
 62
7
100
AcDbPolyline
 90
2
 70
0
 10
209.679073
 20
-64.580021
 30
0.0
 10
209.679073
 20
-76.581517
 30
0.0
  0
SPLINE
  5
218
100
AcDbEntity
  8
0
 62
7
100
AcDbSpline
 70
8
 71
3
 72
8
 73
4
 74
0
 40
0
 40
0
 40
0
 40
0
 40
1
 40
1
 40
1
 40
1
 10
223.679802
 20
-64.581799
 30
0.0
 10
223.679801
 20
-64.029516
 30
0.0
 10
223.232088
 20
-63.581803
 30
0.0
 10
222.679805
 20
-63.581801
 30
0.0
  0
LWPOLYLINE
  5
219
100
AcDbEntity
  8
0
 62
7
100
AcDbPolyline
 90
2
 70
0
 10
210.679833
 20
-77.579737
 30
0.0
 10
222.678789
 20
-77.579737
 30
0.0
  0
SPLINE
  5
21a
100
AcDbEntity
  8
0
 62
7
100
AcDbSpline
 70
8
 71
3
 72
8
 73
4
 74
0
 40
0
 40
0
 40
0
 40
0
 40
1
 40
1
 40
1
 40
1
 10
241.729799
 20
-77.581769
 30
0.0
 10
242.282082
 20
-77.581767
 30
0.0
 10
242.729795
 20
-77.134054
 30
0.0
 10
242.729797
 20
-76.581771
 30
0.0
  0
SPLINE
  5
21b
100
AcDbEntity
  8
0
 62
7
100
AcDbSpline
 70
8
 71
3
 72
8
 73
4
 74
0
 40
0
 40
0
 40
0
 40
0
 40
1
 40
1
 40
1
 40
1
 10
229.729827
 20
-63.581801
 30
0.0
 10
229.177544
 20
-63.581803
 30
0.0
 10
228.729830
 20
-64.029516
 30
0.0
 10
228.729829
 20
-64.581799
 30
0.0
  0
SPLINE
  5
21c
100
AcDbEntity
  8
0
 62
7
100
AcDbSpline
 70
8
 71
3
 72
8
 73
4
 74
0
 40
0
 40
0
 40
0
 40
0
 40
1
 40
1
 40
1
 40
1
 10
228.729829
 20
-76.581771
 30
0.0
 10
228.729830
 20
-77.134054
 30
0.0
 10
229.177544
 20
-77.581767
 30
0.0
 10
229.729827
 20
-77.581769
 30
0.0
  0
LWPOLYLINE
  5
21d
100
AcDbEntity
  8
0
 62
7
100
AcDbPolyline
 90
2
 70
0
 10
223.679548
 20
-64.580021
 30
0.0
 10
223.679548
 20
-76.581517
 30
0.0
  0
LWPOLYLINE
  5
21e
100
AcDbEntity
  8
0
 62
7
100
AcDbPolyline
 90
2
 70
0
 10
229.729827
 20
-63.581801
 30
0.0
 10
241.728783
 20
-63.581801
 30
0.0
  0
LWPOLYLINE
  5
21f
100
AcDbEntity
  8
0
 62
7
100
AcDbPolyline
 90
2
 70
0
 10
228.729067
 20
-64.580021
 30
0.0
 10
228.729067
 20
-76.581517
 30
0.0
  0
SPLINE
  5
220
100
AcDbEntity
  8
0
 62
7
100
AcDbSpline
 70
8
 71
3
 72
8
 73
4
 74
0
 40
0
 40
0
 40
0
 40
0
 40
1
 40
1
 40
1
 40
1
 10
242.729797
 20
-64.581799
 30
0.0
 10
242.729795
 20
-64.029516
 30
0.0
 10
242.282082
 20
-63.581803
 30
0.0
 10
241.729799
 20
-63.581801
 30
0.0
  0
LWPOLYLINE
  5
221
100
AcDbEntity
  8
0
 62
7
100
AcDbPolyline
 90
2
 70
0
 10
229.729827
 20
-77.579737
 30
0.0
 10
241.728783
 20
-77.579737
 30
0.0
  0
SPLINE
  5
222
100
AcDbEntity
  8
0
 62
7
100
AcDbSpline
 70
8
 71
3
 72
8
 73
4
 74
0
 40
0
 40
0
 40
0
 40
0
 40
1
 40
1
 40
1
 40
1
 10
311.629556
 20
-77.581769
 30
0.0
 10
311.894903
 20
-77.581970
 30
0.0
 10
312.149452
 20
-77.476703
 30
0.0
 10
312.337153
 20
-77.289145
 30
0.0
  0
SPLINE
  5
223
100
AcDbEntity
  8
0
 62
7
100
AcDbSpline
 70
8
 71
3
 72
8
 73
4
 74
0
 40
0
 40
0
 40
0
 40
0
 40
1
 40
1
 40
1
 40
1
 10
312.337153
 20
-77.289145
 30
0.0
 10
312.524853
 20
-77.101587
 30
0.0
 10
312.630315
 20
-76.847119
 30
0.0
 10
312.630315
 20
-76.581771
 30
0.0
  0
SPLINE
  5
224
100
AcDbEntity
  8
0
 62
7
100
AcDbSpline
 70
8
 71
3
 72
8
 73
4
 74
0
 40
0
 40
0
 40
0
 40
0
 40
1
 40
1
 40
1
 40
1
 10
299.630600
 20
-63.581801
 30
0.0
 10
299.365252
 20
-63.581600
 30
0.0
 10
299.110703
 20
-63.686867
 30
0.0
 10
298.923003
 20
-63.874425
 30
0.0
  0
SPLINE
  5
225
100
AcDbEntity
  8
0
 62
7
100
AcDbSpline
 70
8
 71
3
 72
8
 73
4
 74
0
 40
0
 40
0
 40
0
 40
0
 40
1
 40
1
 40
1
 40
1
 10
298.923003
 20
-63.874425
 30
0.0
 10
298.735302
 20
-64.061983
 30
0.0
 10
298.629840
 20
-64.316451
 30
0.0
 10
298.629840
 20
-64.581799
 30
0.0
  0
SPLINE
  5
226
100
AcDbEntity
  8
0
 62
7
100
AcDbSpline
 70
8
 71
3
 72
8
 73
4
 74
0
 40
0
 40
0
 40
0
 40
0
 40
1
 40
1
 40
1
 40
1
 10
298.629840
 20
-76.581771
 30
0.0
 10
298.629840
 20
-76.847119
 30
0.0
 10
298.735302
 20
-77.101587
 30
0.0
 10
298.923003
 20
-77.289145
 30
0.0
  0
SPLINE
  5
227
100
AcDbEntity
  8
0
 62
7
100
AcDbSpline
 70
8
 71
3
 72
8
 73
4
 74
0
 40
0
 40
0
 40
0
 40
0
 40
1
 40
1
 40
1
 40
1
 10
298.923003
 20
-77.289145
 30
0.0
 10
299.110703
 20
-77.476703
 30
0.0
 10
299.365252
 20
-77.581970
 30
0.0
 10
299.630600
 20
-77.581769
 30
0.0
  0
LWPOLYLINE
  5
228
100
AcDbEntity
  8
0
 62
7
100
AcDbPolyline
 90
2
 70
0
 10
242.729543
 20
-64.580021
 30
0.0
 10
242.729543
 20
-76.581517
 30
0.0
  0
LWPOLYLINE
  5
229
100
AcDbEntity
  8
0
 62
7
100
AcDbPolyline
 90
2
 70
0
 10
299.630600
 20
-63.581801
 30
0.0
 10
311.629556
 20
-63.581801
 30
0.0
  0
LWPOLYLINE
  5
22a
100
AcDbEntity
  8
0
 62
7
100
AcDbPolyline
 90
2
 70
0
 10
298.629840
 20
-64.580021
 30
0.0
 10
298.629840
 20
-76.581517
 30
0.0
  0
SPLINE
  5
22b
100
AcDbEntity
  8
0
 62
7
100
AcDbSpline
 70
8
 71
3
 72
8
 73
4
 74
0
 40
0
 40
0
 40
0
 40
0
 40
1
 40
1
 40
1
 40
1
 10
312.630315
 20
-64.581799
 30
0.0
 10
312.630315
 20
-64.316451
 30
0.0
 10
312.524853
 20
-64.061983
 30
0.0
 10
312.337153
 20
-63.874425
 30
0.0
  0
SPLINE
  5
22c
100
AcDbEntity
  8
0
 62
7
100
AcDbSpline
 70
8
 71
3
 72
8
 73
4
 74
0
 40
0
 40
0
 40
0
 40
0
 40
1
 40
1
 40
1
 40
1
 10
312.337153
 20
-63.874425
 30
0.0
 10
312.149452
 20
-63.686867
 30
0.0
 10
311.894903
 20
-63.581600
 30
0.0
 10
311.629556
 20
-63.581801
 30
0.0
  0
LWPOLYLINE
  5
22d
100
AcDbEntity
  8
0
 62
7
100
AcDbPolyline
 90
2
 70
0
 10
299.630600
 20
-77.579737
 30
0.0
 10
311.629556
 20
-77.579737
 30
0.0
  0
SPLINE
  5
22e
100
AcDbEntity
  8
0
 62
7
100
AcDbSpline
 70
8
 71
3
 72
8
 73
4
 74
0
 40
0
 40
0
 40
0
 40
0
 40
1
 40
1
 40
1
 40
1
 10
311.604156
 20
-58.531775
 30
0.0
 10
311.869503
 20
-58.531976
 30
0.0
 10
312.124052
 20
-58.426709
 30
0.0
 10
312.311753
 20
-58.239151
 30
0.0
  0
SPLINE
  5
22f
100
AcDbEntity
  8
0
 62
7
100
AcDbSpline
 70
8
 71
3
 72
8
 73
4
 74
0
 40
0
 40
0
 40
0
 40
0
 40
1
 40
1
 40
1
 40
1
 10
312.311753
 20
-58.239151
 30
0.0
 10
312.499453
 20
-58.051593
 30
0.0
 10
312.604915
 20
-57.797125
 30
0.0
 10
312.604915
 20
-57.531777
 30
0.0
  0
SPLINE
  5
230
100
AcDbEntity
  8
0
 62
7
100
AcDbSpline
 70
8
 71
3
 72
8
 73
4
 74
0
 40
0
 40
0
 40
0
 40
0
 40
1
 40
1
 40
1
 40
1
 10
299.605200
 20
-44.531807
 30
0.0
 10
299.339852
 20
-44.531606
 30
0.0
 10
299.085303
 20
-44.636873
 30
0.0
 10
298.897603
 20
-44.824431
 30
0.0
  0
SPLINE
  5
231
100
AcDbEntity
  8
0
 62
7
100
AcDbSpline
 70
8
 71
3
 72
8
 73
4
 74
0
 40
0
 40
0
 40
0
 40
0
 40
1
 40
1
 40
1
 40
1
 10
298.897603
 20
-44.824431
 30
0.0
 10
298.709902
 20
-45.011989
 30
0.0
 10
298.604440
 20
-45.266457
 30
0.0
 10
298.604440
 20
-45.531805
 30
0.0
  0
SPLINE
  5
232
100
AcDbEntity
  8
0
 62
7
100
AcDbSpline
 70
8
 71
3
 72
8
 73
4
 74
0
 40
0
 40
0
 40
0
 40
0
 40
1
 40
1
 40
1
 40
1
 10
298.604440
 20
-57.531777
 30
0.0
 10
298.604440
 20
-57.797125
 30
0.0
 10
298.709902
 20
-58.051593
 30
0.0
 10
298.897603
 20
-58.239151
 30
0.0
  0
SPLINE
  5
233
100
AcDbEntity
  8
0
 62
7
100
AcDbSpline
 70
8
 71
3
 72
8
 73
4
 74
0
 40
0
 40
0
 40
0
 40
0
 40
1
 40
1
 40
1
 40
1
 10
298.897603
 20
-58.239151
 30
0.0
 10
299.085303
 20
-58.426709
 30
0.0
 10
299.339852
 20
-58.531976
 30
0.0
 10
299.605200
 20
-58.531775
 30
0.0
  0
LWPOLYLINE
  5
234
100
AcDbEntity
  8
0
 62
7
100
AcDbPolyline
 90
2
 70
0
 10
312.630315
 20
-64.580021
 30
0.0
 10
312.630315
 20
-76.581517
 30
0.0
  0
LWPOLYLINE
  5
235
100
AcDbEntity
  8
0
 62
7
100
AcDbPolyline
 90
2
 70
0
 10
299.605200
 20
-44.531807
 30
0.0
 10
311.604156
 20
-44.531807
 30
0.0
  0
LWPOLYLINE
  5
236
100
AcDbEntity
  8
0
 62
7
100
AcDbPolyline
 90
2
 70
0
 10
298.604440
 20
-45.530027
 30
0.0
 10
298.604440
 20
-57.531523
 30
0.0
  0
SPLINE
  5
237
100
AcDbEntity
  8
0
 62
7
100
AcDbSpline
 70
8
 71
3
 72
8
 73
4
 74
0
 40
0
 40
0
 40
0
 40
0
 40
1
 40
1
 40
1
 40
1
 10
312.604915
 20
-45.531805
 30
0.0
 10
312.604915
 20
-45.266457
 30
0.0
 10
312.499453
 20
-45.011989
 30
0.0
 10
312.311753
 20
-44.824431
 30
0.0
  0
SPLINE
  5
238
100
AcDbEntity
  8
0
 62
7
100
AcDbSpline
 70
8
 71
3
 72
8
 73
4
 74
0
 40
0
 40
0
 40
0
 40
0
 40
1
 40
1
 40
1
 40
1
 10
312.311753
 20
-44.824431
 30
0.0
 10
312.124052
 20
-44.636873
 30
0.0
 10
311.869503
 20
-44.531606
 30
0.0
 10
311.604156
 20
-44.531807
 30
0.0
  0
LWPOLYLINE
  5
239
100
AcDbEntity
  8
0
 62
7
100
AcDbPolyline
 90
2
 70
0
 10
299.605200
 20
-58.529743
 30
0.0
 10
311.604156
 20
-58.529743
 30
0.0
  0
SPLINE
  5
23a
100
AcDbEntity
  8
0
 62
7
100
AcDbSpline
 70
8
 71
3
 72
8
 73
4
 74
0
 40
0
 40
0
 40
0
 40
0
 40
1
 40
1
 40
1
 40
1
 10
279.854166
 20
-58.531775
 30
0.0
 10
280.119513
 20
-58.531976
 30
0.0
 10
280.374062
 20
-58.426709
 30
0.0
 10
280.561763
 20
-58.239151
 30
0.0
  0
SPLINE
  5
23b
100
AcDbEntity
  8
0
 62
7
100
AcDbSpline
 70
8
 71
3
 72
8
 73
4
 74
0
 40
0
 40
0
 40
0
 40
0
 40
1
 40
1
 40
1
 40
1
 10
280.561763
 20
-58.239151
 30
0.0
 10
280.749463
 20
-58.051593
 30
0.0
 10
280.854925
 20
-57.797125
 30
0.0
 10
280.854925
 20
-57.531777
 30
0.0
  0
SPLINE
  5
23c
100
AcDbEntity
  8
0
 62
7
100
AcDbSpline
 70
8
 71
3
 72
8
 73
4
 74
0
 40
0
 40
0
 40
0
 40
0
 40
1
 40
1
 40
1
 40
1
 10
267.855210
 20
-44.531807
 30
0.0
 10
267.302927
 20
-44.531809
 30
0.0
 10
266.855213
 20
-44.979522
 30
0.0
 10
266.855212
 20
-45.531805
 30
0.0
  0
SPLINE
  5
23d
100
AcDbEntity
  8
0
 62
7
100
AcDbSpline
 70
8
 71
3
 72
8
 73
4
 74
0
 40
0
 40
0
 40
0
 40
0
 40
1
 40
1
 40
1
 40
1
 10
266.855212
 20
-57.531777
 30
0.0
 10
266.855213
 20
-58.084060
 30
0.0
 10
267.302927
 20
-58.531773
 30
0.0
 10
267.855210
 20
-58.531775
 30
0.0
  0
LWPOLYLINE
  5
23e
100
AcDbEntity
  8
0
 62
7
100
AcDbPolyline
 90
2
 70
0
 10
312.604915
 20
-45.530027
 30
0.0
 10
312.604915
 20
-57.531523
 30
0.0
  0
LWPOLYLINE
  5
23f
100
AcDbEntity
  8
0
 62
7
100
AcDbPolyline
 90
2
 70
0
 10
267.855210
 20
-44.531807
 30
0.0
 10
279.854166
 20
-44.531807
 30
0.0
  0
LWPOLYLINE
  5
240
100
AcDbEntity
  8
0
 62
7
100
AcDbPolyline
 90
2
 70
0
 10
266.854450
 20
-45.530027
 30
0.0
 10
266.854450
 20
-57.531523
 30
0.0
  0
SPLINE
  5
241
100
AcDbEntity
  8
0
 62
7
100
AcDbSpline
 70
8
 71
3
 72
8
 73
4
 74
0
 40
0
 40
0
 40
0
 40
0
 40
1
 40
1
 40
1
 40
1
 10
280.854925
 20
-45.531805
 30
0.0
 10
280.854925
 20
-45.266457
 30
0.0
 10
280.749463
 20
-45.011989
 30
0.0
 10
280.561763
 20
-44.824431
 30
0.0
  0
SPLINE
  5
242
100
AcDbEntity
  8
0
 62
7
100
AcDbSpline
 70
8
 71
3
 72
8
 73
4
 74
0
 40
0
 40
0
 40
0
 40
0
 40
1
 40
1
 40
1
 40
1
 10
280.561763
 20
-44.824431
 30
0.0
 10
280.374062
 20
-44.636873
 30
0.0
 10
280.119513
 20
-44.531606
 30
0.0
 10
279.854166
 20
-44.531807
 30
0.0
  0
LWPOLYLINE
  5
243
100
AcDbEntity
  8
0
 62
7
100
AcDbPolyline
 90
2
 70
0
 10
267.855210
 20
-58.529743
 30
0.0
 10
279.854166
 20
-58.529743
 30
0.0
  0
SPLINE
  5
244
100
AcDbEntity
  8
0
 62
7
100
AcDbSpline
 70
8
 71
3
 72
8
 73
4
 74
0
 40
0
 40
0
 40
0
 40
0
 40
1
 40
1
 40
1
 40
1
 10
256.055389
 20
-58.531775
 30
0.0
 10
256.607672
 20
-58.531773
 30
0.0
 10
257.055386
 20
-58.084060
 30
0.0
 10
257.055387
 20
-57.531777
 30
0.0
  0
SPLINE
  5
245
100
AcDbEntity
  8
0
 62
7
100
AcDbSpline
 70
8
 71
3
 72
8
 73
4
 74
0
 40
0
 40
0
 40
0
 40
0
 40
1
 40
1
 40
1
 40
1
 10
244.055422
 20
-44.531807
 30
0.0
 10
243.503139
 20
-44.531809
 30
0.0
 10
243.055426
 20
-44.979522
 30
0.0
 10
243.055424
 20
-45.531805
 30
0.0
  0
SPLINE
  5
246
100
AcDbEntity
  8
0
 62
7
100
AcDbSpline
 70
8
 71
3
 72
8
 73
4
 74
0
 40
0
 40
0
 40
0
 40
0
 40
1
 40
1
 40
1
 40
1
 10
243.055424
 20
-57.531777
 30
0.0
 10
243.055426
 20
-58.084060
 30
0.0
 10
243.503139
 20
-58.531773
 30
0.0
 10
244.055422
 20
-58.531775
 30
0.0
  0
LWPOLYLINE
  5
247
100
AcDbEntity
  8
0
 62
7
100
AcDbPolyline
 90
2
 70
0
 10
280.854925
 20
-45.530027
 30
0.0
 10
280.854925
 20
-57.531523
 30
0.0
  0
LWPOLYLINE
  5
248
100
AcDbEntity
  8
0
 62
7
100
AcDbPolyline
 90
2
 70
0
 10
244.055422
 20
-44.531807
 30
0.0
 10
256.054373
 20
-44.531807
 30
0.0
  0
LWPOLYLINE
  5
249
100
AcDbEntity
  8
0
 62
7
100
AcDbPolyline
 90
2
 70
0
 10
243.054662
 20
-45.530027
 30
0.0
 10
243.054662
 20
-57.531523
 30
0.0
  0
SPLINE
  5
24a
100
AcDbEntity
  8
0
 62
7
100
AcDbSpline
 70
8
 71
3
 72
8
 73
4
 74
0
 40
0
 40
0
 40
0
 40
0
 40
1
 40
1
 40
1
 40
1
 10
257.055387
 20
-45.531805
 30
0.0
 10
257.055386
 20
-44.979522
 30
0.0
 10
256.607672
 20
-44.531809
 30
0.0
 10
256.055389
 20
-44.531807
 30
0.0
  0
LWPOLYLINE
  5
24b
100
AcDbEntity
  8
0
 62
7
100
AcDbPolyline
 90
2
 70
0
 10
244.055422
 20
-58.529743
 30
0.0
 10
256.054373
 20
-58.529743
 30
0.0
  0
SPLINE
  5
24c
100
AcDbEntity
  8
0
 62
7
100
AcDbSpline
 70
8
 71
3
 72
8
 73
4
 74
0
 40
0
 40
0
 40
0
 40
0
 40
1
 40
1
 40
1
 40
1
 10
236.980000
 20
-58.531775
 30
0.0
 10
237.532283
 20
-58.531773
 30
0.0
 10
237.979997
 20
-58.084060
 30
0.0
 10
237.979998
 20
-57.531777
 30
0.0
  0
SPLINE
  5
24d
100
AcDbEntity
  8
0
 62
7
100
AcDbSpline
 70
8
 71
3
 72
8
 73
4
 74
0
 40
0
 40
0
 40
0
 40
0
 40
1
 40
1
 40
1
 40
1
 10
224.980028
 20
-44.531807
 30
0.0
 10
224.427745
 20
-44.531809
 30
0.0
 10
223.980032
 20
-44.979522
 30
0.0
 10
223.980030
 20
-45.531805
 30
0.0
  0
SPLINE
  5
24e
100
AcDbEntity
  8
0
 62
7
100
AcDbSpline
 70
8
 71
3
 72
8
 73
4
 74
0
 40
0
 40
0
 40
0
 40
0
 40
1
 40
1
 40
1
 40
1
 10
223.980030
 20
-57.531777
 30
0.0
 10
223.980032
 20
-58.084060
 30
0.0
 10
224.427745
 20
-58.531773
 30
0.0
 10
224.980028
 20
-58.531775
 30
0.0
  0
LWPOLYLINE
  5
24f
100
AcDbEntity
  8
0
 62
7
100
AcDbPolyline
 90
2
 70
0
 10
257.055133
 20
-45.530027
 30
0.0
 10
257.055133
 20
-57.531523
 30
0.0
  0
LWPOLYLINE
  5
250
100
AcDbEntity
  8
0
 62
7
100
AcDbPolyline
 90
2
 70
0
 10
224.980028
 20
-44.531807
 30
0.0
 10
236.978984
 20
-44.531807
 30
0.0
  0
LWPOLYLINE
  5
251
100
AcDbEntity
  8
0
 62
7
100
AcDbPolyline
 90
2
 70
0
 10
223.979268
 20
-45.530027
 30
0.0
 10
223.979268
 20
-57.531523
 30
0.0
  0
SPLINE
  5
252
100
AcDbEntity
  8
0
 62
7
100
AcDbSpline
 70
8
 71
3
 72
8
 73
4
 74
0
 40
0
 40
0
 40
0
 40
0
 40
1
 40
1
 40
1
 40
1
 10
237.979998
 20
-45.531805
 30
0.0
 10
237.979997
 20
-44.979522
 30
0.0
 10
237.532283
 20
-44.531809
 30
0.0
 10
236.980000
 20
-44.531807
 30
0.0
  0
LWPOLYLINE
  5
253
100
AcDbEntity
  8
0
 62
7
100
AcDbPolyline
 90
2
 70
0
 10
224.980028
 20
-58.529743
 30
0.0
 10
236.978984
 20
-58.529743
 30
0.0
  0
SPLINE
  5
254
100
AcDbEntity
  8
0
 62
7
100
AcDbSpline
 70
8
 71
3
 72
8
 73
4
 74
0
 40
0
 40
0
 40
0
 40
0
 40
1
 40
1
 40
1
 40
1
 10
217.930006
 20
-58.531775
 30
0.0
 10
218.482289
 20
-58.531773
 30
0.0
 10
218.930003
 20
-58.084060
 30
0.0
 10
218.930004
 20
-57.531777
 30
0.0
  0
SPLINE
  5
255
100
AcDbEntity
  8
0
 62
7
100
AcDbSpline
 70
8
 71
3
 72
8
 73
4
 74
0
 40
0
 40
0
 40
0
 40
0
 40
1
 40
1
 40
1
 40
1
 10
205.930034
 20
-44.531807
 30
0.0
 10
205.377751
 20
-44.531809
 30
0.0
 10
204.930038
 20
-44.979522
 30
0.0
 10
204.930036
 20
-45.531805
 30
0.0
  0
SPLINE
  5
256
100
AcDbEntity
  8
0
 62
7
100
AcDbSpline
 70
8
 71
3
 72
8
 73
4
 74
0
 40
0
 40
0
 40
0
 40
0
 40
1
 40
1
 40
1
 40
1
 10
204.930036
 20
-57.531777
 30
0.0
 10
204.930038
 20
-58.084060
 30
0.0
 10
205.377751
 20
-58.531773
 30
0.0
 10
205.930034
 20
-58.531775
 30
0.0
  0
LWPOLYLINE
  5
257
100
AcDbEntity
  8
0
 62
7
100
AcDbPolyline
 90
2
 70
0
 10
237.979744
 20
-45.530027
 30
0.0
 10
237.979744
 20
-57.531523
 30
0.0
  0
LWPOLYLINE
  5
258
100
AcDbEntity
  8
0
 62
7
100
AcDbPolyline
 90
2
 70
0
 10
205.930034
 20
-44.531807
 30
0.0
 10
217.928990
 20
-44.531807
 30
0.0
  0
LWPOLYLINE
  5
259
100
AcDbEntity
  8
0
 62
7
100
AcDbPolyline
 90
2
 70
0
 10
204.929274
 20
-45.530027
 30
0.0
 10
204.929274
 20
-57.531523
 30
0.0
  0
SPLINE
  5
25a
100
AcDbEntity
  8
0
 62
7
100
AcDbSpline
 70
8
 71
3
 72
8
 73
4
 74
0
 40
0
 40
0
 40
0
 40
0
 40
1
 40
1
 40
1
 40
1
 10
218.930004
 20
-45.531805
 30
0.0
 10
218.930003
 20
-44.979522
 30
0.0
 10
218.482289
 20
-44.531809
 30
0.0
 10
217.930006
 20
-44.531807
 30
0.0
  0
LWPOLYLINE
  5
25b
100
AcDbEntity
  8
0
 62
7
100
AcDbPolyline
 90
2
 70
0
 10
205.930034
 20
-58.529743
 30
0.0
 10
217.928990
 20
-58.529743
 30
0.0
  0
SPLINE
  5
25c
100
AcDbEntity
  8
0
 62
7
100
AcDbSpline
 70
8
 71
3
 72
8
 73
4
 74
0
 40
0
 40
0
 40
0
 40
0
 40
1
 40
1
 40
1
 40
1
 10
198.880012
 20
-58.531775
 30
0.0
 10
199.432295
 20
-58.531773
 30
0.0
 10
199.880009
 20
-58.084060
 30
0.0
 10
199.880010
 20
-57.531777
 30
0.0
  0
SPLINE
  5
25d
100
AcDbEntity
  8
0
 62
7
100
AcDbSpline
 70
8
 71
3
 72
8
 73
4
 74
0
 40
0
 40
0
 40
0
 40
0
 40
1
 40
1
 40
1
 40
1
 10
186.880040
 20
-44.531807
 30
0.0
 10
186.327757
 20
-44.531809
 30
0.0
 10
185.880044
 20
-44.979522
 30
0.0
 10
185.880042
 20
-45.531805
 30
0.0
  0
SPLINE
  5
25e
100
AcDbEntity
  8
0
 62
7
100
AcDbSpline
 70
8
 71
3
 72
8
 73
4
 74
0
 40
0
 40
0
 40
0
 40
0
 40
1
 40
1
 40
1
 40
1
 10
185.880042
 20
-57.531777
 30
0.0
 10
185.880044
 20
-58.084060
 30
0.0
 10
186.327757
 20
-58.531773
 30
0.0
 10
186.880040
 20
-58.531775
 30
0.0
  0
LWPOLYLINE
  5
25f
100
AcDbEntity
  8
0
 62
7
100
AcDbPolyline
 90
2
 70
0
 10
218.929750
 20
-45.530027
 30
0.0
 10
218.929750
 20
-57.531523
 30
0.0
  0
LWPOLYLINE
  5
260
100
AcDbEntity
  8
0
 62
7
100
AcDbPolyline
 90
2
 70
0
 10
186.880040
 20
-44.531807
 30
0.0
 10
198.878996
 20
-44.531807
 30
0.0
  0
LWPOLYLINE
  5
261
100
AcDbEntity
  8
0
 62
7
100
AcDbPolyline
 90
2
 70
0
 10
185.879280
 20
-45.530027
 30
0.0
 10
185.879280
 20
-57.531523
 30
0.0
  0
SPLINE
  5
262
100
AcDbEntity
  8
0
 62
7
100
AcDbSpline
 70
8
 71
3
 72
8
 73
4
 74
0
 40
0
 40
0
 40
0
 40
0
 40
1
 40
1
 40
1
 40
1
 10
199.880010
 20
-45.531805
 30
0.0
 10
199.880009
 20
-44.979522
 30
0.0
 10
199.432295
 20
-44.531809
 30
0.0
 10
198.880012
 20
-44.531807
 30
0.0
  0
LWPOLYLINE
  5
263
100
AcDbEntity
  8
0
 62
7
100
AcDbPolyline
 90
2
 70
0
 10
186.880040
 20
-58.529743
 30
0.0
 10
198.878996
 20
-58.529743
 30
0.0
  0
SPLINE
  5
264
100
AcDbEntity
  8
0
 62
7
100
AcDbSpline
 70
8
 71
3
 72
8
 73
4
 74
0
 40
0
 40
0
 40
0
 40
0
 40
1
 40
1
 40
1
 40
1
 10
179.830021
 20
-58.531775
 30
0.0
 10
180.382303
 20
-58.531772
 30
0.0
 10
180.830015
 20
-58.084059
 30
0.0
 10
180.830016
 20
-57.531777
 30
0.0
  0
SPLINE
  5
265
100
AcDbEntity
  8
0
 62
7
100
AcDbSpline
 70
8
 71
3
 72
8
 73
4
 74
0
 40
0
 40
0
 40
0
 40
0
 40
1
 40
1
 40
1
 40
1
 10
167.830046
 20
-44.531807
 30
0.0
 10
167.277763
 20
-44.531809
 30
0.0
 10
166.830050
 20
-44.979522
 30
0.0
 10
166.830048
 20
-45.531805
 30
0.0
  0
SPLINE
  5
266
100
AcDbEntity
  8
0
 62
7
100
AcDbSpline
 70
8
 71
3
 72
8
 73
4
 74
0
 40
0
 40
0
 40
0
 40
0
 40
1
 40
1
 40
1
 40
1
 10
166.830048
 20
-57.531777
 30
0.0
 10
166.830050
 20
-58.084060
 30
0.0
 10
167.277763
 20
-58.531773
 30
0.0
 10
167.830046
 20
-58.531775
 30
0.0
  0
LWPOLYLINE
  5
267
100
AcDbEntity
  8
0
 62
7
100
AcDbPolyline
 90
2
 70
0
 10
199.879756
 20
-45.530027
 30
0.0
 10
199.879756
 20
-57.531523
 30
0.0
  0
LWPOLYLINE
  5
268
100
AcDbEntity
  8
0
 62
7
100
AcDbPolyline
 90
2
 70
0
 10
167.830046
 20
-44.531807
 30
0.0
 10
179.829002
 20
-44.531807
 30
0.0
  0
LWPOLYLINE
  5
269
100
AcDbEntity
  8
0
 62
7
100
AcDbPolyline
 90
2
 70
0
 10
166.829286
 20
-45.530027
 30
0.0
 10
166.829286
 20
-57.531523
 30
0.0
  0
SPLINE
  5
26a
100
AcDbEntity
  8
0
 62
7
100
AcDbSpline
 70
8
 71
3
 72
8
 73
4
 74
0
 40
0
 40
0
 40
0
 40
0
 40
1
 40
1
 40
1
 40
1
 10
180.830016
 20
-45.531805
 30
0.0
 10
180.830015
 20
-44.979523
 30
0.0
 10
180.382303
 20
-44.531810
 30
0.0
 10
179.830021
 20
-44.531807
 30
0.0
  0
LWPOLYLINE
  5
26b
100
AcDbEntity
  8
0
 62
7
100
AcDbPolyline
 90
2
 70
0
 10
167.830046
 20
-58.529743
 30
0.0
 10
179.829002
 20
-58.529743
 30
0.0
  0
SPLINE
  5
26c
100
AcDbEntity
  8
0
 62
7
100
AcDbSpline
 70
8
 71
3
 72
8
 73
4
 74
0
 40
0
 40
0
 40
0
 40
0
 40
1
 40
1
 40
1
 40
1
 10
160.780027
 20
-58.531775
 30
0.0
 10
161.332309
 20
-58.531772
 30
0.0
 10
161.780021
 20
-58.084059
 30
0.0
 10
161.780022
 20
-57.531777
 30
0.0
  0
SPLINE
  5
26d
100
AcDbEntity
  8
0
 62
7
100
AcDbSpline
 70
8
 71
3
 72
8
 73
4
 74
0
 40
0
 40
0
 40
0
 40
0
 40
1
 40
1
 40
1
 40
1
 10
148.780055
 20
-44.531807
 30
0.0
 10
148.227772
 20
-44.531809
 30
0.0
 10
147.780058
 20
-44.979522
 30
0.0
 10
147.780057
 20
-45.531805
 30
0.0
  0
SPLINE
  5
26e
100
AcDbEntity
  8
0
 62
7
100
AcDbSpline
 70
8
 71
3
 72
8
 73
4
 74
0
 40
0
 40
0
 40
0
 40
0
 40
1
 40
1
 40
1
 40
1
 10
147.780057
 20
-57.531777
 30
0.0
 10
147.780058
 20
-58.084060
 30
0.0
 10
148.227772
 20
-58.531773
 30
0.0
 10
148.780055
 20
-58.531775
 30
0.0
  0
LWPOLYLINE
  5
26f
100
AcDbEntity
  8
0
 62
7
100
AcDbPolyline
 90
2
 70
0
 10
180.829762
 20
-45.530027
 30
0.0
 10
180.829762
 20
-57.531523
 30
0.0
  0
LWPOLYLINE
  5
270
100
AcDbEntity
  8
0
 62
7
100
AcDbPolyline
 90
2
 70
0
 10
148.780055
 20
-44.531807
 30
0.0
 10
160.779011
 20
-44.531807
 30
0.0
  0
LWPOLYLINE
  5
271
100
AcDbEntity
  8
0
 62
7
100
AcDbPolyline
 90
2
 70
0
 10
147.779295
 20
-45.530027
 30
0.0
 10
147.779295
 20
-57.531523
 30
0.0
  0
SPLINE
  5
272
100
AcDbEntity
  8
0
 62
7
100
AcDbSpline
 70
8
 71
3
 72
8
 73
4
 74
0
 40
0
 40
0
 40
0
 40
0
 40
1
 40
1
 40
1
 40
1
 10
161.780022
 20
-45.531805
 30
0.0
 10
161.780021
 20
-44.979523
 30
0.0
 10
161.332309
 20
-44.531810
 30
0.0
 10
160.780027
 20
-44.531807
 30
0.0
  0
LWPOLYLINE
  5
273
100
AcDbEntity
  8
0
 62
7
100
AcDbPolyline
 90
2
 70
0
 10
148.780055
 20
-58.529743
 30
0.0
 10
160.779011
 20
-58.529743
 30
0.0
  0
SPLINE
  5
274
100
AcDbEntity
  8
0
 62
7
100
AcDbSpline
 70
8
 71
3
 72
8
 73
4
 74
0
 40
0
 40
0
 40
0
 40
0
 40
1
 40
1
 40
1
 40
1
 10
141.755433
 20
-58.531775
 30
0.0
 10
142.307715
 20
-58.531772
 30
0.0
 10
142.755426
 20
-58.084059
 30
0.0
 10
142.755428
 20
-57.531777
 30
0.0
  0
SPLINE
  5
275
100
AcDbEntity
  8
0
 62
7
100
AcDbSpline
 70
8
 71
3
 72
8
 73
4
 74
0
 40
0
 40
0
 40
0
 40
0
 40
1
 40
1
 40
1
 40
1
 10
129.755460
 20
-44.531807
 30
0.0
 10
129.203178
 20
-44.531809
 30
0.0
 10
128.755464
 20
-44.979522
 30
0.0
 10
128.755463
 20
-45.531805
 30
0.0
  0
SPLINE
  5
276
100
AcDbEntity
  8
0
 62
7
100
AcDbSpline
 70
8
 71
3
 72
8
 73
4
 74
0
 40
0
 40
0
 40
0
 40
0
 40
1
 40
1
 40
1
 40
1
 10
128.755463
 20
-57.531777
 30
0.0
 10
128.755464
 20
-58.084060
 30
0.0
 10
129.203178
 20
-58.531773
 30
0.0
 10
129.755460
 20
-58.531775
 30
0.0
  0
LWPOLYLINE
  5
277
100
AcDbEntity
  8
0
 62
7
100
AcDbPolyline
 90
2
 70
0
 10
161.779770
 20
-45.530027
 30
0.0
 10
161.779770
 20
-57.531523
 30
0.0
  0
LWPOLYLINE
  5
278
100
AcDbEntity
  8
0
 62
7
100
AcDbPolyline
 90
2
 70
0
 10
129.755460
 20
-44.531807
 30
0.0
 10
141.754417
 20
-44.531807
 30
0.0
  0
LWPOLYLINE
  5
279
100
AcDbEntity
  8
0
 62
7
100
AcDbPolyline
 90
2
 70
0
 10
128.754701
 20
-45.530027
 30
0.0
 10
128.754701
 20
-57.531523
 30
0.0
  0
SPLINE
  5
27a
100
AcDbEntity
  8
0
 62
7
100
AcDbSpline
 70
8
 71
3
 72
8
 73
4
 74
0
 40
0
 40
0
 40
0
 40
0
 40
1
 40
1
 40
1
 40
1
 10
142.755428
 20
-45.531805
 30
0.0
 10
142.755426
 20
-44.979523
 30
0.0
 10
142.307715
 20
-44.531810
 30
0.0
 10
141.755433
 20
-44.531807
 30
0.0
  0
LWPOLYLINE
  5
27b
100
AcDbEntity
  8
0
 62
7
100
AcDbPolyline
 90
2
 70
0
 10
129.755460
 20
-58.529743
 30
0.0
 10
141.754417
 20
-58.529743
 30
0.0
  0
SPLINE
  5
27c
100
AcDbEntity
  8
0
 62
7
100
AcDbSpline
 70
8
 71
3
 72
8
 73
4
 74
0
 40
0
 40
0
 40
0
 40
0
 40
1
 40
1
 40
1
 40
1
 10
122.680039
 20
-58.531775
 30
0.0
 10
123.232321
 20
-58.531772
 30
0.0
 10
123.680032
 20
-58.084059
 30
0.0
 10
123.680034
 20
-57.531777
 30
0.0
  0
SPLINE
  5
27d
100
AcDbEntity
  8
0
 62
7
100
AcDbSpline
 70
8
 71
3
 72
8
 73
4
 74
0
 40
0
 40
0
 40
0
 40
0
 40
1
 40
1
 40
1
 40
1
 10
110.680066
 20
-44.531807
 30
0.0
 10
110.127784
 20
-44.531809
 30
0.0
 10
109.680070
 20
-44.979522
 30
0.0
 10
109.680069
 20
-45.531805
 30
0.0
  0
SPLINE
  5
27e
100
AcDbEntity
  8
0
 62
7
100
AcDbSpline
 70
8
 71
3
 72
8
 73
4
 74
0
 40
0
 40
0
 40
0
 40
0
 40
1
 40
1
 40
1
 40
1
 10
109.680069
 20
-57.531777
 30
0.0
 10
109.680070
 20
-58.084060
 30
0.0
 10
110.127784
 20
-58.531773
 30
0.0
 10
110.680066
 20
-58.531775
 30
0.0
  0
LWPOLYLINE
  5
27f
100
AcDbEntity
  8
0
 62
7
100
AcDbPolyline
 90
2
 70
0
 10
142.755176
 20
-45.530027
 30
0.0
 10
142.755176
 20
-57.531523
 30
0.0
  0
LWPOLYLINE
  5
280
100
AcDbEntity
  8
0
 62
7
100
AcDbPolyline
 90
2
 70
0
 10
110.680066
 20
-44.531807
 30
0.0
 10
122.679023
 20
-44.531807
 30
0.0
  0
LWPOLYLINE
  5
281
100
AcDbEntity
  8
0
 62
7
100
AcDbPolyline
 90
2
 70
0
 10
109.679307
 20
-45.530027
 30
0.0
 10
109.679307
 20
-57.531523
 30
0.0
  0
SPLINE
  5
282
100
AcDbEntity
  8
0
 62
7
100
AcDbSpline
 70
8
 71
3
 72
8
 73
4
 74
0
 40
0
 40
0
 40
0
 40
0
 40
1
 40
1
 40
1
 40
1
 10
123.680034
 20
-45.531805
 30
0.0
 10
123.680032
 20
-44.979523
 30
0.0
 10
123.232321
 20
-44.531810
 30
0.0
 10
122.680039
 20
-44.531807
 30
0.0
  0
LWPOLYLINE
  5
283
100
AcDbEntity
  8
0
 62
7
100
AcDbPolyline
 90
2
 70
0
 10
110.680066
 20
-58.529743
 30
0.0
 10
122.679023
 20
-58.529743
 30
0.0
  0
SPLINE
  5
284
100
AcDbEntity
  8
0
 62
7
100
AcDbSpline
 70
8
 71
3
 72
8
 73
4
 74
0
 40
0
 40
0
 40
0
 40
0
 40
1
 40
1
 40
1
 40
1
 10
103.630045
 20
-58.531775
 30
0.0
 10
104.182327
 20
-58.531772
 30
0.0
 10
104.630038
 20
-58.084059
 30
0.0
 10
104.630040
 20
-57.531777
 30
0.0
  0
SPLINE
  5
285
100
AcDbEntity
  8
0
 62
7
100
AcDbSpline
 70
8
 71
3
 72
8
 73
4
 74
0
 40
0
 40
0
 40
0
 40
0
 40
1
 40
1
 40
1
 40
1
 10
91.630072
 20
-44.531807
 30
0.0
 10
91.077790
 20
-44.531809
 30
0.0
 10
90.630076
 20
-44.979522
 30
0.0
 10
90.630075
 20
-45.531805
 30
0.0
  0
SPLINE
  5
286
100
AcDbEntity
  8
0
 62
7
100
AcDbSpline
 70
8
 71
3
 72
8
 73
4
 74
0
 40
0
 40
0
 40
0
 40
0
 40
1
 40
1
 40
1
 40
1
 10
90.630075
 20
-57.531777
 30
0.0
 10
90.630076
 20
-58.084060
 30
0.0
 10
91.077790
 20
-58.531773
 30
0.0
 10
91.630072
 20
-58.531775
 30
0.0
  0
LWPOLYLINE
  5
287
100
AcDbEntity
  8
0
 62
7
100
AcDbPolyline
 90
2
 70
0
 10
123.679782
 20
-45.530027
 30
0.0
 10
123.679782
 20
-57.531523
 30
0.0
  0
LWPOLYLINE
  5
288
100
AcDbEntity
  8
0
 62
7
100
AcDbPolyline
 90
2
 70
0
 10
91.630072
 20
-44.531807
 30
0.0
 10
103.629029
 20
-44.531807
 30
0.0
  0
LWPOLYLINE
  5
289
100
AcDbEntity
  8
0
 62
7
100
AcDbPolyline
 90
2
 70
0
 10
90.629313
 20
-45.530027
 30
0.0
 10
90.629313
 20
-57.531523
 30
0.0
  0
SPLINE
  5
28a
100
AcDbEntity
  8
0
 62
7
100
AcDbSpline
 70
8
 71
3
 72
8
 73
4
 74
0
 40
0
 40
0
 40
0
 40
0
 40
1
 40
1
 40
1
 40
1
 10
104.630040
 20
-45.531805
 30
0.0
 10
104.630038
 20
-44.979523
 30
0.0
 10
104.182327
 20
-44.531810
 30
0.0
 10
103.630045
 20
-44.531807
 30
0.0
  0
LWPOLYLINE
  5
28b
100
AcDbEntity
  8
0
 62
7
100
AcDbPolyline
 90
2
 70
0
 10
91.630072
 20
-58.529743
 30
0.0
 10
103.629029
 20
-58.529743
 30
0.0
  0
SPLINE
  5
28c
100
AcDbEntity
  8
0
 62
7
100
AcDbSpline
 70
8
 71
3
 72
8
 73
4
 74
0
 40
0
 40
0
 40
0
 40
0
 40
1
 40
1
 40
1
 40
1
 10
84.580051
 20
-58.531775
 30
0.0
 10
85.132334
 20
-58.531773
 30
0.0
 10
85.580047
 20
-58.084060
 30
0.0
 10
85.580048
 20
-57.531777
 30
0.0
  0
SPLINE
  5
28d
100
AcDbEntity
  8
0
 62
7
100
AcDbSpline
 70
8
 71
3
 72
8
 73
4
 74
0
 40
0
 40
0
 40
0
 40
0
 40
1
 40
1
 40
1
 40
1
 10
72.580076
 20
-44.531807
 30
0.0
 10
72.027793
 20
-44.531809
 30
0.0
 10
71.580080
 20
-44.979522
 30
0.0
 10
71.580078
 20
-45.531805
 30
0.0
  0
SPLINE
  5
28e
100
AcDbEntity
  8
0
 62
7
100
AcDbSpline
 70
8
 71
3
 72
8
 73
4
 74
0
 40
0
 40
0
 40
0
 40
0
 40
1
 40
1
 40
1
 40
1
 10
71.580078
 20
-57.531777
 30
0.0
 10
71.580080
 20
-58.084060
 30
0.0
 10
72.027793
 20
-58.531773
 30
0.0
 10
72.580076
 20
-58.531775
 30
0.0
  0
LWPOLYLINE
  5
28f
100
AcDbEntity
  8
0
 62
7
100
AcDbPolyline
 90
2
 70
0
 10
104.629788
 20
-45.530027
 30
0.0
 10
104.629788
 20
-57.531523
 30
0.0
  0
LWPOLYLINE
  5
290
100
AcDbEntity
  8
0
 62
7
100
AcDbPolyline
 90
2
 70
0
 10
72.580076
 20
-44.531807
 30
0.0
 10
84.579035
 20
-44.531807
 30
0.0
  0
LWPOLYLINE
  5
291
100
AcDbEntity
  8
0
 62
7
100
AcDbPolyline
 90
2
 70
0
 10
71.579316
 20
-45.530027
 30
0.0
 10
71.579316
 20
-57.531523
 30
0.0
  0
SPLINE
  5
292
100
AcDbEntity
  8
0
 62
7
100
AcDbSpline
 70
8
 71
3
 72
8
 73
4
 74
0
 40
0
 40
0
 40
0
 40
0
 40
1
 40
1
 40
1
 40
1
 10
85.580046
 20
-45.531805
 30
0.0
 10
85.580044
 20
-44.979523
 30
0.0
 10
85.132333
 20
-44.531810
 30
0.0
 10
84.580051
 20
-44.531807
 30
0.0
  0
LWPOLYLINE
  5
293
100
AcDbEntity
  8
0
 62
7
100
AcDbPolyline
 90
2
 70
0
 10
72.580076
 20
-58.529743
 30
0.0
 10
84.579035
 20
-58.529743
 30
0.0
  0
SPLINE
  5
294
100
AcDbEntity
  8
0
 62
7
100
AcDbSpline
 70
8
 71
3
 72
8
 73
4
 74
0
 40
0
 40
0
 40
0
 40
0
 40
1
 40
1
 40
1
 40
1
 10
65.530054
 20
-58.531775
 30
0.0
 10
66.082337
 20
-58.531773
 30
0.0
 10
66.530050
 20
-58.084060
 30
0.0
 10
66.530052
 20
-57.531777
 30
0.0
  0
SPLINE
  5
295
100
AcDbEntity
  8
0
 62
7
100
AcDbSpline
 70
8
 71
3
 72
8
 73
4
 74
0
 40
0
 40
0
 40
0
 40
0
 40
1
 40
1
 40
1
 40
1
 10
53.530082
 20
-44.531807
 30
0.0
 10
52.977799
 20
-44.531809
 30
0.0
 10
52.530086
 20
-44.979522
 30
0.0
 10
52.530084
 20
-45.531805
 30
0.0
  0
SPLINE
  5
296
100
AcDbEntity
  8
0
 62
7
100
AcDbSpline
 70
8
 71
3
 72
8
 73
4
 74
0
 40
0
 40
0
 40
0
 40
0
 40
1
 40
1
 40
1
 40
1
 10
52.530084
 20
-57.531777
 30
0.0
 10
52.530086
 20
-58.084060
 30
0.0
 10
52.977799
 20
-58.531773
 30
0.0
 10
53.530082
 20
-58.531775
 30
0.0
  0
LWPOLYLINE
  5
297
100
AcDbEntity
  8
0
 62
7
100
AcDbPolyline
 90
2
 70
0
 10
85.579794
 20
-45.530027
 30
0.0
 10
85.579794
 20
-57.531523
 30
0.0
  0
LWPOLYLINE
  5
298
100
AcDbEntity
  8
0
 62
7
100
AcDbPolyline
 90
2
 70
0
 10
53.530082
 20
-44.531807
 30
0.0
 10
65.529038
 20
-44.531807
 30
0.0
  0
LWPOLYLINE
  5
299
100
AcDbEntity
  8
0
 62
7
100
AcDbPolyline
 90
2
 70
0
 10
52.529322
 20
-45.530027
 30
0.0
 10
52.529322
 20
-57.531523
 30
0.0
  0
SPLINE
  5
29a
100
AcDbEntity
  8
0
 62
7
100
AcDbSpline
 70
8
 71
3
 72
8
 73
4
 74
0
 40
0
 40
0
 40
0
 40
0
 40
1
 40
1
 40
1
 40
1
 10
66.530052
 20
-45.531805
 30
0.0
 10
66.530050
 20
-44.979522
 30
0.0
 10
66.082337
 20
-44.531809
 30
0.0
 10
65.530054
 20
-44.531807
 30
0.0
  0
LWPOLYLINE
  5
29b
100
AcDbEntity
  8
0
 62
7
100
AcDbPolyline
 90
2
 70
0
 10
53.530082
 20
-58.529743
 30
0.0
 10
65.529038
 20
-58.529743
 30
0.0
  0
SPLINE
  5
29c
100
AcDbEntity
  8
0
 62
7
100
AcDbSpline
 70
8
 71
3
 72
8
 73
4
 74
0
 40
0
 40
0
 40
0
 40
0
 40
1
 40
1
 40
1
 40
1
 10
46.480060
 20
-58.531775
 30
0.0
 10
47.032343
 20
-58.531773
 30
0.0
 10
47.480056
 20
-58.084060
 30
0.0
 10
47.480058
 20
-57.531777
 30
0.0
  0
SPLINE
  5
29d
100
AcDbEntity
  8
0
 62
7
100
AcDbSpline
 70
8
 71
3
 72
8
 73
4
 74
0
 40
0
 40
0
 40
0
 40
0
 40
1
 40
1
 40
1
 40
1
 10
34.480088
 20
-44.531807
 30
0.0
 10
33.927806
 20
-44.531810
 30
0.0
 10
33.480094
 20
-44.979523
 30
0.0
 10
33.480093
 20
-45.531805
 30
0.0
  0
SPLINE
  5
29e
100
AcDbEntity
  8
0
 62
7
100
AcDbSpline
 70
8
 71
3
 72
8
 73
4
 74
0
 40
0
 40
0
 40
0
 40
0
 40
1
 40
1
 40
1
 40
1
 10
33.480093
 20
-57.531777
 30
0.0
 10
33.480094
 20
-58.084059
 30
0.0
 10
33.927806
 20
-58.531772
 30
0.0
 10
34.480088
 20
-58.531775
 30
0.0
  0
LWPOLYLINE
  5
29f
100
AcDbEntity
  8
0
 62
7
100
AcDbPolyline
 90
2
 70
0
 10
66.529798
 20
-45.530027
 30
0.0
 10
66.529798
 20
-57.531523
 30
0.0
  0
LWPOLYLINE
  5
2a0
100
AcDbEntity
  8
0
 62
7
100
AcDbPolyline
 90
2
 70
0
 10
34.480088
 20
-44.531807
 30
0.0
 10
46.479044
 20
-44.531807
 30
0.0
  0
LWPOLYLINE
  5
2a1
100
AcDbEntity
  8
0
 62
7
100
AcDbPolyline
 90
2
 70
0
 10
33.479328
 20
-45.530027
 30
0.0
 10
33.479328
 20
-57.531523
 30
0.0
  0
SPLINE
  5
2a2
100
AcDbEntity
  8
0
 62
7
100
AcDbSpline
 70
8
 71
3
 72
8
 73
4
 74
0
 40
0
 40
0
 40
0
 40
0
 40
1
 40
1
 40
1
 40
1
 10
47.480058
 20
-45.531805
 30
0.0
 10
47.480056
 20
-44.979522
 30
0.0
 10
47.032343
 20
-44.531809
 30
0.0
 10
46.480060
 20
-44.531807
 30
0.0
  0
LWPOLYLINE
  5
2a3
100
AcDbEntity
  8
0
 62
7
100
AcDbPolyline
 90
2
 70
0
 10
34.480088
 20
-58.529743
 30
0.0
 10
46.479044
 20
-58.529743
 30
0.0
  0
SPLINE
  5
2a4
100
AcDbEntity
  8
0
 62
7
100
AcDbSpline
 70
8
 71
3
 72
8
 73
4
 74
0
 40
0
 40
0
 40
0
 40
0
 40
1
 40
1
 40
1
 40
1
 10
22.705694
 20
-58.531775
 30
0.0
 10
23.257977
 20
-58.531773
 30
0.0
 10
23.705691
 20
-58.084060
 30
0.0
 10
23.705692
 20
-57.531777
 30
0.0
  0
SPLINE
  5
2a5
100
AcDbEntity
  8
0
 62
7
100
AcDbSpline
 70
8
 71
3
 72
8
 73
4
 74
0
 40
0
 40
0
 40
0
 40
0
 40
1
 40
1
 40
1
 40
1
 10
10.705697
 20
-44.531807
 30
0.0
 10
10.153414
 20
-44.531809
 30
0.0
 10
9.705700
 20
-44.979522
 30
0.0
 10
9.705699
 20
-45.531805
 30
0.0
  0
SPLINE
  5
2a6
100
AcDbEntity
  8
0
 62
7
100
AcDbSpline
 70
8
 71
3
 72
8
 73
4
 74
0
 40
0
 40
0
 40
0
 40
0
 40
1
 40
1
 40
1
 40
1
 10
9.705699
 20
-57.531777
 30
0.0
 10
9.705700
 20
-58.084060
 30
0.0
 10
10.153414
 20
-58.531773
 30
0.0
 10
10.705697
 20
-58.531775
 30
0.0
  0
LWPOLYLINE
  5
2a7
100
AcDbEntity
  8
0
 62
7
100
AcDbPolyline
 90
2
 70
0
 10
47.479804
 20
-45.530027
 30
0.0
 10
47.479804
 20
-57.531523
 30
0.0
  0
LWPOLYLINE
  5
2a8
100
AcDbEntity
  8
0
 62
7
100
AcDbPolyline
 90
2
 70
0
 10
10.705697
 20
-44.531807
 30
0.0
 10
22.704653
 20
-44.531807
 30
0.0
  0
LWPOLYLINE
  5
2a9
100
AcDbEntity
  8
0
 62
7
100
AcDbPolyline
 90
2
 70
0
 10
9.707477
 20
-45.530027
 30
0.0
 10
9.707477
 20
-57.531523
 30
0.0
  0
SPLINE
  5
2aa
100
AcDbEntity
  8
0
 62
7
100
AcDbSpline
 70
8
 71
3
 72
8
 73
4
 74
0
 40
0
 40
0
 40
0
 40
0
 40
1
 40
1
 40
1
 40
1
 10
23.705692
 20
-45.531805
 30
0.0
 10
23.705691
 20
-44.979522
 30
0.0
 10
23.257977
 20
-44.531809
 30
0.0
 10
22.705694
 20
-44.531807
 30
0.0
  0
LWPOLYLINE
  5
2ab
100
AcDbEntity
  8
0
 62
7
100
AcDbPolyline
 90
2
 70
0
 10
10.705697
 20
-58.529743
 30
0.0
 10
22.704653
 20
-58.529743
 30
0.0
  0
SPLINE
  5
2ac
100
AcDbEntity
  8
0
 62
7
100
AcDbSpline
 70
8
 71
3
 72
8
 73
4
 74
0
 40
0
 40
0
 40
0
 40
0
 40
1
 40
1
 40
1
 40
1
 10
17.905093
 20
-39.481781
 30
0.0
 10
18.457377
 20
-39.481781
 30
0.0
 10
18.905092
 20
-39.034067
 30
0.0
 10
18.905093
 20
-38.481783
 30
0.0
  0
SPLINE
  5
2ad
100
AcDbEntity
  8
0
 62
7
100
AcDbSpline
 70
8
 71
3
 72
8
 73
4
 74
0
 40
0
 40
0
 40
0
 40
0
 40
1
 40
1
 40
1
 40
1
 10
5.905098
 20
-25.481813
 30
0.0
 10
5.352815
 20
-25.481814
 30
0.0
 10
4.905102
 20
-25.929528
 30
0.0
 10
4.905100
 20
-26.481811
 30
0.0
  0
SPLINE
  5
2ae
100
AcDbEntity
  8
0
 62
7
100
AcDbSpline
 70
8
 71
3
 72
8
 73
4
 74
0
 40
0
 40
0
 40
0
 40
0
 40
1
 40
1
 40
1
 40
1
 10
4.905100
 20
-38.481783
 30
0.0
 10
4.905102
 20
-39.034066
 30
0.0
 10
5.352815
 20
-39.481779
 30
0.0
 10
5.905098
 20
-39.481781
 30
0.0
  0
LWPOLYLINE
  5
2af
100
AcDbEntity
  8
0
 62
7
100
AcDbPolyline
 90
2
 70
0
 10
23.705413
 20
-45.530027
 30
0.0
 10
23.705413
 20
-57.531523
 30
0.0
  0
LWPOLYLINE
  5
2b0
100
AcDbEntity
  8
0
 62
7
100
AcDbPolyline
 90
2
 70
0
 10
5.905098
 20
-25.481813
 30
0.0
 10
17.904054
 20
-25.481813
 30
0.0
  0
LWPOLYLINE
  5
2b1
100
AcDbEntity
  8
0
 62
7
100
AcDbPolyline
 90
2
 70
0
 10
4.906878
 20
-26.480033
 30
0.0
 10
4.906878
 20
-38.481529
 30
0.0
  0
SPLINE
  5
2b2
100
AcDbEntity
  8
0
 62
7
100
AcDbSpline
 70
8
 71
3
 72
8
 73
4
 74
0
 40
0
 40
0
 40
0
 40
0
 40
1
 40
1
 40
1
 40
1
 10
18.905093
 20
-26.481811
 30
0.0
 10
18.905092
 20
-25.929527
 30
0.0
 10
18.457377
 20
-25.481813
 30
0.0
 10
17.905093
 20
-25.481813
 30
0.0
  0
LWPOLYLINE
  5
2b3
100
AcDbEntity
  8
0
 62
7
100
AcDbPolyline
 90
2
 70
0
 10
5.905098
 20
-39.479749
 30
0.0
 10
17.904054
 20
-39.479749
 30
0.0
  0
SPLINE
  5
2b4
100
AcDbEntity
  8
0
 62
7
100
AcDbSpline
 70
8
 71
3
 72
8
 73
4
 74
0
 40
0
 40
0
 40
0
 40
0
 40
1
 40
1
 40
1
 40
1
 10
36.980488
 20
-39.481781
 30
0.0
 10
37.532771
 20
-39.481779
 30
0.0
 10
37.980485
 20
-39.034066
 30
0.0
 10
37.980486
 20
-38.481783
 30
0.0
  0
SPLINE
  5
2b5
100
AcDbEntity
  8
0
 62
7
100
AcDbSpline
 70
8
 71
3
 72
8
 73
4
 74
0
 40
0
 40
0
 40
0
 40
0
 40
1
 40
1
 40
1
 40
1
 10
24.980492
 20
-25.481813
 30
0.0
 10
24.428209
 20
-25.481814
 30
0.0
 10
23.980496
 20
-25.929528
 30
0.0
 10
23.980494
 20
-26.481811
 30
0.0
  0
SPLINE
  5
2b6
100
AcDbEntity
  8
0
 62
7
100
AcDbSpline
 70
8
 71
3
 72
8
 73
4
 74
0
 40
0
 40
0
 40
0
 40
0
 40
1
 40
1
 40
1
 40
1
 10
23.980494
 20
-38.481783
 30
0.0
 10
23.980496
 20
-39.034066
 30
0.0
 10
24.428209
 20
-39.481779
 30
0.0
 10
24.980492
 20
-39.481781
 30
0.0
  0
LWPOLYLINE
  5
2b7
100
AcDbEntity
  8
0
 62
7
100
AcDbPolyline
 90
2
 70
0
 10
18.904814
 20
-26.480033
 30
0.0
 10
18.904814
 20
-38.481529
 30
0.0
  0
LWPOLYLINE
  5
2b8
100
AcDbEntity
  8
0
 62
7
100
AcDbPolyline
 90
2
 70
0
 10
24.980492
 20
-25.481813
 30
0.0
 10
36.979447
 20
-25.481813
 30
0.0
  0
LWPOLYLINE
  5
2b9
100
AcDbEntity
  8
0
 62
7
100
AcDbPolyline
 90
2
 70
0
 10
23.979732
 20
-26.480033
 30
0.0
 10
23.979732
 20
-38.481529
 30
0.0
  0
SPLINE
  5
2ba
100
AcDbEntity
  8
0
 62
7
100
AcDbSpline
 70
8
 71
3
 72
8
 73
4
 74
0
 40
0
 40
0
 40
0
 40
0
 40
1
 40
1
 40
1
 40
1
 10
37.980486
 20
-26.481811
 30
0.0
 10
37.980485
 20
-25.929528
 30
0.0
 10
37.532771
 20
-25.481814
 30
0.0
 10
36.980488
 20
-25.481813
 30
0.0
  0
LWPOLYLINE
  5
2bb
100
AcDbEntity
  8
0
 62
7
100
AcDbPolyline
 90
2
 70
0
 10
24.980492
 20
-39.479749
 30
0.0
 10
36.979447
 20
-39.479749
 30
0.0
  0
SPLINE
  5
2bc
100
AcDbEntity
  8
0
 62
7
100
AcDbSpline
 70
8
 71
3
 72
8
 73
4
 74
0
 40
0
 40
0
 40
0
 40
0
 40
1
 40
1
 40
1
 40
1
 10
56.030457
 20
-39.481781
 30
0.0
 10
56.582740
 20
-39.481779
 30
0.0
 10
57.030453
 20
-39.034066
 30
0.0
 10
57.030455
 20
-38.481783
 30
0.0
  0
SPLINE
  5
2bd
100
AcDbEntity
  8
0
 62
7
100
AcDbSpline
 70
8
 71
3
 72
8
 73
4
 74
0
 40
0
 40
0
 40
0
 40
0
 40
1
 40
1
 40
1
 40
1
 10
44.030485
 20
-25.481813
 30
0.0
 10
43.478202
 20
-25.481814
 30
0.0
 10
43.030489
 20
-25.929528
 30
0.0
 10
43.030487
 20
-26.481811
 30
0.0
  0
SPLINE
  5
2be
100
AcDbEntity
  8
0
 62
7
100
AcDbSpline
 70
8
 71
3
 72
8
 73
4
 74
0
 40
0
 40
0
 40
0
 40
0
 40
1
 40
1
 40
1
 40
1
 10
43.030487
 20
-38.481783
 30
0.0
 10
43.030489
 20
-39.034066
 30
0.0
 10
43.478202
 20
-39.481779
 30
0.0
 10
44.030485
 20
-39.481781
 30
0.0
  0
LWPOLYLINE
  5
2bf
100
AcDbEntity
  8
0
 62
7
100
AcDbPolyline
 90
2
 70
0
 10
37.980207
 20
-26.480033
 30
0.0
 10
37.980207
 20
-38.481529
 30
0.0
  0
LWPOLYLINE
  5
2c0
100
AcDbEntity
  8
0
 62
7
100
AcDbPolyline
 90
2
 70
0
 10
44.030485
 20
-25.481813
 30
0.0
 10
56.029441
 20
-25.481813
 30
0.0
  0
LWPOLYLINE
  5
2c1
100
AcDbEntity
  8
0
 62
7
100
AcDbPolyline
 90
2
 70
0
 10
43.029725
 20
-26.480033
 30
0.0
 10
43.029725
 20
-38.481529
 30
0.0
  0
SPLINE
  5
2c2
100
AcDbEntity
  8
0
 62
7
100
AcDbSpline
 70
8
 71
3
 72
8
 73
4
 74
0
 40
0
 40
0
 40
0
 40
0
 40
1
 40
1
 40
1
 40
1
 10
57.030455
 20
-26.481811
 30
0.0
 10
57.030453
 20
-25.929528
 30
0.0
 10
56.582740
 20
-25.481814
 30
0.0
 10
56.030457
 20
-25.481813
 30
0.0
  0
LWPOLYLINE
  5
2c3
100
AcDbEntity
  8
0
 62
7
100
AcDbPolyline
 90
2
 70
0
 10
44.030485
 20
-39.479749
 30
0.0
 10
56.029441
 20
-39.479749
 30
0.0
  0
SPLINE
  5
2c4
100
AcDbEntity
  8
0
 62
7
100
AcDbSpline
 70
8
 71
3
 72
8
 73
4
 74
0
 40
0
 40
0
 40
0
 40
0
 40
1
 40
1
 40
1
 40
1
 10
75.055051
 20
-39.481781
 30
0.0
 10
75.607334
 20
-39.481779
 30
0.0
 10
76.055047
 20
-39.034066
 30
0.0
 10
76.055049
 20
-38.481783
 30
0.0
  0
SPLINE
  5
2c5
100
AcDbEntity
  8
0
 62
7
100
AcDbSpline
 70
8
 71
3
 72
8
 73
4
 74
0
 40
0
 40
0
 40
0
 40
0
 40
1
 40
1
 40
1
 40
1
 10
63.055079
 20
-25.481813
 30
0.0
 10
62.502796
 20
-25.481814
 30
0.0
 10
62.055083
 20
-25.929528
 30
0.0
 10
62.055081
 20
-26.481811
 30
0.0
  0
SPLINE
  5
2c6
100
AcDbEntity
  8
0
 62
7
100
AcDbSpline
 70
8
 71
3
 72
8
 73
4
 74
0
 40
0
 40
0
 40
0
 40
0
 40
1
 40
1
 40
1
 40
1
 10
62.055081
 20
-38.481783
 30
0.0
 10
62.055083
 20
-39.034066
 30
0.0
 10
62.502796
 20
-39.481779
 30
0.0
 10
63.055079
 20
-39.481781
 30
0.0
  0
LWPOLYLINE
  5
2c7
100
AcDbEntity
  8
0
 62
7
100
AcDbPolyline
 90
2
 70
0
 10
57.030201
 20
-26.480033
 30
0.0
 10
57.030201
 20
-38.481529
 30
0.0
  0
LWPOLYLINE
  5
2c8
100
AcDbEntity
  8
0
 62
7
100
AcDbPolyline
 90
2
 70
0
 10
63.055079
 20
-25.481813
 30
0.0
 10
75.054035
 20
-25.481813
 30
0.0
  0
LWPOLYLINE
  5
2c9
100
AcDbEntity
  8
0
 62
7
100
AcDbPolyline
 90
2
 70
0
 10
62.054319
 20
-26.480033
 30
0.0
 10
62.054319
 20
-38.481529
 30
0.0
  0
SPLINE
  5
2ca
100
AcDbEntity
  8
0
 62
7
100
AcDbSpline
 70
8
 71
3
 72
8
 73
4
 74
0
 40
0
 40
0
 40
0
 40
0
 40
1
 40
1
 40
1
 40
1
 10
76.055049
 20
-26.481811
 30
0.0
 10
76.055047
 20
-25.929528
 30
0.0
 10
75.607334
 20
-25.481814
 30
0.0
 10
75.055051
 20
-25.481813
 30
0.0
  0
LWPOLYLINE
  5
2cb
100
AcDbEntity
  8
0
 62
7
100
AcDbPolyline
 90
2
 70
0
 10
63.055079
 20
-39.479749
 30
0.0
 10
75.054035
 20
-39.479749
 30
0.0
  0
SPLINE
  5
2cc
100
AcDbEntity
  8
0
 62
7
100
AcDbSpline
 70
8
 71
3
 72
8
 73
4
 74
0
 40
0
 40
0
 40
0
 40
0
 40
1
 40
1
 40
1
 40
1
 10
94.105048
 20
-39.481781
 30
0.0
 10
94.657331
 20
-39.481779
 30
0.0
 10
95.105044
 20
-39.034066
 30
0.0
 10
95.105045
 20
-38.481783
 30
0.0
  0
SPLINE
  5
2cd
100
AcDbEntity
  8
0
 62
7
100
AcDbSpline
 70
8
 71
3
 72
8
 73
4
 74
0
 40
0
 40
0
 40
0
 40
0
 40
1
 40
1
 40
1
 40
1
 10
82.105073
 20
-25.481813
 30
0.0
 10
81.552790
 20
-25.481814
 30
0.0
 10
81.105077
 20
-25.929528
 30
0.0
 10
81.105075
 20
-26.481811
 30
0.0
  0
SPLINE
  5
2ce
100
AcDbEntity
  8
0
 62
7
100
AcDbSpline
 70
8
 71
3
 72
8
 73
4
 74
0
 40
0
 40
0
 40
0
 40
0
 40
1
 40
1
 40
1
 40
1
 10
81.105075
 20
-38.481783
 30
0.0
 10
81.105077
 20
-39.034066
 30
0.0
 10
81.552790
 20
-39.481779
 30
0.0
 10
82.105073
 20
-39.481781
 30
0.0
  0
LWPOLYLINE
  5
2cf
100
AcDbEntity
  8
0
 62
7
100
AcDbPolyline
 90
2
 70
0
 10
76.054795
 20
-26.480033
 30
0.0
 10
76.054795
 20
-38.481529
 30
0.0
  0
LWPOLYLINE
  5
2d0
100
AcDbEntity
  8
0
 62
7
100
AcDbPolyline
 90
2
 70
0
 10
82.105073
 20
-25.481813
 30
0.0
 10
94.104032
 20
-25.481813
 30
0.0
  0
LWPOLYLINE
  5
2d1
100
AcDbEntity
  8
0
 62
7
100
AcDbPolyline
 90
2
 70
0
 10
81.104313
 20
-26.480033
 30
0.0
 10
81.104313
 20
-38.481529
 30
0.0
  0
SPLINE
  5
2d2
100
AcDbEntity
  8
0
 62
7
100
AcDbSpline
 70
8
 71
3
 72
8
 73
4
 74
0
 40
0
 40
0
 40
0
 40
0
 40
1
 40
1
 40
1
 40
1
 10
95.105043
 20
-26.481811
 30
0.0
 10
95.105041
 20
-25.929529
 30
0.0
 10
94.657330
 20
-25.481816
 30
0.0
 10
94.105048
 20
-25.481813
 30
0.0
  0
LWPOLYLINE
  5
2d3
100
AcDbEntity
  8
0
 62
7
100
AcDbPolyline
 90
2
 70
0
 10
82.105073
 20
-39.479749
 30
0.0
 10
94.104032
 20
-39.479749
 30
0.0
  0
SPLINE
  5
2d4
100
AcDbEntity
  8
0
 62
7
100
AcDbSpline
 70
8
 71
3
 72
8
 73
4
 74
0
 40
0
 40
0
 40
0
 40
0
 40
1
 40
1
 40
1
 40
1
 10
113.155042
 20
-39.481781
 30
0.0
 10
113.707324
 20
-39.481778
 30
0.0
 10
114.155035
 20
-39.034065
 30
0.0
 10
114.155037
 20
-38.481783
 30
0.0
  0
SPLINE
  5
2d5
100
AcDbEntity
  8
0
 62
7
100
AcDbSpline
 70
8
 71
3
 72
8
 73
4
 74
0
 40
0
 40
0
 40
0
 40
0
 40
1
 40
1
 40
1
 40
1
 10
101.155069
 20
-25.481813
 30
0.0
 10
100.602787
 20
-25.481814
 30
0.0
 10
100.155073
 20
-25.929528
 30
0.0
 10
100.155072
 20
-26.481811
 30
0.0
  0
SPLINE
  5
2d6
100
AcDbEntity
  8
0
 62
7
100
AcDbSpline
 70
8
 71
3
 72
8
 73
4
 74
0
 40
0
 40
0
 40
0
 40
0
 40
1
 40
1
 40
1
 40
1
 10
100.155072
 20
-38.481783
 30
0.0
 10
100.155073
 20
-39.034066
 30
0.0
 10
100.602787
 20
-39.481779
 30
0.0
 10
101.155069
 20
-39.481781
 30
0.0
  0
LWPOLYLINE
  5
2d7
100
AcDbEntity
  8
0
 62
7
100
AcDbPolyline
 90
2
 70
0
 10
95.104791
 20
-26.480033
 30
0.0
 10
95.104791
 20
-38.481529
 30
0.0
  0
LWPOLYLINE
  5
2d8
100
AcDbEntity
  8
0
 62
7
100
AcDbPolyline
 90
2
 70
0
 10
101.155069
 20
-25.481813
 30
0.0
 10
113.154026
 20
-25.481813
 30
0.0
  0
LWPOLYLINE
  5
2d9
100
AcDbEntity
  8
0
 62
7
100
AcDbPolyline
 90
2
 70
0
 10
100.154310
 20
-26.480033
 30
0.0
 10
100.154310
 20
-38.481529
 30
0.0
  0
SPLINE
  5
2da
100
AcDbEntity
  8
0
 62
7
100
AcDbSpline
 70
8
 71
3
 72
8
 73
4
 74
0
 40
0
 40
0
 40
0
 40
0
 40
1
 40
1
 40
1
 40
1
 10
114.155037
 20
-26.481811
 30
0.0
 10
114.155035
 20
-25.929529
 30
0.0
 10
113.707324
 20
-25.481816
 30
0.0
 10
113.155042
 20
-25.481813
 30
0.0
  0
LWPOLYLINE
  5
2db
100
AcDbEntity
  8
0
 62
7
100
AcDbPolyline
 90
2
 70
0
 10
101.155069
 20
-39.479749
 30
0.0
 10
113.154026
 20
-39.479749
 30
0.0
  0
SPLINE
  5
2dc
100
AcDbEntity
  8
0
 62
7
100
AcDbSpline
 70
8
 71
3
 72
8
 73
4
 74
0
 40
0
 40
0
 40
0
 40
0
 40
1
 40
1
 40
1
 40
1
 10
132.205036
 20
-39.481781
 30
0.0
 10
132.757318
 20
-39.481778
 30
0.0
 10
133.205029
 20
-39.034065
 30
0.0
 10
133.205031
 20
-38.481783
 30
0.0
  0
SPLINE
  5
2dd
100
AcDbEntity
  8
0
 62
7
100
AcDbSpline
 70
8
 71
3
 72
8
 73
4
 74
0
 40
0
 40
0
 40
0
 40
0
 40
1
 40
1
 40
1
 40
1
 10
120.205063
 20
-25.481813
 30
0.0
 10
119.652781
 20
-25.481814
 30
0.0
 10
119.205067
 20
-25.929528
 30
0.0
 10
119.205066
 20
-26.481811
 30
0.0
  0
SPLINE
  5
2de
100
AcDbEntity
  8
0
 62
7
100
AcDbSpline
 70
8
 71
3
 72
8
 73
4
 74
0
 40
0
 40
0
 40
0
 40
0
 40
1
 40
1
 40
1
 40
1
 10
119.205066
 20
-38.481783
 30
0.0
 10
119.205067
 20
-39.034066
 30
0.0
 10
119.652781
 20
-39.481779
 30
0.0
 10
120.205063
 20
-39.481781
 30
0.0
  0
LWPOLYLINE
  5
2df
100
AcDbEntity
  8
0
 62
7
100
AcDbPolyline
 90
2
 70
0
 10
114.154785
 20
-26.480033
 30
0.0
 10
114.154785
 20
-38.481529
 30
0.0
  0
LWPOLYLINE
  5
2e0
100
AcDbEntity
  8
0
 62
7
100
AcDbPolyline
 90
2
 70
0
 10
120.205063
 20
-25.481813
 30
0.0
 10
132.204020
 20
-25.481813
 30
0.0
  0
LWPOLYLINE
  5
2e1
100
AcDbEntity
  8
0
 62
7
100
AcDbPolyline
 90
2
 70
0
 10
119.204304
 20
-26.480033
 30
0.0
 10
119.204304
 20
-38.481529
 30
0.0
  0
SPLINE
  5
2e2
100
AcDbEntity
  8
0
 62
7
100
AcDbSpline
 70
8
 71
3
 72
8
 73
4
 74
0
 40
0
 40
0
 40
0
 40
0
 40
1
 40
1
 40
1
 40
1
 10
133.205031
 20
-26.481811
 30
0.0
 10
133.205029
 20
-25.929529
 30
0.0
 10
132.757318
 20
-25.481816
 30
0.0
 10
132.205036
 20
-25.481813
 30
0.0
  0
LWPOLYLINE
  5
2e3
100
AcDbEntity
  8
0
 62
7
100
AcDbPolyline
 90
2
 70
0
 10
120.205063
 20
-39.479749
 30
0.0
 10
132.204020
 20
-39.479749
 30
0.0
  0
SPLINE
  5
2e4
100
AcDbEntity
  8
0
 62
7
100
AcDbSpline
 70
8
 71
3
 72
8
 73
4
 74
0
 40
0
 40
0
 40
0
 40
0
 40
1
 40
1
 40
1
 40
1
 10
151.255030
 20
-39.481781
 30
0.0
 10
151.807312
 20
-39.481778
 30
0.0
 10
152.255023
 20
-39.034065
 30
0.0
 10
152.255025
 20
-38.481783
 30
0.0
  0
SPLINE
  5
2e5
100
AcDbEntity
  8
0
 62
7
100
AcDbSpline
 70
8
 71
3
 72
8
 73
4
 74
0
 40
0
 40
0
 40
0
 40
0
 40
1
 40
1
 40
1
 40
1
 10
139.255058
 20
-25.481813
 30
0.0
 10
138.702775
 20
-25.481814
 30
0.0
 10
138.255061
 20
-25.929528
 30
0.0
 10
138.255060
 20
-26.481811
 30
0.0
  0
SPLINE
  5
2e6
100
AcDbEntity
  8
0
 62
7
100
AcDbSpline
 70
8
 71
3
 72
8
 73
4
 74
0
 40
0
 40
0
 40
0
 40
0
 40
1
 40
1
 40
1
 40
1
 10
138.255060
 20
-38.481783
 30
0.0
 10
138.255061
 20
-39.034066
 30
0.0
 10
138.702775
 20
-39.481779
 30
0.0
 10
139.255058
 20
-39.481781
 30
0.0
  0
LWPOLYLINE
  5
2e7
100
AcDbEntity
  8
0
 62
7
100
AcDbPolyline
 90
2
 70
0
 10
133.204779
 20
-26.480033
 30
0.0
 10
133.204779
 20
-38.481529
 30
0.0
  0
LWPOLYLINE
  5
2e8
100
AcDbEntity
  8
0
 62
7
100
AcDbPolyline
 90
2
 70
0
 10
139.255058
 20
-25.481813
 30
0.0
 10
151.254014
 20
-25.481813
 30
0.0
  0
LWPOLYLINE
  5
2e9
100
AcDbEntity
  8
0
 62
7
100
AcDbPolyline
 90
2
 70
0
 10
138.254298
 20
-26.480033
 30
0.0
 10
138.254298
 20
-38.481529
 30
0.0
  0
SPLINE
  5
2ea
100
AcDbEntity
  8
0
 62
7
100
AcDbSpline
 70
8
 71
3
 72
8
 73
4
 74
0
 40
0
 40
0
 40
0
 40
0
 40
1
 40
1
 40
1
 40
1
 10
152.255025
 20
-26.481811
 30
0.0
 10
152.255023
 20
-25.929529
 30
0.0
 10
151.807312
 20
-25.481816
 30
0.0
 10
151.255030
 20
-25.481813
 30
0.0
  0
LWPOLYLINE
  5
2eb
100
AcDbEntity
  8
0
 62
7
100
AcDbPolyline
 90
2
 70
0
 10
139.255058
 20
-39.479749
 30
0.0
 10
151.254014
 20
-39.479749
 30
0.0
  0
SPLINE
  5
2ec
100
AcDbEntity
  8
0
 62
7
100
AcDbSpline
 70
8
 71
3
 72
8
 73
4
 74
0
 40
0
 40
0
 40
0
 40
0
 40
1
 40
1
 40
1
 40
1
 10
170.305024
 20
-39.481781
 30
0.0
 10
170.857306
 20
-39.481778
 30
0.0
 10
171.305018
 20
-39.034065
 30
0.0
 10
171.305019
 20
-38.481783
 30
0.0
  0
SPLINE
  5
2ed
100
AcDbEntity
  8
0
 62
7
100
AcDbSpline
 70
8
 71
3
 72
8
 73
4
 74
0
 40
0
 40
0
 40
0
 40
0
 40
1
 40
1
 40
1
 40
1
 10
158.305052
 20
-25.481813
 30
0.0
 10
157.752769
 20
-25.481814
 30
0.0
 10
157.305055
 20
-25.929528
 30
0.0
 10
157.305054
 20
-26.481811
 30
0.0
  0
SPLINE
  5
2ee
100
AcDbEntity
  8
0
 62
7
100
AcDbSpline
 70
8
 71
3
 72
8
 73
4
 74
0
 40
0
 40
0
 40
0
 40
0
 40
1
 40
1
 40
1
 40
1
 10
157.305054
 20
-38.481783
 30
0.0
 10
157.305055
 20
-39.034066
 30
0.0
 10
157.752769
 20
-39.481779
 30
0.0
 10
158.305052
 20
-39.481781
 30
0.0
  0
LWPOLYLINE
  5
2ef
100
AcDbEntity
  8
0
 62
7
100
AcDbPolyline
 90
2
 70
0
 10
152.254773
 20
-26.480033
 30
0.0
 10
152.254773
 20
-38.481529
 30
0.0
  0
LWPOLYLINE
  5
2f0
100
AcDbEntity
  8
0
 62
7
100
AcDbPolyline
 90
2
 70
0
 10
158.305052
 20
-25.481813
 30
0.0
 10
170.304005
 20
-25.481813
 30
0.0
  0
LWPOLYLINE
  5
2f1
100
AcDbEntity
  8
0
 62
7
100
AcDbPolyline
 90
2
 70
0
 10
157.304292
 20
-26.480033
 30
0.0
 10
157.304292
 20
-38.481529
 30
0.0
  0
SPLINE
  5
2f2
100
AcDbEntity
  8
0
 62
7
100
AcDbSpline
 70
8
 71
3
 72
8
 73
4
 74
0
 40
0
 40
0
 40
0
 40
0
 40
1
 40
1
 40
1
 40
1
 10
171.305019
 20
-26.481811
 30
0.0
 10
171.305018
 20
-25.929529
 30
0.0
 10
170.857306
 20
-25.481816
 30
0.0
 10
170.305024
 20
-25.481813
 30
0.0
  0
LWPOLYLINE
  5
2f3
100
AcDbEntity
  8
0
 62
7
100
AcDbPolyline
 90
2
 70
0
 10
158.305052
 20
-39.479749
 30
0.0
 10
170.304005
 20
-39.479749
 30
0.0
  0
SPLINE
  5
2f4
100
AcDbEntity
  8
0
 62
7
100
AcDbSpline
 70
8
 71
3
 72
8
 73
4
 74
0
 40
0
 40
0
 40
0
 40
0
 40
1
 40
1
 40
1
 40
1
 10
189.355015
 20
-39.481781
 30
0.0
 10
189.907298
 20
-39.481779
 30
0.0
 10
190.355012
 20
-39.034066
 30
0.0
 10
190.355013
 20
-38.481783
 30
0.0
  0
SPLINE
  5
2f5
100
AcDbEntity
  8
0
 62
7
100
AcDbSpline
 70
8
 71
3
 72
8
 73
4
 74
0
 40
0
 40
0
 40
0
 40
0
 40
1
 40
1
 40
1
 40
1
 10
177.355043
 20
-25.481813
 30
0.0
 10
176.802760
 20
-25.481814
 30
0.0
 10
176.355047
 20
-25.929528
 30
0.0
 10
176.355045
 20
-26.481811
 30
0.0
  0
SPLINE
  5
2f6
100
AcDbEntity
  8
0
 62
7
100
AcDbSpline
 70
8
 71
3
 72
8
 73
4
 74
0
 40
0
 40
0
 40
0
 40
0
 40
1
 40
1
 40
1
 40
1
 10
176.355045
 20
-38.481783
 30
0.0
 10
176.355047
 20
-39.034066
 30
0.0
 10
176.802760
 20
-39.481779
 30
0.0
 10
177.355043
 20
-39.481781
 30
0.0
  0
LWPOLYLINE
  5
2f7
100
AcDbEntity
  8
0
 62
7
100
AcDbPolyline
 90
2
 70
0
 10
171.304765
 20
-26.480033
 30
0.0
 10
171.304765
 20
-38.481529
 30
0.0
  0
LWPOLYLINE
  5
2f8
100
AcDbEntity
  8
0
 62
7
100
AcDbPolyline
 90
2
 70
0
 10
177.355043
 20
-25.481813
 30
0.0
 10
189.353999
 20
-25.481813
 30
0.0
  0
LWPOLYLINE
  5
2f9
100
AcDbEntity
  8
0
 62
7
100
AcDbPolyline
 90
2
 70
0
 10
176.354283
 20
-26.480033
 30
0.0
 10
176.354283
 20
-38.481529
 30
0.0
  0
SPLINE
  5
2fa
100
AcDbEntity
  8
0
 62
7
100
AcDbSpline
 70
8
 71
3
 72
8
 73
4
 74
0
 40
0
 40
0
 40
0
 40
0
 40
1
 40
1
 40
1
 40
1
 10
190.355013
 20
-26.481811
 30
0.0
 10
190.355012
 20
-25.929528
 30
0.0
 10
189.907298
 20
-25.481814
 30
0.0
 10
189.355015
 20
-25.481813
 30
0.0
  0
LWPOLYLINE
  5
2fb
100
AcDbEntity
  8
0
 62
7
100
AcDbPolyline
 90
2
 70
0
 10
177.355043
 20
-39.479749
 30
0.0
 10
189.353999
 20
-39.479749
 30
0.0
  0
SPLINE
  5
2fc
100
AcDbEntity
  8
0
 62
7
100
AcDbSpline
 70
8
 71
3
 72
8
 73
4
 74
0
 40
0
 40
0
 40
0
 40
0
 40
1
 40
1
 40
1
 40
1
 10
208.405009
 20
-39.481781
 30
0.0
 10
208.957292
 20
-39.481779
 30
0.0
 10
209.405006
 20
-39.034066
 30
0.0
 10
209.405007
 20
-38.481783
 30
0.0
  0
SPLINE
  5
2fd
100
AcDbEntity
  8
0
 62
7
100
AcDbSpline
 70
8
 71
3
 72
8
 73
4
 74
0
 40
0
 40
0
 40
0
 40
0
 40
1
 40
1
 40
1
 40
1
 10
196.405037
 20
-25.481813
 30
0.0
 10
195.852754
 20
-25.481814
 30
0.0
 10
195.405041
 20
-25.929528
 30
0.0
 10
195.405039
 20
-26.481811
 30
0.0
  0
SPLINE
  5
2fe
100
AcDbEntity
  8
0
 62
7
100
AcDbSpline
 70
8
 71
3
 72
8
 73
4
 74
0
 40
0
 40
0
 40
0
 40
0
 40
1
 40
1
 40
1
 40
1
 10
195.405039
 20
-38.481783
 30
0.0
 10
195.405041
 20
-39.034066
 30
0.0
 10
195.852754
 20
-39.481779
 30
0.0
 10
196.405037
 20
-39.481781
 30
0.0
  0
LWPOLYLINE
  5
2ff
100
AcDbEntity
  8
0
 62
7
100
AcDbPolyline
 90
2
 70
0
 10
190.354759
 20
-26.480033
 30
0.0
 10
190.354759
 20
-38.481529
 30
0.0
  0
LWPOLYLINE
  5
300
100
AcDbEntity
  8
0
 62
7
100
AcDbPolyline
 90
2
 70
0
 10
196.405037
 20
-25.481813
 30
0.0
 10
208.403993
 20
-25.481813
 30
0.0
  0
LWPOLYLINE
  5
301
100
AcDbEntity
  8
0
 62
7
100
AcDbPolyline
 90
2
 70
0
 10
195.404277
 20
-26.480033
 30
0.0
 10
195.404277
 20
-38.481529
 30
0.0
  0
SPLINE
  5
302
100
AcDbEntity
  8
0
 62
7
100
AcDbSpline
 70
8
 71
3
 72
8
 73
4
 74
0
 40
0
 40
0
 40
0
 40
0
 40
1
 40
1
 40
1
 40
1
 10
209.405007
 20
-26.481811
 30
0.0
 10
209.405006
 20
-25.929528
 30
0.0
 10
208.957292
 20
-25.481814
 30
0.0
 10
208.405009
 20
-25.481813
 30
0.0
  0
LWPOLYLINE
  5
303
100
AcDbEntity
  8
0
 62
7
100
AcDbPolyline
 90
2
 70
0
 10
196.405037
 20
-39.479749
 30
0.0
 10
208.403993
 20
-39.479749
 30
0.0
  0
SPLINE
  5
304
100
AcDbEntity
  8
0
 62
7
100
AcDbSpline
 70
8
 71
3
 72
8
 73
4
 74
0
 40
0
 40
0
 40
0
 40
0
 40
1
 40
1
 40
1
 40
1
 10
227.455003
 20
-39.481781
 30
0.0
 10
228.007286
 20
-39.481779
 30
0.0
 10
228.455000
 20
-39.034066
 30
0.0
 10
228.455001
 20
-38.481783
 30
0.0
  0
SPLINE
  5
305
100
AcDbEntity
  8
0
 62
7
100
AcDbSpline
 70
8
 71
3
 72
8
 73
4
 74
0
 40
0
 40
0
 40
0
 40
0
 40
1
 40
1
 40
1
 40
1
 10
215.455031
 20
-25.481813
 30
0.0
 10
214.902748
 20
-25.481814
 30
0.0
 10
214.455035
 20
-25.929528
 30
0.0
 10
214.455033
 20
-26.481811
 30
0.0
  0
SPLINE
  5
306
100
AcDbEntity
  8
0
 62
7
100
AcDbSpline
 70
8
 71
3
 72
8
 73
4
 74
0
 40
0
 40
0
 40
0
 40
0
 40
1
 40
1
 40
1
 40
1
 10
214.455033
 20
-38.481783
 30
0.0
 10
214.455035
 20
-39.034066
 30
0.0
 10
214.902748
 20
-39.481779
 30
0.0
 10
215.455031
 20
-39.481781
 30
0.0
  0
LWPOLYLINE
  5
307
100
AcDbEntity
  8
0
 62
7
100
AcDbPolyline
 90
2
 70
0
 10
209.404753
 20
-26.480033
 30
0.0
 10
209.404753
 20
-38.481529
 30
0.0
  0
LWPOLYLINE
  5
308
100
AcDbEntity
  8
0
 62
7
100
AcDbPolyline
 90
2
 70
0
 10
215.455031
 20
-25.481813
 30
0.0
 10
227.453987
 20
-25.481813
 30
0.0
  0
LWPOLYLINE
  5
309
100
AcDbEntity
  8
0
 62
7
100
AcDbPolyline
 90
2
 70
0
 10
214.454271
 20
-26.480033
 30
0.0
 10
214.454271
 20
-38.481529
 30
0.0
  0
SPLINE
  5
30a
100
AcDbEntity
  8
0
 62
7
100
AcDbSpline
 70
8
 71
3
 72
8
 73
4
 74
0
 40
0
 40
0
 40
0
 40
0
 40
1
 40
1
 40
1
 40
1
 10
228.455001
 20
-26.481811
 30
0.0
 10
228.455000
 20
-25.929528
 30
0.0
 10
228.007286
 20
-25.481814
 30
0.0
 10
227.455003
 20
-25.481813
 30
0.0
  0
LWPOLYLINE
  5
30b
100
AcDbEntity
  8
0
 62
7
100
AcDbPolyline
 90
2
 70
0
 10
215.455031
 20
-39.479749
 30
0.0
 10
227.453987
 20
-39.479749
 30
0.0
  0
SPLINE
  5
30c
100
AcDbEntity
  8
0
 62
7
100
AcDbSpline
 70
8
 71
3
 72
8
 73
4
 74
0
 40
0
 40
0
 40
0
 40
0
 40
1
 40
1
 40
1
 40
1
 10
246.504997
 20
-39.481781
 30
0.0
 10
247.057280
 20
-39.481779
 30
0.0
 10
247.504994
 20
-39.034066
 30
0.0
 10
247.504995
 20
-38.481783
 30
0.0
  0
SPLINE
  5
30d
100
AcDbEntity
  8
0
 62
7
100
AcDbSpline
 70
8
 71
3
 72
8
 73
4
 74
0
 40
0
 40
0
 40
0
 40
0
 40
1
 40
1
 40
1
 40
1
 10
234.505025
 20
-25.481813
 30
0.0
 10
233.952742
 20
-25.481814
 30
0.0
 10
233.505029
 20
-25.929528
 30
0.0
 10
233.505027
 20
-26.481811
 30
0.0
  0
SPLINE
  5
30e
100
AcDbEntity
  8
0
 62
7
100
AcDbSpline
 70
8
 71
3
 72
8
 73
4
 74
0
 40
0
 40
0
 40
0
 40
0
 40
1
 40
1
 40
1
 40
1
 10
233.505027
 20
-38.481783
 30
0.0
 10
233.505029
 20
-39.034066
 30
0.0
 10
233.952742
 20
-39.481779
 30
0.0
 10
234.505025
 20
-39.481781
 30
0.0
  0
LWPOLYLINE
  5
30f
100
AcDbEntity
  8
0
 62
7
100
AcDbPolyline
 90
2
 70
0
 10
228.454747
 20
-26.480033
 30
0.0
 10
228.454747
 20
-38.481529
 30
0.0
  0
LWPOLYLINE
  5
310
100
AcDbEntity
  8
0
 62
7
100
AcDbPolyline
 90
2
 70
0
 10
234.505025
 20
-25.481813
 30
0.0
 10
246.503981
 20
-25.481813
 30
0.0
  0
LWPOLYLINE
  5
311
100
AcDbEntity
  8
0
 62
7
100
AcDbPolyline
 90
2
 70
0
 10
233.504265
 20
-26.480033
 30
0.0
 10
233.504265
 20
-38.481529
 30
0.0
  0
SPLINE
  5
312
100
AcDbEntity
  8
0
 62
7
100
AcDbSpline
 70
8
 71
3
 72
8
 73
4
 74
0
 40
0
 40
0
 40
0
 40
0
 40
1
 40
1
 40
1
 40
1
 10
247.504995
 20
-26.481811
 30
0.0
 10
247.504994
 20
-25.929528
 30
0.0
 10
247.057280
 20
-25.481814
 30
0.0
 10
246.504997
 20
-25.481813
 30
0.0
  0
LWPOLYLINE
  5
313
100
AcDbEntity
  8
0
 62
7
100
AcDbPolyline
 90
2
 70
0
 10
234.505025
 20
-39.479749
 30
0.0
 10
246.503981
 20
-39.479749
 30
0.0
  0
SPLINE
  5
314
100
AcDbEntity
  8
0
 62
7
100
AcDbSpline
 70
8
 71
3
 72
8
 73
4
 74
0
 40
0
 40
0
 40
0
 40
0
 40
1
 40
1
 40
1
 40
1
 10
311.604156
 20
-39.481781
 30
0.0
 10
311.869503
 20
-39.481982
 30
0.0
 10
312.124052
 20
-39.376715
 30
0.0
 10
312.311753
 20
-39.189157
 30
0.0
  0
SPLINE
  5
315
100
AcDbEntity
  8
0
 62
7
100
AcDbSpline
 70
8
 71
3
 72
8
 73
4
 74
0
 40
0
 40
0
 40
0
 40
0
 40
1
 40
1
 40
1
 40
1
 10
312.311753
 20
-39.189157
 30
0.0
 10
312.499453
 20
-39.001599
 30
0.0
 10
312.604915
 20
-38.747131
 30
0.0
 10
312.604915
 20
-38.481783
 30
0.0
  0
SPLINE
  5
316
100
AcDbEntity
  8
0
 62
7
100
AcDbSpline
 70
8
 71
3
 72
8
 73
4
 74
0
 40
0
 40
0
 40
0
 40
0
 40
1
 40
1
 40
1
 40
1
 10
299.605200
 20
-25.481813
 30
0.0
 10
299.339852
 20
-25.481612
 30
0.0
 10
299.085303
 20
-25.586879
 30
0.0
 10
298.897603
 20
-25.774437
 30
0.0
  0
SPLINE
  5
317
100
AcDbEntity
  8
0
 62
7
100
AcDbSpline
 70
8
 71
3
 72
8
 73
4
 74
0
 40
0
 40
0
 40
0
 40
0
 40
1
 40
1
 40
1
 40
1
 10
298.897603
 20
-25.774437
 30
0.0
 10
298.709902
 20
-25.961995
 30
0.0
 10
298.604440
 20
-26.216463
 30
0.0
 10
298.604440
 20
-26.481811
 30
0.0
  0
SPLINE
  5
318
100
AcDbEntity
  8
0
 62
7
100
AcDbSpline
 70
8
 71
3
 72
8
 73
4
 74
0
 40
0
 40
0
 40
0
 40
0
 40
1
 40
1
 40
1
 40
1
 10
298.604440
 20
-38.481783
 30
0.0
 10
298.604440
 20
-38.747131
 30
0.0
 10
298.709902
 20
-39.001599
 30
0.0
 10
298.897603
 20
-39.189157
 30
0.0
  0
SPLINE
  5
319
100
AcDbEntity
  8
0
 62
7
100
AcDbSpline
 70
8
 71
3
 72
8
 73
4
 74
0
 40
0
 40
0
 40
0
 40
0
 40
1
 40
1
 40
1
 40
1
 10
298.897603
 20
-39.189157
 30
0.0
 10
299.085303
 20
-39.376715
 30
0.0
 10
299.339852
 20
-39.481982
 30
0.0
 10
299.605200
 20
-39.481781
 30
0.0
  0
LWPOLYLINE
  5
31a
100
AcDbEntity
  8
0
 62
7
100
AcDbPolyline
 90
2
 70
0
 10
247.504741
 20
-26.480033
 30
0.0
 10
247.504741
 20
-38.481529
 30
0.0
  0
LWPOLYLINE
  5
31b
100
AcDbEntity
  8
0
 62
7
100
AcDbPolyline
 90
2
 70
0
 10
299.605200
 20
-25.481813
 30
0.0
 10
311.604156
 20
-25.481813
 30
0.0
  0
LWPOLYLINE
  5
31c
100
AcDbEntity
  8
0
 62
7
100
AcDbPolyline
 90
2
 70
0
 10
298.604440
 20
-26.480033
 30
0.0
 10
298.604440
 20
-38.481529
 30
0.0
  0
SPLINE
  5
31d
100
AcDbEntity
  8
0
 62
7
100
AcDbSpline
 70
8
 71
3
 72
8
 73
4
 74
0
 40
0
 40
0
 40
0
 40
0
 40
1
 40
1
 40
1
 40
1
 10
312.604915
 20
-26.481811
 30
0.0
 10
312.604915
 20
-26.216463
 30
0.0
 10
312.499453
 20
-25.961995
 30
0.0
 10
312.311753
 20
-25.774437
 30
0.0
  0
SPLINE
  5
31e
100
AcDbEntity
  8
0
 62
7
100
AcDbSpline
 70
8
 71
3
 72
8
 73
4
 74
0
 40
0
 40
0
 40
0
 40
0
 40
1
 40
1
 40
1
 40
1
 10
312.311753
 20
-25.774437
 30
0.0
 10
312.124052
 20
-25.586879
 30
0.0
 10
311.869503
 20
-25.481612
 30
0.0
 10
311.604156
 20
-25.481813
 30
0.0
  0
LWPOLYLINE
  5
31f
100
AcDbEntity
  8
0
 62
7
100
AcDbPolyline
 90
2
 70
0
 10
299.605200
 20
-39.479749
 30
0.0
 10
311.604156
 20
-39.479749
 30
0.0
  0
SPLINE
  5
320
100
AcDbEntity
  8
0
 62
7
100
AcDbSpline
 70
8
 71
3
 72
8
 73
4
 74
0
 40
0
 40
0
 40
0
 40
0
 40
1
 40
1
 40
1
 40
1
 10
311.654956
 20
-15.656588
 30
0.0
 10
311.920303
 20
-15.656790
 30
0.0
 10
312.174852
 20
-15.551522
 30
0.0
 10
312.362553
 20
-15.363964
 30
0.0
  0
SPLINE
  5
321
100
AcDbEntity
  8
0
 62
7
100
AcDbSpline
 70
8
 71
3
 72
8
 73
4
 74
0
 40
0
 40
0
 40
0
 40
0
 40
1
 40
1
 40
1
 40
1
 10
312.362553
 20
-15.363964
 30
0.0
 10
312.550253
 20
-15.176407
 30
0.0
 10
312.655715
 20
-14.921938
 30
0.0
 10
312.655715
 20
-14.656590
 30
0.0
  0
SPLINE
  5
322
100
AcDbEntity
  8
0
 62
7
100
AcDbSpline
 70
8
 71
3
 72
8
 73
4
 74
0
 40
0
 40
0
 40
0
 40
0
 40
1
 40
1
 40
1
 40
1
 10
299.656000
 20
-1.656621
 30
0.0
 10
299.390652
 20
-1.656419
 30
0.0
 10
299.136103
 20
-1.761687
 30
0.0
 10
298.948403
 20
-1.949244
 30
0.0
  0
SPLINE
  5
323
100
AcDbEntity
  8
0
 62
7
100
AcDbSpline
 70
8
 71
3
 72
8
 73
4
 74
0
 40
0
 40
0
 40
0
 40
0
 40
1
 40
1
 40
1
 40
1
 10
298.948403
 20
-1.949244
 30
0.0
 10
298.760702
 20
-2.136802
 30
0.0
 10
298.655240
 20
-2.391270
 30
0.0
 10
298.655240
 20
-2.656618
 30
0.0
  0
SPLINE
  5
324
100
AcDbEntity
  8
0
 62
7
100
AcDbSpline
 70
8
 71
3
 72
8
 73
4
 74
0
 40
0
 40
0
 40
0
 40
0
 40
1
 40
1
 40
1
 40
1
 10
298.655240
 20
-14.656590
 30
0.0
 10
298.655240
 20
-14.921938
 30
0.0
 10
298.760702
 20
-15.176407
 30
0.0
 10
298.948403
 20
-15.363964
 30
0.0
  0
SPLINE
  5
325
100
AcDbEntity
  8
0
 62
7
100
AcDbSpline
 70
8
 71
3
 72
8
 73
4
 74
0
 40
0
 40
0
 40
0
 40
0
 40
1
 40
1
 40
1
 40
1
 10
298.948403
 20
-15.363964
 30
0.0
 10
299.136103
 20
-15.551522
 30
0.0
 10
299.390652
 20
-15.656790
 30
0.0
 10
299.656000
 20
-15.656588
 30
0.0
  0
LWPOLYLINE
  5
326
100
AcDbEntity
  8
0
 62
7
100
AcDbPolyline
 90
2
 70
0
 10
312.604915
 20
-26.480033
 30
0.0
 10
312.604915
 20
-38.481529
 30
0.0
  0
LWPOLYLINE
  5
327
100
AcDbEntity
  8
0
 62
7
100
AcDbPolyline
 90
2
 70
0
 10
299.656000
 20
-1.656621
 30
0.0
 10
311.654956
 20
-1.656621
 30
0.0
  0
LWPOLYLINE
  5
328
100
AcDbEntity
  8
0
 62
7
100
AcDbPolyline
 90
2
 70
0
 10
298.655240
 20
-2.654840
 30
0.0
 10
298.655240
 20
-14.656336
 30
0.0
  0
SPLINE
  5
329
100
AcDbEntity
  8
0
 62
7
100
AcDbSpline
 70
8
 71
3
 72
8
 73
4
 74
0
 40
0
 40
0
 40
0
 40
0
 40
1
 40
1
 40
1
 40
1
 10
312.655715
 20
-2.656618
 30
0.0
 10
312.655715
 20
-2.391270
 30
0.0
 10
312.550253
 20
-2.136802
 30
0.0
 10
312.362553
 20
-1.949244
 30
0.0
  0
SPLINE
  5
32a
100
AcDbEntity
  8
0
 62
7
100
AcDbSpline
 70
8
 71
3
 72
8
 73
4
 74
0
 40
0
 40
0
 40
0
 40
0
 40
1
 40
1
 40
1
 40
1
 10
312.362553
 20
-1.949244
 30
0.0
 10
312.174852
 20
-1.761687
 30
0.0
 10
311.920303
 20
-1.656419
 30
0.0
 10
311.654956
 20
-1.656621
 30
0.0
  0
LWPOLYLINE
  5
32b
100
AcDbEntity
  8
0
 62
7
100
AcDbPolyline
 90
2
 70
0
 10
299.656000
 20
-15.654556
 30
0.0
 10
311.654956
 20
-15.654556
 30
0.0
  0
SPLINE
  5
32c
100
AcDbEntity
  8
0
 62
7
100
AcDbSpline
 70
8
 71
3
 72
8
 73
4
 74
0
 40
0
 40
0
 40
0
 40
0
 40
1
 40
1
 40
1
 40
1
 10
287.016964
 20
-15.656588
 30
0.0
 10
287.282311
 20
-15.656790
 30
0.0
 10
287.536860
 20
-15.551522
 30
0.0
 10
287.724561
 20
-15.363964
 30
0.0
  0
SPLINE
  5
32d
100
AcDbEntity
  8
0
 62
7
100
AcDbSpline
 70
8
 71
3
 72
8
 73
4
 74
0
 40
0
 40
0
 40
0
 40
0
 40
1
 40
1
 40
1
 40
1
 10
287.724561
 20
-15.363964
 30
0.0
 10
287.912261
 20
-15.176407
 30
0.0
 10
288.017723
 20
-14.921938
 30
0.0
 10
288.017723
 20
-14.656590
 30
0.0
  0
SPLINE
  5
32e
100
AcDbEntity
  8
0
 62
7
100
AcDbSpline
 70
8
 71
3
 72
8
 73
4
 74
0
 40
0
 40
0
 40
0
 40
0
 40
1
 40
1
 40
1
 40
1
 10
275.018007
 20
-1.656621
 30
0.0
 10
274.752660
 20
-1.656419
 30
0.0
 10
274.498111
 20
-1.761687
 30
0.0
 10
274.310410
 20
-1.949244
 30
0.0
  0
SPLINE
  5
32f
100
AcDbEntity
  8
0
 62
7
100
AcDbSpline
 70
8
 71
3
 72
8
 73
4
 74
0
 40
0
 40
0
 40
0
 40
0
 40
1
 40
1
 40
1
 40
1
 10
274.310410
 20
-1.949244
 30
0.0
 10
274.122710
 20
-2.136802
 30
0.0
 10
274.017248
 20
-2.391270
 30
0.0
 10
274.017248
 20
-2.656618
 30
0.0
  0
SPLINE
  5
330
100
AcDbEntity
  8
0
 62
7
100
AcDbSpline
 70
8
 71
3
 72
8
 73
4
 74
0
 40
0
 40
0
 40
0
 40
0
 40
1
 40
1
 40
1
 40
1
 10
274.017248
 20
-14.656590
 30
0.0
 10
274.017248
 20
-14.921938
 30
0.0
 10
274.122710
 20
-15.176407
 30
0.0
 10
274.310410
 20
-15.363964
 30
0.0
  0
SPLINE
  5
331
100
AcDbEntity
  8
0
 62
7
100
AcDbSpline
 70
8
 71
3
 72
8
 73
4
 74
0
 40
0
 40
0
 40
0
 40
0
 40
1
 40
1
 40
1
 40
1
 10
274.310410
 20
-15.363964
 30
0.0
 10
274.498111
 20
-15.551522
 30
0.0
 10
274.752660
 20
-15.656790
 30
0.0
 10
275.018007
 20
-15.656588
 30
0.0
  0
LWPOLYLINE
  5
332
100
AcDbEntity
  8
0
 62
7
100
AcDbPolyline
 90
2
 70
0
 10
312.655715
 20
-2.654840
 30
0.0
 10
312.655715
 20
-14.656336
 30
0.0
  0
LWPOLYLINE
  5
333
100
AcDbEntity
  8
0
 62
7
100
AcDbPolyline
 90
2
 70
0
 10
275.018007
 20
-1.656621
 30
0.0
 10
287.016964
 20
-1.656621
 30
0.0
  0
LWPOLYLINE
  5
334
100
AcDbEntity
  8
0
 62
7
100
AcDbPolyline
 90
2
 70
0
 10
274.017248
 20
-2.654840
 30
0.0
 10
274.017248
 20
-14.656336
 30
0.0
  0
SPLINE
  5
335
100
AcDbEntity
  8
0
 62
7
100
AcDbSpline
 70
8
 71
3
 72
8
 73
4
 74
0
 40
0
 40
0
 40
0
 40
0
 40
1
 40
1
 40
1
 40
1
 10
288.017723
 20
-2.656618
 30
0.0
 10
288.017723
 20
-2.391270
 30
0.0
 10
287.912261
 20
-2.136802
 30
0.0
 10
287.724561
 20
-1.949244
 30
0.0
  0
SPLINE
  5
336
100
AcDbEntity
  8
0
 62
7
100
AcDbSpline
 70
8
 71
3
 72
8
 73
4
 74
0
 40
0
 40
0
 40
0
 40
0
 40
1
 40
1
 40
1
 40
1
 10
287.724561
 20
-1.949244
 30
0.0
 10
287.536860
 20
-1.761687
 30
0.0
 10
287.282311
 20
-1.656419
 30
0.0
 10
287.016964
 20
-1.656621
 30
0.0
  0
LWPOLYLINE
  5
337
100
AcDbEntity
  8
0
 62
7
100
AcDbPolyline
 90
2
 70
0
 10
275.018007
 20
-15.654556
 30
0.0
 10
287.016964
 20
-15.654556
 30
0.0
  0
SPLINE
  5
338
100
AcDbEntity
  8
0
 62
7
100
AcDbSpline
 70
8
 71
3
 72
8
 73
4
 74
0
 40
0
 40
0
 40
0
 40
0
 40
1
 40
1
 40
1
 40
1
 10
262.379987
 20
-15.656588
 30
0.0
 10
262.932270
 20
-15.656587
 30
0.0
 10
263.379984
 20
-15.208873
 30
0.0
 10
263.379985
 20
-14.656590
 30
0.0
  0
SPLINE
  5
339
100
AcDbEntity
  8
0
 62
7
100
AcDbSpline
 70
8
 71
3
 72
8
 73
4
 74
0
 40
0
 40
0
 40
0
 40
0
 40
1
 40
1
 40
1
 40
1
 10
250.380020
 20
-1.656621
 30
0.0
 10
249.827737
 20
-1.656622
 30
0.0
 10
249.380024
 20
-2.104335
 30
0.0
 10
249.380022
 20
-2.656618
 30
0.0
  0
SPLINE
  5
33a
100
AcDbEntity
  8
0
 62
7
100
AcDbSpline
 70
8
 71
3
 72
8
 73
4
 74
0
 40
0
 40
0
 40
0
 40
0
 40
1
 40
1
 40
1
 40
1
 10
249.380022
 20
-14.656590
 30
0.0
 10
249.380024
 20
-15.208873
 30
0.0
 10
249.827737
 20
-15.656587
 30
0.0
 10
250.380020
 20
-15.656588
 30
0.0
  0
LWPOLYLINE
  5
33b
100
AcDbEntity
  8
0
 62
7
100
AcDbPolyline
 90
2
 70
0
 10
288.017723
 20
-2.654840
 30
0.0
 10
288.017723
 20
-14.656336
 30
0.0
  0
LWPOLYLINE
  5
33c
100
AcDbEntity
  8
0
 62
7
100
AcDbPolyline
 90
2
 70
0
 10
250.380020
 20
-1.656621
 30
0.0
 10
262.378971
 20
-1.656621
 30
0.0
  0
LWPOLYLINE
  5
33d
100
AcDbEntity
  8
0
 62
7
100
AcDbPolyline
 90
2
 70
0
 10
249.379260
 20
-2.654840
 30
0.0
 10
249.379260
 20
-14.656336
 30
0.0
  0
SPLINE
  5
33e
100
AcDbEntity
  8
0
 62
7
100
AcDbSpline
 70
8
 71
3
 72
8
 73
4
 74
0
 40
0
 40
0
 40
0
 40
0
 40
1
 40
1
 40
1
 40
1
 10
263.379985
 20
-2.656618
 30
0.0
 10
263.379984
 20
-2.104335
 30
0.0
 10
262.932270
 20
-1.656622
 30
0.0
 10
262.379987
 20
-1.656621
 30
0.0
  0
LWPOLYLINE
  5
33f
100
AcDbEntity
  8
0
 62
7
100
AcDbPolyline
 90
2
 70
0
 10
250.380020
 20
-15.654556
 30
0.0
 10
262.378971
 20
-15.654556
 30
0.0
  0
SPLINE
  5
340
100
AcDbEntity
  8
0
 62
7
100
AcDbSpline
 70
8
 71
3
 72
8
 73
4
 74
0
 40
0
 40
0
 40
0
 40
0
 40
1
 40
1
 40
1
 40
1
 10
243.329998
 20
-15.656588
 30
0.0
 10
243.882281
 20
-15.656587
 30
0.0
 10
244.329995
 20
-15.208873
 30
0.0
 10
244.329996
 20
-14.656590
 30
0.0
  0
SPLINE
  5
341
100
AcDbEntity
  8
0
 62
7
100
AcDbSpline
 70
8
 71
3
 72
8
 73
4
 74
0
 40
0
 40
0
 40
0
 40
0
 40
1
 40
1
 40
1
 40
1
 10
231.330026
 20
-1.656621
 30
0.0
 10
230.777743
 20
-1.656622
 30
0.0
 10
230.330030
 20
-2.104335
 30
0.0
 10
230.330028
 20
-2.656618
 30
0.0
  0
SPLINE
  5
342
100
AcDbEntity
  8
0
 62
7
100
AcDbSpline
 70
8
 71
3
 72
8
 73
4
 74
0
 40
0
 40
0
 40
0
 40
0
 40
1
 40
1
 40
1
 40
1
 10
230.330028
 20
-14.656590
 30
0.0
 10
230.330030
 20
-15.208873
 30
0.0
 10
230.777743
 20
-15.656587
 30
0.0
 10
231.330026
 20
-15.656588
 30
0.0
  0
LWPOLYLINE
  5
343
100
AcDbEntity
  8
0
 62
7
100
AcDbPolyline
 90
2
 70
0
 10
263.379731
 20
-2.654840
 30
0.0
 10
263.379731
 20
-14.656336
 30
0.0
  0
LWPOLYLINE
  5
344
100
AcDbEntity
  8
0
 62
7
100
AcDbPolyline
 90
2
 70
0
 10
231.330026
 20
-1.656621
 30
0.0
 10
243.328982
 20
-1.656621
 30
0.0
  0
LWPOLYLINE
  5
345
100
AcDbEntity
  8
0
 62
7
100
AcDbPolyline
 90
2
 70
0
 10
230.329266
 20
-2.654840
 30
0.0
 10
230.329266
 20
-14.656336
 30
0.0
  0
SPLINE
  5
346
100
AcDbEntity
  8
0
 62
7
100
AcDbSpline
 70
8
 71
3
 72
8
 73
4
 74
0
 40
0
 40
0
 40
0
 40
0
 40
1
 40
1
 40
1
 40
1
 10
244.329996
 20
-2.656618
 30
0.0
 10
244.329995
 20
-2.104335
 30
0.0
 10
243.882281
 20
-1.656622
 30
0.0
 10
243.329998
 20
-1.656621
 30
0.0
  0
LWPOLYLINE
  5
347
100
AcDbEntity
  8
0
 62
7
100
AcDbPolyline
 90
2
 70
0
 10
231.330026
 20
-15.654556
 30
0.0
 10
243.328982
 20
-15.654556
 30
0.0
  0
SPLINE
  5
348
100
AcDbEntity
  8
0
 62
7
100
AcDbSpline
 70
8
 71
3
 72
8
 73
4
 74
0
 40
0
 40
0
 40
0
 40
0
 40
1
 40
1
 40
1
 40
1
 10
224.280004
 20
-15.656588
 30
0.0
 10
224.832287
 20
-15.656587
 30
0.0
 10
225.280001
 20
-15.208873
 30
0.0
 10
225.280002
 20
-14.656590
 30
0.0
  0
SPLINE
  5
349
100
AcDbEntity
  8
0
 62
7
100
AcDbSpline
 70
8
 71
3
 72
8
 73
4
 74
0
 40
0
 40
0
 40
0
 40
0
 40
1
 40
1
 40
1
 40
1
 10
212.280032
 20
-1.656621
 30
0.0
 10
211.727749
 20
-1.656622
 30
0.0
 10
211.280036
 20
-2.104335
 30
0.0
 10
211.280034
 20
-2.656618
 30
0.0
  0
SPLINE
  5
34a
100
AcDbEntity
  8
0
 62
7
100
AcDbSpline
 70
8
 71
3
 72
8
 73
4
 74
0
 40
0
 40
0
 40
0
 40
0
 40
1
 40
1
 40
1
 40
1
 10
211.280034
 20
-14.656590
 30
0.0
 10
211.280036
 20
-15.208873
 30
0.0
 10
211.727749
 20
-15.656587
 30
0.0
 10
212.280032
 20
-15.656588
 30
0.0
  0
LWPOLYLINE
  5
34b
100
AcDbEntity
  8
0
 62
7
100
AcDbPolyline
 90
2
 70
0
 10
244.329742
 20
-2.654840
 30
0.0
 10
244.329742
 20
-14.656336
 30
0.0
  0
LWPOLYLINE
  5
34c
100
AcDbEntity
  8
0
 62
7
100
AcDbPolyline
 90
2
 70
0
 10
212.280032
 20
-1.656621
 30
0.0
 10
224.278988
 20
-1.656621
 30
0.0
  0
LWPOLYLINE
  5
34d
100
AcDbEntity
  8
0
 62
7
100
AcDbPolyline
 90
2
 70
0
 10
211.279272
 20
-2.654840
 30
0.0
 10
211.279272
 20
-14.656336
 30
0.0
  0
SPLINE
  5
34e
100
AcDbEntity
  8
0
 62
7
100
AcDbSpline
 70
8
 71
3
 72
8
 73
4
 74
0
 40
0
 40
0
 40
0
 40
0
 40
1
 40
1
 40
1
 40
1
 10
225.280002
 20
-2.656618
 30
0.0
 10
225.280001
 20
-2.104335
 30
0.0
 10
224.832287
 20
-1.656622
 30
0.0
 10
224.280004
 20
-1.656621
 30
0.0
  0
LWPOLYLINE
  5
34f
100
AcDbEntity
  8
0
 62
7
100
AcDbPolyline
 90
2
 70
0
 10
212.280032
 20
-15.654556
 30
0.0
 10
224.278988
 20
-15.654556
 30
0.0
  0
SPLINE
  5
350
100
AcDbEntity
  8
0
 62
7
100
AcDbSpline
 70
8
 71
3
 72
8
 73
4
 74
0
 40
0
 40
0
 40
0
 40
0
 40
1
 40
1
 40
1
 40
1
 10
205.230010
 20
-15.656588
 30
0.0
 10
205.782293
 20
-15.656587
 30
0.0
 10
206.230007
 20
-15.208873
 30
0.0
 10
206.230008
 20
-14.656590
 30
0.0
  0
SPLINE
  5
351
100
AcDbEntity
  8
0
 62
7
100
AcDbSpline
 70
8
 71
3
 72
8
 73
4
 74
0
 40
0
 40
0
 40
0
 40
0
 40
1
 40
1
 40
1
 40
1
 10
193.230038
 20
-1.656621
 30
0.0
 10
192.677755
 20
-1.656622
 30
0.0
 10
192.230042
 20
-2.104335
 30
0.0
 10
192.230040
 20
-2.656618
 30
0.0
  0
SPLINE
  5
352
100
AcDbEntity
  8
0
 62
7
100
AcDbSpline
 70
8
 71
3
 72
8
 73
4
 74
0
 40
0
 40
0
 40
0
 40
0
 40
1
 40
1
 40
1
 40
1
 10
192.230040
 20
-14.656590
 30
0.0
 10
192.230042
 20
-15.208873
 30
0.0
 10
192.677755
 20
-15.656587
 30
0.0
 10
193.230038
 20
-15.656588
 30
0.0
  0
LWPOLYLINE
  5
353
100
AcDbEntity
  8
0
 62
7
100
AcDbPolyline
 90
2
 70
0
 10
225.279748
 20
-2.654840
 30
0.0
 10
225.279748
 20
-14.656336
 30
0.0
  0
LWPOLYLINE
  5
354
100
AcDbEntity
  8
0
 62
7
100
AcDbPolyline
 90
2
 70
0
 10
193.230038
 20
-1.656621
 30
0.0
 10
205.228994
 20
-1.656621
 30
0.0
  0
LWPOLYLINE
  5
355
100
AcDbEntity
  8
0
 62
7
100
AcDbPolyline
 90
2
 70
0
 10
192.229278
 20
-2.654840
 30
0.0
 10
192.229278
 20
-14.656336
 30
0.0
  0
SPLINE
  5
356
100
AcDbEntity
  8
0
 62
7
100
AcDbSpline
 70
8
 71
3
 72
8
 73
4
 74
0
 40
0
 40
0
 40
0
 40
0
 40
1
 40
1
 40
1
 40
1
 10
206.230008
 20
-2.656618
 30
0.0
 10
206.230007
 20
-2.104335
 30
0.0
 10
205.782293
 20
-1.656622
 30
0.0
 10
205.230010
 20
-1.656621
 30
0.0
  0
LWPOLYLINE
  5
357
100
AcDbEntity
  8
0
 62
7
100
AcDbPolyline
 90
2
 70
0
 10
193.230038
 20
-15.654556
 30
0.0
 10
205.228994
 20
-15.654556
 30
0.0
  0
SPLINE
  5
358
100
AcDbEntity
  8
0
 62
7
100
AcDbSpline
 70
8
 71
3
 72
8
 73
4
 74
0
 40
0
 40
0
 40
0
 40
0
 40
1
 40
1
 40
1
 40
1
 10
181.430220
 20
-15.656588
 30
0.0
 10
181.982502
 20
-15.656585
 30
0.0
 10
182.430214
 20
-15.208872
 30
0.0
 10
182.430215
 20
-14.656590
 30
0.0
  0
SPLINE
  5
359
100
AcDbEntity
  8
0
 62
7
100
AcDbSpline
 70
8
 71
3
 72
8
 73
4
 74
0
 40
0
 40
0
 40
0
 40
0
 40
1
 40
1
 40
1
 40
1
 10
169.430246
 20
-1.656621
 30
0.0
 10
168.877963
 20
-1.656622
 30
0.0
 10
168.430249
 20
-2.104335
 30
0.0
 10
168.430248
 20
-2.656618
 30
0.0
  0
SPLINE
  5
35a
100
AcDbEntity
  8
0
 62
7
100
AcDbSpline
 70
8
 71
3
 72
8
 73
4
 74
0
 40
0
 40
0
 40
0
 40
0
 40
1
 40
1
 40
1
 40
1
 10
168.430248
 20
-14.656590
 30
0.0
 10
168.430249
 20
-15.208873
 30
0.0
 10
168.877963
 20
-15.656587
 30
0.0
 10
169.430246
 20
-15.656588
 30
0.0
  0
LWPOLYLINE
  5
35b
100
AcDbEntity
  8
0
 62
7
100
AcDbPolyline
 90
2
 70
0
 10
206.229754
 20
-2.654840
 30
0.0
 10
206.229754
 20
-14.656336
 30
0.0
  0
LWPOLYLINE
  5
35c
100
AcDbEntity
  8
0
 62
7
100
AcDbPolyline
 90
2
 70
0
 10
169.430246
 20
-1.656621
 30
0.0
 10
181.429202
 20
-1.656621
 30
0.0
  0
LWPOLYLINE
  5
35d
100
AcDbEntity
  8
0
 62
7
100
AcDbPolyline
 90
2
 70
0
 10
168.429486
 20
-2.654840
 30
0.0
 10
168.429486
 20
-14.656336
 30
0.0
  0
SPLINE
  5
35e
100
AcDbEntity
  8
0
 62
7
100
AcDbSpline
 70
8
 71
3
 72
8
 73
4
 74
0
 40
0
 40
0
 40
0
 40
0
 40
1
 40
1
 40
1
 40
1
 10
182.430215
 20
-2.656618
 30
0.0
 10
182.430214
 20
-2.104336
 30
0.0
 10
181.982502
 20
-1.656623
 30
0.0
 10
181.430220
 20
-1.656621
 30
0.0
  0
LWPOLYLINE
  5
35f
100
AcDbEntity
  8
0
 62
7
100
AcDbPolyline
 90
2
 70
0
 10
169.430246
 20
-15.654556
 30
0.0
 10
181.429202
 20
-15.654556
 30
0.0
  0
SPLINE
  5
360
100
AcDbEntity
  8
0
 62
7
100
AcDbSpline
 70
8
 71
3
 72
8
 73
4
 74
0
 40
0
 40
0
 40
0
 40
0
 40
1
 40
1
 40
1
 40
1
 10
162.380226
 20
-15.656588
 30
0.0
 10
162.932508
 20
-15.656585
 30
0.0
 10
163.380220
 20
-15.208872
 30
0.0
 10
163.380221
 20
-14.656590
 30
0.0
  0
SPLINE
  5
361
100
AcDbEntity
  8
0
 62
7
100
AcDbSpline
 70
8
 71
3
 72
8
 73
4
 74
0
 40
0
 40
0
 40
0
 40
0
 40
1
 40
1
 40
1
 40
1
 10
150.380254
 20
-1.656621
 30
0.0
 10
149.827971
 20
-1.656622
 30
0.0
 10
149.380258
 20
-2.104335
 30
0.0
 10
149.380256
 20
-2.656618
 30
0.0
  0
SPLINE
  5
362
100
AcDbEntity
  8
0
 62
7
100
AcDbSpline
 70
8
 71
3
 72
8
 73
4
 74
0
 40
0
 40
0
 40
0
 40
0
 40
1
 40
1
 40
1
 40
1
 10
149.380256
 20
-14.656590
 30
0.0
 10
149.380258
 20
-15.208873
 30
0.0
 10
149.827971
 20
-15.656587
 30
0.0
 10
150.380254
 20
-15.656588
 30
0.0
  0
LWPOLYLINE
  5
363
100
AcDbEntity
  8
0
 62
7
100
AcDbPolyline
 90
2
 70
0
 10
182.429961
 20
-2.654840
 30
0.0
 10
182.429961
 20
-14.656336
 30
0.0
  0
LWPOLYLINE
  5
364
100
AcDbEntity
  8
0
 62
7
100
AcDbPolyline
 90
2
 70
0
 10
150.380254
 20
-1.656621
 30
0.0
 10
162.379210
 20
-1.656621
 30
0.0
  0
LWPOLYLINE
  5
365
100
AcDbEntity
  8
0
 62
7
100
AcDbPolyline
 90
2
 70
0
 10
149.379494
 20
-2.654840
 30
0.0
 10
149.379494
 20
-14.656336
 30
0.0
  0
SPLINE
  5
366
100
AcDbEntity
  8
0
 62
7
100
AcDbSpline
 70
8
 71
3
 72
8
 73
4
 74
0
 40
0
 40
0
 40
0
 40
0
 40
1
 40
1
 40
1
 40
1
 10
163.380221
 20
-2.656618
 30
0.0
 10
163.380220
 20
-2.104336
 30
0.0
 10
162.932508
 20
-1.656623
 30
0.0
 10
162.380226
 20
-1.656621
 30
0.0
  0
LWPOLYLINE
  5
367
100
AcDbEntity
  8
0
 62
7
100
AcDbPolyline
 90
2
 70
0
 10
150.380254
 20
-15.654556
 30
0.0
 10
162.379210
 20
-15.654556
 30
0.0
  0
SPLINE
  5
368
100
AcDbEntity
  8
0
 62
7
100
AcDbSpline
 70
8
 71
3
 72
8
 73
4
 74
0
 40
0
 40
0
 40
0
 40
0
 40
1
 40
1
 40
1
 40
1
 10
143.304832
 20
-15.656588
 30
0.0
 10
143.857114
 20
-15.656585
 30
0.0
 10
144.304826
 20
-15.208872
 30
0.0
 10
144.304827
 20
-14.656590
 30
0.0
  0
SPLINE
  5
369
100
AcDbEntity
  8
0
 62
7
100
AcDbSpline
 70
8
 71
3
 72
8
 73
4
 74
0
 40
0
 40
0
 40
0
 40
0
 40
1
 40
1
 40
1
 40
1
 10
131.304860
 20
-1.656621
 30
0.0
 10
130.752577
 20
-1.656622
 30
0.0
 10
130.304864
 20
-2.104335
 30
0.0
 10
130.304862
 20
-2.656618
 30
0.0
  0
SPLINE
  5
36a
100
AcDbEntity
  8
0
 62
7
100
AcDbSpline
 70
8
 71
3
 72
8
 73
4
 74
0
 40
0
 40
0
 40
0
 40
0
 40
1
 40
1
 40
1
 40
1
 10
130.304862
 20
-14.656590
 30
0.0
 10
130.304864
 20
-15.208873
 30
0.0
 10
130.752577
 20
-15.656587
 30
0.0
 10
131.304860
 20
-15.656588
 30
0.0
  0
LWPOLYLINE
  5
36b
100
AcDbEntity
  8
0
 62
7
100
AcDbPolyline
 90
2
 70
0
 10
163.379970
 20
-2.654840
 30
0.0
 10
163.379970
 20
-14.656336
 30
0.0
  0
LWPOLYLINE
  5
36c
100
AcDbEntity
  8
0
 62
7
100
AcDbPolyline
 90
2
 70
0
 10
131.304860
 20
-1.656621
 30
0.0
 10
143.303816
 20
-1.656621
 30
0.0
  0
LWPOLYLINE
  5
36d
100
AcDbEntity
  8
0
 62
7
100
AcDbPolyline
 90
2
 70
0
 10
130.304100
 20
-2.654840
 30
0.0
 10
130.304100
 20
-14.656336
 30
0.0
  0
SPLINE
  5
36e
100
AcDbEntity
  8
0
 62
7
100
AcDbSpline
 70
8
 71
3
 72
8
 73
4
 74
0
 40
0
 40
0
 40
0
 40
0
 40
1
 40
1
 40
1
 40
1
 10
144.304827
 20
-2.656618
 30
0.0
 10
144.304826
 20
-2.104336
 30
0.0
 10
143.857114
 20
-1.656623
 30
0.0
 10
143.304832
 20
-1.656621
 30
0.0
  0
LWPOLYLINE
  5
36f
100
AcDbEntity
  8
0
 62
7
100
AcDbPolyline
 90
2
 70
0
 10
131.304860
 20
-15.654556
 30
0.0
 10
143.303816
 20
-15.654556
 30
0.0
  0
SPLINE
  5
370
100
AcDbEntity
  8
0
 62
7
100
AcDbSpline
 70
8
 71
3
 72
8
 73
4
 74
0
 40
0
 40
0
 40
0
 40
0
 40
1
 40
1
 40
1
 40
1
 10
124.280238
 20
-15.656588
 30
0.0
 10
124.832520
 20
-15.656585
 30
0.0
 10
125.280232
 20
-15.208872
 30
0.0
 10
125.280233
 20
-14.656590
 30
0.0
  0
SPLINE
  5
371
100
AcDbEntity
  8
0
 62
7
100
AcDbSpline
 70
8
 71
3
 72
8
 73
4
 74
0
 40
0
 40
0
 40
0
 40
0
 40
1
 40
1
 40
1
 40
1
 10
112.280266
 20
-1.656621
 30
0.0
 10
111.727983
 20
-1.656622
 30
0.0
 10
111.280270
 20
-2.104335
 30
0.0
 10
111.280268
 20
-2.656618
 30
0.0
  0
SPLINE
  5
372
100
AcDbEntity
  8
0
 62
7
100
AcDbSpline
 70
8
 71
3
 72
8
 73
4
 74
0
 40
0
 40
0
 40
0
 40
0
 40
1
 40
1
 40
1
 40
1
 10
111.280268
 20
-14.656590
 30
0.0
 10
111.280270
 20
-15.208873
 30
0.0
 10
111.727983
 20
-15.656587
 30
0.0
 10
112.280266
 20
-15.656588
 30
0.0
  0
LWPOLYLINE
  5
373
100
AcDbEntity
  8
0
 62
7
100
AcDbPolyline
 90
2
 70
0
 10
144.304576
 20
-2.654840
 30
0.0
 10
144.304576
 20
-14.656336
 30
0.0
  0
LWPOLYLINE
  5
374
100
AcDbEntity
  8
0
 62
7
100
AcDbPolyline
 90
2
 70
0
 10
112.280266
 20
-1.656621
 30
0.0
 10
124.279222
 20
-1.656621
 30
0.0
  0
LWPOLYLINE
  5
375
100
AcDbEntity
  8
0
 62
7
100
AcDbPolyline
 90
2
 70
0
 10
111.279506
 20
-2.654840
 30
0.0
 10
111.279506
 20
-14.656336
 30
0.0
  0
SPLINE
  5
376
100
AcDbEntity
  8
0
 62
7
100
AcDbSpline
 70
8
 71
3
 72
8
 73
4
 74
0
 40
0
 40
0
 40
0
 40
0
 40
1
 40
1
 40
1
 40
1
 10
125.280233
 20
-2.656618
 30
0.0
 10
125.280232
 20
-2.104336
 30
0.0
 10
124.832520
 20
-1.656623
 30
0.0
 10
124.280238
 20
-1.656621
 30
0.0
  0
LWPOLYLINE
  5
377
100
AcDbEntity
  8
0
 62
7
100
AcDbPolyline
 90
2
 70
0
 10
112.280266
 20
-15.654556
 30
0.0
 10
124.279222
 20
-15.654556
 30
0.0
  0
SPLINE
  5
378
100
AcDbEntity
  8
0
 62
7
100
AcDbSpline
 70
8
 71
3
 72
8
 73
4
 74
0
 40
0
 40
0
 40
0
 40
0
 40
1
 40
1
 40
1
 40
1
 10
100.455046
 20
-15.656588
 30
0.0
 10
101.007328
 20
-15.656585
 30
0.0
 10
101.455039
 20
-15.208872
 30
0.0
 10
101.455041
 20
-14.656590
 30
0.0
  0
SPLINE
  5
379
100
AcDbEntity
  8
0
 62
7
100
AcDbSpline
 70
8
 71
3
 72
8
 73
4
 74
0
 40
0
 40
0
 40
0
 40
0
 40
1
 40
1
 40
1
 40
1
 10
88.455073
 20
-1.656621
 30
0.0
 10
87.902791
 20
-1.656622
 30
0.0
 10
87.455077
 20
-2.104335
 30
0.0
 10
87.455076
 20
-2.656618
 30
0.0
  0
SPLINE
  5
37a
100
AcDbEntity
  8
0
 62
7
100
AcDbSpline
 70
8
 71
3
 72
8
 73
4
 74
0
 40
0
 40
0
 40
0
 40
0
 40
1
 40
1
 40
1
 40
1
 10
87.455076
 20
-14.656590
 30
0.0
 10
87.455077
 20
-15.208873
 30
0.0
 10
87.902791
 20
-15.656587
 30
0.0
 10
88.455073
 20
-15.656588
 30
0.0
  0
LWPOLYLINE
  5
37b
100
AcDbEntity
  8
0
 62
7
100
AcDbPolyline
 90
2
 70
0
 10
125.279982
 20
-2.654840
 30
0.0
 10
125.279982
 20
-14.656336
 30
0.0
  0
LWPOLYLINE
  5
37c
100
AcDbEntity
  8
0
 62
7
100
AcDbPolyline
 90
2
 70
0
 10
88.455073
 20
-1.656621
 30
0.0
 10
100.454030
 20
-1.656621
 30
0.0
  0
LWPOLYLINE
  5
37d
100
AcDbEntity
  8
0
 62
7
100
AcDbPolyline
 90
2
 70
0
 10
87.454314
 20
-2.654840
 30
0.0
 10
87.454314
 20
-14.656336
 30
0.0
  0
SPLINE
  5
37e
100
AcDbEntity
  8
0
 62
7
100
AcDbSpline
 70
8
 71
3
 72
8
 73
4
 74
0
 40
0
 40
0
 40
0
 40
0
 40
1
 40
1
 40
1
 40
1
 10
101.455041
 20
-2.656618
 30
0.0
 10
101.455039
 20
-2.104336
 30
0.0
 10
101.007328
 20
-1.656623
 30
0.0
 10
100.455046
 20
-1.656621
 30
0.0
  0
LWPOLYLINE
  5
37f
100
AcDbEntity
  8
0
 62
7
100
AcDbPolyline
 90
2
 70
0
 10
88.455073
 20
-15.654556
 30
0.0
 10
100.454030
 20
-15.654556
 30
0.0
  0
SPLINE
  5
380
100
AcDbEntity
  8
0
 62
7
100
AcDbSpline
 70
8
 71
3
 72
8
 73
4
 74
0
 40
0
 40
0
 40
0
 40
0
 40
1
 40
1
 40
1
 40
1
 10
81.430449
 20
-15.656588
 30
0.0
 10
81.982732
 20
-15.656587
 30
0.0
 10
82.430445
 20
-15.208873
 30
0.0
 10
82.430447
 20
-14.656590
 30
0.0
  0
SPLINE
  5
381
100
AcDbEntity
  8
0
 62
7
100
AcDbSpline
 70
8
 71
3
 72
8
 73
4
 74
0
 40
0
 40
0
 40
0
 40
0
 40
1
 40
1
 40
1
 40
1
 10
69.430477
 20
-1.656621
 30
0.0
 10
68.878194
 20
-1.656622
 30
0.0
 10
68.430481
 20
-2.104335
 30
0.0
 10
68.430479
 20
-2.656618
 30
0.0
  0
SPLINE
  5
382
100
AcDbEntity
  8
0
 62
7
100
AcDbSpline
 70
8
 71
3
 72
8
 73
4
 74
0
 40
0
 40
0
 40
0
 40
0
 40
1
 40
1
 40
1
 40
1
 10
68.430479
 20
-14.656590
 30
0.0
 10
68.430481
 20
-15.208873
 30
0.0
 10
68.878194
 20
-15.656587
 30
0.0
 10
69.430477
 20
-15.656588
 30
0.0
  0
LWPOLYLINE
  5
383
100
AcDbEntity
  8
0
 62
7
100
AcDbPolyline
 90
2
 70
0
 10
101.454789
 20
-2.654840
 30
0.0
 10
101.454789
 20
-14.656336
 30
0.0
  0
LWPOLYLINE
  5
384
100
AcDbEntity
  8
0
 62
7
100
AcDbPolyline
 90
2
 70
0
 10
69.430477
 20
-1.656621
 30
0.0
 10
81.429433
 20
-1.656621
 30
0.0
  0
LWPOLYLINE
  5
385
100
AcDbEntity
  8
0
 62
7
100
AcDbPolyline
 90
2
 70
0
 10
68.429717
 20
-2.654840
 30
0.0
 10
68.429717
 20
-14.656336
 30
0.0
  0
SPLINE
  5
386
100
AcDbEntity
  8
0
 62
7
100
AcDbSpline
 70
8
 71
3
 72
8
 73
4
 74
0
 40
0
 40
0
 40
0
 40
0
 40
1
 40
1
 40
1
 40
1
 10
82.430447
 20
-2.656618
 30
0.0
 10
82.430445
 20
-2.104335
 30
0.0
 10
81.982732
 20
-1.656622
 30
0.0
 10
81.430449
 20
-1.656621
 30
0.0
  0
LWPOLYLINE
  5
387
100
AcDbEntity
  8
0
 62
7
100
AcDbPolyline
 90
2
 70
0
 10
69.430477
 20
-15.654556
 30
0.0
 10
81.429433
 20
-15.654556
 30
0.0
  0
SPLINE
  5
388
100
AcDbEntity
  8
0
 62
7
100
AcDbSpline
 70
8
 71
3
 72
8
 73
4
 74
0
 40
0
 40
0
 40
0
 40
0
 40
1
 40
1
 40
1
 40
1
 10
62.355055
 20
-15.656588
 30
0.0
 10
62.907338
 20
-15.656587
 30
0.0
 10
63.355051
 20
-15.208873
 30
0.0
 10
63.355053
 20
-14.656590
 30
0.0
  0
SPLINE
  5
389
100
AcDbEntity
  8
0
 62
7
100
AcDbSpline
 70
8
 71
3
 72
8
 73
4
 74
0
 40
0
 40
0
 40
0
 40
0
 40
1
 40
1
 40
1
 40
1
 10
50.355083
 20
-1.656621
 30
0.0
 10
49.802800
 20
-1.656622
 30
0.0
 10
49.355087
 20
-2.104335
 30
0.0
 10
49.355085
 20
-2.656618
 30
0.0
  0
SPLINE
  5
38a
100
AcDbEntity
  8
0
 62
7
100
AcDbSpline
 70
8
 71
3
 72
8
 73
4
 74
0
 40
0
 40
0
 40
0
 40
0
 40
1
 40
1
 40
1
 40
1
 10
49.355085
 20
-14.656590
 30
0.0
 10
49.355087
 20
-15.208873
 30
0.0
 10
49.802800
 20
-15.656587
 30
0.0
 10
50.355083
 20
-15.656588
 30
0.0
  0
LWPOLYLINE
  5
38b
100
AcDbEntity
  8
0
 62
7
100
AcDbPolyline
 90
2
 70
0
 10
82.430193
 20
-2.654840
 30
0.0
 10
82.430193
 20
-14.656336
 30
0.0
  0
LWPOLYLINE
  5
38c
100
AcDbEntity
  8
0
 62
7
100
AcDbPolyline
 90
2
 70
0
 10
50.355083
 20
-1.656621
 30
0.0
 10
62.354039
 20
-1.656621
 30
0.0
  0
LWPOLYLINE
  5
38d
100
AcDbEntity
  8
0
 62
7
100
AcDbPolyline
 90
2
 70
0
 10
49.354323
 20
-2.654840
 30
0.0
 10
49.354323
 20
-14.656336
 30
0.0
  0
SPLINE
  5
38e
100
AcDbEntity
  8
0
 62
7
100
AcDbSpline
 70
8
 71
3
 72
8
 73
4
 74
0
 40
0
 40
0
 40
0
 40
0
 40
1
 40
1
 40
1
 40
1
 10
63.355053
 20
-2.656618
 30
0.0
 10
63.355051
 20
-2.104335
 30
0.0
 10
62.907338
 20
-1.656622
 30
0.0
 10
62.355055
 20
-1.656621
 30
0.0
  0
LWPOLYLINE
  5
38f
100
AcDbEntity
  8
0
 62
7
100
AcDbPolyline
 90
2
 70
0
 10
50.355083
 20
-15.654556
 30
0.0
 10
62.354039
 20
-15.654556
 30
0.0
  0
SPLINE
  5
390
100
AcDbEntity
  8
0
 62
7
100
AcDbSpline
 70
8
 71
3
 72
8
 73
4
 74
0
 40
0
 40
0
 40
0
 40
0
 40
1
 40
1
 40
1
 40
1
 10
43.305061
 20
-15.656588
 30
0.0
 10
43.857344
 20
-15.656587
 30
0.0
 10
44.305057
 20
-15.208873
 30
0.0
 10
44.305059
 20
-14.656590
 30
0.0
  0
SPLINE
  5
391
100
AcDbEntity
  8
0
 62
7
100
AcDbSpline
 70
8
 71
3
 72
8
 73
4
 74
0
 40
0
 40
0
 40
0
 40
0
 40
1
 40
1
 40
1
 40
1
 10
30.305094
 20
-14.656590
 30
0.0
 10
30.305095
 20
-15.208872
 30
0.0
 10
30.752807
 20
-15.656585
 30
0.0
 10
31.305089
 20
-15.656588
 30
0.0
  0
LWPOLYLINE
  5
392
100
AcDbEntity
  8
0
 62
7
100
AcDbPolyline
 90
2
 70
0
 10
63.354799
 20
-2.654840
 30
0.0
 10
63.354799
 20
-14.656336
 30
0.0
  0
SPLINE
  5
393
100
AcDbEntity
  8
0
 62
7
100
AcDbSpline
 70
8
 71
3
 72
8
 73
4
 74
0
 40
0
 40
0
 40
0
 40
0
 40
1
 40
1
 40
1
 40
1
 10
31.305089
 20
-1.656621
 30
0.0
 10
30.752807
 20
-1.656623
 30
0.0
 10
30.305095
 20
-2.104336
 30
0.0
 10
30.305094
 20
-2.656618
 30
0.0
  0
LWPOLYLINE
  5
394
100
AcDbEntity
  8
0
 62
7
100
AcDbPolyline
 90
2
 70
0
 10
31.305089
 20
-1.656621
 30
0.0
 10
43.304045
 20
-1.656621
 30
0.0
  0
LWPOLYLINE
  5
395
100
AcDbEntity
  8
0
 62
7
100
AcDbPolyline
 90
2
 70
0
 10
44.304805
 20
-2.654840
 30
0.0
 10
44.304805
 20
-14.656336
 30
0.0
  0
SPLINE
  5
396
100
AcDbEntity
  8
0
 62
7
100
AcDbSpline
 70
8
 71
3
 72
8
 73
4
 74
0
 40
0
 40
0
 40
0
 40
0
 40
1
 40
1
 40
1
 40
1
 10
44.305059
 20
-2.656618
 30
0.0
 10
44.305057
 20
-2.104335
 30
0.0
 10
43.857344
 20
-1.656622
 30
0.0
 10
43.305061
 20
-1.656621
 30
0.0
  0
LWPOLYLINE
  5
397
100
AcDbEntity
  8
0
 62
7
100
AcDbPolyline
 90
2
 70
0
 10
30.304329
 20
-2.654840
 30
0.0
 10
30.304329
 20
-14.656336
 30
0.0
  0
SPLINE
  5
398
100
AcDbEntity
  8
0
 62
7
100
AcDbSpline
 70
8
 71
3
 72
8
 73
4
 74
0
 40
0
 40
0
 40
0
 40
0
 40
1
 40
1
 40
1
 40
1
 10
17.905093
 20
-15.656588
 30
0.0
 10
18.457377
 20
-15.656588
 30
0.0
 10
18.905092
 20
-15.208874
 30
0.0
 10
18.905093
 20
-14.656590
 30
0.0
  0
SPLINE
  5
399
100
AcDbEntity
  8
0
 62
7
100
AcDbSpline
 70
8
 71
3
 72
8
 73
4
 74
0
 40
0
 40
0
 40
0
 40
0
 40
1
 40
1
 40
1
 40
1
 10
4.905100
 20
-14.656590
 30
0.0
 10
4.905102
 20
-15.208873
 30
0.0
 10
5.352815
 20
-15.656587
 30
0.0
 10
5.905098
 20
-15.656588
 30
0.0
  0
LWPOLYLINE
  5
39a
100
AcDbEntity
  8
0
 62
7
100
AcDbPolyline
 90
2
 70
0
 10
31.305089
 20
-15.654556
 30
0.0
 10
43.304045
 20
-15.654556
 30
0.0
  0
SPLINE
  5
39b
100
AcDbEntity
  8
0
 62
7
100
AcDbSpline
 70
8
 71
3
 72
8
 73
4
 74
0
 40
0
 40
0
 40
0
 40
0
 40
1
 40
1
 40
1
 40
1
 10
5.905098
 20
-1.656621
 30
0.0
 10
5.352815
 20
-1.656622
 30
0.0
 10
4.905102
 20
-2.104335
 30
0.0
 10
4.905100
 20
-2.656618
 30
0.0
  0
LWPOLYLINE
  5
39c
100
AcDbEntity
  8
0
 62
7
100
AcDbPolyline
 90
2
 70
0
 10
5.905098
 20
-1.656621
 30
0.0
 10
17.904054
 20
-1.656621
 30
0.0
  0
LWPOLYLINE
  5
39d
100
AcDbEntity
  8
0
 62
7
100
AcDbPolyline
 90
2
 70
0
 10
18.904814
 20
-2.654840
 30
0.0
 10
18.904814
 20
-14.656336
 30
0.0
  0
SPLINE
  5
39e
100
AcDbEntity
  8
0
 62
7
100
AcDbSpline
 70
8
 71
3
 72
8
 73
4
 74
0
 40
0
 40
0
 40
0
 40
0
 40
1
 40
1
 40
1
 40
1
 10
18.905093
 20
-2.656618
 30
0.0
 10
18.905092
 20
-2.104334
 30
0.0
 10
18.457377
 20
-1.656621
 30
0.0
 10
17.905093
 20
-1.656621
 30
0.0
  0
LWPOLYLINE
  5
39f
100
AcDbEntity
  8
0
 62
7
100
AcDbPolyline
 90
2
 70
0
 10
4.906878
 20
-2.654840
 30
0.0
 10
4.906878
 20
-14.656336
 30
0.0
  0
SPLINE
  5
3a0
100
AcDbEntity
  8
0
 62
7
100
AcDbSpline
 70
8
 71
3
 72
8
 73
4
 74
0
 40
0
 40
0
 40
0
 40
0
 40
1
 40
1
 40
1
 40
1
 10
136.929434
 20
-96.657163
 30
0.0
 10
137.481716
 20
-96.657160
 30
0.0
 10
137.929428
 20
-96.209447
 30
0.0
 10
137.929429
 20
-95.657165
 30
0.0
  0
SPLINE
  5
3a1
100
AcDbEntity
  8
0
 62
7
100
AcDbSpline
 70
8
 71
3
 72
8
 73
4
 74
0
 40
0
 40
0
 40
0
 40
0
 40
1
 40
1
 40
1
 40
1
 10
123.929464
 20
-95.657165
 30
0.0
 10
123.929466
 20
-96.209448
 30
0.0
 10
124.377179
 20
-96.657161
 30
0.0
 10
124.929462
 20
-96.657163
 30
0.0
  0
LWPOLYLINE
  5
3a2
100
AcDbEntity
  8
0
 62
7
100
AcDbPolyline
 90
2
 70
0
 10
5.905098
 20
-15.654556
 30
0.0
 10
17.904054
 20
-15.654556
 30
0.0
  0
SPLINE
  5
3a3
100
AcDbEntity
  8
0
 62
7
100
AcDbSpline
 70
8
 71
3
 72
8
 73
4
 74
0
 40
0
 40
0
 40
0
 40
0
 40
1
 40
1
 40
1
 40
1
 10
124.929462
 20
-82.657195
 30
0.0
 10
124.377179
 20
-82.657197
 30
0.0
 10
123.929466
 20
-83.104910
 30
0.0
 10
123.929464
 20
-83.657193
 30
0.0
  0
LWPOLYLINE
  5
3a4
100
AcDbEntity
  8
0
 62
7
100
AcDbPolyline
 90
2
 70
0
 10
124.929462
 20
-82.657195
 30
0.0
 10
136.928418
 20
-82.657195
 30
0.0
  0
LWPOLYLINE
  5
3a5
100
AcDbEntity
  8
0
 62
7
100
AcDbPolyline
 90
2
 70
0
 10
137.929178
 20
-83.655415
 30
0.0
 10
137.929178
 20
-95.656911
 30
0.0
  0
SPLINE
  5
3a6
100
AcDbEntity
  8
0
 62
7
100
AcDbSpline
 70
8
 71
3
 72
8
 73
4
 74
0
 40
0
 40
0
 40
0
 40
0
 40
1
 40
1
 40
1
 40
1
 10
137.929429
 20
-83.657193
 30
0.0
 10
137.929428
 20
-83.104911
 30
0.0
 10
137.481716
 20
-82.657198
 30
0.0
 10
136.929434
 20
-82.657195
 30
0.0
  0
LWPOLYLINE
  5
3a7
100
AcDbEntity
  8
0
 62
7
100
AcDbPolyline
 90
2
 70
0
 10
123.928702
 20
-83.655415
 30
0.0
 10
123.928702
 20
-95.656911
 30
0.0
  0
SPLINE
  5
3a8
100
AcDbEntity
  8
0
 62
7
100
AcDbSpline
 70
8
 71
3
 72
8
 73
4
 74
0
 40
0
 40
0
 40
0
 40
0
 40
1
 40
1
 40
1
 40
1
 10
39.648986
 20
-79.650725
 30
0.0
 10
39.648986
 20
-79.440304
 30
0.0
 10
39.478408
 20
-79.257833
 30
0.0
 10
39.267986
 20
-79.257833
 30
0.0
  0
SPLINE
  5
3a9
100
AcDbEntity
  8
0
 62
7
100
AcDbSpline
 70
8
 71
3
 72
8
 73
4
 74
0
 40
0
 40
0
 40
0
 40
0
 40
1
 40
1
 40
1
 40
1
 10
39.267986
 20
-99.239153
 30
0.0
 10
39.369034
 20
-99.239153
 30
0.0
 10
39.465943
 20
-99.199012
 30
0.0
 10
39.537394
 20
-99.127561
 30
0.0
  0
SPLINE
  5
3aa
100
AcDbEntity
  8
0
 62
7
100
AcDbSpline
 70
8
 71
3
 72
8
 73
4
 74
0
 40
0
 40
0
 40
0
 40
0
 40
1
 40
1
 40
1
 40
1
 10
39.537394
 20
-99.127561
 30
0.0
 10
39.608845
 20
-99.056110
 30
0.0
 10
39.648986
 20
-98.959201
 30
0.0
 10
39.648986
 20
-98.858153
 30
0.0
  0
LWPOLYLINE
  5
3ab
100
AcDbEntity
  8
0
 62
7
100
AcDbPolyline
 90
2
 70
0
 10
124.929462
 20
-96.655131
 30
0.0
 10
136.928418
 20
-96.655131
 30
0.0
  0
SPLINE
  5
3ac
100
AcDbEntity
  8
0
 62
7
100
AcDbSpline
 70
8
 71
3
 72
8
 73
4
 74
0
 40
0
 40
0
 40
0
 40
0
 40
1
 40
1
 40
1
 40
1
 10
8.495897
 20
-79.270533
 30
0.0
 10
8.394850
 20
-79.270533
 30
0.0
 10
8.297941
 20
-79.310674
 30
0.0
 10
8.226490
 20
-79.382125
 30
0.0
  0
SPLINE
  5
3ad
100
AcDbEntity
  8
0
 62
7
100
AcDbSpline
 70
8
 71
3
 72
8
 73
4
 74
0
 40
0
 40
0
 40
0
 40
0
 40
1
 40
1
 40
1
 40
1
 10
8.226490
 20
-79.382125
 30
0.0
 10
8.155038
 20
-79.453577
 30
0.0
 10
8.114897
 20
-79.550485
 30
0.0
 10
8.114897
 20
-79.651533
 30
0.0
  0
LWPOLYLINE
  5
3ae
100
AcDbEntity
  8
0
 62
7
100
AcDbPolyline
 90
2
 70
0
 10
8.114897
 20
-79.651533
 30
0.0
 10
8.114897
 20
-98.890660
 30
0.0
  0
SPLINE
  5
3af
100
AcDbEntity
  8
0
 62
7
100
AcDbSpline
 70
8
 71
3
 72
8
 73
4
 74
0
 40
0
 40
0
 40
0
 40
0
 40
1
 40
1
 40
1
 40
1
 10
8.114897
 20
-98.890660
 30
0.0
 10
8.114897
 20
-99.101081
 30
0.0
 10
8.285477
 20
-99.251853
 30
0.0
 10
8.495897
 20
-99.251853
 30
0.0
  0
LWPOLYLINE
  5
3b0
100
AcDbEntity
  8
0
 62
7
100
AcDbPolyline
 90
2
 70
0
 10
8.495897
 20
-99.251853
 30
0.0
 10
39.267986
 20
-99.239153
 30
0.0
  0
LWPOLYLINE
  5
3b1
100
AcDbEntity
  8
0
 62
7
100
AcDbPolyline
 90
2
 70
0
 10
39.267986
 20
-79.257833
 30
0.0
 10
8.495897
 20
-79.270533
 30
0.0
  0
LWPOLYLINE
  5
3b2
100
AcDbEntity
  8
0
 62
7
100
AcDbPolyline
 90
2
 70
0
 10
179.662757
 20
-101.678871
 30
0.0
 10
179.662757
 20
-117.849484
 30
0.0
  0
LWPOLYLINE
  5
3b3
100
AcDbEntity
  8
0
 62
7
100
AcDbPolyline
 90
2
 70
0
 10
180.043757
 20
-118.230483
 30
0.0
 10
186.774755
 20
-118.230483
 30
0.0
  0
SPLINE
  5
3b4
100
AcDbEntity
  8
0
 62
7
100
AcDbSpline
 70
8
 71
3
 72
8
 73
4
 74
0
 40
0
 40
0
 40
0
 40
0
 40
1
 40
1
 40
1
 40
1
 10
186.774755
 20
-118.230483
 30
0.0
 10
186.875802
 20
-118.230483
 30
0.0
 10
186.972711
 20
-118.190342
 30
0.0
 10
187.044162
 20
-118.118891
 30
0.0
  0
SPLINE
  5
3b5
100
AcDbEntity
  8
0
 62
7
100
AcDbSpline
 70
8
 71
3
 72
8
 73
4
 74
0
 40
0
 40
0
 40
0
 40
0
 40
1
 40
1
 40
1
 40
1
 10
187.044162
 20
-118.118891
 30
0.0
 10
187.115613
 20
-118.047440
 30
0.0
 10
187.155754
 20
-117.950531
 30
0.0
 10
187.155754
 20
-117.849484
 30
0.0
  0
SPLINE
  5
3b6
100
AcDbEntity
  8
0
 62
7
100
AcDbSpline
 70
8
 71
3
 72
8
 73
4
 74
0
 40
0
 40
0
 40
0
 40
0
 40
1
 40
1
 40
1
 40
1
 10
179.662757
 20
-117.849484
 30
0.0
 10
179.662757
 20
-117.950531
 30
0.0
 10
179.702898
 20
-118.047440
 30
0.0
 10
179.774349
 20
-118.118891
 30
0.0
  0
SPLINE
  5
3b7
100
AcDbEntity
  8
0
 62
7
100
AcDbSpline
 70
8
 71
3
 72
8
 73
4
 74
0
 40
0
 40
0
 40
0
 40
0
 40
1
 40
1
 40
1
 40
1
 10
179.774349
 20
-118.118891
 30
0.0
 10
179.845800
 20
-118.190342
 30
0.0
 10
179.942709
 20
-118.230483
 30
0.0
 10
180.043757
 20
-118.230483
 30
0.0
  0
LWPOLYLINE
  5
3b8
100
AcDbEntity
  8
0
 62
7
100
AcDbPolyline
 90
2
 70
0
 10
187.159440
 20
-115.766085
 30
0.0
 10
187.159440
 20
-100.780089
 30
0.0
  0
SPLINE
  5
3b9
100
AcDbEntity
  8
0
 62
7
100
AcDbSpline
 70
8
 71
3
 72
8
 73
4
 74
0
 40
0
 40
0
 40
0
 40
0
 40
1
 40
1
 40
1
 40
1
 10
79.857174
 20
-98.307827
 30
0.0
 10
79.756126
 20
-98.307827
 30
0.0
 10
79.659217
 20
-98.347968
 30
0.0
 10
79.587766
 20
-98.419419
 30
0.0
  0
SPLINE
  5
3ba
100
AcDbEntity
  8
0
 62
7
100
AcDbSpline
 70
8
 71
3
 72
8
 73
4
 74
0
 40
0
 40
0
 40
0
 40
0
 40
1
 40
1
 40
1
 40
1
 10
79.587766
 20
-98.419419
 30
0.0
 10
79.516315
 20
-98.490871
 30
0.0
 10
79.476174
 20
-98.587779
 30
0.0
 10
79.476174
 20
-98.688827
 30
0.0
  0
LWPOLYLINE
  5
3bb
100
AcDbEntity
  8
0
 62
7
100
AcDbPolyline
 90
2
 70
0
 10
79.476174
 20
-98.688827
 30
0.0
 10
79.476174
 20
-117.927954
 30
0.0
  0
LWPOLYLINE
  5
3bc
100
AcDbEntity
  8
0
 62
7
100
AcDbPolyline
 90
2
 70
0
 10
79.857174
 20
-118.289147
 30
0.0
 10
86.588174
 20
-118.289147
 30
0.0
  0
SPLINE
  5
3bd
100
AcDbEntity
  8
0
 62
7
100
AcDbSpline
 70
8
 71
3
 72
8
 73
4
 74
0
 40
0
 40
0
 40
0
 40
0
 40
1
 40
1
 40
1
 40
1
 10
86.588174
 20
-118.289147
 30
0.0
 10
86.689221
 20
-118.289147
 30
0.0
 10
86.786130
 20
-118.249006
 30
0.0
 10
86.857582
 20
-118.177555
 30
0.0
  0
SPLINE
  5
3be
100
AcDbEntity
  8
0
 62
7
100
AcDbSpline
 70
8
 71
3
 72
8
 73
4
 74
0
 40
0
 40
0
 40
0
 40
0
 40
1
 40
1
 40
1
 40
1
 10
86.857582
 20
-118.177555
 30
0.0
 10
86.929033
 20
-118.106104
 30
0.0
 10
86.969174
 20
-118.009195
 30
0.0
 10
86.969174
 20
-117.908147
 30
0.0
  0
SPLINE
  5
3bf
100
AcDbEntity
  8
0
 62
7
100
AcDbSpline
 70
8
 71
3
 72
8
 73
4
 74
0
 40
0
 40
0
 40
0
 40
0
 40
1
 40
1
 40
1
 40
1
 10
79.476174
 20
-117.908147
 30
0.0
 10
79.476174
 20
-118.009195
 30
0.0
 10
79.516315
 20
-118.106104
 30
0.0
 10
79.587766
 20
-118.177555
 30
0.0
  0
SPLINE
  5
3c0
100
AcDbEntity
  8
0
 62
7
100
AcDbSpline
 70
8
 71
3
 72
8
 73
4
 74
0
 40
0
 40
0
 40
0
 40
0
 40
1
 40
1
 40
1
 40
1
 10
79.587766
 20
-118.177555
 30
0.0
 10
79.659217
 20
-118.249006
 30
0.0
 10
79.756126
 20
-118.289147
 30
0.0
 10
79.857174
 20
-118.289147
 30
0.0
  0
LWPOLYLINE
  5
3c1
100
AcDbEntity
  8
0
 62
7
100
AcDbPolyline
 90
2
 70
0
 10
86.970634
 20
-117.867754
 30
0.0
 10
86.970634
 20
-101.726503
 30
0.0
  0
SPLINE
  5
3c2
100
AcDbEntity
  8
0
 62
7
100
AcDbSpline
 70
8
 71
3
 72
8
 73
4
 74
0
 40
0
 40
0
 40
0
 40
0
 40
1
 40
1
 40
1
 40
1
 10
159.409944
 20
-18.341408
 30
0.0
 10
158.194917
 20
-18.341408
 30
0.0
 10
157.209944
 20
-19.326381
 30
0.0
 10
157.209944
 20
-20.541408
 30
0.0
  0
SPLINE
  5
3c3
100
AcDbEntity
  8
0
 62
7
100
AcDbSpline
 70
8
 71
3
 72
8
 73
4
 74
0
 40
0
 40
0
 40
0
 40
0
 40
1
 40
1
 40
1
 40
1
 10
157.209944
 20
-20.541408
 30
0.0
 10
157.209944
 20
-21.756434
 30
0.0
 10
158.194917
 20
-22.741408
 30
0.0
 10
159.409944
 20
-22.741408
 30
0.0
  0
SPLINE
  5
3c4
100
AcDbEntity
  8
0
 62
7
100
AcDbSpline
 70
8
 71
3
 72
8
 73
4
 74
0
 40
0
 40
0
 40
0
 40
0
 40
1
 40
1
 40
1
 40
1
 10
159.409944
 20
-22.741408
 30
0.0
 10
160.624970
 20
-22.741408
 30
0.0
 10
161.609944
 20
-21.756434
 30
0.0
 10
161.609944
 20
-20.541408
 30
0.0
  0
SPLINE
  5
3c5
100
AcDbEntity
  8
0
 62
7
100
AcDbSpline
 70
8
 71
3
 72
8
 73
4
 74
0
 40
0
 40
0
 40
0
 40
0
 40
1
 40
1
 40
1
 40
1
 10
161.609944
 20
-20.541408
 30
0.0
 10
161.609944
 20
-19.957932
 30
0.0
 10
161.378159
 20
-19.398353
 30
0.0
 10
160.965579
 20
-18.985773
 30
0.0
  0
SPLINE
  5
3c6
100
AcDbEntity
  8
0
 62
7
100
AcDbSpline
 70
8
 71
3
 72
8
 73
4
 74
0
 40
0
 40
0
 40
0
 40
0
 40
1
 40
1
 40
1
 40
1
 10
160.965579
 20
-18.985773
 30
0.0
 10
160.552998
 20
-18.573193
 30
0.0
 10
159.993420
 20
-18.341408
 30
0.0
 10
159.409944
 20
-18.341408
 30
0.0
  0
LWPOLYLINE
  5
3c7
100
AcDbEntity
  8
0
 62
7
100
AcDbPolyline
 90
2
 70
0
 10
186.774755
 20
-98.261055
 30
0.0
 10
79.857174
 20
-98.307827
 30
0.0
  0
SPLINE
  5
3c8
100
AcDbEntity
  8
0
 62
7
100
AcDbSpline
 70
8
 71
3
 72
8
 73
4
 74
0
 40
0
 40
0
 40
0
 40
0
 40
1
 40
1
 40
1
 40
1
 10
289.826203
 20
-18.341408
 30
0.0
 10
288.936386
 20
-18.341408
 30
0.0
 10
288.134186
 20
-18.877421
 30
0.0
 10
287.793668
 20
-19.699504
 30
0.0
  0
SPLINE
  5
3c9
100
AcDbEntity
  8
0
 62
7
100
AcDbSpline
 70
8
 71
3
 72
8
 73
4
 74
0
 40
0
 40
0
 40
0
 40
0
 40
1
 40
1
 40
1
 40
1
 10
287.793668
 20
-19.699504
 30
0.0
 10
287.453149
 20
-20.521588
 30
0.0
 10
287.641372
 20
-21.467847
 30
0.0
 10
288.270568
 20
-22.097043
 30
0.0
  0
SPLINE
  5
3ca
100
AcDbEntity
  8
0
 62
7
100
AcDbSpline
 70
8
 71
3
 72
8
 73
4
 74
0
 40
0
 40
0
 40
0
 40
0
 40
1
 40
1
 40
1
 40
1
 10
288.270568
 20
-22.097043
 30
0.0
 10
288.899763
 20
-22.726239
 30
0.0
 10
289.846023
 20
-22.914461
 30
0.0
 10
290.668106
 20
-22.573943
 30
0.0
  0
SPLINE
  5
3cb
100
AcDbEntity
  8
0
 62
7
100
AcDbSpline
 70
8
 71
3
 72
8
 73
4
 74
0
 40
0
 40
0
 40
0
 40
0
 40
1
 40
1
 40
1
 40
1
 10
290.668106
 20
-22.573943
 30
0.0
 10
291.490190
 20
-22.233425
 30
0.0
 10
292.026203
 20
-21.431225
 30
0.0
 10
292.026203
 20
-20.541408
 30
0.0
  0
SPLINE
  5
3cc
100
AcDbEntity
  8
0
 62
7
100
AcDbSpline
 70
8
 71
3
 72
8
 73
4
 74
0
 40
0
 40
0
 40
0
 40
0
 40
1
 40
1
 40
1
 40
1
 10
292.026203
 20
-20.541408
 30
0.0
 10
292.026203
 20
-19.957932
 30
0.0
 10
291.794418
 20
-19.398353
 30
0.0
 10
291.381838
 20
-18.985773
 30
0.0
  0
SPLINE
  5
3cd
100
AcDbEntity
  8
0
 62
7
100
AcDbSpline
 70
8
 71
3
 72
8
 73
4
 74
0
 40
0
 40
0
 40
0
 40
0
 40
1
 40
1
 40
1
 40
1
 10
291.381838
 20
-18.985773
 30
0.0
 10
290.969258
 20
-18.573193
 30
0.0
 10
290.409679
 20
-18.341408
 30
0.0
 10
289.826203
 20
-18.341408
 30
0.0
  0
LWPOLYLINE
  5
3ce
100
AcDbEntity
  8
0
 62
7
100
AcDbPolyline
 90
1
 70
1
 10
159.409944
 20
-18.341408
 30
0.0
  0
SPLINE
  5
3cf
100
AcDbEntity
  8
0
 62
7
100
AcDbSpline
 70
8
 71
3
 72
8
 73
4
 74
0
 40
0
 40
0
 40
0
 40
0
 40
1
 40
1
 40
1
 40
1
 10
27.698285
 20
-18.341408
 30
0.0
 10
26.808468
 20
-18.341408
 30
0.0
 10
26.006268
 20
-18.877421
 30
0.0
 10
25.665750
 20
-19.699504
 30
0.0
  0
SPLINE
  5
3d0
100
AcDbEntity
  8
0
 62
7
100
AcDbSpline
 70
8
 71
3
 72
8
 73
4
 74
0
 40
0
 40
0
 40
0
 40
0
 40
1
 40
1
 40
1
 40
1
 10
25.665750
 20
-19.699504
 30
0.0
 10
25.325232
 20
-20.521588
 30
0.0
 10
25.513454
 20
-21.467847
 30
0.0
 10
26.142650
 20
-22.097043
 30
0.0
  0
SPLINE
  5
3d1
100
AcDbEntity
  8
0
 62
7
100
AcDbSpline
 70
8
 71
3
 72
8
 73
4
 74
0
 40
0
 40
0
 40
0
 40
0
 40
1
 40
1
 40
1
 40
1
 10
26.142650
 20
-22.097043
 30
0.0
 10
26.771846
 20
-22.726239
 30
0.0
 10
27.718105
 20
-22.914461
 30
0.0
 10
28.540188
 20
-22.573943
 30
0.0
  0
SPLINE
  5
3d2
100
AcDbEntity
  8
0
 62
7
100
AcDbSpline
 70
8
 71
3
 72
8
 73
4
 74
0
 40
0
 40
0
 40
0
 40
0
 40
1
 40
1
 40
1
 40
1
 10
28.540188
 20
-22.573943
 30
0.0
 10
29.362272
 20
-22.233425
 30
0.0
 10
29.898285
 20
-21.431225
 30
0.0
 10
29.898285
 20
-20.541408
 30
0.0
  0
SPLINE
  5
3d3
100
AcDbEntity
  8
0
 62
7
100
AcDbSpline
 70
8
 71
3
 72
8
 73
4
 74
0
 40
0
 40
0
 40
0
 40
0
 40
1
 40
1
 40
1
 40
1
 10
29.898285
 20
-20.541408
 30
0.0
 10
29.898285
 20
-19.957932
 30
0.0
 10
29.666500
 20
-19.398353
 30
0.0
 10
29.253920
 20
-18.985773
 30
0.0
  0
SPLINE
  5
3d4
100
AcDbEntity
  8
0
 62
7
100
AcDbSpline
 70
8
 71
3
 72
8
 73
4
 74
0
 40
0
 40
0
 40
0
 40
0
 40
1
 40
1
 40
1
 40
1
 10
29.253920
 20
-18.985773
 30
0.0
 10
28.841340
 20
-18.573193
 30
0.0
 10
28.281761
 20
-18.341408
 30
0.0
 10
27.698285
 20
-18.341408
 30
0.0
  0
LWPOLYLINE
  5
3d5
100
AcDbEntity
  8
0
 62
7
100
AcDbPolyline
 90
1
 70
1
 10
289.826203
 20
-18.341408
 30
0.0
  0
SPLINE
  5
3d6
100
AcDbEntity
  8
0
 62
7
100
AcDbSpline
 70
8
 71
3
 72
8
 73
4
 74
0
 40
0
 40
0
 40
0
 40
0
 40
1
 40
1
 40
1
 40
1
 10
274.713207
 20
-86.667386
 30
0.0
 10
273.823390
 20
-86.667386
 30
0.0
 10
273.021191
 20
-87.203399
 30
0.0
 10
272.680672
 20
-88.025483
 30
0.0
  0
SPLINE
  5
3d7
100
AcDbEntity
  8
0
 62
7
100
AcDbSpline
 70
8
 71
3
 72
8
 73
4
 74
0
 40
0
 40
0
 40
0
 40
0
 40
1
 40
1
 40
1
 40
1
 10
272.680672
 20
-88.025483
 30
0.0
 10
272.340154
 20
-88.847567
 30
0.0
 10
272.528377
 20
-89.793826
 30
0.0
 10
273.157572
 20
-90.423021
 30
0.0
  0
SPLINE
  5
3d8
100
AcDbEntity
  8
0
 62
7
100
AcDbSpline
 70
8
 71
3
 72
8
 73
4
 74
0
 40
0
 40
0
 40
0
 40
0
 40
1
 40
1
 40
1
 40
1
 10
273.157572
 20
-90.423021
 30
0.0
 10
273.786768
 20
-91.052217
 30
0.0
 10
274.733027
 20
-91.240440
 30
0.0
 10
275.555111
 20
-90.899922
 30
0.0
  0
SPLINE
  5
3d9
100
AcDbEntity
  8
0
 62
7
100
AcDbSpline
 70
8
 71
3
 72
8
 73
4
 74
0
 40
0
 40
0
 40
0
 40
0
 40
1
 40
1
 40
1
 40
1
 10
275.555111
 20
-90.899922
 30
0.0
 10
276.377195
 20
-90.559403
 30
0.0
 10
276.913207
 20
-89.757203
 30
0.0
 10
276.913207
 20
-88.867387
 30
0.0
  0
SPLINE
  5
3da
100
AcDbEntity
  8
0
 62
7
100
AcDbSpline
 70
8
 71
3
 72
8
 73
4
 74
0
 40
0
 40
0
 40
0
 40
0
 40
1
 40
1
 40
1
 40
1
 10
276.913207
 20
-88.867387
 30
0.0
 10
276.913207
 20
-88.283910
 30
0.0
 10
276.681422
 20
-87.724332
 30
0.0
 10
276.268842
 20
-87.311752
 30
0.0
  0
SPLINE
  5
3db
100
AcDbEntity
  8
0
 62
7
100
AcDbSpline
 70
8
 71
3
 72
8
 73
4
 74
0
 40
0
 40
0
 40
0
 40
0
 40
1
 40
1
 40
1
 40
1
 10
276.268842
 20
-87.311752
 30
0.0
 10
275.856262
 20
-86.899171
 30
0.0
 10
275.296684
 20
-86.667386
 30
0.0
 10
274.713207
 20
-86.667386
 30
0.0
  0
LWPOLYLINE
  5
3dc
100
AcDbEntity
  8
0
 62
7
100
AcDbPolyline
 90
1
 70
1
 10
27.698285
 20
-18.341408
 30
0.0
  0
SPLINE
  5
3dd
100
AcDbEntity
  8
0
 62
7
100
AcDbSpline
 70
8
 71
3
 72
8
 73
4
 74
0
 40
0
 40
0
 40
0
 40
0
 40
1
 40
1
 40
1
 40
1
 10
42.811280
 20
-86.667386
 30
0.0
 10
41.921463
 20
-86.667386
 30
0.0
 10
41.119263
 20
-87.203399
 30
0.0
 10
40.778745
 20
-88.025483
 30
0.0
  0
SPLINE
  5
3de
100
AcDbEntity
  8
0
 62
7
100
AcDbSpline
 70
8
 71
3
 72
8
 73
4
 74
0
 40
0
 40
0
 40
0
 40
0
 40
1
 40
1
 40
1
 40
1
 10
40.778745
 20
-88.025483
 30
0.0
 10
40.438227
 20
-88.847567
 30
0.0
 10
40.626450
 20
-89.793826
 30
0.0
 10
41.255645
 20
-90.423021
 30
0.0
  0
SPLINE
  5
3df
100
AcDbEntity
  8
0
 62
7
100
AcDbSpline
 70
8
 71
3
 72
8
 73
4
 74
0
 40
0
 40
0
 40
0
 40
0
 40
1
 40
1
 40
1
 40
1
 10
41.255645
 20
-90.423021
 30
0.0
 10
41.884841
 20
-91.052217
 30
0.0
 10
42.831100
 20
-91.240440
 30
0.0
 10
43.653184
 20
-90.899922
 30
0.0
  0
SPLINE
  5
3e0
100
AcDbEntity
  8
0
 62
7
100
AcDbSpline
 70
8
 71
3
 72
8
 73
4
 74
0
 40
0
 40
0
 40
0
 40
0
 40
1
 40
1
 40
1
 40
1
 10
43.653184
 20
-90.899922
 30
0.0
 10
44.475267
 20
-90.559403
 30
0.0
 10
45.011280
 20
-89.757203
 30
0.0
 10
45.011280
 20
-88.867387
 30
0.0
  0
SPLINE
  5
3e1
100
AcDbEntity
  8
0
 62
7
100
AcDbSpline
 70
8
 71
3
 72
8
 73
4
 74
0
 40
0
 40
0
 40
0
 40
0
 40
1
 40
1
 40
1
 40
1
 10
45.011280
 20
-88.867387
 30
0.0
 10
45.011280
 20
-88.283910
 30
0.0
 10
44.779495
 20
-87.724332
 30
0.0
 10
44.366915
 20
-87.311752
 30
0.0
  0
SPLINE
  5
3e2
100
AcDbEntity
  8
0
 62
7
100
AcDbSpline
 70
8
 71
3
 72
8
 73
4
 74
0
 40
0
 40
0
 40
0
 40
0
 40
1
 40
1
 40
1
 40
1
 10
44.366915
 20
-87.311752
 30
0.0
 10
43.954335
 20
-86.899171
 30
0.0
 10
43.394756
 20
-86.667386
 30
0.0
 10
42.811280
 20
-86.667386
 30
0.0
  0
LWPOLYLINE
  5
3e3
100
AcDbEntity
  8
0
 62
7
100
AcDbPolyline
 90
1
 70
1
 10
274.713207
 20
-86.667386
 30
0.0
  0
LWPOLYLINE
  5
3e4
100
AcDbEntity
  8
0
 62
7
100
AcDbPolyline
 90
1
 70
1
 10
42.811280
 20
-86.667386
 30
0.0
  0
LWPOLYLINE
  5
3e5
100
AcDbEntity
  8
0
 62
7
100
AcDbPolyline
 90
2
 70
0
 10
39.648986
 20
-79.650725
 30
0.0
 10
39.648986
 20
-98.858153
 30
0.0
  0
SPLINE
  5
3e6
100
AcDbEntity
  8
0
 62
7
100
AcDbSpline
 70
8
 71
3
 72
8
 73
4
 74
0
 40
0
 40
0
 40
0
 40
0
 40
1
 40
1
 40
1
 40
1
 10
186.774755
 20
-98.261055
 30
0.0
 10
186.875802
 20
-98.261055
 30
0.0
 10
186.972711
 20
-98.301196
 30
0.0
 10
187.044162
 20
-98.372648
 30
0.0
  0
SPLINE
  5
3e7
100
AcDbEntity
  8
0
 62
7
100
AcDbSpline
 70
8
 71
3
 72
8
 73
4
 74
0
 40
0
 40
0
 40
0
 40
0
 40
1
 40
1
 40
1
 40
1
 10
187.044162
 20
-98.372648
 30
0.0
 10
187.115613
 20
-98.444099
 30
0.0
 10
187.155754
 20
-98.541008
 30
0.0
 10
187.155754
 20
-98.642055
 30
0.0
  0
LWPOLYLINE
  5
3e8
100
AcDbEntity
  8
0
 62
7
100
AcDbPolyline
 90
2
 70
0
 10
187.155754
 20
-98.642055
 30
0.0
 10
187.155754
 20
-117.849484
 30
0.0
  0
SPLINE
  5
3e9
100
AcDbEntity
  8
0
 62
7
100
AcDbSpline
 70
8
 71
3
 72
8
 73
4
 74
0
 40
0
 40
0
 40
0
 40
0
 40
1
 40
1
 40
1
 40
1
 10
282.461881
 20
-60.778849
 30
0.0
 10
282.461881
 20
-60.568427
 30
0.0
 10
282.291295
 20
-60.385956
 30
0.0
 10
282.080881
 20
-60.385956
 30
0.0
  0
SPLINE
  5
3ea
100
AcDbEntity
  8
0
 62
7
100
AcDbSpline
 70
8
 71
3
 72
8
 73
4
 74
0
 40
0
 40
0
 40
0
 40
0
 40
1
 40
1
 40
1
 40
1
 10
282.080881
 20
-80.367277
 30
0.0
 10
282.181929
 20
-80.367277
 30
0.0
 10
282.278838
 20
-80.327136
 30
0.0
 10
282.350289
 20
-80.255684
 30
0.0
  0
SPLINE
  5
3eb
100
AcDbEntity
  8
0
 62
7
100
AcDbSpline
 70
8
 71
3
 72
8
 73
4
 74
0
 40
0
 40
0
 40
0
 40
0
 40
1
 40
1
 40
1
 40
1
 10
282.350289
 20
-80.255684
 30
0.0
 10
282.421740
 20
-80.184233
 30
0.0
 10
282.461881
 20
-80.087324
 30
0.0
 10
282.461881
 20
-79.986277
 30
0.0
  0
LWPOLYLINE
  5
3ec
100
AcDbEntity
  8
0
 62
7
100
AcDbPolyline
 90
2
 70
0
 10
179.671004
 20
-101.668307
 30
0.0
 10
86.979936
 20
-101.715078
 30
0.0
  0
SPLINE
  5
3ed
100
AcDbEntity
  8
0
 62
7
100
AcDbSpline
 70
8
 71
3
 72
8
 73
4
 74
0
 40
0
 40
0
 40
0
 40
0
 40
1
 40
1
 40
1
 40
1
 10
251.308778
 20
-60.398656
 30
0.0
 10
251.207731
 20
-60.398656
 30
0.0
 10
251.110822
 20
-60.438797
 30
0.0
 10
251.039371
 20
-60.510249
 30
0.0
  0
SPLINE
  5
3ee
100
AcDbEntity
  8
0
 62
7
100
AcDbSpline
 70
8
 71
3
 72
8
 73
4
 74
0
 40
0
 40
0
 40
0
 40
0
 40
1
 40
1
 40
1
 40
1
 10
251.039371
 20
-60.510249
 30
0.0
 10
250.967919
 20
-60.581700
 30
0.0
 10
250.927779
 20
-60.678609
 30
0.0
 10
250.927779
 20
-60.779656
 30
0.0
  0
LWPOLYLINE
  5
3ef
100
AcDbEntity
  8
0
 62
7
100
AcDbPolyline
 90
2
 70
0
 10
250.927779
 20
-60.779656
 30
0.0
 10
250.927779
 20
-80.018784
 30
0.0
  0
SPLINE
  5
3f0
100
AcDbEntity
  8
0
 62
7
100
AcDbSpline
 70
8
 71
3
 72
8
 73
4
 74
0
 40
0
 40
0
 40
0
 40
0
 40
1
 40
1
 40
1
 40
1
 10
250.927779
 20
-80.018784
 30
0.0
 10
250.927779
 20
-80.229205
 30
0.0
 10
251.098339
 20
-80.379977
 30
0.0
 10
251.308778
 20
-80.379977
 30
0.0
  0
LWPOLYLINE
  5
3f1
100
AcDbEntity
  8
0
 62
7
100
AcDbPolyline
 90
2
 70
0
 10
251.308778
 20
-80.379977
 30
0.0
 10
282.080881
 20
-80.367277
 30
0.0
  0
LWPOLYLINE
  5
3f2
100
AcDbEntity
  8
0
 62
7
100
AcDbPolyline
 90
2
 70
0
 10
282.080881
 20
-60.385956
 30
0.0
 10
251.308778
 20
-60.398656
 30
0.0
  0
SPLINE
  5
3f3
100
AcDbEntity
  8
0
 62
7
100
AcDbSpline
 70
8
 71
3
 72
8
 73
4
 74
0
 40
0
 40
0
 40
0
 40
0
 40
1
 40
1
 40
1
 40
1
 10
284.737136
 20
-22.557288
 30
0.0
 10
284.737136
 20
-22.346867
 30
0.0
 10
284.566575
 20
-22.164396
 30
0.0
 10
284.356137
 20
-22.164396
 30
0.0
  0
SPLINE
  5
3f4
100
AcDbEntity
  8
0
 62
7
100
AcDbSpline
 70
8
 71
3
 72
8
 73
4
 74
0
 40
0
 40
0
 40
0
 40
0
 40
1
 40
1
 40
1
 40
1
 10
284.356137
 20
-42.145714
 30
0.0
 10
284.457184
 20
-42.145714
 30
0.0
 10
284.554093
 20
-42.105573
 30
0.0
 10
284.625544
 20
-42.034122
 30
0.0
  0
SPLINE
  5
3f5
100
AcDbEntity
  8
0
 62
7
100
AcDbSpline
 70
8
 71
3
 72
8
 73
4
 74
0
 40
0
 40
0
 40
0
 40
0
 40
1
 40
1
 40
1
 40
1
 10
284.625544
 20
-42.034122
 30
0.0
 10
284.696995
 20
-41.962670
 30
0.0
 10
284.737136
 20
-41.865762
 30
0.0
 10
284.737136
 20
-41.764714
 30
0.0
  0
LWPOLYLINE
  5
3f6
100
AcDbEntity
  8
0
 62
7
100
AcDbPolyline
 90
2
 70
0
 10
282.461881
 20
-60.778849
 30
0.0
 10
282.461881
 20
-79.986277
 30
0.0
  0
SPLINE
  5
3f7
100
AcDbEntity
  8
0
 62
7
100
AcDbSpline
 70
8
 71
3
 72
8
 73
4
 74
0
 40
0
 40
0
 40
0
 40
0
 40
1
 40
1
 40
1
 40
1
 10
253.584069
 20
-22.177096
 30
0.0
 10
253.483022
 20
-22.177096
 30
0.0
 10
253.386113
 20
-22.217237
 30
0.0
 10
253.314661
 20
-22.288688
 30
0.0
  0
SPLINE
  5
3f8
100
AcDbEntity
  8
0
 62
7
100
AcDbSpline
 70
8
 71
3
 72
8
 73
4
 74
0
 40
0
 40
0
 40
0
 40
0
 40
1
 40
1
 40
1
 40
1
 10
253.314661
 20
-22.288688
 30
0.0
 10
253.243210
 20
-22.360139
 30
0.0
 10
253.203069
 20
-22.457048
 30
0.0
 10
253.203069
 20
-22.558095
 30
0.0
  0
LWPOLYLINE
  5
3f9
100
AcDbEntity
  8
0
 62
7
100
AcDbPolyline
 90
2
 70
0
 10
253.203069
 20
-22.558095
 30
0.0
 10
253.203069
 20
-41.797221
 30
0.0
  0
SPLINE
  5
3fa
100
AcDbEntity
  8
0
 62
7
100
AcDbSpline
 70
8
 71
3
 72
8
 73
4
 74
0
 40
0
 40
0
 40
0
 40
0
 40
1
 40
1
 40
1
 40
1
 10
253.203069
 20
-41.797221
 30
0.0
 10
253.203069
 20
-42.007642
 30
0.0
 10
253.373650
 20
-42.158414
 30
0.0
 10
253.584069
 20
-42.158414
 30
0.0
  0
LWPOLYLINE
  5
3fb
100
AcDbEntity
  8
0
 62
7
100
AcDbPolyline
 90
2
 70
0
 10
253.584069
 20
-42.158414
 30
0.0
 10
284.356137
 20
-42.145714
 30
0.0
  0
LWPOLYLINE
  5
3fc
100
AcDbEntity
  8
0
 62
7
100
AcDbPolyline
 90
2
 70
0
 10
284.356137
 20
-22.164396
 30
0.0
 10
253.584069
 20
-22.177096
 30
0.0
  0
LWPOLYLINE
  5
3fd
100
AcDbEntity
  8
0
 62
7
100
AcDbPolyline
 90
2
 70
0
 10
284.737136
 20
-22.557288
 30
0.0
 10
284.737136
 20
-41.764714
 30
0.0
  0
ENDSEC
  0
SECTION
  2
OBJECTS
  0
DICTIONARY
  5
C
330
0
100
AcDbDictionary
  3
ACAD_GROUP
350
D
  3
ACAD_MLINESTYLE
350
17
  0
DICTIONARY
  5
D
330
C
100
AcDbDictionary
  0
DICTIONARY
  5
1A
330
C
100
AcDbDictionary
  0
DICTIONARY
  5
17
330
C
100
AcDbDictionary
  3
STANDARD
350
18
  0
DICTIONARY
  5
19
330
C
100
AcDbDictionary
  0
ENDSEC
  0
EOF
