  0
SECTION
  2
HEADER
  9
$ACADVER
  1
AC1014
  9
$HANDSEED
  5
FFFF
  9
$MEASUREMENT
 70
     1
  0
ENDSEC
  0
SECTION
  2
TABLES
  0
TABLE
  2
VPORT
  5
8
330
0
100
AcDbSymbolTable
 70
     4
  0
VPORT
  5
2E
330
8
100
AcDbSymbolTableRecord
100
AcDbViewportTableRecord
  2
*ACTIVE
 70
     0
 10
0.0
 20
0.0
 11
1.0
 21
1.0
 12
210.0
 22
148.5
 13
0.0
 23
0.0
 14
10.0
 24
10.0
 15
10.0
 25
10.0
 16
0.0
 26
0.0
 36
1.0
 17
0.0
 27
0.0
 37
0.0
 40
341.0
 41
1.24
 42
50.0
 43
0.0
 44
0.0
 50
0.0
 51
0.0
 71
     0
 72
   100
 73
     1
 74
     3
 75
     0
 76
     0
 77
     0
 78
     0
  0
ENDTAB
  0
TABLE
  2
LTYPE
  5
5
330
0
100
AcDbSymbolTable
 70
     1
  0
LTYPE
  5
14
330
5
100
AcDbSymbolTableRecord
100
AcDbLinetypeTableRecord
  2
BYBLOCK
 70
     0
  3

 72
    65
 73
     0
 40
0.0
  0
LTYPE
  5
15
330
5
100
AcDbSymbolTableRecord
100
AcDbLinetypeTableRecord
  2
BYLAYER
 70
     0
  3

 72
    65
 73
     0
 40
0.0
  0
LTYPE
  5
16
330
5
100
AcDbSymbolTableRecord
100
AcDbLinetypeTableRecord
  2
CONTINUOUS
 70
     0
  3
Solid line
 72
    65
 73
     0
 40
0.0
  0
ENDTAB
  0
TABLE
  2
LAYER
  5
2
100
AcDbSymbolTable
 70
1
  0
LAYER
  5
50
100
AcDbSymbolTableRecord
100
AcDbLayerTableRecord
  2
0
 70
0
  6
CONTINUOUS
  0
ENDTAB
  0
TABLE
  2
STYLE
  5
3
330
0
100
AcDbSymbolTable
 70
     1
  0
STYLE
  5
11
330
3
100
AcDbSymbolTableRecord
100
AcDbTextStyleTableRecord
  2
STANDARD
 70
     0
 40
0.0
 41
1.0
 50
0.0
 71
     0
 42
2.5
  3
txt
  4

  0
ENDTAB
  0
TABLE
  2
VIEW
  5
6
330
0
100
AcDbSymbolTable
 70
     0
  0
ENDTAB
  0
TABLE
  2
UCS
  5
7
330
0
100
AcDbSymbolTable
 70
     0
  0
ENDTAB
  0
TABLE
  2
APPID
  5
9
330
0
100
AcDbSymbolTable
 70
     2
  0
APPID
  5
12
330
9
100
AcDbSymbolTableRecord
100
AcDbRegAppTableRecord
  2
ACAD
 70
     0
  0
ENDTAB
  0
TABLE
  2
DIMSTYLE
  5
A
330
0
100
AcDbSymbolTable
 70
     1
  0
DIMSTYLE
105
27
330
A
100
AcDbSymbolTableRecord
100
AcDbDimStyleTableRecord
  2
ISO-25
 70
     0
  3

  4

  5

  6

  7

 40
1.0
 41
2.5
 42
0.625
 43
3.75
 44
1.25
 45
0.0
 46
0.0
 47
0.0
 48
0.0
140
2.5
141
2.5
142
0.0
143
0.03937007874016
144
1.0
145
0.0
146
1.0
147
0.625
 71
     0
 72
     0
 73
     0
 74
     0
 75
     0
 76
     0
 77
     1
 78
     8
170
     0
171
     3
172
     1
173
     0
174
     0
175
     0
176
     0
177
     0
178
     0
270
     2
271
     2
272
     2
273
     2
274
     3
340
11
275
     0
280
     0
281
     0
282
     0
283
     0
284
     8
285
     0
286
     0
287
     3
288
     0
  0
ENDTAB
  0
TABLE
  2
BLOCK_RECORD
  5
1
330
0
100
AcDbSymbolTable
 70
     1
  0
BLOCK_RECORD
  5
1F
330
1
100
AcDbSymbolTableRecord
100
AcDbBlockTableRecord
  2
*MODEL_SPACE
  0
BLOCK_RECORD
  5
1B
330
1
100
AcDbSymbolTableRecord
100
AcDbBlockTableRecord
  2
*PAPER_SPACE
  0
ENDTAB
  0
ENDSEC
  0
SECTION
  2
BLOCKS
  0
BLOCK
  5
20
330
1F
100
AcDbEntity
  8
0
100
AcDbBlockBegin
  2
*MODEL_SPACE
 70
     0
 10
0.0
 20
0.0
 30
0.0
  3
*MODEL_SPACE
  1

  0
ENDBLK
  5
21
330
1F
100
AcDbEntity
  8
0
100
AcDbBlockEnd
  0
BLOCK
  5
1C
330
1B
100
AcDbEntity
 67
     1
  8
0
100
AcDbBlockBegin
  2
*PAPER_SPACE
  1

  0
ENDBLK
  5
1D
330
1B
100
AcDbEntity
 67
     1
  8
0
100
AcDbBlockEnd
  0
ENDSEC
  0
SECTION
  2
ENTITIES
  0
LWPOLYLINE
  5
100
100
AcDbEntity
  8
0
 62
7
100
AcDbPolyline
 90
2
 70
0
 10
0.025000
 20
-3.530733
 30
0.0
 10
0.025000
 20
-27.555091
 30
0.0
  0
LWPOLYLINE
  5
101
100
AcDbEntity
  8
0
 62
7
100
AcDbPolyline
 90
2
 70
0
 10
313.714905
 20
-31.365090
 30
0.0
 10
3.834999
 20
-31.365090
 30
0.0
  0
SPLINE
  5
102
100
AcDbEntity
  8
0
 62
7
100
AcDbSpline
 70
8
 71
3
 72
8
 73
4
 74
0
 40
0
 40
0
 40
0
 40
0
 40
1
 40
1
 40
1
 40
1
 10
317.524903
 20
-3.530733
 30
0.0
 10
317.524903
 20
-2.520259
 30
0.0
 10
317.123494
 20
-1.551170
 30
0.0
 10
316.408981
 20
-0.836657
 30
0.0
  0
SPLINE
  5
103
100
AcDbEntity
  8
0
 62
7
100
AcDbSpline
 70
8
 71
3
 72
8
 73
4
 74
0
 40
0
 40
0
 40
0
 40
0
 40
1
 40
1
 40
1
 40
1
 10
316.408981
 20
-0.836657
 30
0.0
 10
315.694467
 20
-0.122144
 30
0.0
 10
314.725379
 20
0.279266
 30
0.0
 10
313.714905
 20
0.279266
 30
0.0
  0
SPLINE
  5
104
100
AcDbEntity
  8
0
 62
7
100
AcDbSpline
 70
8
 71
3
 72
8
 73
4
 74
0
 40
0
 40
0
 40
0
 40
0
 40
1
 40
1
 40
1
 40
1
 10
0.025000
 20
-27.555091
 30
0.0
 10
0.025000
 20
-28.565566
 30
0.0
 10
0.426409
 20
-29.534654
 30
0.0
 10
1.140923
 20
-30.249168
 30
0.0
  0
SPLINE
  5
105
100
AcDbEntity
  8
0
 62
7
100
AcDbSpline
 70
8
 71
3
 72
8
 73
4
 74
0
 40
0
 40
0
 40
0
 40
0
 40
1
 40
1
 40
1
 40
1
 10
1.140923
 20
-30.249168
 30
0.0
 10
1.855436
 20
-30.963681
 30
0.0
 10
2.824524
 20
-31.365090
 30
0.0
 10
3.834999
 20
-31.365090
 30
0.0
  0
SPLINE
  5
106
100
AcDbEntity
  8
0
 62
7
100
AcDbSpline
 70
8
 71
3
 72
8
 73
4
 74
0
 40
0
 40
0
 40
0
 40
0
 40
1
 40
1
 40
1
 40
1
 10
313.714905
 20
-31.365090
 30
0.0
 10
314.725379
 20
-31.365090
 30
0.0
 10
315.694467
 20
-30.963681
 30
0.0
 10
316.408981
 20
-30.249168
 30
0.0
  0
SPLINE
  5
107
100
AcDbEntity
  8
0
 62
7
100
AcDbSpline
 70
8
 71
3
 72
8
 73
4
 74
0
 40
0
 40
0
 40
0
 40
0
 40
1
 40
1
 40
1
 40
1
 10
316.408981
 20
-30.249168
 30
0.0
 10
317.123494
 20
-29.534654
 30
0.0
 10
317.524903
 20
-28.565566
 30
0.0
 10
317.524903
 20
-27.555091
 30
0.0
  0
SPLINE
  5
108
100
AcDbEntity
  8
0
 62
7
100
AcDbSpline
 70
8
 71
3
 72
8
 73
4
 74
0
 40
0
 40
0
 40
0
 40
0
 40
1
 40
1
 40
1
 40
1
 10
3.834999
 20
0.279266
 30
0.0
 10
2.824524
 20
0.279266
 30
0.0
 10
1.855436
 20
-0.122144
 30
0.0
 10
1.140923
 20
-0.836657
 30
0.0
  0
SPLINE
  5
109
100
AcDbEntity
  8
0
 62
7
100
AcDbSpline
 70
8
 71
3
 72
8
 73
4
 74
0
 40
0
 40
0
 40
0
 40
0
 40
1
 40
1
 40
1
 40
1
 10
1.140923
 20
-0.836657
 30
0.0
 10
0.426409
 20
-1.551170
 30
0.0
 10
0.025000
 20
-2.520259
 30
0.0
 10
0.025000
 20
-3.530733
 30
0.0
  0
LWPOLYLINE
  5
10a
100
AcDbEntity
  8
0
 62
7
100
AcDbPolyline
 90
2
 70
0
 10
317.524903
 20
-3.530733
 30
0.0
 10
317.524903
 20
-27.555091
 30
0.0
  0
SPLINE
  5
10b
100
AcDbEntity
  8
0
 62
7
100
AcDbSpline
 70
8
 71
3
 72
8
 73
4
 74
0
 40
0
 40
0
 40
0
 40
0
 40
1
 40
1
 40
1
 40
1
 10
4.469998
 20
-1.922733
 30
0.0
 10
4.025089
 20
-1.922733
 30
0.0
 10
3.623989
 20
-2.190739
 30
0.0
 10
3.453730
 20
-2.601781
 30
0.0
  0
SPLINE
  5
10c
100
AcDbEntity
  8
0
 62
7
100
AcDbSpline
 70
8
 71
3
 72
8
 73
4
 74
0
 40
0
 40
0
 40
0
 40
0
 40
1
 40
1
 40
1
 40
1
 10
3.453730
 20
-2.601781
 30
0.0
 10
3.283471
 20
-3.012823
 30
0.0
 10
3.377583
 20
-3.485953
 30
0.0
 10
3.692180
 20
-3.800550
 30
0.0
  0
SPLINE
  5
10d
100
AcDbEntity
  8
0
 62
7
100
AcDbSpline
 70
8
 71
3
 72
8
 73
4
 74
0
 40
0
 40
0
 40
0
 40
0
 40
1
 40
1
 40
1
 40
1
 10
3.692180
 20
-3.800550
 30
0.0
 10
4.006778
 20
-4.115148
 30
0.0
 10
4.479908
 20
-4.209260
 30
0.0
 10
4.890950
 20
-4.039000
 30
0.0
  0
SPLINE
  5
10e
100
AcDbEntity
  8
0
 62
7
100
AcDbSpline
 70
8
 71
3
 72
8
 73
4
 74
0
 40
0
 40
0
 40
0
 40
0
 40
1
 40
1
 40
1
 40
1
 10
4.890950
 20
-4.039000
 30
0.0
 10
5.301992
 20
-3.868741
 30
0.0
 10
5.569998
 20
-3.467641
 30
0.0
 10
5.569998
 20
-3.022733
 30
0.0
  0
SPLINE
  5
10f
100
AcDbEntity
  8
0
 62
7
100
AcDbSpline
 70
8
 71
3
 72
8
 73
4
 74
0
 40
0
 40
0
 40
0
 40
0
 40
1
 40
1
 40
1
 40
1
 10
5.569998
 20
-3.022733
 30
0.0
 10
5.569998
 20
-2.730995
 30
0.0
 10
5.454105
 20
-2.451205
 30
0.0
 10
5.247815
 20
-2.244915
 30
0.0
  0
SPLINE
  5
110
100
AcDbEntity
  8
0
 62
7
100
AcDbSpline
 70
8
 71
3
 72
8
 73
4
 74
0
 40
0
 40
0
 40
0
 40
0
 40
1
 40
1
 40
1
 40
1
 10
5.247815
 20
-2.244915
 30
0.0
 10
5.041525
 20
-2.038625
 30
0.0
 10
4.761736
 20
-1.922733
 30
0.0
 10
4.469998
 20
-1.922733
 30
0.0
  0
LWPOLYLINE
  5
111
100
AcDbEntity
  8
0
 62
7
100
AcDbPolyline
 90
2
 70
0
 10
313.714905
 20
0.279266
 30
0.0
 10
3.834999
 20
0.279266
 30
0.0
  0
SPLINE
  5
112
100
AcDbEntity
  8
0
 62
7
100
AcDbSpline
 70
8
 71
3
 72
8
 73
4
 74
0
 40
0
 40
0
 40
0
 40
0
 40
1
 40
1
 40
1
 40
1
 10
4.469998
 20
-27.449727
 30
0.0
 10
4.025089
 20
-27.449727
 30
0.0
 10
3.623989
 20
-27.717734
 30
0.0
 10
3.453730
 20
-28.128775
 30
0.0
  0
SPLINE
  5
113
100
AcDbEntity
  8
0
 62
7
100
AcDbSpline
 70
8
 71
3
 72
8
 73
4
 74
0
 40
0
 40
0
 40
0
 40
0
 40
1
 40
1
 40
1
 40
1
 10
3.453730
 20
-28.128775
 30
0.0
 10
3.283471
 20
-28.539817
 30
0.0
 10
3.377583
 20
-29.012947
 30
0.0
 10
3.692180
 20
-29.327545
 30
0.0
  0
SPLINE
  5
114
100
AcDbEntity
  8
0
 62
7
100
AcDbSpline
 70
8
 71
3
 72
8
 73
4
 74
0
 40
0
 40
0
 40
0
 40
0
 40
1
 40
1
 40
1
 40
1
 10
3.692180
 20
-29.327545
 30
0.0
 10
4.006778
 20
-29.642143
 30
0.0
 10
4.479908
 20
-29.736254
 30
0.0
 10
4.890950
 20
-29.565995
 30
0.0
  0
SPLINE
  5
115
100
AcDbEntity
  8
0
 62
7
100
AcDbSpline
 70
8
 71
3
 72
8
 73
4
 74
0
 40
0
 40
0
 40
0
 40
0
 40
1
 40
1
 40
1
 40
1
 10
4.890950
 20
-29.565995
 30
0.0
 10
5.301992
 20
-29.395736
 30
0.0
 10
5.569998
 20
-28.994636
 30
0.0
 10
5.569998
 20
-28.549727
 30
0.0
  0
SPLINE
  5
116
100
AcDbEntity
  8
0
 62
7
100
AcDbSpline
 70
8
 71
3
 72
8
 73
4
 74
0
 40
0
 40
0
 40
0
 40
0
 40
1
 40
1
 40
1
 40
1
 10
5.569998
 20
-28.549727
 30
0.0
 10
5.569998
 20
-28.257989
 30
0.0
 10
5.454105
 20
-27.978200
 30
0.0
 10
5.247815
 20
-27.771910
 30
0.0
  0
SPLINE
  5
117
100
AcDbEntity
  8
0
 62
7
100
AcDbSpline
 70
8
 71
3
 72
8
 73
4
 74
0
 40
0
 40
0
 40
0
 40
0
 40
1
 40
1
 40
1
 40
1
 10
5.247815
 20
-27.771910
 30
0.0
 10
5.041525
 20
-27.565620
 30
0.0
 10
4.761736
 20
-27.449727
 30
0.0
 10
4.469998
 20
-27.449727
 30
0.0
  0
LWPOLYLINE
  5
118
100
AcDbEntity
  8
0
 62
7
100
AcDbPolyline
 90
1
 70
1
 10
4.469998
 20
-1.922733
 30
0.0
  0
SPLINE
  5
119
100
AcDbEntity
  8
0
 62
7
100
AcDbSpline
 70
8
 71
3
 72
8
 73
4
 74
0
 40
0
 40
0
 40
0
 40
0
 40
1
 40
1
 40
1
 40
1
 10
159.409958
 20
-1.922733
 30
0.0
 10
158.965050
 20
-1.922733
 30
0.0
 10
158.563950
 20
-2.190739
 30
0.0
 10
158.393691
 20
-2.601781
 30
0.0
  0
SPLINE
  5
11a
100
AcDbEntity
  8
0
 62
7
100
AcDbSpline
 70
8
 71
3
 72
8
 73
4
 74
0
 40
0
 40
0
 40
0
 40
0
 40
1
 40
1
 40
1
 40
1
 10
158.393691
 20
-2.601781
 30
0.0
 10
158.223432
 20
-3.012823
 30
0.0
 10
158.317543
 20
-3.485953
 30
0.0
 10
158.632141
 20
-3.800550
 30
0.0
  0
SPLINE
  5
11b
100
AcDbEntity
  8
0
 62
7
100
AcDbSpline
 70
8
 71
3
 72
8
 73
4
 74
0
 40
0
 40
0
 40
0
 40
0
 40
1
 40
1
 40
1
 40
1
 10
158.632141
 20
-3.800550
 30
0.0
 10
158.946739
 20
-4.115148
 30
0.0
 10
159.419868
 20
-4.209260
 30
0.0
 10
159.830910
 20
-4.039000
 30
0.0
  0
SPLINE
  5
11c
100
AcDbEntity
  8
0
 62
7
100
AcDbSpline
 70
8
 71
3
 72
8
 73
4
 74
0
 40
0
 40
0
 40
0
 40
0
 40
1
 40
1
 40
1
 40
1
 10
159.830910
 20
-4.039000
 30
0.0
 10
160.241952
 20
-3.868741
 30
0.0
 10
160.509959
 20
-3.467641
 30
0.0
 10
160.509959
 20
-3.022733
 30
0.0
  0
SPLINE
  5
11d
100
AcDbEntity
  8
0
 62
7
100
AcDbSpline
 70
8
 71
3
 72
8
 73
4
 74
0
 40
0
 40
0
 40
0
 40
0
 40
1
 40
1
 40
1
 40
1
 10
160.509959
 20
-3.022733
 30
0.0
 10
160.509959
 20
-2.415220
 30
0.0
 10
160.017472
 20
-1.922733
 30
0.0
 10
159.409958
 20
-1.922733
 30
0.0
  0
LWPOLYLINE
  5
11e
100
AcDbEntity
  8
0
 62
7
100
AcDbPolyline
 90
1
 70
1
 10
4.469998
 20
-27.449727
 30
0.0
  0
SPLINE
  5
11f
100
AcDbEntity
  8
0
 62
7
100
AcDbSpline
 70
8
 71
3
 72
8
 73
4
 74
0
 40
0
 40
0
 40
0
 40
0
 40
1
 40
1
 40
1
 40
1
 10
313.079905
 20
-1.922733
 30
0.0
 10
312.634996
 20
-1.922733
 30
0.0
 10
312.233896
 20
-2.190739
 30
0.0
 10
312.063637
 20
-2.601781
 30
0.0
  0
SPLINE
  5
120
100
AcDbEntity
  8
0
 62
7
100
AcDbSpline
 70
8
 71
3
 72
8
 73
4
 74
0
 40
0
 40
0
 40
0
 40
0
 40
1
 40
1
 40
1
 40
1
 10
312.063637
 20
-2.601781
 30
0.0
 10
311.893378
 20
-3.012823
 30
0.0
 10
311.987489
 20
-3.485953
 30
0.0
 10
312.302087
 20
-3.800550
 30
0.0
  0
SPLINE
  5
121
100
AcDbEntity
  8
0
 62
7
100
AcDbSpline
 70
8
 71
3
 72
8
 73
4
 74
0
 40
0
 40
0
 40
0
 40
0
 40
1
 40
1
 40
1
 40
1
 10
312.302087
 20
-3.800550
 30
0.0
 10
312.616685
 20
-4.115148
 30
0.0
 10
313.089815
 20
-4.209260
 30
0.0
 10
313.500856
 20
-4.039000
 30
0.0
  0
SPLINE
  5
122
100
AcDbEntity
  8
0
 62
7
100
AcDbSpline
 70
8
 71
3
 72
8
 73
4
 74
0
 40
0
 40
0
 40
0
 40
0
 40
1
 40
1
 40
1
 40
1
 10
313.500856
 20
-4.039000
 30
0.0
 10
313.911898
 20
-3.868741
 30
0.0
 10
314.179905
 20
-3.467641
 30
0.0
 10
314.179905
 20
-3.022733
 30
0.0
  0
SPLINE
  5
123
100
AcDbEntity
  8
0
 62
7
100
AcDbSpline
 70
8
 71
3
 72
8
 73
4
 74
0
 40
0
 40
0
 40
0
 40
0
 40
1
 40
1
 40
1
 40
1
 10
314.179905
 20
-3.022733
 30
0.0
 10
314.179905
 20
-2.415220
 30
0.0
 10
313.687418
 20
-1.922733
 30
0.0
 10
313.079905
 20
-1.922733
 30
0.0
  0
LWPOLYLINE
  5
124
100
AcDbEntity
  8
0
 62
7
100
AcDbPolyline
 90
1
 70
1
 10
159.409958
 20
-1.922733
 30
0.0
  0
SPLINE
  5
125
100
AcDbEntity
  8
0
 62
7
100
AcDbSpline
 70
8
 71
3
 72
8
 73
4
 74
0
 40
0
 40
0
 40
0
 40
0
 40
1
 40
1
 40
1
 40
1
 10
313.079905
 20
-27.322727
 30
0.0
 10
312.634996
 20
-27.322727
 30
0.0
 10
312.233896
 20
-27.590734
 30
0.0
 10
312.063637
 20
-28.001775
 30
0.0
  0
SPLINE
  5
126
100
AcDbEntity
  8
0
 62
7
100
AcDbSpline
 70
8
 71
3
 72
8
 73
4
 74
0
 40
0
 40
0
 40
0
 40
0
 40
1
 40
1
 40
1
 40
1
 10
312.063637
 20
-28.001775
 30
0.0
 10
311.893378
 20
-28.412817
 30
0.0
 10
311.987489
 20
-28.885947
 30
0.0
 10
312.302087
 20
-29.200545
 30
0.0
  0
SPLINE
  5
127
100
AcDbEntity
  8
0
 62
7
100
AcDbSpline
 70
8
 71
3
 72
8
 73
4
 74
0
 40
0
 40
0
 40
0
 40
0
 40
1
 40
1
 40
1
 40
1
 10
312.302087
 20
-29.200545
 30
0.0
 10
312.616685
 20
-29.515143
 30
0.0
 10
313.089815
 20
-29.609254
 30
0.0
 10
313.500856
 20
-29.438995
 30
0.0
  0
SPLINE
  5
128
100
AcDbEntity
  8
0
 62
7
100
AcDbSpline
 70
8
 71
3
 72
8
 73
4
 74
0
 40
0
 40
0
 40
0
 40
0
 40
1
 40
1
 40
1
 40
1
 10
313.500856
 20
-29.438995
 30
0.0
 10
313.911898
 20
-29.268736
 30
0.0
 10
314.179905
 20
-28.867636
 30
0.0
 10
314.179905
 20
-28.422727
 30
0.0
  0
SPLINE
  5
129
100
AcDbEntity
  8
0
 62
7
100
AcDbSpline
 70
8
 71
3
 72
8
 73
4
 74
0
 40
0
 40
0
 40
0
 40
0
 40
1
 40
1
 40
1
 40
1
 10
314.179905
 20
-28.422727
 30
0.0
 10
314.179905
 20
-27.815214
 30
0.0
 10
313.687418
 20
-27.322727
 30
0.0
 10
313.079905
 20
-27.322727
 30
0.0
  0
LWPOLYLINE
  5
12a
100
AcDbEntity
  8
0
 62
7
100
AcDbPolyline
 90
1
 70
1
 10
313.079905
 20
-1.922733
 30
0.0
  0
LWPOLYLINE
  5
12b
100
AcDbEntity
  8
0
 62
7
100
AcDbPolyline
 90
1
 70
1
 10
313.079905
 20
-27.322727
 30
0.0
  0
LWPOLYLINE
  5
12c
100
AcDbEntity
  8
0
 62
1
100
AcDbPolyline
 90
988
 70
1
 10
281.410711
 20
-1.404468
 30
0.0
 10
282.045635
 20
-1.813763
 30
0.0
 10
282.880761
 20
-2.421306
 30
0.0
 10
283.828257
 20
-3.165932
 30
0.0
 10
283.906845
 20
-3.230118
 30
0.0
 10
286.320657
 20
-5.205653
 30
0.0
 10
288.667438
 20
-5.205653
 30
0.0
 10
290.339647
 20
-5.232856
 30
0.0
 10
291.629052
 20
-5.338647
 30
0.0
 10
292.644645
 20
-5.559831
 30
0.0
 10
293.495951
 20
-5.932855
 30
0.0
 10
294.292140
 20
-6.494525
 30
0.0
 10
295.142379
 20
-7.281112
 30
0.0
 10
295.281063
 20
-7.420685
 30
0.0
 10
296.040802
 20
-8.164955
 30
0.0
 10
296.706663
 20
-8.773209
 30
0.0
 10
297.180855
 20
-9.157435
 30
0.0
 10
297.318473
 20
-9.239400
 30
0.0
 10
297.644558
 20
-9.581843
 30
0.0
 10
297.706076
 20
-9.859567
 30
0.0
 10
297.885832
 20
-10.412347
 30
0.0
 10
298.076434
 20
-10.638330
 30
0.0
 10
298.389362
 20
-11.040158
 30
0.0
 10
298.446969
 20
-11.250674
 30
0.0
 10
298.659973
 20
-11.468478
 30
0.0
 10
299.235867
 20
-11.819456
 30
0.0
 10
300.080595
 20
-12.250620
 30
0.0
 10
300.854558
 20
-12.603909
 30
0.0
 10
302.115160
 20
-13.180336
 30
0.0
 10
303.480130
 20
-13.850820
 30
0.0
 10
304.862347
 20
-14.567709
 30
0.0
 10
306.174688
 20
-15.282821
 30
0.0
 10
307.329854
 20
-15.948326
 30
0.0
 10
308.240546
 20
-16.516397
 30
0.0
 10
308.819640
 20
-16.938672
 30
0.0
 10
308.922586
 20
-17.037351
 30
0.0
 10
309.201554
 20
-17.470471
 30
0.0
 10
309.103764
 20
-17.888301
 30
0.0
 10
309.039045
 20
-17.997293
 30
0.0
 10
308.877247
 20
-18.406588
 30
0.0
 10
308.924898
 20
-18.913674
 30
0.0
 10
309.145725
 20
-19.572778
 30
0.0
 10
309.483190
 20
-20.700207
 30
0.0
 10
309.506126
 20
-21.600409
 30
0.0
 10
309.212045
 20
-22.428956
 30
0.0
 10
309.094519
 20
-22.633782
 30
0.0
 10
308.803638
 20
-23.207365
 30
0.0
 10
308.799015
 20
-23.638529
 30
0.0
 10
308.956902
 20
-23.991818
 30
0.0
 10
309.291343
 20
-24.845791
 30
0.0
 10
309.461676
 20
-25.773018
 30
0.0
 10
309.441229
 20
-26.573295
 30
0.0
 10
309.340061
 20
-26.885156
 30
0.0
 10
308.925964
 20
-27.204841
 30
0.0
 10
308.058656
 20
-27.508345
 30
0.0
 10
306.778674
 20
-27.788914
 30
0.0
 10
305.126557
 20
-28.038900
 30
0.0
 10
303.143199
 20
-28.251371
 30
0.0
 10
300.868782
 20
-28.419037
 30
0.0
 10
300.669468
 20
-28.430771
 30
0.0
 10
299.004905
 20
-28.530339
 30
0.0
 10
297.192946
 20
-28.646621
 30
0.0
 10
295.437171
 20
-28.765924
 30
0.0
 10
293.940985
 20
-28.874738
 30
0.0
 10
293.755006
 20
-28.889140
 30
0.0
 10
292.566236
 20
-28.967905
 30
0.0
 10
291.009775
 20
-29.050938
 30
0.0
 10
289.211862
 20
-29.132548
 30
0.0
 10
287.298556
 20
-29.207224
 30
0.0
 10
285.396097
 20
-29.269276
 30
0.0
 10
284.865009
 20
-29.284033
 30
0.0
 10
279.061796
 20
-29.439075
 30
0.0
 10
278.023622
 20
-28.826021
 30
0.0
 10
276.455960
 20
-27.770956
 30
0.0
 10
275.157487
 20
-26.576851
 30
0.0
 10
273.962849
 20
-25.086532
 30
0.0
 10
273.721397
 20
-24.738755
 30
0.0
 10
272.660998
 20
-23.269594
 30
0.0
 10
271.665318
 20
-22.064111
 30
0.0
 10
270.776318
 20
-21.164087
 30
0.0
 10
270.035604
 20
-20.611130
 30
0.0
 10
269.484779
 20
-20.447198
 30
0.0
 10
269.448508
 20
-20.452354
 30
0.0
 10
268.768068
 20
-20.390124
 30
0.0
 10
267.919251
 20
-20.055505
 30
0.0
 10
267.071679
 20
-19.535796
 30
0.0
 10
266.395328
 20
-18.918119
 30
0.0
 10
266.347677
 20
-18.859267
 30
0.0
 10
266.017680
 20
-18.330490
 30
0.0
 10
265.900688
 20
-17.747661
 30
0.0
 10
265.946205
 20
-16.938672
 30
0.0
 10
266.029060
 20
-15.989398
 30
0.0
 10
266.076354
 20
-15.071061
 30
0.0
 10
266.080622
 20
-14.792448
 30
0.0
 10
266.106936
 20
-14.574644
 30
0.0
 10
266.351589
 20
-14.574644
 30
0.0
 10
266.417553
 20
-15.045636
 30
0.0
 10
266.591796
 20
-15.207256
 30
0.0
 10
266.705055
 20
-15.535297
 30
0.0
 10
266.591796
 20
-15.822977
 30
0.0
 10
266.378081
 20
-16.328462
 30
0.0
 10
266.473382
 20
-16.569381
 30
0.0
 10
266.936551
 20
-16.586628
 30
0.0
 10
267.539826
 20
-16.481548
 30
0.0
 10
268.078382
 20
-16.389981
 30
0.0
 10
268.565020
 20
-16.377357
 30
0.0
 10
269.111400
 20
-16.467502
 30
0.0
 10
269.829534
 20
-16.683707
 30
0.0
 10
270.831081
 20
-17.049619
 30
0.0
 10
271.552593
 20
-17.326809
 30
0.0
 10
272.754876
 20
-17.785355
 30
0.0
 10
273.650632
 20
-18.091704
 30
0.0
 10
274.392769
 20
-18.274483
 30
0.0
 10
275.134017
 20
-18.363027
 30
0.0
 10
276.027462
 20
-18.385963
 30
0.0
 10
277.086261
 20
-18.374584
 30
0.0
 10
280.399029
 20
-18.114996
 30
0.0
 10
282.445862
 20
-17.734860
 30
0.0
 10
283.675171
 20
-17.468160
 30
0.0
 10
284.502297
 20
-17.334988
 30
0.0
 10
285.004937
 20
-17.349390
 30
0.0
 10
285.259902
 20
-17.524878
 30
0.0
 10
285.344713
 20
-17.875500
 30
0.0
 10
285.343290
 20
-18.252080
 30
0.0
 10
285.293684
 20
-18.468462
 30
0.0
 10
285.152689
 20
-18.230211
 30
0.0
 10
285.120151
 20
-18.151623
 30
0.0
 10
285.006537
 20
-17.912482
 30
0.0
 10
284.837094
 20
-17.784110
 30
0.0
 10
284.509942
 20
-17.763841
 30
0.0
 10
283.923202
 20
-17.849007
 30
0.0
 10
282.975173
 20
-18.036409
 30
0.0
 10
282.728209
 20
-18.087082
 30
0.0
 10
281.043554
 20
-18.399832
 30
0.0
 10
279.371523
 20
-18.651241
 30
0.0
 10
277.799061
 20
-18.833664
 30
0.0
 10
276.413288
 20
-18.939277
 30
0.0
 10
275.301327
 20
-18.960079
 30
0.0
 10
274.550122
 20
-18.888782
 30
0.0
 10
274.368766
 20
-18.832063
 30
0.0
 10
273.736865
 20
-18.612480
 30
0.0
 10
273.293432
 20
-18.540649
 30
0.0
 10
272.804305
 20
-18.438948
 30
0.0
 10
272.113196
 20
-18.185049
 30
0.0
 10
271.885079
 20
-18.082814
 30
0.0
 10
270.309593
 20
-17.402196
 30
0.0
 10
269.056637
 20
-17.005880
 30
0.0
 10
268.057579
 20
-16.876264
 30
0.0
 10
267.402386
 20
-16.951473
 30
0.0
 10
266.758039
 20
-17.179235
 30
0.0
 10
266.462714
 20
-17.518655
 30
0.0
 10
266.391594
 20
-17.838873
 30
0.0
 10
266.412219
 20
-18.242301
 30
0.0
 10
266.637135
 20
-18.607324
 30
0.0
 10
267.152755
 20
-19.038667
 30
0.0
 10
267.680643
 20
-19.401379
 30
0.0
 10
268.598447
 20
-19.945802
 30
0.0
 10
269.241549
 20
-20.165741
 30
0.0
 10
269.560700
 20
-20.143871
 30
0.0
 10
269.944570
 20
-20.139249
 30
0.0
 10
270.433876
 20
-20.391547
 30
0.0
 10
271.121961
 20
-20.953750
 30
0.0
 10
271.358435
 20
-21.169955
 30
0.0
 10
272.105373
 20
-21.924893
 30
0.0
 10
272.774612
 20
-22.707747
 30
0.0
 10
273.175729
 20
-23.277773
 30
0.0
 10
273.691348
 20
-24.060626
 30
0.0
 10
274.263864
 20
-24.790673
 30
0.0
 10
274.348675
 20
-24.884907
 30
0.0
 10
274.764727
 20
-25.396437
 30
0.0
 10
274.979331
 20
-25.783152
 30
0.0
 10
274.987155
 20
-25.832403
 30
0.0
 10
275.175267
 20
-26.147998
 30
0.0
 10
275.667951
 20
-26.646905
 30
0.0
 10
276.358170
 20
-27.239867
 30
0.0
 10
277.138534
 20
-27.837631
 30
0.0
 10
277.901829
 20
-28.351117
 30
0.0
 10
278.264719
 20
-28.559321
 30
0.0
 10
278.846836
 20
-28.803796
 30
0.0
 10
279.569415
 20
-28.977684
 30
0.0
 10
280.493441
 20
-29.083475
 30
0.0
 10
281.679189
 20
-29.123836
 30
0.0
 10
283.187466
 20
-29.100899
 30
0.0
 10
285.079080
 20
-29.017511
 30
0.0
 10
286.840544
 20
-28.913143
 30
0.0
 10
288.592940
 20
-28.798817
 30
0.0
 10
290.536293
 20
-28.667601
 30
0.0
 10
292.459378
 20
-28.534251
 30
0.0
 10
294.150966
 20
-28.412991
 30
0.0
 10
294.495898
 20
-28.387388
 30
0.0
 10
296.183398
 20
-28.268973
 30
0.0
 10
298.123373
 20
-28.143802
 30
0.0
 10
300.074727
 20
-28.026988
 30
0.0
 10
301.780718
 20
-27.933998
 30
0.0
 10
303.265170
 20
-27.835497
 30
0.0
 10
304.744110
 20
-27.696458
 30
0.0
 10
306.067297
 20
-27.533771
 30
0.0
 10
307.084668
 20
-27.363972
 30
0.0
 10
307.275270
 20
-27.321833
 30
0.0
 10
308.197518
 20
-27.087493
 30
0.0
 10
308.735896
 20
-26.890313
 30
0.0
 10
308.991217
 20
-26.673041
 30
0.0
 10
309.063937
 20
-26.378071
 30
0.0
 10
309.065537
 20
-26.299483
 30
0.0
 10
309.045624
 20
-25.869208
 30
0.0
 10
308.896094
 20
-25.734257
 30
0.0
 10
308.483243
 20
-25.846271
 30
0.0
 10
308.155557
 20
-25.972332
 30
0.0
 10
307.316164
 20
-26.216984
 30
0.0
 10
306.133438
 20
-26.455947
 30
0.0
 10
304.758334
 20
-26.667707
 30
0.0
 10
303.340912
 20
-26.830572
 30
0.0
 10
302.032127
 20
-26.922850
 30
0.0
 10
301.461389
 20
-26.935829
 30
0.0
 10
300.510337
 20
-26.963922
 30
0.0
 10
299.232667
 20
-27.040020
 30
0.0
 10
297.791420
 20
-27.152390
 30
0.0
 10
296.350174
 20
-27.290007
 30
0.0
 10
296.275498
 20
-27.298008
 30
0.0
 10
295.095084
 20
-27.408066
 30
0.0
 10
293.631079
 20
-27.519902
 30
0.0
 10
291.956204
 20
-27.630316
 30
0.0
 10
290.142822
 20
-27.735751
 30
0.0
 10
288.263477
 20
-27.833541
 30
0.0
 10
286.390532
 20
-27.919952
 30
0.0
 10
284.596353
 20
-27.992317
 30
0.0
 10
282.953659
 20
-28.046901
 30
0.0
 10
281.534638
 20
-28.080861
 30
0.0
 10
280.412009
 20
-28.090996
 30
0.0
 10
279.657959
 20
-28.073927
 30
0.0
 10
279.385925
 20
-28.043345
 30
0.0
 10
278.906754
 20
-27.768467
 30
0.0
 10
278.212090
 20
-27.175504
 30
0.0
 10
277.374652
 20
-26.346956
 30
0.0
 10
276.467161
 20
-25.365856
 30
0.0
 10
276.152989
 20
-25.000833
 30
0.0
 10
276.962690
 20
-25.000833
 30
0.0
 10
277.149735
 20
-25.204236
 30
0.0
 10
277.194363
 20
-25.208147
 30
0.0
 10
277.455729
 20
-25.393415
 30
0.0
 10
277.882271
 20
-25.870097
 30
0.0
 10
278.214579
 20
-26.306062
 30
0.0
 10
278.673659
 20
-26.896713
 30
0.0
 10
279.105179
 20
-27.258892
 30
0.0
 10
279.660626
 20
-27.465851
 30
0.0
 10
280.492019
 20
-27.590844
 30
0.0
 10
280.975635
 20
-27.637961
 30
0.0
 10
281.340125
 20
-27.551017
 30
0.0
 10
281.407688
 20
-27.418379
 30
0.0
 10
281.301720
 20
-27.063490
 30
0.0
 10
283.136437
 20
-27.063490
 30
0.0
 10
283.359754
 20
-27.129276
 30
0.0
 10
283.936004
 20
-27.173015
 30
0.0
 10
284.494651
 20
-27.183683
 30
0.0
 10
285.262569
 20
-27.175859
 30
0.0
 10
285.468639
 20
-27.145456
 30
0.0
 10
286.832187
 20
-27.145456
 30
0.0
 10
286.968915
 20
-27.302275
 30
0.0
 10
287.562589
 20
-27.388864
 30
0.0
 10
288.608764
 20
-27.421401
 30
0.0
 10
288.847016
 20
-27.422824
 30
0.0
 10
289.979068
 20
-27.410022
 30
0.0
 10
291.009775
 20
-27.369128
 30
0.0
 10
291.780004
 20
-27.307787
 30
0.0
 10
292.007232
 20
-27.274005
 30
0.0
 10
292.581882
 20
-27.037887
 30
0.0
 10
292.627043
 20
-26.891557
 30
0.0
 10
293.603698
 20
-26.891557
 30
0.0
 10
293.747005
 20
-27.067401
 30
0.0
 10
293.973522
 20
-27.152745
 30
0.0
 10
294.388507
 20
-27.148478
 30
0.0
 10
295.097396
 20
-27.055489
 30
0.0
 10
295.977505
 20
-26.912893
 30
0.0
 10
297.013901
 20
-26.765319
 30
0.0
 10
298.295661
 20
-26.618279
 30
0.0
 10
299.575287
 20
-26.499331
 30
0.0
 10
299.794159
 20
-26.482617
 30
0.0
 10
302.005635
 20
-26.319397
 30
0.0
 10
302.098269
 20
-26.182669
 30
0.0
 10
303.027096
 20
-26.182669
 30
0.0
 10
303.045765
 20
-26.245077
 30
0.0
 10
303.368471
 20
-26.357268
 30
0.0
 10
304.055668
 20
-26.373270
 30
0.0
 10
304.990007
 20
-26.302506
 30
0.0
 10
306.053428
 20
-26.154754
 30
0.0
 10
307.128407
 20
-25.939439
 30
0.0
 10
307.279359
 20
-25.902812
 30
0.0
 10
307.953221
 20
-25.696030
 30
0.0
 10
308.398076
 20
-25.486404
 30
0.0
 10
308.469908
 20
-25.419907
 30
0.0
 10
308.501378
 20
-24.988920
 30
0.0
 10
308.322867
 20
-24.356841
 30
0.0
 10
308.014562
 20
-23.721562
 30
0.0
 10
307.657362
 20
-23.281507
 30
0.0
 10
307.580374
 20
-23.230656
 30
0.0
 10
306.872553
 20
-23.028676
 30
0.0
 10
306.035826
 20
-23.036143
 30
0.0
 10
305.211012
 20
-23.216255
 30
0.0
 10
304.539640
 20
-23.532205
 30
0.0
 10
304.163059
 20
-23.947190
 30
0.0
 10
304.126610
 20
-24.129257
 30
0.0
 10
303.976192
 20
-24.562378
 30
0.0
 10
303.604590
 20
-25.135072
 30
0.0
 10
303.507689
 20
-25.255087
 30
0.0
 10
303.148711
 20
-25.783864
 30
0.0
 10
303.027096
 20
-26.182669
 30
0.0
 10
302.098269
 20
-26.182669
 30
0.0
 10
302.675407
 20
-25.331896
 30
0.0
 10
303.052165
 20
-24.747823
 30
0.0
 10
303.264814
 20
-24.362353
 30
0.0
 10
303.283839
 20
-24.283054
 30
0.0
 10
303.037052
 20
-24.320037
 30
0.0
 10
302.474138
 20
-24.482190
 30
0.0
 10
302.059153
 20
-24.618207
 30
0.0
 10
301.174953
 20
-24.855570
 30
0.0
 10
300.420904
 20
-24.863571
 30
0.0
 10
299.808916
 20
-24.740889
 30
0.0
 10
298.922584
 20
-24.584603
 30
0.0
 10
297.850272
 20
-24.485568
 30
0.0
 10
297.250197
 20
-24.467255
 30
0.0
 10
296.414715
 20
-24.491614
 30
0.0
 10
295.833665
 20
-24.618207
 30
0.0
 10
295.308444
 20
-24.927046
 30
0.0
 10
294.639561
 20
-25.498317
 30
0.0
 10
294.600800
 20
-25.533343
 30
0.0
 10
293.950586
 20
-26.190136
 30
0.0
 10
293.618100
 20
-26.680153
 30
0.0
 10
293.603698
 20
-26.891557
 30
0.0
 10
292.627043
 20
-26.891557
 30
0.0
 10
292.693540
 20
-26.676242
 30
0.0
 10
292.345941
 20
-26.224096
 30
0.0
 10
291.855925
 20
-25.886988
 30
0.0
 10
291.447874
 20
-25.665271
 30
0.0
 10
291.097430
 20
-25.570504
 30
0.0
 10
290.668932
 20
-25.612642
 30
0.0
 10
290.026897
 20
-25.802355
 30
0.0
 10
289.208661
 20
-26.088435
 30
0.0
 10
287.947704
 20
-26.554804
 30
0.0
 10
287.157028
 20
-26.901692
 30
0.0
 10
286.832187
 20
-27.145456
 30
0.0
 10
285.468639
 20
-27.145456
 30
0.0
 10
285.614613
 20
-27.123764
 30
0.0
 10
285.628659
 20
-26.984013
 30
0.0
 10
285.382406
 20
-26.713402
 30
0.0
 10
285.367827
 20
-26.698644
 30
0.0
 10
285.006715
 20
-26.397985
 30
0.0
 10
284.651471
 20
-26.353357
 30
0.0
 10
284.088023
 20
-26.545914
 30
0.0
 10
284.009613
 20
-26.578452
 30
0.0
 10
283.450254
 20
-26.840173
 30
0.0
 10
283.151728
 20
-27.034686
 30
0.0
 10
283.136437
 20
-27.063490
 30
0.0
 10
281.301720
 20
-27.063490
 30
0.0
 10
281.233978
 20
-26.836795
 30
0.0
 10
280.785744
 20
-26.111371
 30
0.0
 10
280.177491
 20
-25.371190
 30
0.0
 10
281.897527
 20
-25.371190
 30
0.0
 10
281.978426
 20
-26.089857
 30
0.0
 10
282.198009
 20
-26.393362
 30
0.0
 10
282.422215
 20
-26.605299
 30
0.0
 10
282.631841
 20
-26.659173
 30
0.0
 10
282.996153
 20
-26.547159
 30
0.0
 10
283.514796
 20
-26.332021
 30
0.0
 10
284.107759
 20
-26.065321
 30
0.0
 10
284.326630
 20
-25.832047
 30
0.0
 10
284.250887
 20
-25.470224
 30
0.0
 10
284.103491
 20
-25.137916
 30
0.0
 10
283.994678
 20
-24.666391
 30
0.0
 10
284.089445
 20
-24.067205
 30
0.0
 10
284.414463
 20
-23.237235
 30
0.0
 10
284.810780
 20
-22.430023
 30
0.0
 10
284.712101
 20
-22.260935
 30
0.0
 10
284.593152
 20
-22.244756
 30
0.0
 10
284.275246
 20
-22.411888
 30
0.0
 10
283.740246
 20
-22.850520
 30
0.0
 10
283.102833
 20
-23.466419
 30
0.0
 10
283.090921
 20
-23.478687
 30
0.0
 10
282.269840
 20
-24.495881
 30
0.0
 10
281.897527
 20
-25.371190
 30
0.0
 10
280.177491
 20
-25.371190
 30
0.0
 10
280.173046
 20
-25.365856
 30
0.0
 10
279.505407
 20
-24.723820
 30
0.0
 10
278.892708
 20
-24.309191
 30
0.0
 10
278.570890
 20
-24.220291
 30
0.0
 10
278.068428
 20
-24.320214
 30
0.0
 10
277.504091
 20
-24.555799
 30
0.0
 10
277.075771
 20
-24.831034
 30
0.0
 10
276.962690
 20
-25.000833
 30
0.0
 10
276.152989
 20
-25.000833
 30
0.0
 10
275.562515
 20
-24.314880
 30
0.0
 10
274.733434
 20
-23.276706
 30
0.0
 10
274.052638
 20
-22.334189
 30
0.0
 10
273.593203
 20
-21.570183
 30
0.0
 10
273.489901
 20
-21.339576
 30
0.0
 10
273.405446
 20
-21.009935
 30
0.0
 10
274.246440
 20
-21.009935
 30
0.0
 10
274.368766
 20
-21.284991
 30
0.0
 10
274.684006
 20
-21.835282
 30
0.0
 10
275.115170
 20
-22.538837
 30
0.0
 10
275.584385
 20
-23.274039
 30
0.0
 10
276.014483
 20
-23.918742
 30
0.0
 10
276.327944
 20
-24.351329
 30
0.0
 10
276.439780
 20
-24.462988
 30
0.0
 10
276.689233
 20
-24.348485
 30
0.0
 10
277.193830
 20
-24.058137
 30
0.0
 10
277.365762
 20
-23.953235
 30
0.0
 10
277.943790
 20
-23.500379
 30
0.0
 10
278.172263
 20
-22.994182
 30
0.0
 10
278.194132
 20
-22.656718
 30
0.0
 10
278.175108
 20
-22.299340
 30
0.0
 10
278.691439
 20
-22.299340
 30
0.0
 10
278.798474
 20
-23.344093
 30
0.0
 10
279.138606
 20
-23.968348
 30
0.0
 10
279.740281
 20
-24.188287
 30
0.0
 10
280.631414
 20
-24.019555
 30
0.0
 10
281.284295
 20
-23.753566
 30
0.0
 10
281.997629
 20
-23.326135
 30
0.0
 10
282.832222
 20
-22.686588
 30
0.0
 10
283.442253
 20
-22.132208
 30
0.0
 10
284.071665
 20
-21.470437
 30
0.0
 10
284.383171
 20
-21.025226
 30
0.0
 10
284.434733
 20
-20.693273
 30
0.0
 10
284.361123
 20
-20.497515
 30
0.0
 10
283.891020
 20
-20.034524
 30
0.0
 10
283.104433
 20
-19.855480
 30
0.0
 10
281.963313
 20
-19.955937
 30
0.0
 10
281.223488
 20
-20.115423
 30
0.0
 10
280.047519
 20
-20.461422
 30
0.0
 10
279.287068
 20
-20.848315
 30
0.0
 10
278.864260
 20
-21.342954
 30
0.0
 10
278.701395
 20
-22.012549
 30
0.0
 10
278.691439
 20
-22.299340
 30
0.0
 10
278.175108
 20
-22.299340
 30
0.0
 10
278.143993
 20
-21.712778
 30
0.0
 10
277.946812
 20
-21.147908
 30
0.0
 10
277.517248
 20
-20.851515
 30
0.0
 10
276.769421
 20
-20.712831
 30
0.0
 10
276.687811
 20
-20.704652
 30
0.0
 10
275.666350
 20
-20.656646
 30
0.0
 10
274.853627
 20
-20.713720
 30
0.0
 10
274.353831
 20
-20.862717
 30
0.0
 10
274.246440
 20
-21.009935
 30
0.0
 10
273.405446
 20
-21.009935
 30
0.0
 10
273.352284
 20
-20.802442
 30
0.0
 10
273.487412
 20
-20.478313
 30
0.0
 10
273.964983
 20
-20.317226
 30
0.0
 10
274.855227
 20
-20.269576
 30
0.0
 10
274.993378
 20
-20.269220
 30
0.0
 10
275.875621
 20
-20.234905
 30
0.0
 10
277.060124
 20
-20.142271
 30
0.0
 10
278.360909
 20
-20.007677
 30
0.0
 10
279.114958
 20
-19.914154
 30
0.0
 10
280.450947
 20
-19.751289
 30
0.0
 10
281.834231
 20
-19.607982
 30
0.0
 10
283.053760
 20
-19.505214
 30
0.0
 10
283.568491
 20
-19.473921
 30
0.0
 10
285.358937
 20
-19.388755
 30
0.0
 10
285.358937
 20
-20.585171
 30
0.0
 10
285.143088
 20
-22.010949
 30
0.0
 10
284.705344
 20
-23.162915
 30
0.0
 10
284.346899
 20
-23.989684
 30
0.0
 10
284.218172
 20
-24.515972
 30
0.0
 10
284.293915
 20
-24.864282
 30
0.0
 10
284.341921
 20
-24.937891
 30
0.0
 10
284.682941
 20
-25.431642
 30
0.0
 10
285.057210
 20
-26.009136
 30
0.0
 10
285.419922
 20
-26.474439
 30
0.0
 10
285.717559
 20
-26.676064
 30
0.0
 10
285.729294
 20
-26.676419
 30
0.0
 10
286.261805
 20
-26.530801
 30
0.0
 10
286.899573
 20
-26.203827
 30
0.0
 10
287.461243
 20
-25.807155
 30
0.0
 10
287.765815
 20
-25.452800
 30
0.0
 10
287.777549
 20
-25.413151
 30
0.0
 10
287.678337
 20
-25.007056
 30
0.0
 10
287.340162
 20
-24.377288
 30
0.0
 10
286.956647
 20
-23.823619
 30
0.0
 10
286.450628
 20
-23.116864
 30
0.0
 10
286.208643
 20
-22.599644
 30
0.0
 10
286.185173
 20
-22.287605
 30
0.0
 10
286.643364
 20
-22.287605
 30
0.0
 10
286.728885
 20
-22.705257
 30
0.0
 10
287.030790
 20
-23.364895
 30
0.0
 10
287.381767
 20
-23.961058
 30
0.0
 10
288.198758
 20
-25.221482
 30
0.0
 10
289.433400
 20
-25.060573
 30
0.0
 10
289.467894
 20
-25.054884
 30
0.0
 10
292.074085
 20
-25.054884
 30
0.0
 10
292.375456
 20
-25.431464
 30
0.0
 10
292.816933
 20
-25.851428
 30
0.0
 10
293.135729
 20
-25.901923
 30
0.0
 10
293.458613
 20
-25.652647
 30
0.0
 10
293.735270
 20
-25.083332
 30
0.0
 10
293.615789
 20
-24.482190
 30
0.0
 10
293.416475
 20
-24.246783
 30
0.0
 10
293.062653
 20
-24.120012
 30
0.0
 10
292.605529
 20
-24.351685
 30
0.0
 10
292.492626
 20
-24.440052
 30
0.0
 10
292.102000
 20
-24.792984
 30
0.0
 10
292.074085
 20
-25.054884
 30
0.0
 10
289.467894
 20
-25.054884
 30
0.0
 10
290.296086
 20
-24.917622
 30
0.0
 10
291.049424
 20
-24.741956
 30
0.0
 10
291.285009
 20
-24.666391
 30
0.0
 10
292.064662
 20
-24.251050
 30
0.0
 10
292.568547
 20
-23.748232
 30
0.0
 10
292.756126
 20
-23.247547
 30
0.0
 10
292.586327
 20
-22.837896
 30
0.0
 10
292.211525
 20
-22.647295
 30
0.0
 10
291.582646
 20
-22.544704
 30
0.0
 10
290.800326
 20
-22.495631
 30
0.0
 10
290.734896
 20
-22.495098
 30
0.0
 10
289.879500
 20
-22.394641
 30
0.0
 10
288.972010
 20
-22.151944
 30
0.0
 10
288.839193
 20
-22.101804
 30
0.0
 10
287.892586
 20
-21.831904
 30
0.0
 10
287.155427
 20
-21.835282
 30
0.0
 10
286.716262
 20
-22.104116
 30
0.0
 10
286.643364
 20
-22.287605
 30
0.0
 10
286.185173
 20
-22.287605
 30
0.0
 10
286.170238
 20
-22.089892
 30
0.0
 10
286.231223
 20
-21.642192
 30
0.0
 10
286.318167
 20
-20.911789
 30
0.0
 10
286.332214
 20
-20.709809
 30
0.0
 10
286.747377
 20
-20.709809
 30
0.0
 10
286.851390
 20
-20.956595
 30
0.0
 10
287.220502
 20
-21.164265
 30
0.0
 10
287.949304
 20
-21.413007
 30
0.0
 10
288.158930
 20
-21.478438
 30
0.0
 10
289.097003
 20
-21.767363
 30
0.0
 10
289.659029
 20
-21.915648
 30
0.0
 10
289.941019
 20
-21.926316
 30
0.0
 10
290.039520
 20
-21.802923
 30
0.0
 10
290.050900
 20
-21.548313
 30
0.0
 10
290.050900
 20
-21.540846
 30
0.0
 10
289.915772
 20
-20.671226
 30
0.0
 10
289.766420
 20
-20.348341
 30
0.0
 10
290.397787
 20
-20.348341
 30
0.0
 10
290.451483
 20
-20.703408
 30
0.0
 10
290.458239
 20
-20.731678
 30
0.0
 10
290.649552
 20
-21.356823
 30
0.0
 10
290.936521
 20
-21.749583
 30
0.0
 10
291.437206
 20
-21.988368
 30
0.0
 10
292.269487
 20
-22.151411
 30
0.0
 10
292.680561
 20
-22.207773
 30
0.0
 10
292.876141
 20
-22.006148
 30
0.0
 10
293.026915
 20
-21.421364
 30
0.0
 10
293.069232
 20
-21.071809
 30
0.0
 10
293.087545
 20
-20.853649
 30
0.0
 10
293.513909
 20
-20.853649
 30
0.0
 10
293.599253
 20
-22.208662
 30
0.0
 10
293.824704
 20
-23.349427
 30
0.0
 10
294.163768
 20
-24.156816
 30
0.0
 10
294.279338
 20
-24.311502
 30
0.0
 10
294.572175
 20
-24.626030
 30
0.0
 10
294.772911
 20
-24.630475
 30
0.0
 10
295.104863
 20
-24.316836
 30
0.0
 10
295.139534
 20
-24.281987
 30
0.0
 10
295.683780
 20
-23.979727
 30
0.0
 10
296.175397
 20
-23.857935
 30
0.0
 10
299.045266
 20
-23.857935
 30
0.0
 10
299.220221
 20
-24.059382
 30
0.0
 10
299.286362
 20
-24.109166
 30
0.0
 10
299.859767
 20
-24.302790
 30
0.0
 10
300.717296
 20
-24.349018
 30
0.0
 10
301.674927
 20
-24.257095
 30
0.0
 10
302.548280
 20
-24.036623
 30
0.0
 10
302.803068
 20
-23.929410
 30
0.0
 10
303.316732
 20
-23.597458
 30
0.0
 10
303.575431
 20
-23.287908
 30
0.0
 10
303.470351
 20
-22.928574
 30
0.0
 10
303.080258
 20
-22.406909
 30
0.0
 10
302.527122
 20
-21.841327
 30
0.0
 10
301.932203
 20
-21.349711
 30
0.0
 10
301.417117
 20
-21.050473
 30
0.0
 10
301.233450
 20
-21.010113
 30
0.0
 10
300.786283
 20
-21.230229
 30
0.0
 10
300.189942
 20
-21.862841
 30
0.0
 10
299.796293
 20
-22.396952
 30
0.0
 10
299.300586
 20
-23.137134
 30
0.0
 10
299.061090
 20
-23.587323
 30
0.0
 10
299.045266
 20
-23.857935
 30
0.0
 10
296.175397
 20
-23.857935
 30
0.0
 10
296.539887
 20
-23.767612
 30
0.0
 10
296.870239
 20
-23.726363
 30
0.0
 10
298.169068
 20
-23.602969
 30
0.0
 10
297.722967
 20
-22.289917
 30
0.0
 10
297.277401
 20
-21.307928
 30
0.0
 10
296.676437
 20
-20.415194
 30
0.0
 10
296.013599
 20
-19.720352
 30
0.0
 10
295.382231
 20
-19.331326
 30
0.0
 10
295.126555
 20
-19.284742
 30
0.0
 10
294.251246
 20
-19.353195
 30
0.0
 10
293.759629
 20
-19.610116
 30
0.0
 10
293.548936
 20
-20.155251
 30
0.0
 10
293.513909
 20
-20.853649
 30
0.0
 10
293.087545
 20
-20.853649
 30
0.0
 10
293.127017
 20
-20.381412
 30
0.0
 10
293.155998
 20
-19.944024
 30
0.0
 10
293.155820
 20
-19.868104
 30
0.0
 10
292.922369
 20
-19.870948
 30
0.0
 10
292.336696
 20
-19.910064
 30
0.0
 10
291.720619
 20
-19.960204
 30
0.0
 10
290.927276
 20
-20.040925
 30
0.0
 10
290.521358
 20
-20.148850
 30
0.0
 10
290.397787
 20
-20.348341
 30
0.0
 10
289.766420
 20
-20.348341
 30
0.0
 10
289.567284
 20
-19.918421
 30
0.0
 10
289.090069
 20
-19.444940
 30
0.0
 10
288.925426
 20
-19.379332
 30
0.0
 10
288.065941
 20
-19.350350
 30
0.0
 10
287.325226
 20
-19.651188
 30
0.0
 10
286.859924
 20
-20.210191
 30
0.0
 10
286.814229
 20
-20.344608
 30
0.0
 10
286.747377
 20
-20.709809
 30
0.0
 10
286.332214
 20
-20.709809
 30
0.0
 10
286.389999
 20
-19.885706
 30
0.0
 10
286.433737
 20
-18.762366
 30
0.0
 10
286.438005
 20
-18.540649
 30
0.0
 10
286.475165
 20
-17.543014
 30
0.0
 10
286.486722
 20
-17.408419
 30
0.0
 10
286.683013
 20
-17.408419
 30
0.0
 10
286.741509
 20
-17.845807
 30
0.0
 10
286.892106
 20
-18.643951
 30
0.0
 10
287.045014
 20
-19.047735
 30
0.0
 10
287.285755
 20
-19.149614
 30
0.0
 10
287.699495
 20
-19.042223
 30
0.0
 10
287.809731
 20
-19.003996
 30
0.0
 10
288.646102
 20
-18.873669
 30
0.0
 10
289.456692
 20
-19.042223
 30
0.0
 10
290.240612
 20
-19.189086
 30
0.0
 10
291.366086
 20
-19.216645
 30
0.0
 10
292.865651
 20
-19.122233
 30
0.0
 10
293.157420
 20
-19.088806
 30
0.0
 10
296.893708
 20
-19.088806
 30
0.0
 10
297.007145
 20
-19.352484
 30
0.0
 10
297.210192
 20
-19.583090
 30
0.0
 10
297.571838
 20
-20.114712
 30
0.0
 10
297.953574
 20
-20.888320
 30
0.0
 10
298.111460
 20
-21.287481
 30
0.0
 10
298.542981
 20
-22.487630
 30
0.0
 10
299.135055
 20
-21.933961
 30
0.0
 10
299.632183
 20
-21.401806
 30
0.0
 10
299.967336
 20
-20.934726
 30
0.0
 10
300.049124
 20
-20.541965
 30
0.0
 10
299.769623
 20
-20.154362
 30
0.0
 10
299.574221
 20
-19.990786
 30
0.0
 10
299.133277
 20
-19.543974
 30
0.0
 10
298.941075
 20
-19.151214
 30
0.0
 10
298.940897
 20
-19.140013
 30
0.0
 10
298.783189
 20
-18.961502
 30
0.0
 10
299.950445
 20
-18.961502
 30
0.0
 10
300.202032
 20
-19.486012
 30
0.0
 10
300.757657
 20
-20.056216
 30
0.0
 10
301.549045
 20
-20.583215
 30
0.0
 10
301.656080
 20
-20.639044
 30
0.0
 10
302.578506
 20
-21.231651
 30
0.0
 10
303.369360
 20
-21.956364
 30
0.0
 10
303.579342
 20
-22.217552
 30
0.0
 10
304.029887
 20
-22.790957
 30
0.0
 10
304.386021
 20
-23.023519
 30
0.0
 10
304.801539
 20
-23.001472
 30
0.0
 10
304.921198
 20
-22.969646
 30
0.0
 10
305.506871
 20
-22.773710
 30
0.0
 10
305.847181
 20
-22.620091
 30
0.0
 10
306.085255
 20
-22.253646
 30
0.0
 10
305.969151
 20
-21.644325
 30
0.0
 10
305.489447
 20
-20.763504
 30
0.0
 10
305.012943
 20
-20.078619
 30
0.0
 10
304.773980
 20
-19.753956
 30
0.0
 10
305.608395
 20
-19.753956
 30
0.0
 10
305.776772
 20
-20.068840
 30
0.0
 10
305.972174
 20
-20.263709
 30
0.0
 10
306.257898
 20
-20.699496
 30
0.0
 10
306.479082
 20
-21.368913
 30
0.0
 10
306.498462
 20
-21.467059
 30
0.0
 10
306.654215
 20
-22.210974
 30
0.0
 10
306.834326
 20
-22.588798
 30
0.0
 10
307.131607
 20
-22.723393
 30
0.0
 10
307.458226
 20
-22.738684
 30
0.0
 10
308.077325
 20
-22.511100
 30
0.0
 10
308.554896
 20
-22.021439
 30
0.0
 10
308.901250
 20
-21.431676
 30
0.0
 10
309.063759
 20
-20.951261
 30
0.0
 10
309.065537
 20
-20.916768
 30
0.0
 10
308.959569
 20
-20.435463
 30
0.0
 10
308.694469
 20
-19.778137
 30
0.0
 10
308.349893
 20
-19.099652
 30
0.0
 10
308.005494
 20
-18.554695
 30
0.0
 10
307.740750
 20
-18.297775
 30
0.0
 10
307.715502
 20
-18.293685
 30
0.0
 10
307.346745
 20
-18.425613
 30
0.0
 10
306.793787
 20
-18.748320
 30
0.0
 10
306.214871
 20
-19.152459
 30
0.0
 10
305.767526
 20
-19.528506
 30
0.0
 10
305.608395
 20
-19.753956
 30
0.0
 10
304.773980
 20
-19.753956
 30
0.0
 10
303.944010
 20
-18.626527
 30
0.0
 10
304.739665
 20
-18.626527
 30
0.0
 10
304.899862
 20
-18.950123
 30
0.0
 10
305.223636
 20
-19.234247
 30
0.0
 10
305.569813
 20
-19.174862
 30
0.0
 10
305.917056
 20
-18.937677
 30
0.0
 10
306.297548
 20
-18.566430
 30
0.0
 10
306.217893
 20
-18.359471
 30
0.0
 10
305.668314
 20
-18.293685
 30
0.0
 10
305.649467
 20
-18.293685
 30
0.0
 10
304.962804
 20
-18.377073
 30
0.0
 10
304.739665
 20
-18.626527
 30
0.0
 10
303.944010
 20
-18.626527
 30
0.0
 10
303.923563
 20
-18.598790
 30
0.0
 10
302.111248
 20
-18.483753
 30
0.0
 10
301.197890
 20
-18.453527
 30
0.0
 10
300.475666
 20
-18.481086
 30
0.0
 10
300.087351
 20
-18.559852
 30
0.0
 10
300.071171
 20
-18.571409
 30
0.0
 10
299.950445
 20
-18.961502
 30
0.0
 10
298.783189
 20
-18.961502
 30
0.0
 10
298.728604
 20
-18.899627
 30
0.0
 10
298.208184
 20
-18.785658
 30
0.0
 10
297.553346
 20
-18.817839
 30
0.0
 10
297.120048
 20
-18.933232
 30
0.0
 10
296.893708
 20
-19.088806
 30
0.0
 10
293.157420
 20
-19.088806
 30
0.0
 10
294.772377
 20
-18.903895
 30
0.0
 10
297.119514
 20
-18.559496
 30
0.0
 10
297.412173
 20
-18.512735
 30
0.0
 10
298.826750
 20
-18.318044
 30
0.0
 10
300.299289
 20
-18.169403
 30
0.0
 10
301.635811
 20
-18.083703
 30
0.0
 10
302.474671
 20
-18.071791
 30
0.0
 10
303.489553
 20
-18.076058
 30
0.0
 10
304.646675
 20
-18.050633
 30
0.0
 10
305.837046
 20
-18.001915
 30
0.0
 10
306.951318
 20
-17.935774
 30
0.0
 10
307.880856
 20
-17.858964
 30
0.0
 10
308.516491
 20
-17.777532
 30
0.0
 10
308.743364
 20
-17.710501
 30
0.0
 10
308.671355
 20
-17.485051
 30
0.0
 10
308.442349
 20
-17.211772
 30
0.0
 10
307.963889
 20
-17.006591
 30
0.0
 10
307.041818
 20
-16.873775
 30
0.0
 10
305.721298
 20
-16.813323
 30
0.0
 10
304.047134
 20
-16.824702
 30
0.0
 10
302.064309
 20
-16.907379
 30
0.0
 10
299.817629
 20
-17.060998
 30
0.0
 10
297.352255
 20
-17.285204
 30
0.0
 10
297.043416
 20
-17.316852
 30
0.0
 10
295.233057
 20
-17.496786
 30
0.0
 10
293.808168
 20
-17.616267
 30
0.0
 10
292.663670
 20
-17.678497
 30
0.0
 10
291.695371
 20
-17.686854
 30
0.0
 10
290.798371
 20
-17.644715
 30
0.0
 10
289.868477
 20
-17.555638
 30
0.0
 10
289.818160
 20
-17.549770
 30
0.0
 10
288.747093
 20
-17.418909
 30
0.0
 10
287.830000
 20
-17.292849
 30
0.0
 10
287.200233
 20
-17.190792
 30
0.0
 10
287.028834
 20
-17.152921
 30
0.0
 10
286.749688
 20
-17.139586
 30
0.0
 10
286.683013
 20
-17.408419
 30
0.0
 10
286.486722
 20
-17.408419
 30
0.0
 10
286.545929
 20
-16.720511
 30
0.0
 10
286.637318
 20
-16.209870
 30
0.0
 10
286.669856
 20
-16.132882
 30
0.0
 10
287.032745
 20
-15.923967
 30
0.0
 10
287.652201
 20
-15.825466
 30
0.0
 10
287.727232
 20
-15.824222
 30
0.0
 10
288.416563
 20
-15.717008
 30
0.0
 10
288.726823
 20
-15.453864
 30
0.0
 10
288.932005
 20
-15.246550
 30
0.0
 10
289.409575
 20
-15.142537
 30
0.0
 10
290.257148
 20
-15.124223
 30
0.0
 10
290.509446
 20
-15.130091
 30
0.0
 10
292.149828
 20
-15.176852
 30
0.0
 10
290.717294
 20
-15.266285
 30
0.0
 10
289.726237
 20
-15.391812
 30
0.0
 10
289.213462
 20
-15.616018
 30
0.0
 10
289.147498
 20
-15.713452
 30
0.0
 10
288.795988
 20
-15.978019
 30
0.0
 10
288.079098
 20
-16.071186
 30
0.0
 10
287.379811
 20
-16.154396
 30
0.0
 10
286.912375
 20
-16.358333
 30
0.0
 10
286.751822
 20
-16.615076
 30
0.0
 10
286.973360
 20
-16.855817
 30
0.0
 10
287.144048
 20
-16.920536
 30
0.0
 10
287.593171
 20
-16.993078
 30
0.0
 10
288.424741
 20
-17.072022
 30
0.0
 10
289.527634
 20
-17.148653
 30
0.0
 10
290.790370
 20
-17.214439
 30
0.0
 10
291.038578
 20
-17.224930
 30
0.0
 10
292.963796
 20
-17.267779
 30
0.0
 10
294.637427
 20
-17.215328
 30
0.0
 10
296.294700
 20
-17.055664
 30
0.0
 10
297.335719
 20
-16.910046
 30
0.0
 10
299.101984
 20
-16.695086
 30
0.0
 10
301.092099
 20
-16.538800
 30
0.0
 10
303.038119
 20
-16.460923
 30
0.0
 10
303.572764
 20
-16.455767
 30
0.0
 10
305.035879
 20
-16.435676
 30
0.0
 10
306.066941
 20
-16.380735
 30
0.0
 10
306.644436
 20
-16.292547
 30
0.0
 10
306.765162
 20
-16.199913
 30
0.0
 10
306.528154
 20
-16.015890
 30
0.0
 10
305.916878
 20
-15.654245
 30
0.0
 10
305.001564
 20
-15.153027
 30
0.0
 10
303.851910
 20
-14.550818
 30
0.0
 10
302.538146
 20
-13.885491
 30
0.0
 10
302.464181
 20
-13.848686
 30
0.0
 10
301.137615
 20
-13.173580
 30
0.0
 10
299.967158
 20
-12.548969
 30
0.0
 10
299.024641
 20
-12.015747
 30
0.0
 10
298.381183
 20
-11.613919
 30
0.0
 10
298.108260
 20
-11.384379
 30
0.0
 10
298.106126
 20
-11.379223
 30
0.0
 10
297.846894
 20
-10.835155
 30
0.0
 10
297.731146
 20
-10.638330
 30
0.0
 10
297.444177
 20
-10.063681
 30
0.0
 10
297.361322
 20
-9.835742
 30
0.0
 10
297.073642
 20
-9.458094
 30
0.0
 10
296.670214
 20
-9.472674
 30
0.0
 10
296.300212
 20
-9.855122
 30
0.0
 10
296.224469
 20
-10.021009
 30
0.0
 10
295.991552
 20
-10.534318
 30
0.0
 10
295.879715
 20
-10.598859
 30
0.0
 10
295.914742
 20
-10.250549
 30
0.0
 10
296.044003
 20
-9.767644
 30
0.0
 10
296.139837
 20
-9.061778
 30
0.0
 10
295.933767
 20
-8.397340
 30
0.0
 10
295.378675
 20
-7.694319
 30
0.0
 10
294.427623
 20
-6.871994
 30
0.0
 10
294.298363
 20
-6.771715
 30
0.0
 10
293.196003
 20
-6.125057
 30
0.0
 10
291.833344
 20
-5.703671
 30
0.0
 10
290.134288
 20
-5.489422
 30
0.0
 10
288.837237
 20
-5.452617
 30
0.0
 10
287.785017
 20
-5.481599
 30
0.0
 10
286.997008
 20
-5.612993
 30
0.0
 10
286.332569
 20
-5.913830
 30
0.0
 10
285.650529
 20
-6.450964
 30
0.0
 10
284.809713
 20
-7.291246
 30
0.0
 10
284.686142
 20
-7.421218
 30
0.0
 10
284.184924
 20
-8.003335
 30
0.0
 10
283.970497
 20
-8.490329
 30
0.0
 10
283.963029
 20
-9.117963
 30
0.0
 10
283.998412
 20
-9.447249
 30
0.0
 10
284.040195
 20
-10.207699
 30
0.0
 10
283.908800
 20
-10.825732
 30
0.0
 10
283.543599
 20
-11.531953
 30
0.0
 10
283.389447
 20
-11.779806
 30
0.0
 10
282.790439
 20
-12.916126
 30
0.0
 10
282.604104
 20
-13.782900
 30
0.0
 10
282.829910
 20
-14.378352
 30
0.0
 10
283.466612
 20
-14.700704
 30
0.0
 10
284.513320
 20
-14.748532
 30
0.0
 10
284.931150
 20
-14.705860
 30
0.0
 10
285.981592
 20
-14.595980
 30
0.0
 10
287.249484
 20
-14.499612
 30
0.0
 10
288.445722
 20
-14.438093
 30
0.0
 10
289.628269
 20
-14.394354
 30
0.0
 10
291.052269
 20
-14.338703
 30
0.0
 10
292.465601
 20
-14.280918
 30
0.0
 10
292.890720
 20
-14.262960
 30
0.0
 10
293.794833
 20
-14.229534
 30
0.0
 10
294.354014
 20
-14.219755
 30
0.0
 10
294.516345
 20
-14.233445
 30
0.0
 10
294.304586
 20
-14.263671
 30
0.0
 10
293.698466
 20
-14.374974
 30
0.0
 10
293.396028
 20
-14.532149
 30
0.0
 10
293.393005
 20
-14.603269
 30
0.0
 10
293.326508
 20
-14.801161
 30
0.0
 10
293.137685
 20
-14.836365
 30
0.0
 10
292.875430
 20
-14.712972
 30
0.0
 10
292.902455
 20
-14.570376
 30
0.0
 10
292.840581
 20
-14.429381
 30
0.0
 10
292.364255
 20
-14.435604
 30
0.0
 10
291.867482
 20
-14.508680
 30
0.0
 10
290.975637
 20
-14.604514
 30
0.0
 10
289.855142
 20
-14.649497
 30
0.0
 10
288.900356
 20
-14.638296
 30
0.0
 10
287.924234
 20
-14.633318
 30
0.0
 10
287.244861
 20
-14.704082
 30
0.0
 10
286.971938
 20
-14.823563
 30
0.0
 10
286.659010
 20
-14.947846
 30
0.0
 10
285.963457
 20
-15.038168
 30
0.0
 10
284.996403
 20
-15.081373
 30
0.0
 10
284.720813
 20
-15.083329
 30
0.0
 10
283.699708
 20
-15.074795
 30
0.0
 10
283.063184
 20
-15.029989
 30
0.0
 10
282.702072
 20
-14.920820
 30
0.0
 10
282.507381
 20
-14.719017
 30
0.0
 10
282.401946
 20
-14.482721
 30
0.0
 10
282.297222
 20
-13.756764
 30
0.0
 10
282.492268
 20
-12.834515
 30
0.0
 10
283.004688
 20
-11.637211
 30
0.0
 10
283.075808
 20
-11.495682
 30
0.0
 10
283.482792
 20
-10.229391
 30
0.0
 10
283.574181
 20
-9.161168
 30
0.0
 10
283.594094
 20
-8.421521
 30
0.0
 10
283.710020
 20
-7.909457
 30
0.0
 10
284.004635
 20
-7.458023
 30
0.0
 10
284.560793
 20
-6.900442
 30
0.0
 10
284.808290
 20
-6.671614
 30
0.0
 10
286.043289
 20
-5.536183
 30
0.0
 10
283.974231
 20
-3.758717
 30
0.0
 10
283.100166
 20
-3.023159
 30
0.0
 10
282.335626
 20
-2.407971
 30
0.0
 10
281.773956
 20
-1.986763
 30
0.0
 10
281.533037
 20
-1.838478
 30
0.0
 10
281.199663
 20
-1.789583
 30
0.0
 10
281.182772
 20
-1.958315
 30
0.0
 10
281.432225
 20
-2.231415
 30
0.0
 10
281.810050
 20
-2.458822
 30
0.0
 10
282.225390
 20
-2.711120
 30
0.0
 10
282.311979
 20
-2.902077
 30
0.0
 10
282.001007
 20
-2.921635
 30
0.0
 10
281.485209
 20
-2.763037
 30
0.0
 10
280.975279
 20
-2.514829
 30
0.0
 10
280.681731
 20
-2.265197
 30
0.0
 10
280.666974
 20
-2.212391
 30
0.0
 10
280.478150
 20
-2.001520
 30
0.0
 10
280.420010
 20
-1.995297
 30
0.0
 10
280.233320
 20
-2.206346
 30
0.0
 10
280.173046
 20
-2.603729
 30
0.0
 10
280.114905
 20
-2.953817
 30
0.0
 10
279.870430
 20
-3.212516
 30
0.0
 10
279.334363
 20
-3.453612
 30
0.0
 10
278.629564
 20
-3.681552
 30
0.0
 10
277.631040
 20
-4.046220
 30
0.0
 10
277.030076
 20
-4.429201
 30
0.0
 10
276.787735
 20
-4.752441
 30
0.0
 10
276.341101
 20
-5.243702
 30
0.0
 10
275.513798
 20
-5.600191
 30
0.0
 10
275.297949
 20
-5.659398
 30
0.0
 10
274.052994
 20
-6.196354
 30
0.0
 10
273.165772
 20
-6.933869
 30
0.0
 10
272.549162
 20
-7.509763
 30
0.0
 10
271.994426
 20
-7.928837
 30
0.0
 10
271.754040
 20
-8.052764
 30
0.0
 10
271.362169
 20
-8.413875
 30
0.0
 10
271.283048
 20
-8.865132
 30
0.0
 10
271.191837
 20
-9.324744
 30
0.0
 10
270.846727
 20
-9.707726
 30
0.0
 10
270.156152
 20
-10.125733
 30
0.0
 10
269.155672
 20
-10.770436
 30
0.0
 10
268.486077
 20
-11.443409
 30
0.0
 10
268.207287
 20
-12.077088
 30
0.0
 10
268.219555
 20
-12.308228
 30
0.0
 10
268.072514
 20
-12.765707
 30
0.0
 10
267.448614
 20
-13.332000
 30
0.0
 10
267.331444
 20
-13.414143
 30
0.0
 10
266.668428
 20
-14.001417
 30
0.0
 10
266.351589
 20
-14.574644
 30
0.0
 10
266.106936
 20
-14.574644
 30
0.0
 10
266.160987
 20
-14.126765
 30
0.0
 10
266.480672
 20
-13.609545
 30
0.0
 10
266.952553
 20
-13.187271
 30
0.0
 10
267.526135
 20
-12.611021
 30
0.0
 10
267.812571
 20
-12.073354
 30
0.0
 10
267.825906
 20
-11.963651
 30
0.0
 10
268.013129
 20
-11.492659
 30
0.0
 10
268.489633
 20
-10.884583
 30
0.0
 10
269.127579
 20
-10.266373
 30
0.0
 10
269.799130
 20
-9.765155
 30
0.0
 10
270.267988
 20
-9.535793
 30
0.0
 10
270.691330
 20
-9.206685
 30
0.0
 10
270.789120
 20
-8.891446
 30
0.0
 10
270.967631
 20
-8.412809
 30
0.0
 10
271.401819
 20
-7.895766
 30
0.0
 10
271.444491
 20
-7.858606
 30
0.0
 10
272.052922
 20
-7.318805
 30
0.0
 10
272.742786
 20
-6.672680
 30
0.0
 10
272.900139
 20
-6.519772
 30
0.0
 10
273.677124
 20
-5.934455
 30
0.0
 10
274.586216
 20
-5.479821
 30
0.0
 10
274.776106
 20
-5.415990
 30
0.0
 10
275.649815
 20
-5.021274
 30
0.0
 10
276.459516
 20
-4.445203
 30
0.0
 10
276.606912
 20
-4.302429
 30
0.0
 10
277.602592
 20
-3.568115
 30
0.0
 10
278.520751
 20
-3.216249
 30
0.0
 10
279.236751
 20
-2.995777
 30
0.0
 10
279.582928
 20
-2.748636
 30
0.0
 10
279.678762
 20
-2.384679
 30
0.0
 10
279.679117
 20
-2.345207
 30
0.0
 10
279.899767
 20
-1.759001
 30
0.0
 10
280.468727
 20
-1.362152
 30
0.0
 10
281.063823
 20
-1.254583
 30
0.0
  0
LWPOLYLINE
  5
12d
100
AcDbEntity
  8
0
 62
1
100
AcDbPolyline
 90
16
 70
1
 10
271.475606
 20
-15.727676
 30
0.0
 10
272.209030
 20
-16.068519
 30
0.0
 10
272.725539
 20
-16.413273
 30
0.0
 10
272.998640
 20
-16.654192
 30
0.0
 10
273.011619
 20
-16.684951
 30
0.0
 10
272.816039
 20
-16.825413
 30
0.0
 10
272.343625
 20
-16.793587
 30
0.0
 10
271.766308
 20
-16.623610
 30
0.0
 10
271.256023
 20
-16.349443
 30
0.0
 10
271.232020
 20
-16.330951
 30
0.0
 10
270.487393
 20
-15.977841
 30
0.0
 10
270.025825
 20
-15.981930
 30
0.0
 10
269.646755
 20
-16.039537
 30
0.0
 10
269.699028
 20
-15.926457
 30
0.0
 10
269.801441
 20
-15.849469
 30
0.0
 10
270.551935
 20
-15.599305
 30
0.0
  0
LWPOLYLINE
  5
12e
100
AcDbEntity
  8
0
 62
1
100
AcDbPolyline
 90
32
 70
1
 10
294.592799
 20
-14.987317
 30
0.0
 10
294.279160
 20
-15.347184
 30
0.0
 10
294.001970
 20
-15.603216
 30
0.0
 10
293.137685
 20
-16.356555
 30
0.0
 10
294.495898
 20
-16.216093
 30
0.0
 10
295.368185
 20
-16.135549
 30
0.0
 10
296.114589
 20
-16.083810
 30
0.0
 10
296.409559
 20
-16.073319
 30
0.0
 10
296.861527
 20
-15.928590
 30
0.0
 10
296.965184
 20
-15.694605
 30
0.0
 10
297.181033
 20
-15.343806
 30
0.0
 10
297.707321
 20
-15.038879
 30
0.0
 10
298.362869
 20
-14.869969
 30
0.0
 10
298.648238
 20
-14.861968
 30
0.0
 10
298.707979
 20
-14.929354
 30
0.0
 10
298.365181
 20
-15.068394
 30
0.0
 10
298.138308
 20
-15.133469
 30
0.0
 10
297.440977
 20
-15.425416
 30
0.0
 10
297.212148
 20
-15.812665
 30
0.0
 10
297.212148
 20
-15.813554
 30
0.0
 10
297.117203
 20
-16.070119
 30
0.0
 10
296.765337
 20
-16.240985
 30
0.0
 10
296.056271
 20
-16.365445
 30
0.0
 10
295.694270
 20
-16.406339
 30
0.0
 10
294.705880
 20
-16.492394
 30
0.0
 10
293.770119
 20
-16.545556
 30
0.0
 10
293.286681
 20
-16.554802
 30
0.0
 10
292.396792
 20
-16.544489
 30
0.0
 10
293.364024
 20
-15.690516
 30
0.0
 10
293.961254
 20
-15.206367
 30
0.0
 10
294.433668
 20
-14.900017
 30
0.0
 10
294.598667
 20
-14.843121
 30
0.0
  0
LWPOLYLINE
  5
12f
100
AcDbEntity
  8
0
 62
1
100
AcDbPolyline
 90
7
 70
1
 10
285.856777
 20
-15.703318
 30
0.0
 10
285.999194
 20
-15.999177
 30
0.0
 10
285.965768
 20
-16.088255
 30
0.0
 10
285.727338
 20
-16.307126
 30
0.0
 10
285.610701
 20
-16.057851
 30
0.0
 10
285.605901
 20
-15.933035
 30
0.0
 10
285.727338
 20
-15.678781
 30
0.0
  0
LWPOLYLINE
  5
130
100
AcDbEntity
  8
0
 62
1
100
AcDbPolyline
 90
4
 70
1
 10
297.706076
 20
-15.947615
 30
0.0
 10
297.582683
 20
-16.071186
 30
0.0
 10
297.459112
 20
-15.947615
 30
0.0
 10
297.582683
 20
-15.824222
 30
0.0
  0
LWPOLYLINE
  5
131
100
AcDbEntity
  8
0
 62
1
100
AcDbPolyline
 90
8
 70
1
 10
301.472057
 20
-14.909085
 30
0.0
 10
301.589050
 20
-14.970248
 30
0.0
 10
301.278789
 20
-15.009009
 30
0.0
 10
300.916432
 20
-15.016121
 30
0.0
 10
300.382321
 20
-14.996918
 30
0.0
 10
300.235636
 20
-14.947668
 30
0.0
 10
300.360808
 20
-14.909085
 30
0.0
 10
301.080364
 20
-14.868191
 30
0.0
  0
LWPOLYLINE
  5
132
100
AcDbEntity
  8
0
 62
1
100
AcDbPolyline
 90
36
 70
1
 10
279.227861
 20
-9.068001
 30
0.0
 10
279.270533
 20
-9.114407
 30
0.0
 10
279.595551
 20
-9.539349
 30
0.0
 10
279.604797
 20
-9.873435
 30
0.0
 10
279.264843
 20
-10.270285
 30
0.0
 10
278.961161
 20
-10.533606
 30
0.0
 10
278.506527
 20
-11.042470
 30
0.0
 10
277.951080
 20
-11.844348
 30
0.0
 10
277.400255
 20
-12.784020
 30
0.0
 10
277.294287
 20
-12.986001
 30
0.0
 10
276.707725
 20
-14.050312
 30
0.0
 10
276.275315
 20
-14.653231
 30
0.0
 10
275.990835
 20
-14.800272
 30
0.0
 10
275.848062
 20
-14.496945
 30
0.0
 10
275.830104
 20
-14.280740
 30
0.0
 10
275.726980
 20
-13.623769
 30
0.0
 10
275.618522
 20
-13.293062
 30
0.0
 10
275.569983
 20
-12.970532
 30
0.0
 10
275.891267
 20
-12.864386
 30
0.0
 10
276.043642
 20
-12.860830
 30
0.0
 10
276.650651
 20
-12.640180
 30
0.0
 10
277.167693
 20
-12.082955
 30
0.0
 10
277.519915
 20
-11.346152
 30
0.0
 10
277.632818
 20
-10.586946
 30
0.0
 10
277.431370
 20
-9.962157
 30
0.0
 10
277.426748
 20
-9.956112
 30
0.0
 10
277.278285
 20
-9.730484
 30
0.0
 10
277.451995
 20
-9.836808
 30
0.0
 10
277.661266
 20
-10.011230
 30
0.0
 10
278.086919
 20
-10.318824
 30
0.0
 10
278.337617
 20
-10.289487
 30
0.0
 10
278.461899
 20
-10.134623
 30
0.0
 10
278.597205
 20
-9.616692
 30
0.0
 10
278.565734
 20
-9.218420
 30
0.0
 10
278.551510
 20
-8.763074
 30
0.0
 10
278.787095
 20
-8.710801
 30
0.0
  0
LWPOLYLINE
  5
133
100
AcDbEntity
  8
0
 62
1
100
AcDbPolyline
 90
18
 70
1
 10
270.412717
 20
-13.350669
 30
0.0
 10
271.188281
 20
-13.554427
 30
0.0
 10
271.770753
 20
-13.801569
 30
0.0
 10
271.870855
 20
-13.873045
 30
0.0
 10
271.807380
 20
-14.016174
 30
0.0
 10
271.380305
 20
-14.148635
 30
0.0
 10
270.719956
 20
-14.245002
 30
0.0
 10
269.956661
 20
-14.280029
 30
0.0
 10
269.801441
 20
-14.277362
 30
0.0
 10
269.076373
 20
-14.333725
 30
0.0
 10
268.504924
 20
-14.451250
 30
0.0
 10
268.001039
 20
-14.522726
 30
0.0
 10
267.825906
 20
-14.407512
 30
0.0
 10
268.022375
 20
-14.041422
 30
0.0
 10
268.498168
 20
-13.620213
 30
0.0
 10
269.081529
 20
-13.291995
 30
0.0
 10
269.148204
 20
-13.266747
 30
0.0
 10
269.660446
 20
-13.238655
 30
0.0
  0
LWPOLYLINE
  5
134
100
AcDbEntity
  8
0
 62
1
100
AcDbPolyline
 90
34
 70
1
 10
287.035057
 20
-11.504038
 30
0.0
 10
287.087508
 20
-11.626187
 30
0.0
 10
287.287533
 20
-11.845237
 30
0.0
 10
287.457865
 20
-11.873151
 30
0.0
 10
287.786617
 20
-12.006501
 30
0.0
 10
287.828400
 20
-12.120115
 30
0.0
 10
288.018468
 20
-12.357123
 30
0.0
 10
288.091722
 20
-12.367079
 30
0.0
 10
288.453545
 20
-12.510031
 30
0.0
 10
288.987123
 20
-12.857629
 30
0.0
 10
289.534569
 20
-13.288261
 30
0.0
 10
289.937819
 20
-13.679954
 30
0.0
 10
290.050900
 20
-13.878023
 30
0.0
 10
289.879500
 20
-14.086938
 30
0.0
 10
289.416154
 20
-13.986481
 30
0.0
 10
288.736069
 20
-13.597455
 30
0.0
 10
288.568404
 20
-13.477618
 30
0.0
 10
287.895964
 20
-13.081835
 30
0.0
 10
287.500359
 20
-13.091792
 30
0.0
 10
287.483113
 20
-13.107261
 30
0.0
 10
286.947224
 20
-13.343201
 30
0.0
 10
286.292031
 20
-13.102282
 30
0.0
 10
285.729294
 20
-12.613866
 30
0.0
 10
285.356448
 20
-12.164743
 30
0.0
 10
285.249056
 20
-11.901599
 30
0.0
 10
285.298129
 20
-11.873151
 30
0.0
 10
285.678977
 20
-12.054863
 30
0.0
 10
285.729294
 20
-12.120115
 30
0.0
 10
286.063558
 20
-12.376503
 30
0.0
 10
286.361551
 20
-12.272134
 30
0.0
 10
286.419869
 20
-11.879730
 30
0.0
 10
286.418269
 20
-11.873151
 30
0.0
 10
286.434626
 20
-11.468478
 30
0.0
 10
286.688347
 20
-11.379223
 30
0.0
  0
LWPOLYLINE
  5
135
100
AcDbEntity
  8
0
 62
1
100
AcDbPolyline
 90
22
 70
1
 10
297.450400
 20
-11.244984
 30
0.0
 10
297.662338
 20
-11.756514
 30
0.0
 10
297.656292
 20
-11.966496
 30
0.0
 10
297.379280
 20
-12.470915
 30
0.0
 10
296.793785
 20
-12.988312
 30
0.0
 10
296.068006
 20
-13.402764
 30
0.0
 10
295.370319
 20
-13.598344
 30
0.0
 10
295.285330
 20
-13.601722
 30
0.0
 10
294.858432
 20
-13.572919
 30
0.0
 10
294.861277
 20
-13.402408
 30
0.0
 10
295.093128
 20
-13.130019
 30
0.0
 10
295.670623
 20
-12.694942
 30
0.0
 10
296.119212
 20
-12.507897
 30
0.0
 10
296.576513
 20
-12.294537
 30
0.0
 10
296.709330
 20
-12.043839
 30
0.0
 10
296.475345
 20
-11.884175
 30
0.0
 10
296.327238
 20
-11.873151
 30
0.0
 10
296.048981
 20
-11.737845
 30
0.0
 10
296.119390
 20
-11.420472
 30
0.0
 10
296.507171
 20
-11.053493
 30
0.0
 10
296.527085
 20
-11.040692
 30
0.0
 10
297.020302
 20
-10.963882
 30
0.0
  0
LWPOLYLINE
  5
136
100
AcDbEntity
  8
0
 62
1
100
AcDbPolyline
 90
45
 70
1
 10
293.169689
 20
-7.025791
 30
0.0
 10
293.197781
 20
-7.030236
 30
0.0
 10
293.886756
 20
-7.139761
 30
0.0
 10
294.383884
 20
-7.214970
 30
0.0
 10
294.434024
 20
-7.222082
 30
0.0
 10
294.658585
 20
-7.318628
 30
0.0
 10
294.645428
 20
-7.360766
 30
0.0
 10
294.735039
 20
-7.578749
 30
0.0
 10
295.081216
 20
-7.989289
 30
0.0
 10
295.163004
 20
-8.072855
 30
0.0
 10
295.579233
 20
-8.604121
 30
0.0
 10
295.642530
 20
-9.113340
 30
0.0
 10
295.587946
 20
-9.354437
 30
0.0
 10
295.424548
 20
-10.138713
 30
0.0
 10
295.356095
 20
-10.733098
 30
0.0
 10
295.189140
 20
-11.304902
 30
0.0
 10
294.702502
 20
-11.879374
 30
0.0
 10
294.225998
 20
-12.270356
 30
0.0
 10
293.453457
 20
-12.826870
 30
0.0
 10
293.038650
 20
-13.047698
 30
0.0
 10
292.973220
 20
-12.928216
 30
0.0
 10
293.249343
 20
-12.464869
 30
0.0
 10
293.616144
 20
-11.966496
 30
0.0
 10
294.154878
 20
-11.175286
 30
0.0
 10
294.326633
 20
-10.674779
 30
0.0
 10
294.136920
 20
-10.429949
 30
0.0
 10
293.846040
 20
-10.391366
 30
0.0
 10
293.648682
 20
-10.317224
 30
0.0
 10
293.766563
 20
-10.033455
 30
0.0
 10
293.984012
 20
-9.740796
 30
0.0
 10
294.411266
 20
-9.049866
 30
0.0
 10
294.415355
 20
-8.552026
 30
0.0
 10
293.991302
 20
-8.179002
 30
0.0
 10
293.875910
 20
-8.122817
 30
0.0
 10
293.214494
 20
-7.968131
 30
0.0
 10
292.283534
 20
-8.023427
 30
0.0
 10
291.900375
 20
-8.086012
 30
0.0
 10
291.129612
 20
-8.214739
 30
0.0
 10
290.725650
 20
-8.221851
 30
0.0
 10
290.570075
 20
-8.079789
 30
0.0
 10
290.544650
 20
-7.767750
 30
0.0
 10
290.651508
 20
-7.354188
 30
0.0
 10
291.058136
 20
-7.122336
 30
0.0
 10
291.407513
 20
-7.041615
 30
0.0
 10
292.271621
 20
-6.971740
 30
0.0
  0
LWPOLYLINE
  5
137
100
AcDbEntity
  8
0
 62
1
100
AcDbPolyline
 90
27
 70
1
 10
272.182716
 20
-10.313312
 30
0.0
 10
272.905117
 20
-10.509248
 30
0.0
 10
273.738821
 20
-10.802440
 30
0.0
 10
274.084998
 20
-11.037136
 30
0.0
 10
273.948447
 20
-11.187199
 30
0.0
 10
273.334504
 20
-11.226315
 30
0.0
 10
272.772123
 20
-11.188799
 30
0.0
 10
271.965622
 20
-11.154484
 30
0.0
 10
271.581396
 20
-11.255830
 30
0.0
 10
271.530012
 20
-11.370866
 30
0.0
 10
271.736438
 20
-11.669748
 30
0.0
 10
272.023941
 20
-11.801498
 30
0.0
 10
272.424168
 20
-11.997078
 30
0.0
 10
272.517691
 20
-12.148919
 30
0.0
 10
272.473774
 20
-12.302360
 30
0.0
 10
272.246013
 20
-12.318362
 30
0.0
 10
271.690210
 20
-12.204570
 30
0.0
 10
271.653405
 20
-12.196214
 30
0.0
 10
270.483837
 20
-11.908356
 30
0.0
 10
269.743834
 20
-11.676860
 30
0.0
 10
269.375433
 20
-11.480924
 30
0.0
 10
269.307513
 20
-11.355753
 30
0.0
 10
269.514116
 20
-11.119457
 30
0.0
 10
270.041116
 20
-10.795506
 30
0.0
 10
270.426941
 20
-10.609349
 30
0.0
 10
271.099203
 20
-10.336071
 30
0.0
 10
271.611445
 20
-10.240414
 30
0.0
  0
LWPOLYLINE
  5
138
100
AcDbEntity
  8
0
 62
1
100
AcDbPolyline
 90
12
 70
1
 10
291.981451
 20
-9.770845
 30
0.0
 10
291.925622
 20
-10.021365
 30
0.0
 10
291.575179
 20
-10.429416
 30
0.0
 10
291.456942
 20
-10.535918
 30
0.0
 10
290.867357
 20
-10.976506
 30
0.0
 10
290.493977
 20
-11.120880
 30
0.0
 10
290.399032
 20
-10.951614
 30
0.0
 10
290.439570
 20
-10.823598
 30
0.0
 10
290.721917
 20
-10.448796
 30
0.0
 10
291.183485
 20
-10.069193
 30
0.0
 10
291.654655
 20
-9.800715
 30
0.0
 10
291.966161
 20
-9.758576
 30
0.0
  0
LWPOLYLINE
  5
139
100
AcDbEntity
  8
0
 62
1
100
AcDbPolyline
 90
10
 70
1
 10
290.349959
 20
-9.022307
 30
0.0
 10
290.008761
 20
-9.305364
 30
0.0
 10
289.680365
 20
-9.520680
 30
0.0
 10
288.952452
 20
-9.937265
 30
0.0
 10
288.519153
 20
-10.118088
 30
0.0
 10
288.423674
 20
-10.051591
 30
0.0
 10
288.618365
 20
-9.813161
 30
0.0
 10
289.208483
 20
-9.359949
 30
0.0
 10
289.883768
 20
-9.019106
 30
0.0
 10
290.343203
 20
-8.911004
 30
0.0
  0
LWPOLYLINE
  5
13a
100
AcDbEntity
  8
0
 62
1
100
AcDbPolyline
 90
12
 70
1
 10
288.146840
 20
-8.786544
 30
0.0
 10
287.749813
 20
-9.047021
 30
0.0
 10
287.334472
 20
-9.280117
 30
0.0
 10
286.650120
 20
-9.622382
 30
0.0
 10
286.132900
 20
-9.837520
 30
0.0
 10
285.976258
 20
-9.875213
 30
0.0
 10
286.028176
 20
-9.773867
 30
0.0
 10
286.425025
 20
-9.513212
 30
0.0
 10
286.840544
 20
-9.280117
 30
0.0
 10
287.524896
 20
-8.938030
 30
0.0
 10
288.042116
 20
-8.722892
 30
0.0
 10
288.198758
 20
-8.685198
 30
0.0
  0
LWPOLYLINE
  5
13b
100
AcDbEntity
  8
0
 62
1
100
AcDbPolyline
 90
25
 70
1
 10
274.075396
 20
-7.985022
 30
0.0
 10
274.838692
 20
-8.111260
 30
0.0
 10
275.411030
 20
-8.300261
 30
0.0
 10
275.557359
 20
-8.396273
 30
0.0
 10
275.627590
 20
-8.557182
 30
0.0
 10
275.354489
 20
-8.601632
 30
0.0
 10
274.671737
 20
-8.537802
 30
0.0
 10
274.555101
 20
-8.522689
 30
0.0
 10
273.728153
 20
-8.452991
 30
0.0
 10
273.322236
 20
-8.524467
 30
0.0
 10
273.258583
 20
-8.638792
 30
0.0
 10
273.456653
 20
-8.968078
 30
0.0
 10
273.628941
 20
-9.067468
 30
0.0
 10
273.925689
 20
-9.294163
 30
0.0
 10
273.997520
 20
-9.545750
 30
0.0
 10
273.814208
 20
-9.630383
 30
0.0
 10
273.483323
 20
-9.526192
 30
0.0
 10
272.909562
 20
-9.295941
 30
0.0
 10
272.798971
 20
-9.248113
 30
0.0
 10
272.266815
 20
-8.993859
 30
0.0
 10
272.128665
 20
-8.790100
 30
0.0
 10
272.323889
 20
-8.494774
 30
0.0
 10
272.428258
 20
-8.378493
 30
0.0
 10
272.818173
 20
-8.064498
 30
0.0
 10
273.335037
 20
-7.951062
 30
0.0
  0
LWPOLYLINE
  5
13c
100
AcDbEntity
  8
0
 62
1
100
AcDbPolyline
 90
29
 70
1
 10
283.548044
 20
-5.036743
 30
0.0
 10
283.815455
 20
-5.173827
 30
0.0
 10
284.265645
 20
-5.500090
 30
0.0
 10
284.287870
 20
-5.815151
 30
0.0
 10
283.863995
 20
-6.175907
 30
0.0
 10
283.411494
 20
-6.425894
 30
0.0
 10
282.662956
 20
-6.931557
 30
0.0
 10
281.909262
 20
-7.627111
 30
0.0
 10
281.662120
 20
-7.912657
 30
0.0
 10
281.181349
 20
-8.479128
 30
0.0
 10
280.813125
 20
-8.840417
 30
0.0
 10
280.692399
 20
-8.909759
 30
0.0
 10
280.431389
 20
-8.742094
 30
0.0
 10
279.987422
 20
-8.320175
 30
0.0
 10
279.788998
 20
-8.107170
 30
0.0
 10
279.435531
 20
-7.698764
 30
0.0
 10
279.344320
 20
-7.556524
 30
0.0
 10
279.421841
 20
-7.613242
 30
0.0
 10
279.940306
 20
-7.883676
 30
0.0
 10
280.552471
 20
-7.814156
 30
0.0
 10
281.343325
 20
-7.384769
 30
0.0
 10
281.794937
 20
-7.057617
 30
0.0
 10
282.468976
 20
-6.585381
 30
0.0
 10
283.022468
 20
-6.271386
 30
0.0
 10
283.264276
 20
-6.193332
 30
0.0
 10
283.691707
 20
-6.021933
 30
0.0
 10
283.767449
 20
-5.612104
 30
0.0
 10
283.589827
 20
-5.277840
 30
0.0
 10
283.398515
 20
-5.013451
 30
0.0
  0
LWPOLYLINE
  5
13d
100
AcDbEntity
  8
0
 62
1
100
AcDbPolyline
 90
14
 70
1
 10
277.264416
 20
-6.014998
 30
0.0
 10
277.816663
 20
-6.194576
 30
0.0
 10
277.917475
 20
-6.277076
 30
0.0
 10
277.987351
 20
-6.463588
 30
0.0
 10
277.754789
 20
-6.568490
 30
0.0
 10
277.141912
 20
-6.614184
 30
0.0
 10
276.728172
 20
-6.621474
 30
0.0
 10
275.924516
 20
-6.608317
 30
0.0
 10
275.340087
 20
-6.559777
 30
0.0
 10
275.132595
 20
-6.503415
 30
0.0
 10
275.070720
 20
-6.235470
 30
0.0
 10
275.443389
 20
-6.043269
 30
0.0
 10
276.193349
 20
-5.951168
 30
0.0
 10
276.453293
 20
-5.946368
 30
0.0
  0
SPLINE
  5
13e
100
AcDbEntity
  8
0
 62
7
100
AcDbSpline
 70
8
 71
3
 72
8
 73
4
 74
0
 40
0
 40
0
 40
0
 40
0
 40
1
 40
1
 40
1
 40
1
 10
141.941366
 20
-2.385634
 30
0.0
 10
141.941366
 20
-2.610736
 30
0.0
 10
141.901575
 20
-2.819921
 30
0.0
 10
141.821993
 20
-3.013191
 30
0.0
  0
SPLINE
  5
13f
100
AcDbEntity
  8
0
 62
7
100
AcDbSpline
 70
8
 71
3
 72
8
 73
4
 74
0
 40
0
 40
0
 40
0
 40
0
 40
1
 40
1
 40
1
 40
1
 10
141.821993
 20
-3.013191
 30
0.0
 10
141.744686
 20
-3.204187
 30
0.0
 10
141.635546
 20
-3.370171
 30
0.0
 10
141.494572
 20
-3.511144
 30
0.0
  0
SPLINE
  5
140
100
AcDbEntity
  8
0
 62
7
100
AcDbSpline
 70
8
 71
3
 72
8
 73
4
 74
0
 40
0
 40
0
 40
0
 40
0
 40
1
 40
1
 40
1
 40
1
 10
141.494572
 20
-3.511144
 30
0.0
 10
141.319493
 20
-3.686224
 30
0.0
 10
141.112581
 20
-3.818102
 30
0.0
 10
140.873835
 20
-3.906778
 30
0.0
  0
SPLINE
  5
141
100
AcDbEntity
  8
0
 62
7
100
AcDbSpline
 70
8
 71
3
 72
8
 73
4
 74
0
 40
0
 40
0
 40
0
 40
0
 40
1
 40
1
 40
1
 40
1
 10
140.873835
 20
-3.906778
 30
0.0
 10
140.635091
 20
-3.993181
 30
0.0
 10
140.333818
 20
-4.036382
 30
0.0
 10
139.970017
 20
-4.036382
 30
0.0
  0
LWPOLYLINE
  5
142
100
AcDbEntity
  8
0
 62
1
100
AcDbPolyline
 90
16
 70
1
 10
280.507487
 20
-4.059021
 30
0.0
 10
280.913938
 20
-4.341367
 30
0.0
 10
281.063823
 20
-4.609668
 30
0.0
 10
280.830372
 20
-4.704435
 30
0.0
 10
280.573629
 20
-4.711725
 30
0.0
 10
280.095525
 20
-4.616780
 30
0.0
 10
279.926082
 20
-4.421733
 30
0.0
 10
279.776730
 20
-4.367148
 30
0.0
 10
279.411351
 20
-4.616780
 30
0.0
 10
279.354632
 20
-4.668697
 30
0.0
 10
278.810920
 20
-5.109997
 30
0.0
 10
278.519862
 20
-5.158714
 30
0.0
 10
278.444475
 20
-4.884546
 30
0.0
 10
278.656234
 20
-4.404842
 30
0.0
 10
279.181100
 20
-4.083024
 30
0.0
 10
279.853361
 20
-3.955542
 30
0.0
  0
SPLINE
  5
143
100
AcDbEntity
  8
0
 62
7
100
AcDbSpline
 70
8
 71
3
 72
8
 73
4
 74
0
 40
0
 40
0
 40
0
 40
0
 40
1
 40
1
 40
1
 40
1
 10
139.997302
 20
-0.850846
 30
0.0
 10
140.301985
 20
-0.850846
 30
0.0
 10
140.560056
 20
-0.876995
 30
0.0
 10
140.771517
 20
-0.929291
 30
0.0
  0
SPLINE
  5
144
100
AcDbEntity
  8
0
 62
7
100
AcDbSpline
 70
8
 71
3
 72
8
 73
4
 74
0
 40
0
 40
0
 40
0
 40
0
 40
1
 40
1
 40
1
 40
1
 10
140.771517
 20
-0.929291
 30
0.0
 10
140.982976
 20
-0.979314
 30
0.0
 10
141.170561
 20
-1.058895
 30
0.0
 10
141.334271
 20
-1.168036
 30
0.0
  0
SPLINE
  5
145
100
AcDbEntity
  8
0
 62
7
100
AcDbSpline
 70
8
 71
3
 72
8
 73
4
 74
0
 40
0
 40
0
 40
0
 40
0
 40
1
 40
1
 40
1
 40
1
 10
141.334271
 20
-1.168036
 30
0.0
 10
141.527542
 20
-1.297640
 30
0.0
 10
141.676474
 20
-1.459077
 30
0.0
 10
141.781065
 20
-1.652346
 30
0.0
  0
SPLINE
  5
146
100
AcDbEntity
  8
0
 62
7
100
AcDbSpline
 70
8
 71
3
 72
8
 73
4
 74
0
 40
0
 40
0
 40
0
 40
0
 40
1
 40
1
 40
1
 40
1
 10
141.781065
 20
-1.652346
 30
0.0
 10
141.887932
 20
-1.845616
 30
0.0
 10
141.941366
 20
-2.090045
 30
0.0
 10
141.941366
 20
-2.385634
 30
0.0
  0
LWPOLYLINE
  5
147
100
AcDbEntity
  8
0
 62
7
100
AcDbPolyline
 90
6
 70
0
 10
139.970017
 20
-4.036382
 30
0.0
 10
139.294710
 20
-4.036382
 30
0.0
 10
139.294710
 20
-5.929287
 30
0.0
 10
138.619403
 20
-5.929287
 30
0.0
 10
138.619403
 20
-0.850846
 30
0.0
 10
139.997302
 20
-0.850846
 30
0.0
  0
SPLINE
  5
148
100
AcDbEntity
  8
0
 62
7
100
AcDbSpline
 70
8
 71
3
 72
8
 73
4
 74
0
 40
0
 40
0
 40
0
 40
0
 40
1
 40
1
 40
1
 40
1
 10
141.238773
 20
-2.402687
 30
0.0
 10
141.238773
 20
-2.227607
 30
0.0
 10
141.208077
 20
-2.075265
 30
0.0
 10
141.146685
 20
-1.945661
 30
0.0
  0
SPLINE
  5
149
100
AcDbEntity
  8
0
 62
7
100
AcDbSpline
 70
8
 71
3
 72
8
 73
4
 74
0
 40
0
 40
0
 40
0
 40
0
 40
1
 40
1
 40
1
 40
1
 10
141.146685
 20
-1.945661
 30
0.0
 10
141.085296
 20
-1.816057
 30
0.0
 10
140.992072
 20
-1.710327
 30
0.0
 10
140.867015
 20
-1.628472
 30
0.0
  0
SPLINE
  5
14a
100
AcDbEntity
  8
0
 62
7
100
AcDbSpline
 70
8
 71
3
 72
8
 73
4
 74
0
 40
0
 40
0
 40
0
 40
0
 40
1
 40
1
 40
1
 40
1
 10
140.867015
 20
-1.628472
 30
0.0
 10
140.757875
 20
-1.557985
 30
0.0
 10
140.632818
 20
-1.507963
 30
0.0
 10
140.491844
 20
-1.478404
 30
0.0
  0
SPLINE
  5
14b
100
AcDbEntity
  8
0
 62
7
100
AcDbSpline
 70
8
 71
3
 72
8
 73
4
 74
0
 40
0
 40
0
 40
0
 40
0
 40
1
 40
1
 40
1
 40
1
 10
140.491844
 20
-1.478404
 30
0.0
 10
140.353145
 20
-1.446571
 30
0.0
 10
140.176929
 20
-1.430655
 30
0.0
 10
139.963194
 20
-1.430655
 30
0.0
  0
LWPOLYLINE
  5
14c
100
AcDbEntity
  8
0
 62
7
100
AcDbPolyline
 90
1
 70
1
 10
141.941366
 20
-2.385634
 30
0.0
  0
SPLINE
  5
14d
100
AcDbEntity
  8
0
 62
7
100
AcDbSpline
 70
8
 71
3
 72
8
 73
4
 74
0
 40
0
 40
0
 40
0
 40
0
 40
1
 40
1
 40
1
 40
1
 10
139.864287
 20
-3.459985
 30
0.0
 10
140.137138
 20
-3.459985
 30
0.0
 10
140.358829
 20
-3.436110
 30
0.0
 10
140.529361
 20
-3.388361
 30
0.0
  0
SPLINE
  5
14e
100
AcDbEntity
  8
0
 62
7
100
AcDbSpline
 70
8
 71
3
 72
8
 73
4
 74
0
 40
0
 40
0
 40
0
 40
0
 40
1
 40
1
 40
1
 40
1
 10
140.529361
 20
-3.388361
 30
0.0
 10
140.699894
 20
-3.338338
 30
0.0
 10
140.838593
 20
-3.259894
 30
0.0
 10
140.945461
 20
-3.153027
 30
0.0
  0
SPLINE
  5
14f
100
AcDbEntity
  8
0
 62
7
100
AcDbSpline
 70
8
 71
3
 72
8
 73
4
 74
0
 40
0
 40
0
 40
0
 40
0
 40
1
 40
1
 40
1
 40
1
 10
140.945461
 20
-3.153027
 30
0.0
 10
141.052325
 20
-3.043887
 30
0.0
 10
141.127359
 20
-2.929062
 30
0.0
 10
141.170561
 20
-2.808553
 30
0.0
  0
SPLINE
  5
150
100
AcDbEntity
  8
0
 62
7
100
AcDbSpline
 70
8
 71
3
 72
8
 73
4
 74
0
 40
0
 40
0
 40
0
 40
0
 40
1
 40
1
 40
1
 40
1
 10
141.170561
 20
-2.808553
 30
0.0
 10
141.216036
 20
-2.688043
 30
0.0
 10
141.238773
 20
-2.552755
 30
0.0
 10
141.238773
 20
-2.402687
 30
0.0
  0
LWPOLYLINE
  5
151
100
AcDbEntity
  8
0
 62
7
100
AcDbPolyline
 90
4
 70
0
 10
139.963194
 20
-1.430655
 30
0.0
 10
139.294710
 20
-1.430655
 30
0.0
 10
139.294710
 20
-3.459985
 30
0.0
 10
139.864287
 20
-3.459985
 30
0.0
  0
LWPOLYLINE
  5
152
100
AcDbEntity
  8
0
 62
7
100
AcDbPolyline
 90
1
 70
1
 10
141.238773
 20
-2.402687
 30
0.0
  0
LWPOLYLINE
  5
153
100
AcDbEntity
  8
0
 62
7
100
AcDbPolyline
 90
12
 70
1
 10
144.622127
 20
-5.929287
 30
0.0
 10
142.616673
 20
-5.929287
 30
0.0
 10
142.616673
 20
-5.410870
 30
0.0
 10
143.281748
 20
-5.410870
 30
0.0
 10
143.281748
 20
-1.369263
 30
0.0
 10
142.616673
 20
-1.369263
 30
0.0
 10
142.616673
 20
-0.850846
 30
0.0
 10
144.622127
 20
-0.850846
 30
0.0
 10
144.622127
 20
-1.369263
 30
0.0
 10
143.957052
 20
-1.369263
 30
0.0
 10
143.957052
 20
-5.410870
 30
0.0
 10
144.622127
 20
-5.410870
 30
0.0
  0
SPLINE
  5
154
100
AcDbEntity
  8
0
 62
7
100
AcDbSpline
 70
8
 71
3
 72
8
 73
4
 74
0
 40
0
 40
0
 40
0
 40
0
 40
1
 40
1
 40
1
 40
1
 10
155.931805
 20
-4.316055
 30
0.0
 10
155.931805
 20
-4.552526
 30
0.0
 10
155.888603
 20
-4.778765
 30
0.0
 10
155.802199
 20
-4.994772
 30
0.0
  0
SPLINE
  5
155
100
AcDbEntity
  8
0
 62
7
100
AcDbSpline
 70
8
 71
3
 72
8
 73
4
 74
0
 40
0
 40
0
 40
0
 40
0
 40
1
 40
1
 40
1
 40
1
 10
155.802199
 20
-4.994772
 30
0.0
 10
155.715798
 20
-5.210779
 30
0.0
 10
155.597562
 20
-5.392680
 30
0.0
 10
155.447493
 20
-5.540474
 30
0.0
  0
SPLINE
  5
156
100
AcDbEntity
  8
0
 62
7
100
AcDbSpline
 70
8
 71
3
 72
8
 73
4
 74
0
 40
0
 40
0
 40
0
 40
0
 40
1
 40
1
 40
1
 40
1
 10
155.447493
 20
-5.540474
 30
0.0
 10
155.283783
 20
-5.699637
 30
0.0
 10
155.088240
 20
-5.822420
 30
0.0
 10
154.860864
 20
-5.908823
 30
0.0
  0
SPLINE
  5
157
100
AcDbEntity
  8
0
 62
7
100
AcDbSpline
 70
8
 71
3
 72
8
 73
4
 74
0
 40
0
 40
0
 40
0
 40
0
 40
1
 40
1
 40
1
 40
1
 10
154.860864
 20
-5.908823
 30
0.0
 10
154.635762
 20
-5.992952
 30
0.0
 10
154.374279
 20
-6.035016
 30
0.0
 10
154.076416
 20
-6.035016
 30
0.0
  0
SPLINE
  5
158
100
AcDbEntity
  8
0
 62
7
100
AcDbSpline
 70
8
 71
3
 72
8
 73
4
 74
0
 40
0
 40
0
 40
0
 40
0
 40
1
 40
1
 40
1
 40
1
 10
154.076416
 20
-6.035016
 30
0.0
 10
153.799019
 20
-6.035016
 30
0.0
 10
153.531853
 20
-6.005458
 30
0.0
 10
153.274916
 20
-5.946340
 30
0.0
  0
SPLINE
  5
159
100
AcDbEntity
  8
0
 62
7
100
AcDbSpline
 70
8
 71
3
 72
8
 73
4
 74
0
 40
0
 40
0
 40
0
 40
0
 40
1
 40
1
 40
1
 40
1
 10
153.274916
 20
-5.946340
 30
0.0
 10
153.017982
 20
-5.889496
 30
0.0
 10
152.800838
 20
-5.820146
 30
0.0
 10
152.623484
 20
-5.738291
 30
0.0
  0
LWPOLYLINE
  5
15a
100
AcDbEntity
  8
0
 62
7
100
AcDbPolyline
 90
7
 70
1
 10
151.545724
 20
-1.611419
 30
0.0
 10
149.246954
 20
-5.929287
 30
0.0
 10
148.517077
 20
-5.929287
 30
0.0
 10
150.962504
 20
-1.447708
 30
0.0
 10
148.070283
 20
-1.447708
 30
0.0
 10
148.070283
 20
-0.850846
 30
0.0
 10
151.545724
 20
-0.850846
 30
0.0
  0
SPLINE
  5
15b
100
AcDbEntity
  8
0
 62
7
100
AcDbSpline
 70
8
 71
3
 72
8
 73
4
 74
0
 40
0
 40
0
 40
0
 40
0
 40
1
 40
1
 40
1
 40
1
 10
152.671235
 20
-5.018646
 30
0.0
 10
152.857682
 20
-5.136882
 30
0.0
 10
153.075962
 20
-5.238064
 30
0.0
 10
153.326077
 20
-5.322193
 30
0.0
  0
SPLINE
  5
15c
100
AcDbEntity
  8
0
 62
7
100
AcDbSpline
 70
8
 71
3
 72
8
 73
4
 74
0
 40
0
 40
0
 40
0
 40
0
 40
1
 40
1
 40
1
 40
1
 10
153.326077
 20
-5.322193
 30
0.0
 10
153.576191
 20
-5.404048
 30
0.0
 10
153.821757
 20
-5.444976
 30
0.0
 10
154.062774
 20
-5.444976
 30
0.0
  0
SPLINE
  5
15d
100
AcDbEntity
  8
0
 62
7
100
AcDbSpline
 70
8
 71
3
 72
8
 73
4
 74
0
 40
0
 40
0
 40
0
 40
0
 40
1
 40
1
 40
1
 40
1
 10
154.062774
 20
-5.444976
 30
0.0
 10
154.224211
 20
-5.444976
 30
0.0
 10
154.379964
 20
-5.422239
 30
0.0
 10
154.530033
 20
-5.376763
 30
0.0
  0
SPLINE
  5
15e
100
AcDbEntity
  8
0
 62
7
100
AcDbSpline
 70
8
 71
3
 72
8
 73
4
 74
0
 40
0
 40
0
 40
0
 40
0
 40
1
 40
1
 40
1
 40
1
 10
154.530033
 20
-5.376763
 30
0.0
 10
154.682373
 20
-5.331288
 30
0.0
 10
154.817661
 20
-5.251706
 30
0.0
 10
154.935896
 20
-5.138019
 30
0.0
  0
SPLINE
  5
15f
100
AcDbEntity
  8
0
 62
7
100
AcDbSpline
 70
8
 71
3
 72
8
 73
4
 74
0
 40
0
 40
0
 40
0
 40
0
 40
1
 40
1
 40
1
 40
1
 10
154.935896
 20
-5.138019
 30
0.0
 10
155.035942
 20
-5.040247
 30
0.0
 10
155.110976
 20
-4.923148
 30
0.0
 10
155.161000
 20
-4.786723
 30
0.0
  0
SPLINE
  5
160
100
AcDbEntity
  8
0
 62
7
100
AcDbSpline
 70
8
 71
3
 72
8
 73
4
 74
0
 40
0
 40
0
 40
0
 40
0
 40
1
 40
1
 40
1
 40
1
 10
155.161000
 20
-4.786723
 30
0.0
 10
155.213297
 20
-4.650297
 30
0.0
 10
155.239445
 20
-4.492271
 30
0.0
 10
155.239445
 20
-4.312644
 30
0.0
  0
SPLINE
  5
161
100
AcDbEntity
  8
0
 62
7
100
AcDbSpline
 70
8
 71
3
 72
8
 73
4
 74
0
 40
0
 40
0
 40
0
 40
0
 40
1
 40
1
 40
1
 40
1
 10
155.239445
 20
-4.312644
 30
0.0
 10
155.239445
 20
-4.137565
 30
0.0
 10
155.208749
 20
-3.989770
 30
0.0
 10
155.147357
 20
-3.869261
 30
0.0
  0
SPLINE
  5
162
100
AcDbEntity
  8
0
 62
7
100
AcDbSpline
 70
8
 71
3
 72
8
 73
4
 74
0
 40
0
 40
0
 40
0
 40
0
 40
1
 40
1
 40
1
 40
1
 10
155.147357
 20
-3.869261
 30
0.0
 10
155.088239
 20
-3.748752
 30
0.0
 10
155.005247
 20
-3.652117
 30
0.0
 10
154.898382
 20
-3.579357
 30
0.0
  0
SPLINE
  5
163
100
AcDbEntity
  8
0
 62
7
100
AcDbSpline
 70
8
 71
3
 72
8
 73
4
 74
0
 40
0
 40
0
 40
0
 40
0
 40
1
 40
1
 40
1
 40
1
 10
154.898382
 20
-3.579357
 30
0.0
 10
154.780147
 20
-3.492954
 30
0.0
 10
154.635763
 20
-3.432699
 30
0.0
 10
154.465230
 20
-3.398593
 30
0.0
  0
SPLINE
  5
164
100
AcDbEntity
  8
0
 62
7
100
AcDbSpline
 70
8
 71
3
 72
8
 73
4
 74
0
 40
0
 40
0
 40
0
 40
0
 40
1
 40
1
 40
1
 40
1
 10
154.465230
 20
-3.398593
 30
0.0
 10
154.296971
 20
-3.362213
 30
0.0
 10
154.108249
 20
-3.344023
 30
0.0
 10
153.899063
 20
-3.344023
 30
0.0
  0
SPLINE
  5
165
100
AcDbEntity
  8
0
 62
7
100
AcDbSpline
 70
8
 71
3
 72
8
 73
4
 74
0
 40
0
 40
0
 40
0
 40
0
 40
1
 40
1
 40
1
 40
1
 10
153.899063
 20
-3.344023
 30
0.0
 10
153.698973
 20
-3.344023
 30
0.0
 10
153.505703
 20
-3.357666
 30
0.0
 10
153.319254
 20
-3.384951
 30
0.0
  0
SPLINE
  5
166
100
AcDbEntity
  8
0
 62
7
100
AcDbSpline
 70
8
 71
3
 72
8
 73
4
 74
0
 40
0
 40
0
 40
0
 40
0
 40
1
 40
1
 40
1
 40
1
 10
153.319254
 20
-3.384951
 30
0.0
 10
153.135080
 20
-3.412236
 30
0.0
 10
152.975917
 20
-3.439521
 30
0.0
 10
152.841765
 20
-3.466806
 30
0.0
  0
LWPOLYLINE
  5
167
100
AcDbEntity
  8
0
 62
7
100
AcDbPolyline
 90
3
 70
0
 10
152.623484
 20
-5.738291
 30
0.0
 10
152.623484
 20
-5.018646
 30
0.0
 10
152.671235
 20
-5.018646
 30
0.0
  0
SPLINE
  5
168
100
AcDbEntity
  8
0
 62
7
100
AcDbSpline
 70
8
 71
3
 72
8
 73
4
 74
0
 40
0
 40
0
 40
0
 40
0
 40
1
 40
1
 40
1
 40
1
 10
153.500020
 20
-2.798321
 30
0.0
 10
153.597792
 20
-2.789226
 30
0.0
 10
153.697837
 20
-2.782404
 30
0.0
 10
153.800156
 20
-2.777857
 30
0.0
  0
SPLINE
  5
169
100
AcDbEntity
  8
0
 62
7
100
AcDbSpline
 70
8
 71
3
 72
8
 73
4
 74
0
 40
0
 40
0
 40
0
 40
0
 40
1
 40
1
 40
1
 40
1
 10
153.800156
 20
-2.777857
 30
0.0
 10
153.902474
 20
-2.773309
 30
0.0
 10
153.991150
 20
-2.771036
 30
0.0
 10
154.066184
 20
-2.771036
 30
0.0
  0
SPLINE
  5
16a
100
AcDbEntity
  8
0
 62
7
100
AcDbSpline
 70
8
 71
3
 72
8
 73
4
 74
0
 40
0
 40
0
 40
0
 40
0
 40
1
 40
1
 40
1
 40
1
 10
154.066184
 20
-2.771036
 30
0.0
 10
154.341310
 20
-2.771036
 30
0.0
 10
154.582329
 20
-2.794910
 30
0.0
 10
154.789242
 20
-2.842659
 30
0.0
  0
SPLINE
  5
16b
100
AcDbEntity
  8
0
 62
7
100
AcDbSpline
 70
8
 71
3
 72
8
 73
4
 74
0
 40
0
 40
0
 40
0
 40
0
 40
1
 40
1
 40
1
 40
1
 10
154.789242
 20
-2.842659
 30
0.0
 10
154.996152
 20
-2.888134
 30
0.0
 10
155.186011
 20
-2.969990
 30
0.0
 10
155.358818
 20
-3.088225
 30
0.0
  0
SPLINE
  5
16c
100
AcDbEntity
  8
0
 62
7
100
AcDbSpline
 70
8
 71
3
 72
8
 73
4
 74
0
 40
0
 40
0
 40
0
 40
0
 40
1
 40
1
 40
1
 40
1
 10
155.358818
 20
-3.088225
 30
0.0
 10
155.540719
 20
-3.213282
 30
0.0
 10
155.681692
 20
-3.374719
 30
0.0
 10
155.781737
 20
-3.572536
 30
0.0
  0
SPLINE
  5
16d
100
AcDbEntity
  8
0
 62
7
100
AcDbSpline
 70
8
 71
3
 72
8
 73
4
 74
0
 40
0
 40
0
 40
0
 40
0
 40
1
 40
1
 40
1
 40
1
 10
155.781737
 20
-3.572536
 30
0.0
 10
155.881782
 20
-3.770353
 30
0.0
 10
155.931805
 20
-4.018192
 30
0.0
 10
155.931805
 20
-4.316055
 30
0.0
  0
LWPOLYLINE
  5
16e
100
AcDbEntity
  8
0
 62
7
100
AcDbPolyline
 90
6
 70
0
 10
152.841765
 20
-3.466806
 30
0.0
 10
152.841765
 20
-0.850846
 30
0.0
 10
155.897697
 20
-0.850846
 30
0.0
 10
155.897697
 20
-1.447708
 30
0.0
 10
153.500020
 20
-1.447708
 30
0.0
 10
153.500020
 20
-2.798321
 30
0.0
  0
LWPOLYLINE
  5
16f
100
AcDbEntity
  8
0
 62
7
100
AcDbPolyline
 90
1
 70
1
 10
155.931805
 20
-4.316055
 30
0.0
  0
ENDSEC
  0
SECTION
  2
OBJECTS
  0
DICTIONARY
  5
C
330
0
100
AcDbDictionary
  3
ACAD_GROUP
350
D
  3
ACAD_MLINESTYLE
350
17
  0
DICTIONARY
  5
D
330
C
100
AcDbDictionary
  0
DICTIONARY
  5
1A
330
C
100
AcDbDictionary
  0
DICTIONARY
  5
17
330
C
100
AcDbDictionary
  3
STANDARD
350
18
  0
DICTIONARY
  5
19
330
C
100
AcDbDictionary
  0
ENDSEC
  0
EOF
