M48
; DRILL file {KiCad (5.1.10)-1} date 06/02/21 05:42:38
; FORMAT={-:-/ absolute / metric / decimal}
; #@! TF.CreationDate,2021-06-02T05:42:38-04:00
; #@! TF.GenerationSoftware,Kicad,Pcbnew,(5.1.10)-1
; #@! TF.FileFunction,NonPlated,1,2,NPTH
FMAT,2
METRIC
T1C1.750
T2C3.000
T3C3.048
T4C3.988
%
G90
G05
T1
X-9.049Y-49.212
X-9.049Y-73.025
X-6.667Y-149.225
X-4.286Y-92.075
X-1.905Y-111.125
X1.111Y-49.212
X1.111Y-73.025
X2.857Y-130.175
X3.492Y-149.225
X5.874Y-92.075
X8.255Y-111.125
X10.001Y-73.025
X13.018Y-130.175
X16.351Y-49.212
X17.145Y-149.225
X19.526Y-92.075
X20.161Y-73.025
X24.289Y-111.125
X26.511Y-49.212
X27.305Y-149.225
X29.051Y-73.025
X29.686Y-92.075
X33.814Y-130.175
X34.449Y-111.125
X35.401Y-49.212
X38.576Y-92.075
X39.211Y-73.025
X40.957Y-149.225
X43.339Y-111.125
X43.974Y-130.175
X45.561Y-49.212
X48.101Y-73.025
X48.736Y-92.075
X51.117Y-149.225
X52.864Y-130.175
X53.499Y-111.125
X54.451Y-49.212
X57.626Y-92.075
X58.261Y-73.025
X62.389Y-111.125
X63.024Y-130.175
X64.611Y-49.212
X67.151Y-73.025
X67.786Y-92.075
X71.914Y-130.175
X72.549Y-111.125
X73.501Y-49.212
X76.676Y-92.075
X77.311Y-73.025
X81.439Y-111.125
X82.074Y-130.175
X83.661Y-49.212
X86.201Y-73.025
X86.836Y-92.075
X90.964Y-130.175
X91.599Y-111.125
X95.726Y-92.075
X96.361Y-73.025
X97.314Y-49.212
X100.489Y-111.125
X101.124Y-130.175
X105.251Y-73.025
X105.886Y-92.075
X107.474Y-49.212
X110.014Y-130.175
X110.649Y-111.125
X112.395Y-149.225
X114.776Y-92.075
X115.411Y-73.025
X116.364Y-49.212
X119.539Y-111.125
X120.174Y-130.175
X122.555Y-149.225
X124.301Y-73.025
X124.936Y-92.075
X126.524Y-49.212
X129.064Y-130.175
X129.699Y-111.125
X133.826Y-92.075
X134.461Y-73.025
X135.414Y-49.212
X138.589Y-111.125
X139.224Y-130.175
X143.351Y-73.025
X143.986Y-92.075
X145.574Y-49.212
X148.114Y-130.175
X148.749Y-111.125
X152.876Y-92.075
X153.511Y-73.025
X154.464Y-49.212
X157.639Y-111.125
X158.274Y-130.175
X162.401Y-73.025
X163.036Y-92.075
X164.624Y-49.212
X167.164Y-130.175
X167.799Y-111.125
X171.926Y-92.075
X172.561Y-73.025
X176.689Y-111.125
X177.324Y-130.175
X178.276Y-49.212
X181.451Y-73.025
X182.086Y-92.075
X186.214Y-130.175
X186.214Y-149.225
X186.849Y-111.125
X188.436Y-49.212
X190.976Y-92.075
X191.611Y-73.025
X195.739Y-111.125
X196.374Y-130.175
X196.374Y-149.225
X197.326Y-49.212
X200.501Y-73.025
X201.136Y-92.075
X205.264Y-130.175
X205.899Y-111.125
X207.486Y-49.212
X210.026Y-92.075
X210.661Y-73.025
X214.789Y-111.125
X214.789Y-149.225
X215.424Y-130.175
X216.376Y-49.212
X219.551Y-73.025
X220.186Y-92.075
X224.949Y-111.125
X224.949Y-149.225
X226.536Y-49.212
X229.076Y-92.075
X229.711Y-73.025
X235.426Y-49.212
X235.426Y-130.175
X239.236Y-92.075
X245.586Y-49.212
X245.586Y-130.175
X245.745Y-111.125
X246.539Y-149.225
X248.126Y-73.025
X252.889Y-92.075
X255.905Y-111.125
X256.699Y-149.225
X258.286Y-73.025
X260.032Y-49.212
X263.049Y-92.075
X265.589Y-130.175
X265.589Y-149.225
X270.192Y-49.212
X275.749Y-130.175
X275.749Y-149.225
X284.639Y-73.025
X284.639Y-92.075
X284.639Y-111.125
X284.639Y-130.175
X284.639Y-149.225
X294.799Y-73.025
X294.799Y-92.075
X294.799Y-111.125
X294.799Y-130.175
X294.799Y-149.225
T2
X-7.779Y-46.672
X-7.779Y-70.485
X-5.397Y-146.685
X-3.016Y-89.535
X-1.429Y-44.133
X-1.429Y-67.945
X-0.635Y-108.585
X0.952Y-144.145
X3.334Y-86.995
X4.127Y-127.635
X5.715Y-106.045
X10.477Y-125.095
X11.271Y-70.485
X17.621Y-46.672
X17.621Y-67.945
X18.415Y-146.685
X20.796Y-89.535
X23.971Y-44.133
X24.765Y-144.145
X25.559Y-108.585
X27.146Y-86.995
X30.321Y-70.485
X31.909Y-106.045
X35.084Y-127.635
X36.671Y-46.672
X36.671Y-67.945
X39.846Y-89.535
X41.434Y-125.095
X42.227Y-146.685
X43.021Y-44.133
X44.609Y-108.585
X46.196Y-86.995
X48.578Y-144.145
X49.371Y-70.485
X50.959Y-106.045
X54.134Y-127.635
X55.721Y-46.672
X55.721Y-67.945
X58.896Y-89.535
X60.484Y-125.095
X62.071Y-44.133
X63.659Y-108.585
X65.246Y-86.995
X68.421Y-70.485
X70.009Y-106.045
X73.184Y-127.635
X74.771Y-46.672
X74.771Y-67.945
X77.946Y-89.535
X79.534Y-125.095
X81.121Y-44.133
X82.709Y-108.585
X84.296Y-86.995
X87.471Y-70.485
X89.059Y-106.045
X92.234Y-127.635
X93.821Y-67.945
X96.996Y-89.535
X98.584Y-46.672
X98.584Y-125.095
X101.759Y-108.585
X103.346Y-86.995
X104.934Y-44.133
X106.521Y-70.485
X108.109Y-106.045
X111.284Y-127.635
X112.871Y-67.945
X113.665Y-146.685
X116.046Y-89.535
X117.634Y-46.672
X117.634Y-125.095
X120.015Y-144.145
X120.809Y-108.585
X122.396Y-86.995
X123.984Y-44.133
X125.571Y-70.485
X127.159Y-106.045
X130.334Y-127.635
X131.921Y-67.945
X135.096Y-89.535
X136.684Y-46.672
X136.684Y-125.095
X139.859Y-108.585
X141.446Y-86.995
X143.034Y-44.133
X144.621Y-70.485
X146.209Y-106.045
X149.384Y-127.635
X150.971Y-67.945
X154.146Y-89.535
X155.734Y-46.672
X155.734Y-125.095
X158.909Y-108.585
X160.496Y-86.995
X162.084Y-44.133
X163.671Y-70.485
X165.259Y-106.045
X168.434Y-127.635
X170.021Y-67.945
X173.196Y-89.535
X174.784Y-125.095
X177.959Y-108.585
X179.546Y-46.672
X179.546Y-86.995
X182.721Y-70.485
X184.309Y-106.045
X185.896Y-44.133
X187.484Y-127.635
X187.484Y-146.685
X189.071Y-67.945
X192.246Y-89.535
X193.834Y-125.095
X193.834Y-144.145
X197.009Y-108.585
X198.596Y-46.672
X198.596Y-86.995
X201.771Y-70.485
X203.359Y-106.045
X204.946Y-44.133
X206.534Y-127.635
X208.121Y-67.945
X211.296Y-89.535
X212.884Y-125.095
X216.059Y-108.585
X216.059Y-146.685
X217.646Y-46.672
X217.646Y-86.995
X220.821Y-70.485
X222.409Y-106.045
X222.409Y-144.145
X223.996Y-44.133
X227.171Y-67.945
X230.346Y-89.535
X236.696Y-46.672
X236.696Y-86.995
X236.696Y-127.635
X243.046Y-44.133
X243.046Y-125.095
X247.015Y-108.585
X247.809Y-146.685
X249.396Y-70.485
X253.365Y-106.045
X254.159Y-89.535
X254.159Y-144.145
X255.746Y-67.945
X260.509Y-86.995
X261.303Y-46.672
X266.859Y-127.635
X266.859Y-146.685
X267.652Y-44.133
X273.209Y-125.095
X273.209Y-144.145
X285.909Y-70.485
X285.909Y-89.535
X285.909Y-108.585
X285.909Y-127.635
X285.909Y-146.685
X292.259Y-67.945
X292.259Y-86.995
X292.259Y-106.045
X292.259Y-125.095
X292.259Y-144.145
T3
X-4.0Y-137.16
X19.875Y-137.16
X67.475Y-156.21
X167.475Y-156.21
X238.887Y-118.11
X241.268Y-80.01
X262.763Y-118.11
X265.144Y-80.01
T4
X-4.0Y-121.92
X-3.969Y-49.212
X-3.969Y-73.025
X-1.587Y-149.225
X0.794Y-92.075
X3.175Y-111.125
X7.938Y-130.175
X15.081Y-73.025
X19.875Y-121.92
X21.431Y-49.212
X22.225Y-149.225
X24.606Y-92.075
X29.369Y-111.125
X34.131Y-73.025
X38.894Y-130.175
X40.481Y-49.212
X43.656Y-92.075
X46.038Y-149.225
X48.419Y-111.125
X53.181Y-73.025
X57.944Y-130.175
X59.531Y-49.212
X62.706Y-92.075
X67.469Y-111.125
X67.475Y-140.97
X72.231Y-73.025
X76.994Y-130.175
X78.581Y-49.212
X81.756Y-92.075
X86.519Y-111.125
X91.281Y-73.025
X96.044Y-130.175
X100.806Y-92.075
X102.394Y-49.212
X105.569Y-111.125
X110.331Y-73.025
X115.094Y-130.175
X117.475Y-149.225
X119.856Y-92.075
X121.444Y-49.212
X124.619Y-111.125
X129.381Y-73.025
X134.144Y-130.175
X138.906Y-92.075
X140.494Y-49.212
X143.669Y-111.125
X148.431Y-73.025
X153.194Y-130.175
X157.956Y-92.075
X159.544Y-49.212
X162.719Y-111.125
X167.475Y-140.97
X167.481Y-73.025
X172.244Y-130.175
X177.006Y-92.075
X181.769Y-111.125
X183.356Y-49.212
X186.531Y-73.025
X191.294Y-130.175
X191.294Y-149.225
X196.056Y-92.075
X200.819Y-111.125
X202.406Y-49.212
X205.581Y-73.025
X210.344Y-130.175
X215.106Y-92.075
X219.869Y-111.125
X219.869Y-149.225
X221.456Y-49.212
X224.631Y-73.025
X234.156Y-92.075
X238.887Y-102.87
X240.506Y-49.212
X240.506Y-130.175
X241.268Y-64.77
X250.825Y-111.125
X251.619Y-149.225
X253.206Y-73.025
X257.969Y-92.075
X262.763Y-102.87
X265.113Y-49.212
X265.144Y-64.77
X270.669Y-130.175
X270.669Y-149.225
X289.719Y-73.025
X289.719Y-92.075
X289.719Y-111.125
X289.719Y-130.175
X289.719Y-149.225
T0
M30
