M48
; DRILL file {KiCad (5.1.10)-1} date 06/02/21 05:42:38
; FORMAT={-:-/ absolute / metric / decimal}
; #@! TF.CreationDate,2021-06-02T05:42:38-04:00
; #@! TF.GenerationSoftware,Kicad,Pcbnew,(5.1.10)-1
; #@! TF.FileFunction,Plated,1,2,PTH
FMAT,2
METRIC
T1C0.400
T2C0.762
T3C0.800
T4C0.900
T5C0.991
T6C1.000
T7C1.020
T8C1.100
T9C1.500
T10C2.200
%
G90
G05
T1
X-11.054Y-42.55
X14.383Y-42.577
X33.401Y-42.545
X52.446Y-42.55
X71.496Y-42.55
X95.309Y-42.55
X114.359Y-42.55
X133.409Y-42.55
X152.459Y-42.55
X176.271Y-44.074
X178.562Y-22.225
X178.562Y-24.765
X189.103Y-30.15
X195.321Y-42.931
X213.976Y-33.001
X214.371Y-41.915
X230.727Y-43.978
X255.46Y-46.672
X288.61Y-33.695
X290.83Y-39.37
X291.3Y-29.248
X292.1Y-38.1
T2
X189.839Y-20.955
X189.839Y-23.495
X189.839Y-26.035
X189.839Y-28.575
X297.231Y-18.186
X297.231Y-20.726
X297.231Y-23.266
X297.231Y-25.806
T3
X4.826Y-46.863
X4.826Y-51.943
X4.826Y-70.739
X4.826Y-75.819
X7.62Y-146.939
X7.62Y-152.019
X8.89Y-138.443
X9.525Y-89.789
X9.525Y-94.869
X11.938Y-108.839
X11.938Y-113.919
X13.97Y-138.443
X23.876Y-70.739
X23.876Y-75.819
X30.226Y-46.863
X30.226Y-51.943
X31.75Y-146.939
X31.75Y-152.019
X33.401Y-89.789
X33.401Y-94.869
X38.1Y-108.839
X38.1Y-113.919
X42.926Y-70.739
X42.926Y-75.819
X47.625Y-127.889
X47.625Y-132.969
X49.276Y-46.863
X49.276Y-51.943
X52.451Y-89.789
X52.451Y-94.869
X55.88Y-146.939
X55.88Y-152.019
X57.15Y-108.839
X57.15Y-113.919
X61.976Y-70.739
X61.976Y-75.819
X66.675Y-127.889
X66.675Y-132.969
X68.326Y-46.863
X68.326Y-51.943
X71.501Y-89.789
X71.501Y-94.869
X76.2Y-108.839
X76.2Y-113.919
X81.026Y-70.739
X81.026Y-75.819
X85.725Y-127.889
X85.725Y-132.969
X87.376Y-46.863
X87.376Y-51.943
X90.551Y-89.789
X90.551Y-94.869
X95.25Y-108.839
X95.25Y-113.919
X100.076Y-70.739
X100.076Y-75.819
X104.775Y-127.889
X104.775Y-132.969
X109.601Y-89.789
X109.601Y-94.869
X111.125Y-46.863
X111.125Y-51.943
X114.3Y-108.839
X114.3Y-113.919
X119.126Y-70.739
X119.126Y-75.819
X123.825Y-127.889
X123.825Y-132.969
X127.0Y-146.939
X127.0Y-152.019
X128.651Y-89.789
X128.651Y-94.869
X130.175Y-46.863
X130.175Y-51.943
X133.35Y-108.839
X133.35Y-113.919
X138.176Y-70.739
X138.176Y-75.819
X142.875Y-127.889
X142.875Y-132.969
X147.701Y-89.789
X147.701Y-94.869
X149.225Y-46.736
X149.225Y-51.816
X152.4Y-108.839
X152.4Y-113.919
X157.226Y-70.739
X157.226Y-75.819
X161.925Y-127.889
X161.925Y-132.969
X166.751Y-89.789
X166.751Y-94.869
X168.275Y-46.736
X168.275Y-51.816
X171.45Y-108.839
X171.45Y-113.919
X176.276Y-70.739
X176.276Y-75.819
X180.975Y-127.889
X180.975Y-132.969
X185.801Y-89.789
X185.801Y-94.869
X190.5Y-108.839
X190.5Y-113.919
X192.151Y-46.736
X192.151Y-51.816
X195.326Y-70.739
X195.326Y-75.819
X200.025Y-127.889
X200.025Y-132.969
X200.025Y-146.939
X200.025Y-152.019
X204.851Y-89.789
X204.851Y-94.869
X209.55Y-108.839
X209.55Y-113.919
X211.201Y-46.736
X211.201Y-51.816
X214.376Y-70.739
X214.376Y-75.819
X219.075Y-127.889
X219.075Y-132.969
X223.901Y-89.789
X223.901Y-94.869
X228.6Y-108.839
X228.6Y-113.919
X228.6Y-146.939
X228.6Y-152.019
X230.251Y-46.736
X230.251Y-51.816
X233.426Y-70.739
X233.426Y-75.819
X242.951Y-89.789
X242.951Y-94.869
X249.301Y-46.736
X249.301Y-51.816
X250.19Y-127.889
X250.19Y-132.969
X251.841Y-119.164
X254.279Y-81.242
X256.921Y-119.164
X259.359Y-81.242
X260.35Y-146.939
X260.35Y-152.019
X266.7Y-89.789
X266.7Y-94.869
X273.812Y-46.736
X273.812Y-51.816
X279.4Y-127.889
X279.4Y-132.969
X279.4Y-146.939
X279.4Y-152.019
X281.051Y-51.816
X281.051Y-56.896
X297.815Y-146.939
X297.815Y-152.019
X298.45Y-70.739
X298.45Y-75.819
X298.45Y-89.789
X298.45Y-94.869
X298.45Y-108.966
X298.45Y-114.046
X298.45Y-127.889
X298.45Y-132.969
T4
X153.797Y-14.795
X156.337Y-14.795
X163.131Y-14.795
X165.671Y-14.795
T5
X164.084Y-21.209
X164.084Y-28.194
X174.244Y-21.209
X174.244Y-28.194
T6
X287.1Y-42.069
X287.1Y-56.569
X289.6Y-42.069
X292.1Y-42.069
X292.1Y-56.569
T7
X218.059Y-16.891
X218.059Y-34.671
X218.289Y-23.241
X218.289Y-25.781
X218.289Y-28.321
X220.599Y-16.891
X220.599Y-34.671
X223.139Y-16.891
X223.139Y-34.671
X225.679Y-16.891
X225.679Y-34.671
X228.219Y-16.891
X228.219Y-34.671
X230.759Y-16.891
X230.759Y-34.671
X233.299Y-16.891
X233.299Y-34.671
X235.839Y-16.891
X235.839Y-34.671
X238.379Y-16.891
X238.379Y-34.671
X240.919Y-16.891
X240.919Y-34.671
X243.459Y-16.891
X243.459Y-34.671
X245.999Y-16.891
X245.999Y-34.671
X248.539Y-16.891
X248.539Y-34.671
X251.079Y-16.891
X251.079Y-34.671
X253.619Y-16.891
X253.619Y-34.671
X256.159Y-16.891
X256.159Y-34.671
X258.699Y-16.891
X258.699Y-34.671
X261.239Y-16.891
X261.239Y-34.671
X263.779Y-16.891
X263.779Y-34.671
X266.319Y-16.891
X266.319Y-34.671
T8
X146.884Y-21.336
X146.884Y-27.836
X151.384Y-21.336
X151.384Y-27.836
T10
X-11.43Y-8.89
X-11.43Y-34.417
X11.824Y-61.201
X26.937Y-129.527
X143.51Y-8.89
X143.51Y-142.303
X143.523Y-61.074
X258.839Y-129.527
X273.952Y-61.201
X297.18Y-8.89
X297.18Y-34.29
T9
G00X284.0Y-48.919
M15
G01X284.0Y-50.219
M16
G05
G00X295.2Y-48.919
M15
G01X295.2Y-50.219
M16
G05
T0
M30
