%TF.GenerationSoftware,KiCad,Pcbnew,(5.1.10)-1*%
%TF.CreationDate,2021-06-02T05:42:33-04:00*%
%TF.ProjectId,pi75,70693735-2e6b-4696-9361-645f70636258,rev?*%
%TF.SameCoordinates,Original*%
%TF.FileFunction,Soldermask,Top*%
%TF.FilePolarity,Negative*%
%FSLAX46Y46*%
G04 Gerber Fmt 4.6, Leading zero omitted, Abs format (unit mm)*
G04 Created by KiCad (PCBNEW (5.1.10)-1) date 2021-06-02 05:42:33*
%MOMM*%
%LPD*%
G01*
G04 APERTURE LIST*
%TA.AperFunction,Profile*%
%ADD10C,0.050000*%
%TD*%
%ADD11C,0.300000*%
%ADD12C,1.524000*%
%ADD13C,4.400000*%
%ADD14C,1.651000*%
%ADD15C,3.987800*%
%ADD16C,3.048000*%
%ADD17C,1.750000*%
%ADD18C,3.000000*%
%ADD19O,1.700000X1.700000*%
%ADD20R,1.700000X1.700000*%
%ADD21O,1.600000X1.600000*%
%ADD22R,1.600000X1.600000*%
%ADD23C,2.000000*%
%ADD24R,2.000000X2.000000*%
%ADD25R,2.000000X3.200000*%
%ADD26C,1.800000*%
%ADD27R,1.800000X1.800000*%
G04 APERTURE END LIST*
D10*
X297815000Y-160528000D02*
X-12065000Y-160528000D01*
X301625000Y-9398000D02*
X301625000Y-156718000D01*
X297815000Y-5588000D02*
G75*
G02*
X301625000Y-9398000I0J-3810000D01*
G01*
X-12065000Y-160528000D02*
G75*
G02*
X-15875000Y-156718000I0J3810000D01*
G01*
X301625000Y-156718000D02*
G75*
G02*
X297815000Y-160528000I-3810000J0D01*
G01*
X-15875000Y-9398000D02*
G75*
G02*
X-12065000Y-5588000I3810000J0D01*
G01*
X-15875000Y-9398000D02*
X-15875000Y-156718000D01*
X297815000Y-5588000D02*
X-12065000Y-5588000D01*
D11*
X172460163Y-15585961D02*
X172710163Y-13585961D01*
X173472067Y-13585961D01*
X173650639Y-13681200D01*
X173733972Y-13776438D01*
X173805401Y-13966914D01*
X173769686Y-14252628D01*
X173650639Y-14443104D01*
X173543496Y-14538342D01*
X173341115Y-14633580D01*
X172579210Y-14633580D01*
X174460163Y-15585961D02*
X174626829Y-14252628D01*
X174710163Y-13585961D02*
X174603020Y-13681200D01*
X174686353Y-13776438D01*
X174793496Y-13681200D01*
X174710163Y-13585961D01*
X174686353Y-13776438D01*
X176995877Y-13585961D02*
X178329210Y-13585961D01*
X177222067Y-15585961D01*
X180043496Y-13585961D02*
X179091115Y-13585961D01*
X178876829Y-14538342D01*
X178983972Y-14443104D01*
X179186353Y-14347866D01*
X179662544Y-14347866D01*
X179841115Y-14443104D01*
X179924448Y-14538342D01*
X179995877Y-14728819D01*
X179936353Y-15205009D01*
X179817305Y-15395485D01*
X179710163Y-15490723D01*
X179507782Y-15585961D01*
X179031591Y-15585961D01*
X178853020Y-15490723D01*
X178769686Y-15395485D01*
X83382363Y-143779761D02*
X83632363Y-141779761D01*
X84394267Y-141779761D01*
X84572839Y-141875000D01*
X84656172Y-141970238D01*
X84727601Y-142160714D01*
X84691886Y-142446428D01*
X84572839Y-142636904D01*
X84465696Y-142732142D01*
X84263315Y-142827380D01*
X83501410Y-142827380D01*
X85382363Y-143779761D02*
X85549029Y-142446428D01*
X85632363Y-141779761D02*
X85525220Y-141875000D01*
X85608553Y-141970238D01*
X85715696Y-141875000D01*
X85632363Y-141779761D01*
X85608553Y-141970238D01*
X87918077Y-141779761D02*
X89251410Y-141779761D01*
X88144267Y-143779761D01*
X90965696Y-141779761D02*
X90013315Y-141779761D01*
X89799029Y-142732142D01*
X89906172Y-142636904D01*
X90108553Y-142541666D01*
X90584744Y-142541666D01*
X90763315Y-142636904D01*
X90846648Y-142732142D01*
X90918077Y-142922619D01*
X90858553Y-143398809D01*
X90739505Y-143589285D01*
X90632363Y-143684523D01*
X90429982Y-143779761D01*
X89953791Y-143779761D01*
X89775220Y-143684523D01*
X89691886Y-143589285D01*
D12*
%TO.C,J1*%
X297230800Y-18186400D03*
X297230800Y-20726400D03*
X297230800Y-23266400D03*
X297230800Y-25806400D03*
%TD*%
%TO.C,OL1*%
X189839000Y-28575000D03*
X189839000Y-26035000D03*
X189839000Y-23495000D03*
X189839000Y-20955000D03*
%TD*%
D13*
%TO.C,REF\u002A\u002A*%
X273951700Y-61201300D03*
%TD*%
%TO.C,REF\u002A\u002A*%
X143510000Y-142303500D03*
%TD*%
%TO.C,REF\u002A\u002A*%
X11823700Y-61201300D03*
%TD*%
%TO.C,REF\u002A\u002A*%
X258838700Y-129527300D03*
%TD*%
%TO.C,REF\u002A\u002A*%
X26936700Y-129527300D03*
%TD*%
D14*
%TO.C,R1*%
X164084000Y-28194000D03*
X174244000Y-28194000D03*
%TD*%
%TO.C,R2*%
X164084000Y-21209000D03*
X174244000Y-21209000D03*
%TD*%
D13*
%TO.C,H1*%
X143522700Y-61074300D03*
%TD*%
D15*
%TO.C,K72*%
X241268250Y-64770000D03*
X265144250Y-64770000D03*
D16*
X241268250Y-80010000D03*
X265144250Y-80010000D03*
D17*
X258286250Y-73025000D03*
X248126250Y-73025000D03*
D18*
X249396250Y-70485000D03*
D15*
X253206250Y-73025000D03*
D18*
X255746250Y-67945000D03*
%TD*%
D15*
%TO.C,K74*%
X238887000Y-102870000D03*
X262763000Y-102870000D03*
D16*
X238887000Y-118110000D03*
X262763000Y-118110000D03*
D17*
X255905000Y-111125000D03*
X245745000Y-111125000D03*
D18*
X247015000Y-108585000D03*
D15*
X250825000Y-111125000D03*
D18*
X253365000Y-106045000D03*
%TD*%
D15*
%TO.C,K39*%
X67475100Y-140970000D03*
X167474900Y-140970000D03*
D16*
X67475100Y-156210000D03*
X167474900Y-156210000D03*
D17*
X122555000Y-149225000D03*
X112395000Y-149225000D03*
D18*
X113665000Y-146685000D03*
D15*
X117475000Y-149225000D03*
D18*
X120015000Y-144145000D03*
%TD*%
D15*
%TO.C,K5*%
X-4000500Y-121920000D03*
X19875500Y-121920000D03*
D16*
X-4000500Y-137160000D03*
X19875500Y-137160000D03*
D17*
X13017500Y-130175000D03*
X2857500Y-130175000D03*
D18*
X4127500Y-127635000D03*
D15*
X7937500Y-130175000D03*
D18*
X10477500Y-125095000D03*
%TD*%
D13*
%TO.C,REF\u002A\u002A*%
X143510000Y-8890000D03*
%TD*%
D19*
%TO.C,U1*%
X266319000Y-16891000D03*
X263779000Y-16891000D03*
D20*
X261239000Y-16891000D03*
D19*
X258699000Y-16891000D03*
X256159000Y-16891000D03*
X253619000Y-16891000D03*
X251079000Y-16891000D03*
D20*
X248539000Y-16891000D03*
D19*
X245999000Y-16891000D03*
X243459000Y-16891000D03*
X240919000Y-16891000D03*
X238379000Y-16891000D03*
D20*
X235839000Y-16891000D03*
D19*
X233299000Y-16891000D03*
X230759000Y-16891000D03*
X228219000Y-16891000D03*
X225679000Y-16891000D03*
D20*
X223139000Y-16891000D03*
D19*
X220599000Y-16891000D03*
X218059000Y-16891000D03*
X218059000Y-34671000D03*
X220599000Y-34671000D03*
D20*
X223139000Y-34671000D03*
D19*
X225679000Y-34671000D03*
X228219000Y-34671000D03*
X230759000Y-34671000D03*
X233299000Y-34671000D03*
D20*
X235839000Y-34671000D03*
D19*
X238379000Y-34671000D03*
X240919000Y-34671000D03*
X243459000Y-34671000D03*
X245999000Y-34671000D03*
D20*
X248539000Y-34671000D03*
D19*
X251079000Y-34671000D03*
X253619000Y-34671000D03*
X256159000Y-34671000D03*
X258699000Y-34671000D03*
D20*
X261239000Y-34671000D03*
D19*
X263779000Y-34671000D03*
X266319000Y-34671000D03*
X218289000Y-23241000D03*
D20*
X218289000Y-25781000D03*
D19*
X218289000Y-28321000D03*
%TD*%
D21*
%TO.C,D14*%
X42926000Y-70739000D03*
D22*
X42926000Y-75819000D03*
%TD*%
D13*
%TO.C,REF\u002A\u002A*%
X-11430000Y-34417000D03*
%TD*%
%TO.C,REF\u002A\u002A*%
X-11430000Y-8890000D03*
%TD*%
%TO.C,REF\u002A\u002A*%
X297180000Y-34290000D03*
%TD*%
%TO.C,REF\u002A\u002A*%
X297180000Y-8890000D03*
%TD*%
D23*
%TO.C,SW2*%
X151384000Y-27836000D03*
X146884000Y-27836000D03*
X151384000Y-21336000D03*
X146884000Y-21336000D03*
%TD*%
D17*
%TO.C,K17*%
X63023750Y-130175000D03*
X52863750Y-130175000D03*
D18*
X54133750Y-127635000D03*
D15*
X57943750Y-130175000D03*
D18*
X60483750Y-125095000D03*
%TD*%
D24*
%TO.C,SW1*%
X292100000Y-42068750D03*
D23*
X289600000Y-42068750D03*
X287100000Y-42068750D03*
D25*
X295200000Y-49568750D03*
X284000000Y-49568750D03*
D23*
X292100000Y-56568750D03*
X287100000Y-56568750D03*
%TD*%
D17*
%TO.C,K81*%
X294798750Y-149225000D03*
X284638750Y-149225000D03*
D18*
X285908750Y-146685000D03*
D15*
X289718750Y-149225000D03*
D18*
X292258750Y-144145000D03*
%TD*%
D17*
%TO.C,K80*%
X294798750Y-130175000D03*
X284638750Y-130175000D03*
D18*
X285908750Y-127635000D03*
D15*
X289718750Y-130175000D03*
D18*
X292258750Y-125095000D03*
%TD*%
D17*
%TO.C,K79*%
X294798750Y-111125000D03*
X284638750Y-111125000D03*
D18*
X285908750Y-108585000D03*
D15*
X289718750Y-111125000D03*
D18*
X292258750Y-106045000D03*
%TD*%
D17*
%TO.C,K78*%
X294798750Y-92075000D03*
X284638750Y-92075000D03*
D18*
X285908750Y-89535000D03*
D15*
X289718750Y-92075000D03*
D18*
X292258750Y-86995000D03*
%TD*%
D17*
%TO.C,K77*%
X294798750Y-73025000D03*
X284638750Y-73025000D03*
D18*
X285908750Y-70485000D03*
D15*
X289718750Y-73025000D03*
D18*
X292258750Y-67945000D03*
%TD*%
D17*
%TO.C,K76*%
X275748750Y-149225000D03*
X265588750Y-149225000D03*
D18*
X266858750Y-146685000D03*
D15*
X270668750Y-149225000D03*
D18*
X273208750Y-144145000D03*
%TD*%
D17*
%TO.C,K75*%
X275748750Y-130175000D03*
X265588750Y-130175000D03*
D18*
X266858750Y-127635000D03*
D15*
X270668750Y-130175000D03*
D18*
X273208750Y-125095000D03*
%TD*%
D17*
%TO.C,K73*%
X263048750Y-92075000D03*
X252888750Y-92075000D03*
D18*
X254158750Y-89535000D03*
D15*
X257968750Y-92075000D03*
D18*
X260508750Y-86995000D03*
%TD*%
D17*
%TO.C,K71*%
X270192500Y-49212500D03*
X260032500Y-49212500D03*
D18*
X261302500Y-46672500D03*
D15*
X265112500Y-49212500D03*
D18*
X267652500Y-44132500D03*
%TD*%
D17*
%TO.C,K70*%
X256698750Y-149225000D03*
X246538750Y-149225000D03*
D18*
X247808750Y-146685000D03*
D15*
X251618750Y-149225000D03*
D18*
X254158750Y-144145000D03*
%TD*%
D17*
%TO.C,K69*%
X239236250Y-92075000D03*
X229076250Y-92075000D03*
D18*
X230346250Y-89535000D03*
D15*
X234156250Y-92075000D03*
D18*
X236696250Y-86995000D03*
%TD*%
D17*
%TO.C,K68*%
X229711250Y-73025000D03*
X219551250Y-73025000D03*
D18*
X220821250Y-70485000D03*
D15*
X224631250Y-73025000D03*
D18*
X227171250Y-67945000D03*
%TD*%
D17*
%TO.C,K67*%
X245586250Y-49212500D03*
X235426250Y-49212500D03*
D18*
X236696250Y-46672500D03*
D15*
X240506250Y-49212500D03*
D18*
X243046250Y-44132500D03*
%TD*%
D17*
%TO.C,K66*%
X245586250Y-130175000D03*
X235426250Y-130175000D03*
D18*
X236696250Y-127635000D03*
D15*
X240506250Y-130175000D03*
D18*
X243046250Y-125095000D03*
%TD*%
D17*
%TO.C,K65*%
X224948750Y-111125000D03*
X214788750Y-111125000D03*
D18*
X216058750Y-108585000D03*
D15*
X219868750Y-111125000D03*
D18*
X222408750Y-106045000D03*
%TD*%
D17*
%TO.C,K64*%
X220186250Y-92075000D03*
X210026250Y-92075000D03*
D18*
X211296250Y-89535000D03*
D15*
X215106250Y-92075000D03*
D18*
X217646250Y-86995000D03*
%TD*%
D17*
%TO.C,K63*%
X210661250Y-73025000D03*
X200501250Y-73025000D03*
D18*
X201771250Y-70485000D03*
D15*
X205581250Y-73025000D03*
D18*
X208121250Y-67945000D03*
%TD*%
D17*
%TO.C,K62*%
X226536250Y-49212500D03*
X216376250Y-49212500D03*
D18*
X217646250Y-46672500D03*
D15*
X221456250Y-49212500D03*
D18*
X223996250Y-44132500D03*
%TD*%
D17*
%TO.C,K61*%
X224948750Y-149225000D03*
X214788750Y-149225000D03*
D18*
X216058750Y-146685000D03*
D15*
X219868750Y-149225000D03*
D18*
X222408750Y-144145000D03*
%TD*%
D17*
%TO.C,K60*%
X215423750Y-130175000D03*
X205263750Y-130175000D03*
D18*
X206533750Y-127635000D03*
D15*
X210343750Y-130175000D03*
D18*
X212883750Y-125095000D03*
%TD*%
D17*
%TO.C,K59*%
X205898750Y-111125000D03*
X195738750Y-111125000D03*
D18*
X197008750Y-108585000D03*
D15*
X200818750Y-111125000D03*
D18*
X203358750Y-106045000D03*
%TD*%
D17*
%TO.C,K58*%
X201136250Y-92075000D03*
X190976250Y-92075000D03*
D18*
X192246250Y-89535000D03*
D15*
X196056250Y-92075000D03*
D18*
X198596250Y-86995000D03*
%TD*%
D17*
%TO.C,K57*%
X191611250Y-73025000D03*
X181451250Y-73025000D03*
D18*
X182721250Y-70485000D03*
D15*
X186531250Y-73025000D03*
D18*
X189071250Y-67945000D03*
%TD*%
D17*
%TO.C,K56*%
X207486250Y-49212500D03*
X197326250Y-49212500D03*
D18*
X198596250Y-46672500D03*
D15*
X202406250Y-49212500D03*
D18*
X204946250Y-44132500D03*
%TD*%
D17*
%TO.C,K55*%
X196373750Y-149225000D03*
X186213750Y-149225000D03*
D18*
X187483750Y-146685000D03*
D15*
X191293750Y-149225000D03*
D18*
X193833750Y-144145000D03*
%TD*%
D17*
%TO.C,K54*%
X196373750Y-130175000D03*
X186213750Y-130175000D03*
D18*
X187483750Y-127635000D03*
D15*
X191293750Y-130175000D03*
D18*
X193833750Y-125095000D03*
%TD*%
D17*
%TO.C,K53*%
X186848750Y-111125000D03*
X176688750Y-111125000D03*
D18*
X177958750Y-108585000D03*
D15*
X181768750Y-111125000D03*
D18*
X184308750Y-106045000D03*
%TD*%
D17*
%TO.C,K52*%
X182086250Y-92075000D03*
X171926250Y-92075000D03*
D18*
X173196250Y-89535000D03*
D15*
X177006250Y-92075000D03*
D18*
X179546250Y-86995000D03*
%TD*%
D17*
%TO.C,K51*%
X172561250Y-73025000D03*
X162401250Y-73025000D03*
D18*
X163671250Y-70485000D03*
D15*
X167481250Y-73025000D03*
D18*
X170021250Y-67945000D03*
%TD*%
D17*
%TO.C,K50*%
X188436250Y-49212500D03*
X178276250Y-49212500D03*
D18*
X179546250Y-46672500D03*
D15*
X183356250Y-49212500D03*
D18*
X185896250Y-44132500D03*
%TD*%
D17*
%TO.C,K49*%
X177323750Y-130175000D03*
X167163750Y-130175000D03*
D18*
X168433750Y-127635000D03*
D15*
X172243750Y-130175000D03*
D18*
X174783750Y-125095000D03*
%TD*%
D17*
%TO.C,K48*%
X167798750Y-111125000D03*
X157638750Y-111125000D03*
D18*
X158908750Y-108585000D03*
D15*
X162718750Y-111125000D03*
D18*
X165258750Y-106045000D03*
%TD*%
D17*
%TO.C,K47*%
X163036250Y-92075000D03*
X152876250Y-92075000D03*
D18*
X154146250Y-89535000D03*
D15*
X157956250Y-92075000D03*
D18*
X160496250Y-86995000D03*
%TD*%
D17*
%TO.C,K46*%
X153511250Y-73025000D03*
X143351250Y-73025000D03*
D18*
X144621250Y-70485000D03*
D15*
X148431250Y-73025000D03*
D18*
X150971250Y-67945000D03*
%TD*%
D17*
%TO.C,K45*%
X164623750Y-49212500D03*
X154463750Y-49212500D03*
D18*
X155733750Y-46672500D03*
D15*
X159543750Y-49212500D03*
D18*
X162083750Y-44132500D03*
%TD*%
D17*
%TO.C,K44*%
X158273750Y-130175000D03*
X148113750Y-130175000D03*
D18*
X149383750Y-127635000D03*
D15*
X153193750Y-130175000D03*
D18*
X155733750Y-125095000D03*
%TD*%
D17*
%TO.C,K43*%
X148748750Y-111125000D03*
X138588750Y-111125000D03*
D18*
X139858750Y-108585000D03*
D15*
X143668750Y-111125000D03*
D18*
X146208750Y-106045000D03*
%TD*%
D17*
%TO.C,K42*%
X143986250Y-92075000D03*
X133826250Y-92075000D03*
D18*
X135096250Y-89535000D03*
D15*
X138906250Y-92075000D03*
D18*
X141446250Y-86995000D03*
%TD*%
D17*
%TO.C,K41*%
X134461250Y-73025000D03*
X124301250Y-73025000D03*
D18*
X125571250Y-70485000D03*
D15*
X129381250Y-73025000D03*
D18*
X131921250Y-67945000D03*
%TD*%
D17*
%TO.C,K40*%
X145573750Y-49212500D03*
X135413750Y-49212500D03*
D18*
X136683750Y-46672500D03*
D15*
X140493750Y-49212500D03*
D18*
X143033750Y-44132500D03*
%TD*%
D17*
%TO.C,K38*%
X139223750Y-130175000D03*
X129063750Y-130175000D03*
D18*
X130333750Y-127635000D03*
D15*
X134143750Y-130175000D03*
D18*
X136683750Y-125095000D03*
%TD*%
D17*
%TO.C,K37*%
X129698750Y-111125000D03*
X119538750Y-111125000D03*
D18*
X120808750Y-108585000D03*
D15*
X124618750Y-111125000D03*
D18*
X127158750Y-106045000D03*
%TD*%
D17*
%TO.C,K36*%
X124936250Y-92075000D03*
X114776250Y-92075000D03*
D18*
X116046250Y-89535000D03*
D15*
X119856250Y-92075000D03*
D18*
X122396250Y-86995000D03*
%TD*%
D17*
%TO.C,K35*%
X115411250Y-73025000D03*
X105251250Y-73025000D03*
D18*
X106521250Y-70485000D03*
D15*
X110331250Y-73025000D03*
D18*
X112871250Y-67945000D03*
%TD*%
D17*
%TO.C,K34*%
X126523750Y-49212500D03*
X116363750Y-49212500D03*
D18*
X117633750Y-46672500D03*
D15*
X121443750Y-49212500D03*
D18*
X123983750Y-44132500D03*
%TD*%
D17*
%TO.C,K33*%
X120173750Y-130175000D03*
X110013750Y-130175000D03*
D18*
X111283750Y-127635000D03*
D15*
X115093750Y-130175000D03*
D18*
X117633750Y-125095000D03*
%TD*%
D17*
%TO.C,K32*%
X110648750Y-111125000D03*
X100488750Y-111125000D03*
D18*
X101758750Y-108585000D03*
D15*
X105568750Y-111125000D03*
D18*
X108108750Y-106045000D03*
%TD*%
D17*
%TO.C,K31*%
X105886250Y-92075000D03*
X95726250Y-92075000D03*
D18*
X96996250Y-89535000D03*
D15*
X100806250Y-92075000D03*
D18*
X103346250Y-86995000D03*
%TD*%
D17*
%TO.C,K30*%
X96361250Y-73025000D03*
X86201250Y-73025000D03*
D18*
X87471250Y-70485000D03*
D15*
X91281250Y-73025000D03*
D18*
X93821250Y-67945000D03*
%TD*%
D17*
%TO.C,K29*%
X107473750Y-49212500D03*
X97313750Y-49212500D03*
D18*
X98583750Y-46672500D03*
D15*
X102393750Y-49212500D03*
D18*
X104933750Y-44132500D03*
%TD*%
D17*
%TO.C,K28*%
X101123750Y-130175000D03*
X90963750Y-130175000D03*
D18*
X92233750Y-127635000D03*
D15*
X96043750Y-130175000D03*
D18*
X98583750Y-125095000D03*
%TD*%
D17*
%TO.C,K27*%
X91598750Y-111125000D03*
X81438750Y-111125000D03*
D18*
X82708750Y-108585000D03*
D15*
X86518750Y-111125000D03*
D18*
X89058750Y-106045000D03*
%TD*%
D17*
%TO.C,K26*%
X86836250Y-92075000D03*
X76676250Y-92075000D03*
D18*
X77946250Y-89535000D03*
D15*
X81756250Y-92075000D03*
D18*
X84296250Y-86995000D03*
%TD*%
D17*
%TO.C,K25*%
X77311250Y-73025000D03*
X67151250Y-73025000D03*
D18*
X68421250Y-70485000D03*
D15*
X72231250Y-73025000D03*
D18*
X74771250Y-67945000D03*
%TD*%
D17*
%TO.C,K24*%
X83661250Y-49212500D03*
X73501250Y-49212500D03*
D18*
X74771250Y-46672500D03*
D15*
X78581250Y-49212500D03*
D18*
X81121250Y-44132500D03*
%TD*%
D17*
%TO.C,K23*%
X82073750Y-130175000D03*
X71913750Y-130175000D03*
D18*
X73183750Y-127635000D03*
D15*
X76993750Y-130175000D03*
D18*
X79533750Y-125095000D03*
%TD*%
D17*
%TO.C,K22*%
X72548750Y-111125000D03*
X62388750Y-111125000D03*
D18*
X63658750Y-108585000D03*
D15*
X67468750Y-111125000D03*
D18*
X70008750Y-106045000D03*
%TD*%
D17*
%TO.C,K21*%
X67786250Y-92075000D03*
X57626250Y-92075000D03*
D18*
X58896250Y-89535000D03*
D15*
X62706250Y-92075000D03*
D18*
X65246250Y-86995000D03*
%TD*%
D17*
%TO.C,K20*%
X58261250Y-73025000D03*
X48101250Y-73025000D03*
D18*
X49371250Y-70485000D03*
D15*
X53181250Y-73025000D03*
D18*
X55721250Y-67945000D03*
%TD*%
D17*
%TO.C,K19*%
X64611250Y-49212500D03*
X54451250Y-49212500D03*
D18*
X55721250Y-46672500D03*
D15*
X59531250Y-49212500D03*
D18*
X62071250Y-44132500D03*
%TD*%
D17*
%TO.C,K18*%
X51117500Y-149225000D03*
X40957500Y-149225000D03*
D18*
X42227500Y-146685000D03*
D15*
X46037500Y-149225000D03*
D18*
X48577500Y-144145000D03*
%TD*%
D17*
%TO.C,K16*%
X53498750Y-111125000D03*
X43338750Y-111125000D03*
D18*
X44608750Y-108585000D03*
D15*
X48418750Y-111125000D03*
D18*
X50958750Y-106045000D03*
%TD*%
D17*
%TO.C,K15*%
X48736250Y-92075000D03*
X38576250Y-92075000D03*
D18*
X39846250Y-89535000D03*
D15*
X43656250Y-92075000D03*
D18*
X46196250Y-86995000D03*
%TD*%
D17*
%TO.C,K14*%
X39211250Y-73025000D03*
X29051250Y-73025000D03*
D18*
X30321250Y-70485000D03*
D15*
X34131250Y-73025000D03*
D18*
X36671250Y-67945000D03*
%TD*%
D17*
%TO.C,K13*%
X45561250Y-49212500D03*
X35401250Y-49212500D03*
D18*
X36671250Y-46672500D03*
D15*
X40481250Y-49212500D03*
D18*
X43021250Y-44132500D03*
%TD*%
D17*
%TO.C,K12*%
X27305000Y-149225000D03*
X17145000Y-149225000D03*
D18*
X18415000Y-146685000D03*
D15*
X22225000Y-149225000D03*
D18*
X24765000Y-144145000D03*
%TD*%
D17*
%TO.C,K11*%
X43973750Y-130175000D03*
X33813750Y-130175000D03*
D18*
X35083750Y-127635000D03*
D15*
X38893750Y-130175000D03*
D18*
X41433750Y-125095000D03*
%TD*%
D17*
%TO.C,K10*%
X34448750Y-111125000D03*
X24288750Y-111125000D03*
D18*
X25558750Y-108585000D03*
D15*
X29368750Y-111125000D03*
D18*
X31908750Y-106045000D03*
%TD*%
D17*
%TO.C,K9*%
X29686250Y-92075000D03*
X19526250Y-92075000D03*
D18*
X20796250Y-89535000D03*
D15*
X24606250Y-92075000D03*
D18*
X27146250Y-86995000D03*
%TD*%
D17*
%TO.C,K8*%
X20161250Y-73025000D03*
X10001250Y-73025000D03*
D18*
X11271250Y-70485000D03*
D15*
X15081250Y-73025000D03*
D18*
X17621250Y-67945000D03*
%TD*%
D17*
%TO.C,K7*%
X26511250Y-49212500D03*
X16351250Y-49212500D03*
D18*
X17621250Y-46672500D03*
D15*
X21431250Y-49212500D03*
D18*
X23971250Y-44132500D03*
%TD*%
D17*
%TO.C,K6*%
X3492500Y-149225000D03*
X-6667500Y-149225000D03*
D18*
X-5397500Y-146685000D03*
D15*
X-1587500Y-149225000D03*
D18*
X952500Y-144145000D03*
%TD*%
D17*
%TO.C,K4*%
X8255000Y-111125000D03*
X-1905000Y-111125000D03*
D18*
X-635000Y-108585000D03*
D15*
X3175000Y-111125000D03*
D18*
X5715000Y-106045000D03*
%TD*%
D17*
%TO.C,K3*%
X5873750Y-92075000D03*
X-4286250Y-92075000D03*
D18*
X-3016250Y-89535000D03*
D15*
X793750Y-92075000D03*
D18*
X3333750Y-86995000D03*
%TD*%
D17*
%TO.C,K2*%
X1111250Y-73025000D03*
X-9048750Y-73025000D03*
D18*
X-7778750Y-70485000D03*
D15*
X-3968750Y-73025000D03*
D18*
X-1428750Y-67945000D03*
%TD*%
D17*
%TO.C,K1*%
X1111250Y-49212500D03*
X-9048750Y-49212500D03*
D18*
X-7778750Y-46672500D03*
D15*
X-3968750Y-49212500D03*
D18*
X-1428750Y-44132500D03*
%TD*%
D21*
%TO.C,D84*%
X297815000Y-146939000D03*
D22*
X297815000Y-152019000D03*
%TD*%
D21*
%TO.C,D83*%
X298450000Y-127889000D03*
D22*
X298450000Y-132969000D03*
%TD*%
D21*
%TO.C,D82*%
X298450000Y-108966000D03*
D22*
X298450000Y-114046000D03*
%TD*%
D21*
%TO.C,D81*%
X298450000Y-89789000D03*
D22*
X298450000Y-94869000D03*
%TD*%
D21*
%TO.C,D80*%
X298450000Y-70739000D03*
D22*
X298450000Y-75819000D03*
%TD*%
D21*
%TO.C,D79*%
X281051000Y-56896000D03*
D22*
X281051000Y-51816000D03*
%TD*%
D21*
%TO.C,D78*%
X279400000Y-146939000D03*
D22*
X279400000Y-152019000D03*
%TD*%
D21*
%TO.C,D77*%
X279400000Y-127889000D03*
D22*
X279400000Y-132969000D03*
%TD*%
D21*
%TO.C,D76*%
X256921000Y-119164100D03*
D22*
X251841000Y-119164100D03*
%TD*%
D21*
%TO.C,D75*%
X266700000Y-89789000D03*
D22*
X266700000Y-94869000D03*
%TD*%
D21*
%TO.C,D74*%
X259359400Y-81241900D03*
D22*
X254279400Y-81241900D03*
%TD*%
D21*
%TO.C,D73*%
X273812000Y-46736000D03*
D22*
X273812000Y-51816000D03*
%TD*%
D21*
%TO.C,D72*%
X260350000Y-146939000D03*
D22*
X260350000Y-152019000D03*
%TD*%
D21*
%TO.C,D71*%
X242951000Y-89789000D03*
D22*
X242951000Y-94869000D03*
%TD*%
D21*
%TO.C,D70*%
X233426000Y-70739000D03*
D22*
X233426000Y-75819000D03*
%TD*%
D21*
%TO.C,D69*%
X249301000Y-46736000D03*
D22*
X249301000Y-51816000D03*
%TD*%
D21*
%TO.C,D68*%
X250190000Y-127889000D03*
D22*
X250190000Y-132969000D03*
%TD*%
D21*
%TO.C,D67*%
X228600000Y-108839000D03*
D22*
X228600000Y-113919000D03*
%TD*%
D21*
%TO.C,D66*%
X223901000Y-89789000D03*
D22*
X223901000Y-94869000D03*
%TD*%
D21*
%TO.C,D65*%
X214376000Y-70739000D03*
D22*
X214376000Y-75819000D03*
%TD*%
D21*
%TO.C,D64*%
X230251000Y-46736000D03*
D22*
X230251000Y-51816000D03*
%TD*%
D21*
%TO.C,D63*%
X228600000Y-146939000D03*
D22*
X228600000Y-152019000D03*
%TD*%
D21*
%TO.C,D62*%
X219075000Y-127889000D03*
D22*
X219075000Y-132969000D03*
%TD*%
D21*
%TO.C,D61*%
X209550000Y-108839000D03*
D22*
X209550000Y-113919000D03*
%TD*%
D21*
%TO.C,D60*%
X204851000Y-89789000D03*
D22*
X204851000Y-94869000D03*
%TD*%
D21*
%TO.C,D59*%
X195326000Y-70739000D03*
D22*
X195326000Y-75819000D03*
%TD*%
D21*
%TO.C,D58*%
X211201000Y-46736000D03*
D22*
X211201000Y-51816000D03*
%TD*%
D21*
%TO.C,D57*%
X200025000Y-146939000D03*
D22*
X200025000Y-152019000D03*
%TD*%
D21*
%TO.C,D56*%
X200025000Y-127889000D03*
D22*
X200025000Y-132969000D03*
%TD*%
D21*
%TO.C,D55*%
X190500000Y-108839000D03*
D22*
X190500000Y-113919000D03*
%TD*%
D21*
%TO.C,D54*%
X185801000Y-89789000D03*
D22*
X185801000Y-94869000D03*
%TD*%
D21*
%TO.C,D53*%
X176276000Y-70739000D03*
D22*
X176276000Y-75819000D03*
%TD*%
D21*
%TO.C,D52*%
X192151000Y-46736000D03*
D22*
X192151000Y-51816000D03*
%TD*%
D21*
%TO.C,D51*%
X180975000Y-127889000D03*
D22*
X180975000Y-132969000D03*
%TD*%
D21*
%TO.C,D50*%
X171450000Y-108839000D03*
D22*
X171450000Y-113919000D03*
%TD*%
D21*
%TO.C,D49*%
X166751000Y-89789000D03*
D22*
X166751000Y-94869000D03*
%TD*%
D21*
%TO.C,D48*%
X157226000Y-70739000D03*
D22*
X157226000Y-75819000D03*
%TD*%
D21*
%TO.C,D47*%
X168275000Y-46736000D03*
D22*
X168275000Y-51816000D03*
%TD*%
D21*
%TO.C,D46*%
X161925000Y-127889000D03*
D22*
X161925000Y-132969000D03*
%TD*%
D21*
%TO.C,D45*%
X152400000Y-108839000D03*
D22*
X152400000Y-113919000D03*
%TD*%
D21*
%TO.C,D44*%
X147701000Y-89789000D03*
D22*
X147701000Y-94869000D03*
%TD*%
D21*
%TO.C,D43*%
X138176000Y-70739000D03*
D22*
X138176000Y-75819000D03*
%TD*%
D21*
%TO.C,D42*%
X149225000Y-46736000D03*
D22*
X149225000Y-51816000D03*
%TD*%
D21*
%TO.C,D41*%
X127000000Y-146939000D03*
D22*
X127000000Y-152019000D03*
%TD*%
D21*
%TO.C,D40*%
X142875000Y-127889000D03*
D22*
X142875000Y-132969000D03*
%TD*%
D21*
%TO.C,D39*%
X133350000Y-108839000D03*
D22*
X133350000Y-113919000D03*
%TD*%
D21*
%TO.C,D38*%
X128651000Y-89789000D03*
D22*
X128651000Y-94869000D03*
%TD*%
D21*
%TO.C,D37*%
X119126000Y-70739000D03*
D22*
X119126000Y-75819000D03*
%TD*%
D21*
%TO.C,D36*%
X130175000Y-46863000D03*
D22*
X130175000Y-51943000D03*
%TD*%
D21*
%TO.C,D35*%
X123825000Y-127889000D03*
D22*
X123825000Y-132969000D03*
%TD*%
D21*
%TO.C,D34*%
X114300000Y-108839000D03*
D22*
X114300000Y-113919000D03*
%TD*%
D21*
%TO.C,D33*%
X109601000Y-89789000D03*
D22*
X109601000Y-94869000D03*
%TD*%
D21*
%TO.C,D32*%
X100076000Y-70739000D03*
D22*
X100076000Y-75819000D03*
%TD*%
D21*
%TO.C,D31*%
X111125000Y-46863000D03*
D22*
X111125000Y-51943000D03*
%TD*%
D21*
%TO.C,D30*%
X104775000Y-127889000D03*
D22*
X104775000Y-132969000D03*
%TD*%
D21*
%TO.C,D29*%
X95250000Y-108839000D03*
D22*
X95250000Y-113919000D03*
%TD*%
D21*
%TO.C,D28*%
X90551000Y-89789000D03*
D22*
X90551000Y-94869000D03*
%TD*%
D21*
%TO.C,D27*%
X81026000Y-70739000D03*
D22*
X81026000Y-75819000D03*
%TD*%
D21*
%TO.C,D26*%
X87376000Y-46863000D03*
D22*
X87376000Y-51943000D03*
%TD*%
D26*
%TO.C,D25*%
X165671500Y-14795500D03*
D27*
X163131500Y-14795500D03*
%TD*%
D26*
%TO.C,D24*%
X153797000Y-14795500D03*
D27*
X156337000Y-14795500D03*
%TD*%
D21*
%TO.C,D23*%
X85725000Y-127889000D03*
D22*
X85725000Y-132969000D03*
%TD*%
D21*
%TO.C,D22*%
X76200000Y-108839000D03*
D22*
X76200000Y-113919000D03*
%TD*%
D21*
%TO.C,D21*%
X71501000Y-89789000D03*
D22*
X71501000Y-94869000D03*
%TD*%
D21*
%TO.C,D20*%
X61976000Y-70739000D03*
D22*
X61976000Y-75819000D03*
%TD*%
D21*
%TO.C,D19*%
X68326000Y-46863000D03*
D22*
X68326000Y-51943000D03*
%TD*%
D21*
%TO.C,D18*%
X55880000Y-146939000D03*
D22*
X55880000Y-152019000D03*
%TD*%
D21*
%TO.C,D17*%
X66675000Y-127889000D03*
D22*
X66675000Y-132969000D03*
%TD*%
D21*
%TO.C,D16*%
X57150000Y-108839000D03*
D22*
X57150000Y-113919000D03*
%TD*%
D21*
%TO.C,D15*%
X52451000Y-89789000D03*
D22*
X52451000Y-94869000D03*
%TD*%
D21*
%TO.C,D13*%
X49276000Y-46863000D03*
D22*
X49276000Y-51943000D03*
%TD*%
D21*
%TO.C,D12*%
X31750000Y-146939000D03*
D22*
X31750000Y-152019000D03*
%TD*%
D21*
%TO.C,D11*%
X47625000Y-127889000D03*
D22*
X47625000Y-132969000D03*
%TD*%
D21*
%TO.C,D10*%
X38100000Y-108839000D03*
D22*
X38100000Y-113919000D03*
%TD*%
D21*
%TO.C,D9*%
X33401000Y-89789000D03*
D22*
X33401000Y-94869000D03*
%TD*%
D21*
%TO.C,D8*%
X23876000Y-70739000D03*
D22*
X23876000Y-75819000D03*
%TD*%
D21*
%TO.C,D7*%
X30226000Y-46863000D03*
D22*
X30226000Y-51943000D03*
%TD*%
D21*
%TO.C,D6*%
X7620000Y-146939000D03*
D22*
X7620000Y-152019000D03*
%TD*%
D21*
%TO.C,D5*%
X13970000Y-138442700D03*
D22*
X8890000Y-138442700D03*
%TD*%
D21*
%TO.C,D4*%
X11938000Y-108839000D03*
D22*
X11938000Y-113919000D03*
%TD*%
D21*
%TO.C,D3*%
X9525000Y-89789000D03*
D22*
X9525000Y-94869000D03*
%TD*%
D21*
%TO.C,D2*%
X4826000Y-70739000D03*
D22*
X4826000Y-75819000D03*
%TD*%
D21*
%TO.C,D1*%
X4826000Y-46863000D03*
D22*
X4826000Y-51943000D03*
%TD*%
M02*
