%TF.GenerationSoftware,KiCad,Pcbnew,(5.1.10)-1*%
%TF.CreationDate,2021-06-02T05:42:33-04:00*%
%TF.ProjectId,pi75,70693735-2e6b-4696-9361-645f70636258,rev?*%
%TF.SameCoordinates,Original*%
%TF.FileFunction,Soldermask,Bot*%
%TF.FilePolarity,Negative*%
%FSLAX46Y46*%
G04 Gerber Fmt 4.6, Leading zero omitted, Abs format (unit mm)*
G04 Created by KiCad (PCBNEW (5.1.10)-1) date 2021-06-02 05:42:33*
%MOMM*%
%LPD*%
G01*
G04 APERTURE LIST*
%TA.AperFunction,Profile*%
%ADD10C,0.050000*%
%TD*%
%ADD11C,0.300000*%
%ADD12C,1.524000*%
%ADD13C,4.400000*%
%ADD14C,1.651000*%
%ADD15C,3.987800*%
%ADD16C,3.048000*%
%ADD17R,2.550000X2.500000*%
%ADD18C,1.750000*%
%ADD19C,3.000000*%
%ADD20O,1.700000X1.700000*%
%ADD21R,1.700000X1.700000*%
%ADD22O,1.600000X1.600000*%
%ADD23R,1.600000X1.600000*%
%ADD24C,2.000000*%
%ADD25R,2.000000X2.000000*%
%ADD26R,2.000000X3.200000*%
%ADD27C,1.800000*%
%ADD28R,1.800000X1.800000*%
G04 APERTURE END LIST*
D10*
X297815000Y-160528000D02*
X-12065000Y-160528000D01*
X301625000Y-9398000D02*
X301625000Y-156718000D01*
X297815000Y-5588000D02*
G75*
G02*
X301625000Y-9398000I0J-3810000D01*
G01*
X-12065000Y-160528000D02*
G75*
G02*
X-15875000Y-156718000I0J3810000D01*
G01*
X301625000Y-156718000D02*
G75*
G02*
X297815000Y-160528000I-3810000J0D01*
G01*
X-15875000Y-9398000D02*
G75*
G02*
X-12065000Y-5588000I3810000J0D01*
G01*
X-15875000Y-9398000D02*
X-15875000Y-156718000D01*
X297815000Y-5588000D02*
X-12065000Y-5588000D01*
D11*
X86289636Y-23129761D02*
X86039636Y-21129761D01*
X85277732Y-21129761D01*
X85099160Y-21225000D01*
X85015827Y-21320238D01*
X84944398Y-21510714D01*
X84980113Y-21796428D01*
X85099160Y-21986904D01*
X85206303Y-22082142D01*
X85408684Y-22177380D01*
X86170589Y-22177380D01*
X84289636Y-23129761D02*
X84122970Y-21796428D01*
X84039636Y-21129761D02*
X84146779Y-21225000D01*
X84063446Y-21320238D01*
X83956303Y-21225000D01*
X84039636Y-21129761D01*
X84063446Y-21320238D01*
X81753922Y-21129761D02*
X80420589Y-21129761D01*
X81527732Y-23129761D01*
X78706303Y-21129761D02*
X79658684Y-21129761D01*
X79872970Y-22082142D01*
X79765827Y-21986904D01*
X79563446Y-21891666D01*
X79087255Y-21891666D01*
X78908684Y-21986904D01*
X78825351Y-22082142D01*
X78753922Y-22272619D01*
X78813446Y-22748809D01*
X78932494Y-22939285D01*
X79039636Y-23034523D01*
X79242017Y-23129761D01*
X79718208Y-23129761D01*
X79896779Y-23034523D01*
X79980113Y-22939285D01*
D12*
%TO.C,J1*%
X297230800Y-18186400D03*
X297230800Y-20726400D03*
X297230800Y-23266400D03*
X297230800Y-25806400D03*
%TD*%
%TO.C,OL1*%
X189839000Y-28575000D03*
X189839000Y-26035000D03*
X189839000Y-23495000D03*
X189839000Y-20955000D03*
%TD*%
D13*
%TO.C,REF\u002A\u002A*%
X273951700Y-61201300D03*
%TD*%
%TO.C,REF\u002A\u002A*%
X143510000Y-142303500D03*
%TD*%
%TO.C,REF\u002A\u002A*%
X11823700Y-61201300D03*
%TD*%
%TO.C,REF\u002A\u002A*%
X258838700Y-129527300D03*
%TD*%
%TO.C,REF\u002A\u002A*%
X26936700Y-129527300D03*
%TD*%
D14*
%TO.C,R1*%
X164084000Y-28194000D03*
X174244000Y-28194000D03*
%TD*%
%TO.C,R2*%
X164084000Y-21209000D03*
X174244000Y-21209000D03*
%TD*%
D13*
%TO.C,H1*%
X143522700Y-61074300D03*
%TD*%
D15*
%TO.C,K72*%
X241268250Y-64770000D03*
X265144250Y-64770000D03*
D16*
X241268250Y-80010000D03*
X265144250Y-80010000D03*
D17*
X259048250Y-67945000D03*
X246121250Y-70485000D03*
D18*
X258286250Y-73025000D03*
X248126250Y-73025000D03*
D19*
X249396250Y-70485000D03*
D15*
X253206250Y-73025000D03*
D19*
X255746250Y-67945000D03*
%TD*%
D15*
%TO.C,K74*%
X238887000Y-102870000D03*
X262763000Y-102870000D03*
D16*
X238887000Y-118110000D03*
X262763000Y-118110000D03*
D17*
X256667000Y-106045000D03*
X243740000Y-108585000D03*
D18*
X255905000Y-111125000D03*
X245745000Y-111125000D03*
D19*
X247015000Y-108585000D03*
D15*
X250825000Y-111125000D03*
D19*
X253365000Y-106045000D03*
%TD*%
D15*
%TO.C,K39*%
X67475100Y-140970000D03*
X167474900Y-140970000D03*
D16*
X67475100Y-156210000D03*
X167474900Y-156210000D03*
D17*
X123317000Y-144145000D03*
X110390000Y-146685000D03*
D18*
X122555000Y-149225000D03*
X112395000Y-149225000D03*
D19*
X113665000Y-146685000D03*
D15*
X117475000Y-149225000D03*
D19*
X120015000Y-144145000D03*
%TD*%
D15*
%TO.C,K5*%
X-4000500Y-121920000D03*
X19875500Y-121920000D03*
D16*
X-4000500Y-137160000D03*
X19875500Y-137160000D03*
D17*
X13779500Y-125095000D03*
X852500Y-127635000D03*
D18*
X13017500Y-130175000D03*
X2857500Y-130175000D03*
D19*
X4127500Y-127635000D03*
D15*
X7937500Y-130175000D03*
D19*
X10477500Y-125095000D03*
%TD*%
D13*
%TO.C,REF\u002A\u002A*%
X143510000Y-8890000D03*
%TD*%
D20*
%TO.C,U1*%
X266319000Y-16891000D03*
X263779000Y-16891000D03*
D21*
X261239000Y-16891000D03*
D20*
X258699000Y-16891000D03*
X256159000Y-16891000D03*
X253619000Y-16891000D03*
X251079000Y-16891000D03*
D21*
X248539000Y-16891000D03*
D20*
X245999000Y-16891000D03*
X243459000Y-16891000D03*
X240919000Y-16891000D03*
X238379000Y-16891000D03*
D21*
X235839000Y-16891000D03*
D20*
X233299000Y-16891000D03*
X230759000Y-16891000D03*
X228219000Y-16891000D03*
X225679000Y-16891000D03*
D21*
X223139000Y-16891000D03*
D20*
X220599000Y-16891000D03*
X218059000Y-16891000D03*
X218059000Y-34671000D03*
X220599000Y-34671000D03*
D21*
X223139000Y-34671000D03*
D20*
X225679000Y-34671000D03*
X228219000Y-34671000D03*
X230759000Y-34671000D03*
X233299000Y-34671000D03*
D21*
X235839000Y-34671000D03*
D20*
X238379000Y-34671000D03*
X240919000Y-34671000D03*
X243459000Y-34671000D03*
X245999000Y-34671000D03*
D21*
X248539000Y-34671000D03*
D20*
X251079000Y-34671000D03*
X253619000Y-34671000D03*
X256159000Y-34671000D03*
X258699000Y-34671000D03*
D21*
X261239000Y-34671000D03*
D20*
X263779000Y-34671000D03*
X266319000Y-34671000D03*
X218289000Y-23241000D03*
D21*
X218289000Y-25781000D03*
D20*
X218289000Y-28321000D03*
%TD*%
D22*
%TO.C,D14*%
X42926000Y-70739000D03*
D23*
X42926000Y-75819000D03*
%TD*%
D13*
%TO.C,REF\u002A\u002A*%
X-11430000Y-34417000D03*
%TD*%
%TO.C,REF\u002A\u002A*%
X-11430000Y-8890000D03*
%TD*%
%TO.C,REF\u002A\u002A*%
X297180000Y-34290000D03*
%TD*%
%TO.C,REF\u002A\u002A*%
X297180000Y-8890000D03*
%TD*%
D24*
%TO.C,SW2*%
X151384000Y-27836000D03*
X146884000Y-27836000D03*
X151384000Y-21336000D03*
X146884000Y-21336000D03*
%TD*%
D17*
%TO.C,K17*%
X63785750Y-125095000D03*
X50858750Y-127635000D03*
D18*
X63023750Y-130175000D03*
X52863750Y-130175000D03*
D19*
X54133750Y-127635000D03*
D15*
X57943750Y-130175000D03*
D19*
X60483750Y-125095000D03*
%TD*%
D25*
%TO.C,SW1*%
X292100000Y-42068750D03*
D24*
X289600000Y-42068750D03*
X287100000Y-42068750D03*
D26*
X295200000Y-49568750D03*
X284000000Y-49568750D03*
D24*
X292100000Y-56568750D03*
X287100000Y-56568750D03*
%TD*%
D17*
%TO.C,K81*%
X295560750Y-144145000D03*
X282633750Y-146685000D03*
D18*
X294798750Y-149225000D03*
X284638750Y-149225000D03*
D19*
X285908750Y-146685000D03*
D15*
X289718750Y-149225000D03*
D19*
X292258750Y-144145000D03*
%TD*%
D17*
%TO.C,K80*%
X295560750Y-125095000D03*
X282633750Y-127635000D03*
D18*
X294798750Y-130175000D03*
X284638750Y-130175000D03*
D19*
X285908750Y-127635000D03*
D15*
X289718750Y-130175000D03*
D19*
X292258750Y-125095000D03*
%TD*%
D17*
%TO.C,K79*%
X295560750Y-106045000D03*
X282633750Y-108585000D03*
D18*
X294798750Y-111125000D03*
X284638750Y-111125000D03*
D19*
X285908750Y-108585000D03*
D15*
X289718750Y-111125000D03*
D19*
X292258750Y-106045000D03*
%TD*%
D17*
%TO.C,K78*%
X295560750Y-86995000D03*
X282633750Y-89535000D03*
D18*
X294798750Y-92075000D03*
X284638750Y-92075000D03*
D19*
X285908750Y-89535000D03*
D15*
X289718750Y-92075000D03*
D19*
X292258750Y-86995000D03*
%TD*%
D17*
%TO.C,K77*%
X295560750Y-67945000D03*
X282633750Y-70485000D03*
D18*
X294798750Y-73025000D03*
X284638750Y-73025000D03*
D19*
X285908750Y-70485000D03*
D15*
X289718750Y-73025000D03*
D19*
X292258750Y-67945000D03*
%TD*%
D17*
%TO.C,K76*%
X276510750Y-144145000D03*
X263583750Y-146685000D03*
D18*
X275748750Y-149225000D03*
X265588750Y-149225000D03*
D19*
X266858750Y-146685000D03*
D15*
X270668750Y-149225000D03*
D19*
X273208750Y-144145000D03*
%TD*%
D17*
%TO.C,K75*%
X276510750Y-125095000D03*
X263583750Y-127635000D03*
D18*
X275748750Y-130175000D03*
X265588750Y-130175000D03*
D19*
X266858750Y-127635000D03*
D15*
X270668750Y-130175000D03*
D19*
X273208750Y-125095000D03*
%TD*%
D17*
%TO.C,K73*%
X263810750Y-86995000D03*
X250883750Y-89535000D03*
D18*
X263048750Y-92075000D03*
X252888750Y-92075000D03*
D19*
X254158750Y-89535000D03*
D15*
X257968750Y-92075000D03*
D19*
X260508750Y-86995000D03*
%TD*%
D17*
%TO.C,K71*%
X270954500Y-44132500D03*
X258027500Y-46672500D03*
D18*
X270192500Y-49212500D03*
X260032500Y-49212500D03*
D19*
X261302500Y-46672500D03*
D15*
X265112500Y-49212500D03*
D19*
X267652500Y-44132500D03*
%TD*%
D17*
%TO.C,K70*%
X257460750Y-144145000D03*
X244533750Y-146685000D03*
D18*
X256698750Y-149225000D03*
X246538750Y-149225000D03*
D19*
X247808750Y-146685000D03*
D15*
X251618750Y-149225000D03*
D19*
X254158750Y-144145000D03*
%TD*%
D17*
%TO.C,K69*%
X239998250Y-86995000D03*
X227071250Y-89535000D03*
D18*
X239236250Y-92075000D03*
X229076250Y-92075000D03*
D19*
X230346250Y-89535000D03*
D15*
X234156250Y-92075000D03*
D19*
X236696250Y-86995000D03*
%TD*%
D17*
%TO.C,K68*%
X230473250Y-67945000D03*
X217546250Y-70485000D03*
D18*
X229711250Y-73025000D03*
X219551250Y-73025000D03*
D19*
X220821250Y-70485000D03*
D15*
X224631250Y-73025000D03*
D19*
X227171250Y-67945000D03*
%TD*%
D17*
%TO.C,K67*%
X246348250Y-44132500D03*
X233421250Y-46672500D03*
D18*
X245586250Y-49212500D03*
X235426250Y-49212500D03*
D19*
X236696250Y-46672500D03*
D15*
X240506250Y-49212500D03*
D19*
X243046250Y-44132500D03*
%TD*%
D17*
%TO.C,K66*%
X246348250Y-125095000D03*
X233421250Y-127635000D03*
D18*
X245586250Y-130175000D03*
X235426250Y-130175000D03*
D19*
X236696250Y-127635000D03*
D15*
X240506250Y-130175000D03*
D19*
X243046250Y-125095000D03*
%TD*%
D17*
%TO.C,K65*%
X225710750Y-106045000D03*
X212783750Y-108585000D03*
D18*
X224948750Y-111125000D03*
X214788750Y-111125000D03*
D19*
X216058750Y-108585000D03*
D15*
X219868750Y-111125000D03*
D19*
X222408750Y-106045000D03*
%TD*%
D17*
%TO.C,K64*%
X220948250Y-86995000D03*
X208021250Y-89535000D03*
D18*
X220186250Y-92075000D03*
X210026250Y-92075000D03*
D19*
X211296250Y-89535000D03*
D15*
X215106250Y-92075000D03*
D19*
X217646250Y-86995000D03*
%TD*%
D17*
%TO.C,K63*%
X211423250Y-67945000D03*
X198496250Y-70485000D03*
D18*
X210661250Y-73025000D03*
X200501250Y-73025000D03*
D19*
X201771250Y-70485000D03*
D15*
X205581250Y-73025000D03*
D19*
X208121250Y-67945000D03*
%TD*%
D17*
%TO.C,K62*%
X227298250Y-44132500D03*
X214371250Y-46672500D03*
D18*
X226536250Y-49212500D03*
X216376250Y-49212500D03*
D19*
X217646250Y-46672500D03*
D15*
X221456250Y-49212500D03*
D19*
X223996250Y-44132500D03*
%TD*%
D17*
%TO.C,K61*%
X225710750Y-144145000D03*
X212783750Y-146685000D03*
D18*
X224948750Y-149225000D03*
X214788750Y-149225000D03*
D19*
X216058750Y-146685000D03*
D15*
X219868750Y-149225000D03*
D19*
X222408750Y-144145000D03*
%TD*%
D17*
%TO.C,K60*%
X216185750Y-125095000D03*
X203258750Y-127635000D03*
D18*
X215423750Y-130175000D03*
X205263750Y-130175000D03*
D19*
X206533750Y-127635000D03*
D15*
X210343750Y-130175000D03*
D19*
X212883750Y-125095000D03*
%TD*%
D17*
%TO.C,K59*%
X206660750Y-106045000D03*
X193733750Y-108585000D03*
D18*
X205898750Y-111125000D03*
X195738750Y-111125000D03*
D19*
X197008750Y-108585000D03*
D15*
X200818750Y-111125000D03*
D19*
X203358750Y-106045000D03*
%TD*%
D17*
%TO.C,K58*%
X201898250Y-86995000D03*
X188971250Y-89535000D03*
D18*
X201136250Y-92075000D03*
X190976250Y-92075000D03*
D19*
X192246250Y-89535000D03*
D15*
X196056250Y-92075000D03*
D19*
X198596250Y-86995000D03*
%TD*%
D17*
%TO.C,K57*%
X192373250Y-67945000D03*
X179446250Y-70485000D03*
D18*
X191611250Y-73025000D03*
X181451250Y-73025000D03*
D19*
X182721250Y-70485000D03*
D15*
X186531250Y-73025000D03*
D19*
X189071250Y-67945000D03*
%TD*%
D17*
%TO.C,K56*%
X208248250Y-44132500D03*
X195321250Y-46672500D03*
D18*
X207486250Y-49212500D03*
X197326250Y-49212500D03*
D19*
X198596250Y-46672500D03*
D15*
X202406250Y-49212500D03*
D19*
X204946250Y-44132500D03*
%TD*%
D17*
%TO.C,K55*%
X197135750Y-144145000D03*
X184208750Y-146685000D03*
D18*
X196373750Y-149225000D03*
X186213750Y-149225000D03*
D19*
X187483750Y-146685000D03*
D15*
X191293750Y-149225000D03*
D19*
X193833750Y-144145000D03*
%TD*%
D17*
%TO.C,K54*%
X197135750Y-125095000D03*
X184208750Y-127635000D03*
D18*
X196373750Y-130175000D03*
X186213750Y-130175000D03*
D19*
X187483750Y-127635000D03*
D15*
X191293750Y-130175000D03*
D19*
X193833750Y-125095000D03*
%TD*%
D17*
%TO.C,K53*%
X187610750Y-106045000D03*
X174683750Y-108585000D03*
D18*
X186848750Y-111125000D03*
X176688750Y-111125000D03*
D19*
X177958750Y-108585000D03*
D15*
X181768750Y-111125000D03*
D19*
X184308750Y-106045000D03*
%TD*%
D17*
%TO.C,K52*%
X182848250Y-86995000D03*
X169921250Y-89535000D03*
D18*
X182086250Y-92075000D03*
X171926250Y-92075000D03*
D19*
X173196250Y-89535000D03*
D15*
X177006250Y-92075000D03*
D19*
X179546250Y-86995000D03*
%TD*%
D17*
%TO.C,K51*%
X173323250Y-67945000D03*
X160396250Y-70485000D03*
D18*
X172561250Y-73025000D03*
X162401250Y-73025000D03*
D19*
X163671250Y-70485000D03*
D15*
X167481250Y-73025000D03*
D19*
X170021250Y-67945000D03*
%TD*%
D17*
%TO.C,K50*%
X189198250Y-44132500D03*
X176271250Y-46672500D03*
D18*
X188436250Y-49212500D03*
X178276250Y-49212500D03*
D19*
X179546250Y-46672500D03*
D15*
X183356250Y-49212500D03*
D19*
X185896250Y-44132500D03*
%TD*%
D17*
%TO.C,K49*%
X178085750Y-125095000D03*
X165158750Y-127635000D03*
D18*
X177323750Y-130175000D03*
X167163750Y-130175000D03*
D19*
X168433750Y-127635000D03*
D15*
X172243750Y-130175000D03*
D19*
X174783750Y-125095000D03*
%TD*%
D17*
%TO.C,K48*%
X168560750Y-106045000D03*
X155633750Y-108585000D03*
D18*
X167798750Y-111125000D03*
X157638750Y-111125000D03*
D19*
X158908750Y-108585000D03*
D15*
X162718750Y-111125000D03*
D19*
X165258750Y-106045000D03*
%TD*%
D17*
%TO.C,K47*%
X163798250Y-86995000D03*
X150871250Y-89535000D03*
D18*
X163036250Y-92075000D03*
X152876250Y-92075000D03*
D19*
X154146250Y-89535000D03*
D15*
X157956250Y-92075000D03*
D19*
X160496250Y-86995000D03*
%TD*%
D17*
%TO.C,K46*%
X154273250Y-67945000D03*
X141346250Y-70485000D03*
D18*
X153511250Y-73025000D03*
X143351250Y-73025000D03*
D19*
X144621250Y-70485000D03*
D15*
X148431250Y-73025000D03*
D19*
X150971250Y-67945000D03*
%TD*%
D17*
%TO.C,K45*%
X165385750Y-44132500D03*
X152458750Y-46672500D03*
D18*
X164623750Y-49212500D03*
X154463750Y-49212500D03*
D19*
X155733750Y-46672500D03*
D15*
X159543750Y-49212500D03*
D19*
X162083750Y-44132500D03*
%TD*%
D17*
%TO.C,K44*%
X159035750Y-125095000D03*
X146108750Y-127635000D03*
D18*
X158273750Y-130175000D03*
X148113750Y-130175000D03*
D19*
X149383750Y-127635000D03*
D15*
X153193750Y-130175000D03*
D19*
X155733750Y-125095000D03*
%TD*%
D17*
%TO.C,K43*%
X149510750Y-106045000D03*
X136583750Y-108585000D03*
D18*
X148748750Y-111125000D03*
X138588750Y-111125000D03*
D19*
X139858750Y-108585000D03*
D15*
X143668750Y-111125000D03*
D19*
X146208750Y-106045000D03*
%TD*%
D17*
%TO.C,K42*%
X144748250Y-86995000D03*
X131821250Y-89535000D03*
D18*
X143986250Y-92075000D03*
X133826250Y-92075000D03*
D19*
X135096250Y-89535000D03*
D15*
X138906250Y-92075000D03*
D19*
X141446250Y-86995000D03*
%TD*%
D17*
%TO.C,K41*%
X135223250Y-67945000D03*
X122296250Y-70485000D03*
D18*
X134461250Y-73025000D03*
X124301250Y-73025000D03*
D19*
X125571250Y-70485000D03*
D15*
X129381250Y-73025000D03*
D19*
X131921250Y-67945000D03*
%TD*%
D17*
%TO.C,K40*%
X146335750Y-44132500D03*
X133408750Y-46672500D03*
D18*
X145573750Y-49212500D03*
X135413750Y-49212500D03*
D19*
X136683750Y-46672500D03*
D15*
X140493750Y-49212500D03*
D19*
X143033750Y-44132500D03*
%TD*%
D17*
%TO.C,K38*%
X139985750Y-125095000D03*
X127058750Y-127635000D03*
D18*
X139223750Y-130175000D03*
X129063750Y-130175000D03*
D19*
X130333750Y-127635000D03*
D15*
X134143750Y-130175000D03*
D19*
X136683750Y-125095000D03*
%TD*%
D17*
%TO.C,K37*%
X130460750Y-106045000D03*
X117533750Y-108585000D03*
D18*
X129698750Y-111125000D03*
X119538750Y-111125000D03*
D19*
X120808750Y-108585000D03*
D15*
X124618750Y-111125000D03*
D19*
X127158750Y-106045000D03*
%TD*%
D17*
%TO.C,K36*%
X125698250Y-86995000D03*
X112771250Y-89535000D03*
D18*
X124936250Y-92075000D03*
X114776250Y-92075000D03*
D19*
X116046250Y-89535000D03*
D15*
X119856250Y-92075000D03*
D19*
X122396250Y-86995000D03*
%TD*%
D17*
%TO.C,K35*%
X116173250Y-67945000D03*
X103246250Y-70485000D03*
D18*
X115411250Y-73025000D03*
X105251250Y-73025000D03*
D19*
X106521250Y-70485000D03*
D15*
X110331250Y-73025000D03*
D19*
X112871250Y-67945000D03*
%TD*%
D17*
%TO.C,K34*%
X127285750Y-44132500D03*
X114358750Y-46672500D03*
D18*
X126523750Y-49212500D03*
X116363750Y-49212500D03*
D19*
X117633750Y-46672500D03*
D15*
X121443750Y-49212500D03*
D19*
X123983750Y-44132500D03*
%TD*%
D17*
%TO.C,K33*%
X120935750Y-125095000D03*
X108008750Y-127635000D03*
D18*
X120173750Y-130175000D03*
X110013750Y-130175000D03*
D19*
X111283750Y-127635000D03*
D15*
X115093750Y-130175000D03*
D19*
X117633750Y-125095000D03*
%TD*%
D17*
%TO.C,K32*%
X111410750Y-106045000D03*
X98483750Y-108585000D03*
D18*
X110648750Y-111125000D03*
X100488750Y-111125000D03*
D19*
X101758750Y-108585000D03*
D15*
X105568750Y-111125000D03*
D19*
X108108750Y-106045000D03*
%TD*%
D17*
%TO.C,K31*%
X106648250Y-86995000D03*
X93721250Y-89535000D03*
D18*
X105886250Y-92075000D03*
X95726250Y-92075000D03*
D19*
X96996250Y-89535000D03*
D15*
X100806250Y-92075000D03*
D19*
X103346250Y-86995000D03*
%TD*%
D17*
%TO.C,K30*%
X97123250Y-67945000D03*
X84196250Y-70485000D03*
D18*
X96361250Y-73025000D03*
X86201250Y-73025000D03*
D19*
X87471250Y-70485000D03*
D15*
X91281250Y-73025000D03*
D19*
X93821250Y-67945000D03*
%TD*%
D17*
%TO.C,K29*%
X108235750Y-44132500D03*
X95308750Y-46672500D03*
D18*
X107473750Y-49212500D03*
X97313750Y-49212500D03*
D19*
X98583750Y-46672500D03*
D15*
X102393750Y-49212500D03*
D19*
X104933750Y-44132500D03*
%TD*%
D17*
%TO.C,K28*%
X101885750Y-125095000D03*
X88958750Y-127635000D03*
D18*
X101123750Y-130175000D03*
X90963750Y-130175000D03*
D19*
X92233750Y-127635000D03*
D15*
X96043750Y-130175000D03*
D19*
X98583750Y-125095000D03*
%TD*%
D17*
%TO.C,K27*%
X92360750Y-106045000D03*
X79433750Y-108585000D03*
D18*
X91598750Y-111125000D03*
X81438750Y-111125000D03*
D19*
X82708750Y-108585000D03*
D15*
X86518750Y-111125000D03*
D19*
X89058750Y-106045000D03*
%TD*%
D17*
%TO.C,K26*%
X87598250Y-86995000D03*
X74671250Y-89535000D03*
D18*
X86836250Y-92075000D03*
X76676250Y-92075000D03*
D19*
X77946250Y-89535000D03*
D15*
X81756250Y-92075000D03*
D19*
X84296250Y-86995000D03*
%TD*%
D17*
%TO.C,K25*%
X78073250Y-67945000D03*
X65146250Y-70485000D03*
D18*
X77311250Y-73025000D03*
X67151250Y-73025000D03*
D19*
X68421250Y-70485000D03*
D15*
X72231250Y-73025000D03*
D19*
X74771250Y-67945000D03*
%TD*%
D17*
%TO.C,K24*%
X84423250Y-44132500D03*
X71496250Y-46672500D03*
D18*
X83661250Y-49212500D03*
X73501250Y-49212500D03*
D19*
X74771250Y-46672500D03*
D15*
X78581250Y-49212500D03*
D19*
X81121250Y-44132500D03*
%TD*%
D17*
%TO.C,K23*%
X82835750Y-125095000D03*
X69908750Y-127635000D03*
D18*
X82073750Y-130175000D03*
X71913750Y-130175000D03*
D19*
X73183750Y-127635000D03*
D15*
X76993750Y-130175000D03*
D19*
X79533750Y-125095000D03*
%TD*%
D17*
%TO.C,K22*%
X73310750Y-106045000D03*
X60383750Y-108585000D03*
D18*
X72548750Y-111125000D03*
X62388750Y-111125000D03*
D19*
X63658750Y-108585000D03*
D15*
X67468750Y-111125000D03*
D19*
X70008750Y-106045000D03*
%TD*%
D17*
%TO.C,K21*%
X68548250Y-86995000D03*
X55621250Y-89535000D03*
D18*
X67786250Y-92075000D03*
X57626250Y-92075000D03*
D19*
X58896250Y-89535000D03*
D15*
X62706250Y-92075000D03*
D19*
X65246250Y-86995000D03*
%TD*%
D17*
%TO.C,K20*%
X59023250Y-67945000D03*
X46096250Y-70485000D03*
D18*
X58261250Y-73025000D03*
X48101250Y-73025000D03*
D19*
X49371250Y-70485000D03*
D15*
X53181250Y-73025000D03*
D19*
X55721250Y-67945000D03*
%TD*%
D17*
%TO.C,K19*%
X65373250Y-44132500D03*
X52446250Y-46672500D03*
D18*
X64611250Y-49212500D03*
X54451250Y-49212500D03*
D19*
X55721250Y-46672500D03*
D15*
X59531250Y-49212500D03*
D19*
X62071250Y-44132500D03*
%TD*%
D17*
%TO.C,K18*%
X51879500Y-144145000D03*
X38952500Y-146685000D03*
D18*
X51117500Y-149225000D03*
X40957500Y-149225000D03*
D19*
X42227500Y-146685000D03*
D15*
X46037500Y-149225000D03*
D19*
X48577500Y-144145000D03*
%TD*%
D17*
%TO.C,K16*%
X54260750Y-106045000D03*
X41333750Y-108585000D03*
D18*
X53498750Y-111125000D03*
X43338750Y-111125000D03*
D19*
X44608750Y-108585000D03*
D15*
X48418750Y-111125000D03*
D19*
X50958750Y-106045000D03*
%TD*%
D17*
%TO.C,K15*%
X49498250Y-86995000D03*
X36571250Y-89535000D03*
D18*
X48736250Y-92075000D03*
X38576250Y-92075000D03*
D19*
X39846250Y-89535000D03*
D15*
X43656250Y-92075000D03*
D19*
X46196250Y-86995000D03*
%TD*%
D17*
%TO.C,K14*%
X39973250Y-67945000D03*
X27046250Y-70485000D03*
D18*
X39211250Y-73025000D03*
X29051250Y-73025000D03*
D19*
X30321250Y-70485000D03*
D15*
X34131250Y-73025000D03*
D19*
X36671250Y-67945000D03*
%TD*%
D17*
%TO.C,K13*%
X46323250Y-44132500D03*
X33396250Y-46672500D03*
D18*
X45561250Y-49212500D03*
X35401250Y-49212500D03*
D19*
X36671250Y-46672500D03*
D15*
X40481250Y-49212500D03*
D19*
X43021250Y-44132500D03*
%TD*%
D17*
%TO.C,K12*%
X28067000Y-144145000D03*
X15140000Y-146685000D03*
D18*
X27305000Y-149225000D03*
X17145000Y-149225000D03*
D19*
X18415000Y-146685000D03*
D15*
X22225000Y-149225000D03*
D19*
X24765000Y-144145000D03*
%TD*%
D17*
%TO.C,K11*%
X44735750Y-125095000D03*
X31808750Y-127635000D03*
D18*
X43973750Y-130175000D03*
X33813750Y-130175000D03*
D19*
X35083750Y-127635000D03*
D15*
X38893750Y-130175000D03*
D19*
X41433750Y-125095000D03*
%TD*%
D17*
%TO.C,K10*%
X35210750Y-106045000D03*
X22283750Y-108585000D03*
D18*
X34448750Y-111125000D03*
X24288750Y-111125000D03*
D19*
X25558750Y-108585000D03*
D15*
X29368750Y-111125000D03*
D19*
X31908750Y-106045000D03*
%TD*%
D17*
%TO.C,K9*%
X30448250Y-86995000D03*
X17521250Y-89535000D03*
D18*
X29686250Y-92075000D03*
X19526250Y-92075000D03*
D19*
X20796250Y-89535000D03*
D15*
X24606250Y-92075000D03*
D19*
X27146250Y-86995000D03*
%TD*%
D17*
%TO.C,K8*%
X20923250Y-67945000D03*
X7996250Y-70485000D03*
D18*
X20161250Y-73025000D03*
X10001250Y-73025000D03*
D19*
X11271250Y-70485000D03*
D15*
X15081250Y-73025000D03*
D19*
X17621250Y-67945000D03*
%TD*%
D17*
%TO.C,K7*%
X27273250Y-44132500D03*
X14346250Y-46672500D03*
D18*
X26511250Y-49212500D03*
X16351250Y-49212500D03*
D19*
X17621250Y-46672500D03*
D15*
X21431250Y-49212500D03*
D19*
X23971250Y-44132500D03*
%TD*%
D17*
%TO.C,K6*%
X4254500Y-144145000D03*
X-8672500Y-146685000D03*
D18*
X3492500Y-149225000D03*
X-6667500Y-149225000D03*
D19*
X-5397500Y-146685000D03*
D15*
X-1587500Y-149225000D03*
D19*
X952500Y-144145000D03*
%TD*%
D17*
%TO.C,K4*%
X9017000Y-106045000D03*
X-3910000Y-108585000D03*
D18*
X8255000Y-111125000D03*
X-1905000Y-111125000D03*
D19*
X-635000Y-108585000D03*
D15*
X3175000Y-111125000D03*
D19*
X5715000Y-106045000D03*
%TD*%
D17*
%TO.C,K3*%
X6635750Y-86995000D03*
X-6291250Y-89535000D03*
D18*
X5873750Y-92075000D03*
X-4286250Y-92075000D03*
D19*
X-3016250Y-89535000D03*
D15*
X793750Y-92075000D03*
D19*
X3333750Y-86995000D03*
%TD*%
D17*
%TO.C,K2*%
X1873250Y-67945000D03*
X-11053750Y-70485000D03*
D18*
X1111250Y-73025000D03*
X-9048750Y-73025000D03*
D19*
X-7778750Y-70485000D03*
D15*
X-3968750Y-73025000D03*
D19*
X-1428750Y-67945000D03*
%TD*%
D17*
%TO.C,K1*%
X1873250Y-44132500D03*
X-11053750Y-46672500D03*
D18*
X1111250Y-49212500D03*
X-9048750Y-49212500D03*
D19*
X-7778750Y-46672500D03*
D15*
X-3968750Y-49212500D03*
D19*
X-1428750Y-44132500D03*
%TD*%
D22*
%TO.C,D84*%
X297815000Y-146939000D03*
D23*
X297815000Y-152019000D03*
%TD*%
D22*
%TO.C,D83*%
X298450000Y-127889000D03*
D23*
X298450000Y-132969000D03*
%TD*%
D22*
%TO.C,D82*%
X298450000Y-108966000D03*
D23*
X298450000Y-114046000D03*
%TD*%
D22*
%TO.C,D81*%
X298450000Y-89789000D03*
D23*
X298450000Y-94869000D03*
%TD*%
D22*
%TO.C,D80*%
X298450000Y-70739000D03*
D23*
X298450000Y-75819000D03*
%TD*%
D22*
%TO.C,D79*%
X281051000Y-56896000D03*
D23*
X281051000Y-51816000D03*
%TD*%
D22*
%TO.C,D78*%
X279400000Y-146939000D03*
D23*
X279400000Y-152019000D03*
%TD*%
D22*
%TO.C,D77*%
X279400000Y-127889000D03*
D23*
X279400000Y-132969000D03*
%TD*%
D22*
%TO.C,D76*%
X256921000Y-119164100D03*
D23*
X251841000Y-119164100D03*
%TD*%
D22*
%TO.C,D75*%
X266700000Y-89789000D03*
D23*
X266700000Y-94869000D03*
%TD*%
D22*
%TO.C,D74*%
X259359400Y-81241900D03*
D23*
X254279400Y-81241900D03*
%TD*%
D22*
%TO.C,D73*%
X273812000Y-46736000D03*
D23*
X273812000Y-51816000D03*
%TD*%
D22*
%TO.C,D72*%
X260350000Y-146939000D03*
D23*
X260350000Y-152019000D03*
%TD*%
D22*
%TO.C,D71*%
X242951000Y-89789000D03*
D23*
X242951000Y-94869000D03*
%TD*%
D22*
%TO.C,D70*%
X233426000Y-70739000D03*
D23*
X233426000Y-75819000D03*
%TD*%
D22*
%TO.C,D69*%
X249301000Y-46736000D03*
D23*
X249301000Y-51816000D03*
%TD*%
D22*
%TO.C,D68*%
X250190000Y-127889000D03*
D23*
X250190000Y-132969000D03*
%TD*%
D22*
%TO.C,D67*%
X228600000Y-108839000D03*
D23*
X228600000Y-113919000D03*
%TD*%
D22*
%TO.C,D66*%
X223901000Y-89789000D03*
D23*
X223901000Y-94869000D03*
%TD*%
D22*
%TO.C,D65*%
X214376000Y-70739000D03*
D23*
X214376000Y-75819000D03*
%TD*%
D22*
%TO.C,D64*%
X230251000Y-46736000D03*
D23*
X230251000Y-51816000D03*
%TD*%
D22*
%TO.C,D63*%
X228600000Y-146939000D03*
D23*
X228600000Y-152019000D03*
%TD*%
D22*
%TO.C,D62*%
X219075000Y-127889000D03*
D23*
X219075000Y-132969000D03*
%TD*%
D22*
%TO.C,D61*%
X209550000Y-108839000D03*
D23*
X209550000Y-113919000D03*
%TD*%
D22*
%TO.C,D60*%
X204851000Y-89789000D03*
D23*
X204851000Y-94869000D03*
%TD*%
D22*
%TO.C,D59*%
X195326000Y-70739000D03*
D23*
X195326000Y-75819000D03*
%TD*%
D22*
%TO.C,D58*%
X211201000Y-46736000D03*
D23*
X211201000Y-51816000D03*
%TD*%
D22*
%TO.C,D57*%
X200025000Y-146939000D03*
D23*
X200025000Y-152019000D03*
%TD*%
D22*
%TO.C,D56*%
X200025000Y-127889000D03*
D23*
X200025000Y-132969000D03*
%TD*%
D22*
%TO.C,D55*%
X190500000Y-108839000D03*
D23*
X190500000Y-113919000D03*
%TD*%
D22*
%TO.C,D54*%
X185801000Y-89789000D03*
D23*
X185801000Y-94869000D03*
%TD*%
D22*
%TO.C,D53*%
X176276000Y-70739000D03*
D23*
X176276000Y-75819000D03*
%TD*%
D22*
%TO.C,D52*%
X192151000Y-46736000D03*
D23*
X192151000Y-51816000D03*
%TD*%
D22*
%TO.C,D51*%
X180975000Y-127889000D03*
D23*
X180975000Y-132969000D03*
%TD*%
D22*
%TO.C,D50*%
X171450000Y-108839000D03*
D23*
X171450000Y-113919000D03*
%TD*%
D22*
%TO.C,D49*%
X166751000Y-89789000D03*
D23*
X166751000Y-94869000D03*
%TD*%
D22*
%TO.C,D48*%
X157226000Y-70739000D03*
D23*
X157226000Y-75819000D03*
%TD*%
D22*
%TO.C,D47*%
X168275000Y-46736000D03*
D23*
X168275000Y-51816000D03*
%TD*%
D22*
%TO.C,D46*%
X161925000Y-127889000D03*
D23*
X161925000Y-132969000D03*
%TD*%
D22*
%TO.C,D45*%
X152400000Y-108839000D03*
D23*
X152400000Y-113919000D03*
%TD*%
D22*
%TO.C,D44*%
X147701000Y-89789000D03*
D23*
X147701000Y-94869000D03*
%TD*%
D22*
%TO.C,D43*%
X138176000Y-70739000D03*
D23*
X138176000Y-75819000D03*
%TD*%
D22*
%TO.C,D42*%
X149225000Y-46736000D03*
D23*
X149225000Y-51816000D03*
%TD*%
D22*
%TO.C,D41*%
X127000000Y-146939000D03*
D23*
X127000000Y-152019000D03*
%TD*%
D22*
%TO.C,D40*%
X142875000Y-127889000D03*
D23*
X142875000Y-132969000D03*
%TD*%
D22*
%TO.C,D39*%
X133350000Y-108839000D03*
D23*
X133350000Y-113919000D03*
%TD*%
D22*
%TO.C,D38*%
X128651000Y-89789000D03*
D23*
X128651000Y-94869000D03*
%TD*%
D22*
%TO.C,D37*%
X119126000Y-70739000D03*
D23*
X119126000Y-75819000D03*
%TD*%
D22*
%TO.C,D36*%
X130175000Y-46863000D03*
D23*
X130175000Y-51943000D03*
%TD*%
D22*
%TO.C,D35*%
X123825000Y-127889000D03*
D23*
X123825000Y-132969000D03*
%TD*%
D22*
%TO.C,D34*%
X114300000Y-108839000D03*
D23*
X114300000Y-113919000D03*
%TD*%
D22*
%TO.C,D33*%
X109601000Y-89789000D03*
D23*
X109601000Y-94869000D03*
%TD*%
D22*
%TO.C,D32*%
X100076000Y-70739000D03*
D23*
X100076000Y-75819000D03*
%TD*%
D22*
%TO.C,D31*%
X111125000Y-46863000D03*
D23*
X111125000Y-51943000D03*
%TD*%
D22*
%TO.C,D30*%
X104775000Y-127889000D03*
D23*
X104775000Y-132969000D03*
%TD*%
D22*
%TO.C,D29*%
X95250000Y-108839000D03*
D23*
X95250000Y-113919000D03*
%TD*%
D22*
%TO.C,D28*%
X90551000Y-89789000D03*
D23*
X90551000Y-94869000D03*
%TD*%
D22*
%TO.C,D27*%
X81026000Y-70739000D03*
D23*
X81026000Y-75819000D03*
%TD*%
D22*
%TO.C,D26*%
X87376000Y-46863000D03*
D23*
X87376000Y-51943000D03*
%TD*%
D27*
%TO.C,D25*%
X165671500Y-14795500D03*
D28*
X163131500Y-14795500D03*
%TD*%
D27*
%TO.C,D24*%
X153797000Y-14795500D03*
D28*
X156337000Y-14795500D03*
%TD*%
D22*
%TO.C,D23*%
X85725000Y-127889000D03*
D23*
X85725000Y-132969000D03*
%TD*%
D22*
%TO.C,D22*%
X76200000Y-108839000D03*
D23*
X76200000Y-113919000D03*
%TD*%
D22*
%TO.C,D21*%
X71501000Y-89789000D03*
D23*
X71501000Y-94869000D03*
%TD*%
D22*
%TO.C,D20*%
X61976000Y-70739000D03*
D23*
X61976000Y-75819000D03*
%TD*%
D22*
%TO.C,D19*%
X68326000Y-46863000D03*
D23*
X68326000Y-51943000D03*
%TD*%
D22*
%TO.C,D18*%
X55880000Y-146939000D03*
D23*
X55880000Y-152019000D03*
%TD*%
D22*
%TO.C,D17*%
X66675000Y-127889000D03*
D23*
X66675000Y-132969000D03*
%TD*%
D22*
%TO.C,D16*%
X57150000Y-108839000D03*
D23*
X57150000Y-113919000D03*
%TD*%
D22*
%TO.C,D15*%
X52451000Y-89789000D03*
D23*
X52451000Y-94869000D03*
%TD*%
D22*
%TO.C,D13*%
X49276000Y-46863000D03*
D23*
X49276000Y-51943000D03*
%TD*%
D22*
%TO.C,D12*%
X31750000Y-146939000D03*
D23*
X31750000Y-152019000D03*
%TD*%
D22*
%TO.C,D11*%
X47625000Y-127889000D03*
D23*
X47625000Y-132969000D03*
%TD*%
D22*
%TO.C,D10*%
X38100000Y-108839000D03*
D23*
X38100000Y-113919000D03*
%TD*%
D22*
%TO.C,D9*%
X33401000Y-89789000D03*
D23*
X33401000Y-94869000D03*
%TD*%
D22*
%TO.C,D8*%
X23876000Y-70739000D03*
D23*
X23876000Y-75819000D03*
%TD*%
D22*
%TO.C,D7*%
X30226000Y-46863000D03*
D23*
X30226000Y-51943000D03*
%TD*%
D22*
%TO.C,D6*%
X7620000Y-146939000D03*
D23*
X7620000Y-152019000D03*
%TD*%
D22*
%TO.C,D5*%
X13970000Y-138442700D03*
D23*
X8890000Y-138442700D03*
%TD*%
D22*
%TO.C,D4*%
X11938000Y-108839000D03*
D23*
X11938000Y-113919000D03*
%TD*%
D22*
%TO.C,D3*%
X9525000Y-89789000D03*
D23*
X9525000Y-94869000D03*
%TD*%
D22*
%TO.C,D2*%
X4826000Y-70739000D03*
D23*
X4826000Y-75819000D03*
%TD*%
D22*
%TO.C,D1*%
X4826000Y-46863000D03*
D23*
X4826000Y-51943000D03*
%TD*%
M02*
